<svg width="108" height="122" left="200" viewBox="0 0 108 122" fill="none" xmlns="http://www.w3.org/2000/svg">
<g clip-path="url(#clip0_1202_6562)">
<path d="M20.448 105.195C21.7134 105.195 22.837 105.449 23.8155 105.952C24.7941 106.458 25.5668 107.228 26.1303 108.267C26.6938 109.307 26.9772 110.637 26.9772 112.261V121.407H22.3477V112.974C22.3477 111.687 22.0812 110.735 21.5447 110.124C21.0115 109.51 20.2591 109.203 19.2907 109.203C18.6192 109.203 18.0152 109.355 17.4787 109.662C16.9455 109.969 16.5305 110.428 16.2336 111.043C15.9366 111.657 15.7882 112.437 15.7882 113.389V121.407H11.1587V112.974C11.1587 111.687 10.8955 110.735 10.3725 110.124C9.84947 109.51 9.10038 109.203 8.13197 109.203C7.46049 109.203 6.8565 109.355 6.31999 109.662C5.78686 109.969 5.37183 110.428 5.07489 111.043C4.77796 111.657 4.62949 112.437 4.62949 113.389V121.407H0V105.432H2.78377C3.68807 105.432 4.42366 106.164 4.42366 107.072V109.797L3.59359 108.521C4.14697 107.434 4.93317 106.606 5.9522 106.043C6.97123 105.479 8.13535 105.195 9.43781 105.195C10.9022 105.195 12.1845 105.567 13.2811 106.309C14.3777 107.052 15.1066 108.186 15.4642 109.709L13.8311 109.263C14.3642 108.018 15.2213 107.025 16.3989 106.293C17.5765 105.56 18.9262 105.195 20.4514 105.195H20.448Z" fill="#E60023"/>
<path d="M36.0614 121.646C34.8163 121.646 33.7467 121.434 32.8558 121.008C31.965 120.583 31.2834 120.002 30.8077 119.27C30.3319 118.537 30.0957 117.717 30.0957 116.805C30.0957 115.894 30.3285 115.023 30.7942 114.31C31.2598 113.598 31.9954 113.038 33.0043 112.633C34.0132 112.227 35.3292 112.025 36.9522 112.025H41.197V114.726H37.4583C36.3685 114.726 35.6227 114.905 35.2178 115.259C34.8129 115.614 34.6105 116.059 34.6105 116.596C34.6105 117.19 34.8433 117.659 35.3089 118.007C35.7746 118.355 36.4123 118.527 37.2221 118.527C38.032 118.527 38.6866 118.345 39.3007 117.977C39.9148 117.612 40.3602 117.072 40.6369 116.36L41.3489 118.497C41.0114 119.526 40.4007 120.31 39.5099 120.843C38.6191 121.376 37.4718 121.643 36.0681 121.643L36.0614 121.646ZM40.9305 121.41V118.291L40.6335 117.609V112.025C40.6335 111.036 40.3332 110.263 39.7292 109.709C39.1252 109.155 38.2007 108.879 36.9556 108.879C36.1053 108.879 35.2684 109.014 34.4485 109.28C33.6286 109.547 32.9301 109.908 32.3565 110.364L30.6929 107.126C31.5635 106.512 32.6129 106.039 33.8378 105.702C35.066 105.364 36.3111 105.195 37.5764 105.195C40.0093 105.195 41.8989 105.769 43.2452 106.917C44.5915 108.065 45.263 109.858 45.263 112.292V121.407H40.9305V121.41Z" fill="#E60023"/>
<path d="M49.4434 121.41V99.3784H54.0728V121.41H49.4434ZM53.2731 118.146L53.3912 112.504L60.8416 105.438H66.3619L59.2085 112.714L56.806 114.675L53.2731 118.149V118.146ZM61.3444 121.41L55.9422 114.699L58.8508 111.107L66.9524 121.41H61.3444Z" fill="#E60023"/>
<path d="M73.663 121.646C72.4179 121.646 71.3482 121.434 70.4574 121.008C69.5666 120.583 68.885 120.002 68.4092 119.27C67.9335 118.537 67.6973 117.717 67.6973 116.805C67.6973 115.894 67.9301 115.023 68.3957 114.31C68.8614 113.598 69.597 113.038 70.6059 112.633C71.6148 112.227 72.9307 112.025 74.5538 112.025H78.7986V114.726H75.0599C73.97 114.726 73.2243 114.905 72.8194 115.259C72.4145 115.614 72.212 116.059 72.212 116.596C72.212 117.19 72.4449 117.659 72.9105 118.007C73.3761 118.355 74.0139 118.527 74.8237 118.527C75.6335 118.527 76.2881 118.345 76.9023 117.977C77.5164 117.612 77.9618 117.072 78.2385 116.36L78.9504 118.497C78.613 119.526 78.0023 120.31 77.1115 120.843C76.2206 121.376 75.0734 121.643 73.6697 121.643L73.663 121.646ZM78.532 121.41V118.291L78.2351 117.609V112.025C78.2351 111.036 77.9348 110.263 77.3308 109.709C76.7268 109.155 75.8022 108.879 74.5571 108.879C73.7068 108.879 72.87 109.014 72.0501 109.28C71.2301 109.547 70.5316 109.908 69.958 110.364L68.2945 107.126C69.1651 106.512 70.2145 106.039 71.4393 105.702C72.6676 105.364 73.9127 105.195 75.178 105.195C77.6108 105.195 79.5004 105.769 80.8468 106.917C82.1931 108.065 82.8646 109.858 82.8646 112.292V121.407H78.532V121.41Z" fill="#E60023"/>
<path d="M92.4178 121.646C91.0512 121.646 89.742 121.484 88.4868 121.157C87.2315 120.829 86.2361 120.421 85.5039 119.925L87.0459 116.599C87.7782 117.055 88.642 117.426 89.6441 117.713C90.6429 118 91.6282 118.146 92.5966 118.146C93.6663 118.146 94.4221 118.017 94.8675 117.761C95.3129 117.504 95.5356 117.146 95.5356 116.69C95.5356 116.316 95.3635 116.032 95.016 115.843C94.6684 115.654 94.2095 115.512 93.6359 115.411C93.0623 115.313 92.4346 115.212 91.753 115.114C91.0714 115.016 90.3831 114.881 89.6914 114.712C88.9996 114.543 88.3653 114.294 87.7917 113.956C87.218 113.618 86.7591 113.166 86.4116 112.589C86.064 112.015 85.8919 111.272 85.8919 110.361C85.8919 109.351 86.1821 108.46 86.7659 107.687C87.3496 106.914 88.1966 106.306 89.3033 105.86C90.4101 105.415 91.7362 105.192 93.2816 105.192C94.3681 105.192 95.4782 105.31 96.6052 105.55C97.7322 105.786 98.6737 106.134 99.4261 106.59L97.8841 109.885C97.1114 109.429 96.3353 109.118 95.5558 108.949C94.773 108.781 94.0172 108.696 93.285 108.696C92.2558 108.696 91.5033 108.835 91.0309 109.111C90.5552 109.388 90.319 109.746 90.319 110.182C90.319 110.577 90.4911 110.874 90.8386 111.073C91.1862 111.272 91.6451 111.431 92.2187 111.549C92.7923 111.667 93.4199 111.772 94.1015 111.859C94.7831 111.947 95.4715 112.082 96.1632 112.261C96.8549 112.44 97.4825 112.693 98.046 113.017C98.6095 113.345 99.0684 113.791 99.4261 114.354C99.7838 114.918 99.9592 115.657 99.9592 116.566C99.9592 117.555 99.6623 118.432 99.0684 119.192C98.4746 119.955 97.6175 120.553 96.5006 120.988C95.3837 121.424 94.0239 121.64 92.4211 121.64L92.4178 121.646Z" fill="#E60023"/>
<path d="M105.122 103.207C104.272 103.207 103.58 102.96 103.044 102.464C102.511 101.968 102.244 101.357 102.244 100.624C102.244 99.8916 102.511 99.2771 103.044 98.7842C103.577 98.288 104.272 98.0415 105.122 98.0415C105.973 98.0415 106.664 98.2744 107.201 98.7403C107.734 99.2062 108.001 99.8038 108.001 100.536C108.001 101.309 107.737 101.948 107.214 102.451C106.691 102.954 105.993 103.207 105.122 103.207ZM102.808 121.41V105.435H107.437V121.41H102.808Z" fill="#E60023"/>
<path d="M30.0538 22.2946H19.0132C17.8289 22.2946 16.8672 21.3324 16.8672 20.1474V14.6243C16.8672 10.3942 20.3056 6.9541 24.5335 6.9541C28.7615 6.9541 32.1998 10.3942 32.1998 14.6243V20.1474C32.1998 21.3324 31.2382 22.2946 30.0538 22.2946ZM21.1626 18.0003H27.9078V14.6243C27.9078 12.7642 26.3961 11.2484 24.5335 11.2484C22.6709 11.2484 21.1592 12.7608 21.1592 14.6243V18.0003H21.1626Z" fill="#E60023"/>
<path d="M71.625 37.3444C70.967 36.1291 70.0627 35.2277 68.9188 34.6369C67.7716 34.0461 66.459 33.749 64.981 33.749C63.1994 33.749 61.6236 34.1778 60.247 35.0353C59.4641 35.5214 58.8028 36.1088 58.2629 36.7942C57.8344 36.0886 57.2776 35.5045 56.6061 35.0522C55.3205 34.1879 53.8257 33.7524 52.115 33.7524C50.5898 33.7524 49.2334 34.0832 48.0422 34.7449C47.3539 35.123 46.7567 35.6024 46.2539 36.1899C46.2539 34.9981 45.2888 34.0326 44.0977 34.0326H41.0879V69.8484L45.1404 67.8194C45.9704 67.4042 46.4968 66.5534 46.4968 65.6251V43.3301C46.4968 42.2194 46.6723 41.3045 47.0165 40.5888C47.364 39.8731 47.8465 39.3329 48.4742 38.975C49.0984 38.6206 49.8002 38.4383 50.5898 38.4383C51.7202 38.4383 52.5941 38.7961 53.2082 39.5152C53.819 40.2309 54.126 41.3416 54.126 42.8439V63.326L58.1819 61.297C59.012 60.8818 59.5384 60.031 59.5384 59.1027V43.3334C59.5384 42.2227 59.7104 41.3078 60.058 40.5921C60.4055 39.8764 60.8914 39.3363 61.5157 38.9784C62.1399 38.6239 62.8451 38.4416 63.6313 38.4416C64.7617 38.4416 65.6424 38.7995 66.2666 39.5186C66.8909 40.2343 67.2047 41.345 67.2047 42.8473V56.7867L71.2572 54.7578C72.0872 54.3425 72.6136 53.4918 72.6136 52.5634V42.0134C72.6136 40.1161 72.2863 38.5632 71.625 37.3478V37.3444Z" fill="#E60023"/>
<path d="M82.4871 79.0516C81.3027 79.0516 80.3411 78.0895 80.3411 76.9045V19.7795C80.3411 15.0768 77.3852 11.2518 73.7478 11.2518H56.2691C55.0847 11.2518 54.123 10.2896 54.123 9.10464C54.123 7.91967 55.0847 6.95752 56.2691 6.95752H73.7478C79.7506 6.95752 84.6331 12.7102 84.6331 19.7829V76.9045C84.6331 78.0895 83.6715 79.0516 82.4871 79.0516Z" fill="#E60023"/>
<path d="M75.9341 91.3231H36.6104C31.8089 91.3231 27.9082 86.7689 27.9082 81.1682V14.6242C27.9082 13.4392 28.8699 12.4771 30.0542 12.4771C31.2386 12.4771 32.2003 13.4392 32.2003 14.6242V81.1682C32.2003 84.345 34.2181 87.0289 36.607 87.0289H75.9374C77.1218 87.0289 78.0835 87.991 78.0835 89.176C78.0835 90.361 77.1218 91.3231 75.9374 91.3231H75.9341Z" fill="#E60023"/>
<path d="M42.9434 17.8517C38.1215 17.8517 34.1973 13.9255 34.1973 9.10118C34.1973 4.2769 38.1215 0.354004 42.9434 0.354004C47.7652 0.354004 51.6894 4.28027 51.6894 9.10118C51.6894 13.9221 47.7652 17.8517 42.9434 17.8517ZM42.9434 4.64825C40.4903 4.64825 38.4927 6.64684 38.4927 9.10118C38.4927 11.5555 40.4903 13.5541 42.9434 13.5541C45.3964 13.5541 47.394 11.5555 47.394 9.10118C47.394 6.64684 45.3964 4.64825 42.9434 4.64825Z" fill="#E60023"/>
<path d="M86.1063 91.3233H69.7918C68.6074 91.3233 67.6457 90.3611 67.6457 89.1762C67.6457 87.9912 68.6074 87.029 69.7918 87.029H86.1063C87.2941 87.029 88.6202 85.2972 88.6202 82.8124V80.5843H45.7232V82.8124C45.7232 87.5861 42.7336 91.3233 38.9173 91.3233H38.3335C37.1492 91.3233 36.1875 90.3611 36.1875 89.1762C36.1875 87.9912 37.1492 87.029 38.3335 87.029H38.9173C40.105 87.029 41.4311 85.2972 41.4311 82.8124V78.4372C41.4311 77.2522 42.3928 76.29 43.5771 76.29H90.7696C91.9539 76.29 92.9156 77.2522 92.9156 78.4372V82.8124C92.9156 87.5861 89.926 91.3233 86.1097 91.3233H86.1063Z" fill="#E60023"/>
</g>
<defs>
<clipPath id="clip0_1202_6562">
<rect width="108" height="121.292" fill="white" transform="translate(0 0.354004)"/>
</clipPath>
</defs>
</svg>
