<svg width="200" height="68" viewBox="0 0 200 68" fill="none" xmlns="http://www.w3.org/2000/svg">
<path d="M39.5976 49.0243C37.639 49.0244 35.7295 49.6369 34.1364 50.7761L26.8185 43.4204C28.9941 40.7411 30.1809 37.3945 30.1792 33.9432C30.1842 30.5809 29.0598 27.3145 26.9865 24.6676L34.3885 17.2824C35.9309 18.311 37.7436 18.8592 39.5976 18.8578C42.0638 18.8057 44.4115 17.7895 46.1372 16.0269C47.863 14.2643 48.8295 11.8957 48.8295 9.42889C48.8295 6.96211 47.863 4.59351 46.1372 2.83092C44.4115 1.06833 42.0638 0.0520594 39.5976 0V0C37.896 0.000182873 36.2262 0.460919 34.7653 1.33334C33.3044 2.20575 32.1069 3.45732 31.2998 4.95527C30.4927 6.45323 30.106 8.14172 30.1809 9.84163C30.2558 11.5415 30.7894 13.1895 31.7251 14.6107L24.3063 22.0042C21.6616 19.9563 18.4093 18.849 15.0644 18.8578C11.0671 18.8633 7.23549 20.4552 4.41098 23.2836C1.58646 26.1121 -3.87472e-06 29.9459 0 33.9432H0C-7.68406e-08 35.924 0.390225 37.8854 1.14839 39.7155C1.90655 41.5455 3.0178 43.2082 4.41866 44.6087C5.81952 46.0091 7.48256 47.1199 9.31277 47.8776C11.143 48.6352 13.1045 49.0249 15.0854 49.0243C18.3344 49.0304 21.4978 47.9823 24.1005 46.0375L31.5655 53.5319C30.6545 55.0126 30.1717 56.7168 30.1708 58.4553C30.1708 60.9555 31.1639 63.3532 32.9318 65.1211C34.6997 66.889 37.0974 67.8821 39.5976 67.8821C42.0977 67.8821 44.4954 66.889 46.2633 65.1211C48.0312 63.3532 49.0243 60.9555 49.0243 58.4553C49.0249 57.217 48.7815 55.9908 48.308 54.8466C47.8345 53.7024 47.1402 52.6627 46.2648 51.7869C45.3894 50.9111 44.35 50.2163 43.206 49.7423C42.062 49.2683 40.8358 49.0243 39.5976 49.0243Z" fill="#1B55A3"/>
<path d="M58.4847 5.94824H56.5312V20.4287H58.4847V5.94824Z" fill="#1B55A3"/>
<path d="M58.9546 1.3483C58.9497 1.16549 58.9087 0.985466 58.8339 0.81858C58.7592 0.651694 58.6521 0.501247 58.519 0.375905C58.3858 0.250563 58.2292 0.152803 58.0581 0.0882558C57.887 0.0237086 57.7048 -0.00635031 57.522 -0.000189565C57.1502 -0.00582007 56.7913 0.135942 56.5237 0.394124C56.256 0.652306 56.1015 1.00592 56.0938 1.3777C56.117 1.74371 56.2798 2.08685 56.5485 2.33644C56.8172 2.58603 57.1714 2.72306 57.5381 2.71929C57.9048 2.71552 58.2561 2.57124 58.5197 2.31618C58.7832 2.06112 58.9388 1.7147 58.9546 1.3483Z" fill="#1B55A3"/>
<path d="M63.139 12.8292C63.139 9.52735 65.0924 7.59914 68.2052 7.59914C70.961 7.59914 72.5573 9.16607 72.5573 12.2201V20.4286H74.5108V12.0269C74.5108 7.868 72.0869 5.83057 68.5623 5.83057C66.0418 5.83057 64.1052 6.85138 63.0591 8.61155V5.94819H61.1855V20.4286H63.139V12.8292Z" fill="#1B55A3"/>
<path d="M77.3963 16.3538C77.3963 19.0256 78.9129 20.5547 81.635 20.5547C82.7435 20.5893 83.8279 20.2273 84.6933 19.5339L84.0169 18.1434C83.4141 18.6519 82.6461 18.9224 81.8577 18.9038C80.2319 18.9038 79.3371 17.967 79.3371 16.2614V7.59918H83.7397V5.94823H79.3539V2.78076H77.3963V5.94823H74.8086V7.59918H77.3963V16.3538Z" fill="#1B55A3"/>
<path d="M91.1056 20.5841C93.3908 20.5841 95.4031 19.7439 96.6969 18.2148L95.5963 16.9545C95.0382 17.5717 94.3521 18.0595 93.5858 18.3838C92.8196 18.7082 91.9917 18.8612 91.1602 18.8323C87.9927 18.8323 85.699 16.8201 85.4596 13.7912H97.5749C97.5749 13.5686 97.6001 13.3502 97.6001 13.1821C97.6001 8.8342 94.6595 5.83057 90.5804 5.83057C86.5014 5.83057 83.502 8.88881 83.502 13.1821C83.502 17.4754 86.5938 20.5841 91.1056 20.5841ZM90.5846 7.53193C93.4202 7.53193 95.4871 9.51474 95.7349 12.3503H85.4638C85.699 9.49794 87.7743 7.51512 90.5846 7.51512V7.53193Z" fill="#1B55A3"/>
<path d="M100.797 13.0479C100.797 9.63676 102.642 7.70856 105.67 7.70856C105.809 7.70856 105.973 7.73796 106.137 7.73796V5.83496C103.465 5.83496 101.621 6.85578 100.713 8.77558V5.94838H98.8398V20.4288H100.797V13.0479Z" fill="#1B55A3"/>
<path d="M112.768 20.5841C115.222 20.5841 117.284 19.5927 118.44 17.7191L116.982 16.7277C116.514 17.4019 115.884 17.9477 115.15 18.3147C114.416 18.6818 113.601 18.8583 112.781 18.8281C109.618 18.8281 107.32 16.5974 107.32 13.1821C107.32 9.76679 109.605 7.56132 112.768 7.56132C113.592 7.53928 114.408 7.72424 115.142 8.09926C115.876 8.47429 116.504 9.0274 116.969 9.70798L118.427 8.71657C117.272 6.81777 115.209 5.85156 112.756 5.85156C108.433 5.85156 105.295 8.8804 105.295 13.2031C105.295 17.5258 108.446 20.5841 112.768 20.5841Z" fill="#1B55A3"/>
<path d="M125.187 20.5841C129.43 20.5841 132.539 17.5006 132.539 13.2031C132.539 8.90561 129.43 5.85156 125.187 5.85156C120.944 5.85156 117.811 8.90981 117.811 13.2031C117.811 17.4964 120.944 20.5841 125.187 20.5841ZM125.187 7.56132C128.271 7.56132 130.556 9.8172 130.556 13.2031C130.556 16.589 128.267 18.8323 125.187 18.8323C122.108 18.8323 119.793 16.5722 119.793 13.1863C119.793 9.8004 122.1 7.56132 125.187 7.56132Z" fill="#1B55A3"/>
<path d="M135.727 12.8292C135.727 9.52735 137.681 7.59914 140.789 7.59914C143.545 7.59914 145.141 9.16607 145.141 12.2201V20.4286H147.099V12.0269C147.099 7.868 144.675 5.83057 141.15 5.83057C138.63 5.83057 136.689 6.85138 135.643 8.61155V5.94819H133.77V20.4286H135.727V12.8292Z" fill="#1B55A3"/>
<path d="M151.607 12.8292C151.607 9.52735 153.564 7.59914 156.673 7.59914C159.429 7.59914 161.025 9.16607 161.025 12.2201V20.4286H162.995V12.0269C162.995 7.868 160.571 5.83057 157.047 5.83057C154.526 5.83057 152.59 6.85138 151.544 8.61155V5.94819H149.67V20.4286H151.623L151.607 12.8292Z" fill="#1B55A3"/>
<path d="M171.728 20.5841C174.014 20.5841 176.026 19.7439 177.32 18.2148L176.219 16.9546C175.663 17.5751 174.977 18.0665 174.211 18.3945C173.445 18.7225 172.616 18.8791 171.783 18.8534C168.62 18.8534 166.322 16.8411 166.087 13.8123H178.03C178.311 17.8073 181.348 20.5841 185.465 20.5841C187.914 20.5841 189.981 19.5927 191.136 17.7191L189.679 16.7277C189.211 17.402 188.581 17.9477 187.847 18.3148C187.113 18.6818 186.298 18.8584 185.478 18.8281C182.31 18.8281 180.017 16.5975 180.017 13.1822C180.017 9.76684 182.319 7.56137 185.465 7.56137C186.289 7.53933 187.105 7.72428 187.839 8.09931C188.573 8.47433 189.201 9.02745 189.666 9.70803L191.141 8.69981C190.893 8.29568 190.594 7.92566 190.25 7.59918H192.708V16.3538C192.708 19.0256 194.22 20.5547 196.946 20.5547C198.055 20.5893 199.139 20.2273 200.004 19.5339L199.316 18.1308C198.716 18.6413 197.952 18.916 197.165 18.9038C195.539 18.9038 194.644 17.967 194.644 16.2614V7.59918H199.051V5.94823H194.657V2.78076H192.703V5.94823H190.116V7.46055C188.825 6.35402 187.164 5.77366 185.465 5.83481C181.613 5.83481 178.706 8.24612 178.118 11.8295C177.572 8.22511 174.841 5.83481 171.207 5.83481C167.133 5.83481 164.129 8.89305 164.129 13.1864C164.129 17.4797 167.217 20.5841 171.728 20.5841ZM171.207 7.53197C174.043 7.53197 176.106 9.51478 176.353 12.3504H166.087C166.355 9.49798 168.397 7.51516 171.207 7.51516V7.53197Z" fill="#1B55A3"/>
<path d="M74.6161 28.0747H56.5312V67.8823H74.6161C87.6388 67.8823 96.5699 60.0351 96.5699 47.9785C96.5699 35.922 87.6388 28.0747 74.6161 28.0747ZM74.1624 60.3207H65.7606V35.6363H74.1624C82.0684 35.6363 87.2439 40.3581 87.2439 47.9785C87.2439 55.5989 82.0684 60.3207 74.1624 60.3207Z" fill="#1B55A3"/>
<path d="M109.757 28.0747L92 67.8823H101.452L104.981 59.3503H123.465L126.993 67.8823H136.655L118.856 28.0747H109.757ZM107.938 52.3558L114.239 37.115L120.541 52.3558H107.938Z" fill="#1B55A3"/>
<path d="M163.322 28.0747H128.631V35.5817H141.368V67.8823H150.58V35.5817H163.322V28.0747Z" fill="#1B55A3"/>
<path d="M173.098 28.0747L155.357 67.8823H164.797L168.321 59.3503H186.805L190.33 67.8823H199.992L182.197 28.0747H173.098ZM171.279 52.3558L177.58 37.115L183.881 52.3558H171.279Z" fill="#1B55A3"/>
</svg>
