<svg width="176" height="107" viewBox="0 0 176 107" fill="none" xmlns="http://www.w3.org/2000/svg">
<path d="M79.8301 9.22136C79.8301 7.96405 80.8395 6.94165 82.0808 6.94165C83.3222 6.94165 84.3316 7.96405 84.3316 9.22136C84.3316 10.4787 83.3222 11.5011 82.0808 11.5011C80.8395 11.5011 79.8301 10.4787 79.8301 9.22136Z" fill="#E60023"/>
<path d="M95.5926 49.1107H83.0474C83.3273 48.4774 83.4859 47.7416 83.4859 46.9503V45.8104H105.178V46.9503C105.178 48.223 104.507 49.1087 103.906 49.1087H95.6578C95.6461 49.1087 95.6345 49.1089 95.623 49.1093L95.6116 49.1097L95.5926 49.1107Z" fill="#E60023"/>
<path d="M74.4767 12.031C74.4677 11.0857 73.707 10.3208 72.7716 10.3208C71.8306 10.3208 71.0664 11.0948 71.0664 12.0479V13.775H74.4766V12.0479L74.4767 12.031Z" fill="#E60023"/>
<path fill-rule="evenodd" clip-rule="evenodd" d="M59.2842 8C59.2842 3.58172 62.8659 0 67.2842 0H108.961C113.379 0 116.961 3.58172 116.961 8V48.9125C116.961 53.3308 113.379 56.9125 108.961 56.9125H67.2842C62.8659 56.9125 59.2842 53.3308 59.2842 48.9125V8ZM77.6592 9.22136C77.6592 11.6917 79.6419 13.6999 82.0808 13.6999C84.5198 13.6999 86.5025 11.6917 86.5025 9.22136C86.5025 6.75103 84.5179 4.7428 82.0808 4.7428C79.6438 4.7428 77.6592 6.75103 77.6592 9.22136ZM69.981 15.9739C69.3822 15.9739 68.8955 15.481 68.8955 14.8745V12.0479C68.8955 9.88372 70.6349 8.12195 72.7716 8.12195C74.9083 8.12195 76.6477 9.88372 76.6477 12.0479V14.8745L76.6475 14.8961V46.1108C76.6475 47.7359 77.6683 49.1107 78.8754 49.1107H79.6833C79.7049 49.1094 79.7267 49.1087 79.7485 49.1087H80.0432C80.6439 49.1087 81.3149 48.223 81.3149 46.9503V44.711C81.3149 44.1045 81.8016 43.6116 82.4004 43.6116H100.989V14.6858C100.989 12.279 99.4928 10.3208 97.6545 10.3208H88.8169C88.2181 10.3208 87.7314 9.82789 87.7314 9.22137C87.7314 8.61486 88.2181 8.12195 88.8169 8.12195H97.6545C100.69 8.12195 103.158 11.0659 103.158 14.6858V43.6116H106.261C106.86 43.6116 107.347 44.1045 107.347 44.711V46.9503C107.347 49.3937 105.836 51.3075 103.904 51.3075H98.8268C98.8052 51.3088 98.7834 51.3095 98.7615 51.3095V51.3076H78.8773C76.4498 51.3076 74.4766 48.9759 74.4766 46.1089V15.9739H69.981ZM95.2166 22.2931C95.7945 22.5935 96.2507 23.0556 96.5834 23.6775L96.591 23.6698C96.9256 24.2918 97.0909 25.0889 97.0909 26.0593V31.4602C97.0909 31.9377 96.8248 32.3709 96.4047 32.5846L94.3554 33.6224V26.4867C94.3554 25.7166 94.1957 25.1486 93.8802 24.7827C93.5646 24.415 93.1198 24.2321 92.5476 24.2321C92.1503 24.2321 91.7929 24.3245 91.4774 24.5074C91.1637 24.6903 90.9166 24.9676 90.7417 25.3334C90.5668 25.7012 90.4793 26.1691 90.4793 26.7371V34.8104C90.4793 35.2879 90.2132 35.7211 89.7931 35.9349L87.7419 36.9727V26.4887C87.7419 25.7185 87.5861 25.1505 87.2781 24.7847C86.9663 24.4169 86.5253 24.234 85.9531 24.234C85.5539 24.234 85.1984 24.3264 84.8829 24.5093C84.5673 24.6922 84.3221 24.9695 84.1472 25.3353C83.9704 25.7031 83.883 26.171 83.883 26.739V38.151C83.883 38.6286 83.6168 39.0618 83.1967 39.2755L81.1475 40.3133V21.9812H82.6701C83.2709 21.9812 83.7594 22.4741 83.7594 23.0845C84.0122 22.7841 84.3145 22.5377 84.6624 22.3451C85.2631 22.0082 85.9512 21.8387 86.7211 21.8387C87.5861 21.8387 88.3427 22.0621 88.9928 22.5049C89.3312 22.736 89.6125 23.0344 89.8292 23.3964C90.103 23.046 90.4375 22.7476 90.8329 22.4972C91.5287 22.0582 92.3252 21.8387 93.2263 21.8387C93.9733 21.8387 94.6368 21.9909 95.2166 22.2931Z" fill="#E60023"/>
<path d="M167.92 75.9121C168.791 76.7089 169.918 77.1073 171.308 77.1073L171.313 77.1022C172.729 77.1022 173.867 76.6986 174.721 75.8862C175.571 75.0739 176.001 74.0494 176.001 72.8077C176.001 71.6331 175.566 70.6708 174.695 69.9205C173.825 69.1703 172.697 68.7977 171.308 68.7977C169.918 68.7977 168.791 69.1961 167.92 69.9929C167.05 70.7898 166.615 71.7728 166.615 72.9525C166.615 74.1322 167.05 75.1153 167.92 75.9121Z" fill="#E60023"/>
<path d="M167.538 80.6878V106.362H175.083V80.6878H167.538Z" fill="#E60023"/>
<path d="M80.5771 70.9502V106.362H88.1226V99.844L91.7687 96.3084L99.9731 106.362H109.113L97.3093 91.5556L108.148 80.6827H99.1498L88.1226 90.9998V70.9502H80.5771Z" fill="#E60023"/>
<path d="M38.8128 81.521C37.2188 80.7086 35.3835 80.3051 33.3228 80.3051L33.328 80.3102C30.8478 80.3102 28.6456 80.9001 26.7264 82.0746C25.6335 82.7435 24.7106 83.5483 23.9578 84.4871C23.3522 83.5183 22.5814 82.721 21.6454 82.0953C19.8521 80.9001 17.7652 80.3051 15.3794 80.3051C13.2505 80.3051 11.3575 80.7604 9.69534 81.6658C8.73864 82.187 7.90874 82.8487 7.20465 83.65V83.3216C7.20465 81.8676 6.00912 80.6879 4.53568 80.6879H0V106.362H7.55072V93.4783C7.55072 91.9468 7.79193 90.6946 8.27433 89.7064C8.75674 88.7181 9.43316 87.9782 10.3036 87.4867C11.174 86.9952 12.1598 86.7468 13.2557 86.7468C14.834 86.7468 16.0505 87.2383 16.9052 88.2266C17.7547 89.2097 18.1847 90.736 18.1847 92.8057V106.362H25.7301V93.4783C25.7301 91.9468 25.9713 90.6946 26.4537 89.7064C26.9362 88.7181 27.6126 87.9782 28.483 87.4867C29.3534 86.9952 30.3392 86.7468 31.4351 86.7468C33.0134 86.7468 34.2404 87.2383 35.1109 88.2266C35.9813 89.2097 36.4165 90.736 36.4165 92.8057V106.362H43.962V91.6622C43.962 89.0493 43.5005 86.9124 42.5829 85.2411C41.6653 83.5751 40.4068 82.3333 38.8128 81.521Z" fill="#E60023"/>
<path fill-rule="evenodd" clip-rule="evenodd" d="M58.7647 106.745C56.7354 106.745 54.9945 106.403 53.5421 105.72C52.0896 105.037 50.978 104.106 50.2072 102.926C49.4311 101.752 49.0483 100.427 49.0483 98.9628C49.0483 97.4985 49.4259 96.1015 50.1862 94.9529C50.9413 93.8094 52.1473 92.9091 53.7885 92.2572C55.435 91.6052 57.5796 91.2793 60.2224 91.2793H66.2157C66.2147 89.6933 65.7218 88.4532 64.7423 87.5643C63.7565 86.6743 62.2516 86.2294 60.2224 86.2294C58.8381 86.2294 57.4747 86.4415 56.1376 86.8709C54.8005 87.3004 53.6627 87.8799 52.7293 88.6146L50.0184 83.4146C51.4342 82.4264 53.1436 81.6658 55.1466 81.1225C57.1444 80.5792 59.1789 80.3102 61.2396 80.3102C65.2037 80.3102 68.287 81.2312 70.4788 83.0783C72.6706 84.9255 73.7665 87.8023 73.7665 91.7139V106.367H66.7034L66.6982 106.362V103.176C66.131 104.113 65.3613 104.869 64.3857 105.446C62.9333 106.305 61.0666 106.734 58.7751 106.734L58.7647 106.745ZM61.0456 95.6203H66.2157V98.265C65.7641 99.4004 65.044 100.256 64.0502 100.841C63.0486 101.431 61.9842 101.726 60.6628 101.726C59.3414 101.726 58.298 101.452 57.5429 100.893C56.7826 100.339 56.4051 99.5785 56.4051 98.6265C56.4051 97.7676 56.7354 97.0536 57.3961 96.4792C58.0568 95.9049 59.2733 95.6203 61.0456 95.6203Z" fill="#E60023"/>
<path fill-rule="evenodd" clip-rule="evenodd" d="M114.818 105.72C116.27 106.403 118.011 106.745 120.041 106.745L120.051 106.734C122.342 106.734 124.209 106.305 125.662 105.446C126.637 104.869 127.407 104.112 127.974 103.176V106.362L127.979 106.367H135.042V91.7139C135.042 87.8023 133.946 84.9255 131.755 83.0783C129.563 81.2312 126.48 80.3102 122.515 80.3102C120.455 80.3102 118.42 80.5792 116.422 81.1225C114.419 81.6658 112.71 82.4264 111.294 83.4146L114.005 88.6146C114.939 87.8799 116.076 87.3004 117.414 86.8709C118.751 86.4415 120.114 86.2294 121.498 86.2294C123.528 86.2294 125.032 86.6743 126.018 87.5643C126.998 88.4532 127.491 89.6933 127.492 91.2793H121.498C118.855 91.2793 116.711 91.6052 115.064 92.2572C113.423 92.9091 112.217 93.8094 111.462 94.9529C110.702 96.1015 110.324 97.4985 110.324 98.9628C110.324 100.427 110.707 101.752 111.483 102.926C112.254 104.106 113.365 105.037 114.818 105.72ZM127.492 95.6203H122.321C120.549 95.6203 119.333 95.9049 118.672 96.4792C118.011 97.0536 117.681 97.7676 117.681 98.6265C117.681 99.5785 118.058 100.339 118.819 100.893C119.574 101.452 120.617 101.726 121.939 101.726C123.26 101.726 124.325 101.431 125.326 100.841C126.32 100.256 127.04 99.4004 127.492 98.265V95.6203Z" fill="#E60023"/>
<path d="M144.197 105.958C146.242 106.481 148.382 106.745 150.605 106.745L150.615 106.75C153.227 106.75 155.445 106.398 157.264 105.7C159.089 105.001 160.484 104.039 161.449 102.812C162.419 101.591 162.901 100.184 162.901 98.5903C162.901 97.126 162.613 95.9412 162.031 95.0357C161.449 94.1302 160.699 93.411 159.781 92.8885C158.858 92.3659 157.836 91.9571 156.708 91.6725C155.581 91.3828 154.459 91.1707 153.347 91.0258C152.236 90.8809 151.208 90.7153 150.274 90.5239C149.336 90.3325 148.591 90.0789 148.025 89.7581C147.464 89.4373 147.181 88.9613 147.181 88.3249C147.181 87.6264 147.564 87.0521 148.34 86.6071C149.116 86.1621 150.337 85.9396 152.015 85.9396C153.211 85.9396 154.443 86.0742 155.717 86.3432C156.991 86.6175 158.255 87.1193 159.514 87.8489L162.031 82.5506C160.804 81.8159 159.272 81.2623 157.437 80.8794C155.602 80.4965 153.793 80.3051 152.021 80.3051C149.504 80.3051 147.343 80.6672 145.54 81.3813C143.731 82.0953 142.351 83.0732 141.402 84.315C140.453 85.5568 139.976 86.9848 139.976 88.6095C139.976 90.0737 140.254 91.269 140.82 92.19C141.387 93.1109 142.136 93.8405 143.07 94.3838C144.003 94.9219 145.036 95.3306 146.164 95.5997C147.291 95.8739 148.413 96.0861 149.525 96.2465C150.636 96.4068 151.664 96.5621 152.597 96.7225C153.531 96.8829 154.281 97.1157 154.847 97.4158C155.408 97.7211 155.691 98.1712 155.691 98.7766C155.691 99.5061 155.324 100.08 154.6 100.494C153.872 100.908 152.639 101.115 150.898 101.115C149.315 101.115 147.71 100.882 146.085 100.422C144.454 99.9615 143.044 99.3664 141.853 98.6317L139.336 103.977C140.527 104.773 142.147 105.436 144.197 105.958Z" fill="#E60023"/>
</svg>
