<svg width="97" height="96" viewBox="0 0 97 96" fill="none" xmlns="http://www.w3.org/2000/svg">
<path d="M86.3832 44.4125C86.0491 44.4125 85.7793 44.1427 85.7793 43.8086V35.768C85.7793 35.4339 86.0491 35.1641 86.3832 35.1641C86.7173 35.1641 86.9871 35.4339 86.9871 35.768V43.8086C86.9871 44.1427 86.7173 44.4125 86.3832 44.4125Z" stroke="black" stroke-width="2"/>
<path d="M78.6176 44.4125C78.2835 44.4125 78.0137 44.1427 78.0137 43.8086V35.768C78.0137 35.4339 78.2835 35.1641 78.6176 35.1641C78.9517 35.1641 79.2215 35.4339 79.2215 35.768V43.8086C79.2215 44.1427 78.9517 44.4125 78.6176 44.4125Z" stroke="black" stroke-width="2"/>
<path d="M70.8519 44.4125C70.5179 44.4125 70.248 44.1427 70.248 43.8086V35.768C70.248 35.4339 70.5179 35.1641 70.8519 35.1641C71.186 35.1641 71.4559 35.4339 71.4559 35.768V43.8086C71.4559 44.1427 71.186 44.4125 70.8519 44.4125Z" stroke="black" stroke-width="2"/>
<path d="M63.0883 44.4125C62.7542 44.4125 62.4844 44.1427 62.4844 43.8086V35.768C62.4844 35.4339 62.7542 35.1641 63.0883 35.1641C63.4224 35.1641 63.6922 35.4339 63.6922 35.768V43.8086C63.6922 44.1427 63.4224 44.4125 63.0883 44.4125Z" stroke="black" stroke-width="2"/>
<path d="M31.7167 43.8012V43.8223H2.45351C2.11943 43.8223 1.84961 43.5524 1.84961 43.2184V36.4018C1.84961 36.0677 2.11943 35.7979 2.45351 35.7979H32.7167C34.9263 35.7979 36.7183 37.6055 36.7183 39.7995C36.7183 41.9907 34.9079 43.8012 32.7167 43.8012H31.7167ZM3.05742 41.6356V42.6356H4.05742H32.7167C34.2609 42.6356 35.5316 41.3648 35.5316 39.8206C35.5316 38.2764 34.2609 37.0057 32.7167 37.0057H4.05742H3.05742V38.0057V41.6356Z" stroke="black" stroke-width="2"/>
<path d="M86.8283 57.8092H87.8283V56.8092V53.2426V52.2426H86.8283H11.0226H10.0226V53.2426V56.8092V57.8092H11.0226H11.0437H86.8283ZM88.4322 58.9959H9.43984C9.10576 58.9959 8.83594 58.726 8.83594 58.392V51.6176C8.83594 51.2835 9.10576 51.0137 9.43984 51.0137H88.4322C88.7663 51.0137 89.0361 51.2835 89.0361 51.6176V58.392C89.0361 58.7261 88.7663 58.9959 88.4322 58.9959Z" stroke="black" stroke-width="2"/>
<path d="M92.4411 82.6746H5.40808C3.44898 82.6746 1.84961 81.0752 1.84961 79.1161V61.3466C1.84961 59.3875 3.44898 57.7881 5.40808 57.7881H92.4411C94.4002 57.7881 95.9995 59.3875 95.9995 61.3466V79.1161C95.9995 81.0752 94.4002 82.6746 92.4411 82.6746ZM5.40808 58.9959C4.11715 58.9959 3.05742 60.0556 3.05742 61.3466V79.1161C3.05742 80.4071 4.11715 81.4668 5.40808 81.4668H92.4411C93.732 81.4668 94.7917 80.4071 94.7917 79.1161V61.3466C94.7917 60.0556 93.732 58.9959 92.4411 58.9959H5.40808Z" stroke="black" stroke-width="2"/>
<path d="M86.3832 74.8446C86.0491 74.8446 85.7793 74.5748 85.7793 74.2407V66.2001C85.7793 65.866 86.0491 65.5962 86.3832 65.5962C86.7173 65.5962 86.9871 65.866 86.9871 66.2001V74.2407C86.9871 74.5748 86.7173 74.8446 86.3832 74.8446Z" stroke="black" stroke-width="2"/>
<path d="M78.6176 74.8446C78.2835 74.8446 78.0137 74.5748 78.0137 74.2407V66.2001C78.0137 65.866 78.2835 65.5962 78.6176 65.5962C78.9517 65.5962 79.2215 65.866 79.2215 66.2001V74.2407C79.2215 74.5748 78.9517 74.8446 78.6176 74.8446Z" stroke="black" stroke-width="2"/>
<path d="M70.8519 74.8446C70.5179 74.8446 70.248 74.5748 70.248 74.2407V66.2001C70.248 65.866 70.5179 65.5962 70.8519 65.5962C71.186 65.5962 71.4559 65.866 71.4559 66.2001V74.2407C71.4559 74.5748 71.186 74.8446 70.8519 74.8446Z" stroke="black" stroke-width="2"/>
<path d="M63.0883 74.8446C62.7542 74.8446 62.4844 74.5748 62.4844 74.2407V66.2001C62.4844 65.866 62.7542 65.5962 63.0883 65.5962C63.4224 65.5962 63.6922 65.866 63.6922 66.2001V74.2407C63.6922 74.5748 63.4224 74.8446 63.0883 74.8446Z" stroke="black" stroke-width="2"/>
<path d="M31.7167 74.2328V74.2539H2.45351C2.11943 74.2539 1.84961 73.9841 1.84961 73.65V66.8334C1.84961 66.4993 2.11943 66.2295 2.45351 66.2295H32.7167C34.9263 66.2295 36.7183 68.0372 36.7183 70.2311C36.7183 72.4224 34.9079 74.2328 32.7167 74.2328H31.7167ZM3.05742 72.0672V73.0672H4.05742H32.7167C34.2609 73.0672 35.5316 71.7964 35.5316 70.2522C35.5316 68.7081 34.2608 67.4373 32.7167 67.4373H4.05742H3.05742V68.4373V72.0672Z" stroke="black" stroke-width="2"/>
<path d="M89.0141 92.3474V93.3474H90.0141H95.3956C95.7297 93.3474 95.9995 93.6172 95.9995 93.9513C95.9995 94.2854 95.7297 94.5552 95.3956 94.5552H2.45351C2.11943 94.5552 1.84961 94.2854 1.84961 93.9513C1.84961 93.6172 2.11943 93.3474 2.45351 93.3474H7.83504H8.83504V92.3474V82.0697C8.83504 81.7356 9.10487 81.4658 9.43895 81.4658H88.4313C88.7357 81.4658 89.0141 81.727 89.0141 82.0697V92.3474ZM26.1649 91.7631L25.0242 93.3474H26.9764H70.8727H72.825L71.6843 91.7631L70.1648 89.6527L69.8655 89.237H69.3533H28.4959H27.9836L27.6843 89.6527L26.1649 91.7631ZM73.9827 92.9263L74.2817 93.3474H74.7981H86.8274H87.8274V92.3474V83.6736V82.6736H86.8274H11.0217H10.0217V83.6736V92.3474V93.3474H11.0217H23.051H23.5633L23.8626 92.9317L25.3821 90.8213L26.5228 89.237H24.5705H24.1273C23.8057 89.237 23.5445 88.9796 23.5445 88.6542C23.5445 88.3115 23.823 88.0503 24.1273 88.0503H73.7218C74.0474 88.0503 74.3257 88.3327 74.3257 88.6542C74.3257 88.9586 74.0645 89.237 73.7218 89.237H73.2997H71.3633L72.4843 90.8159L73.9827 92.9263Z" stroke="black" stroke-width="2"/>
<path d="M48.9223 28.5636C48.5882 28.5636 48.3184 28.2938 48.3184 27.9597V19.2016C48.3184 18.8675 48.5882 18.5977 48.9223 18.5977C49.2563 18.5977 49.5262 18.8675 49.5262 19.2016V27.9597C49.5262 28.2938 49.2563 28.5636 48.9223 28.5636Z" stroke="#C77039" stroke-width="2"/>
<path d="M61.8964 12.5322C61.8964 15.1722 61.0965 17.7158 59.6088 19.8927C59.5103 20.0276 59.3875 20.1076 59.2657 20.1426H59.1188C58.9822 20.1426 58.871 20.1076 58.7841 20.0485C58.5035 19.8474 58.4525 19.4767 58.6273 19.229L58.6274 19.2291L58.635 19.2181C59.9942 17.2368 60.7097 14.9292 60.7097 12.5322C60.7097 10.1352 59.9942 7.82758 58.635 5.84632L58.635 5.84627L58.6273 5.83535C58.4442 5.57587 58.5175 5.19631 58.7717 5.02439L58.7799 5.01882L58.788 5.01308C59.0475 4.82992 59.4271 4.90326 59.599 5.1574L59.5989 5.15744L59.6056 5.16707C61.1126 7.3395 61.8964 9.88354 61.8964 12.5322Z" stroke="#C77039" stroke-width="2"/>
<path d="M67.4063 12.5325C67.4063 16.291 66.2687 19.911 64.1477 23.0165C64.0493 23.1514 63.9265 23.2314 63.8048 23.2664H63.6579C63.5212 23.2664 63.4101 23.2313 63.3232 23.1723C63.0426 22.9711 62.9916 22.6005 63.1664 22.3528L63.1664 22.3528L63.1725 22.344C65.1645 19.4568 66.2407 16.0514 66.2407 12.5325C66.2407 9.01777 65.1878 5.60965 63.1696 2.7168L63.1696 2.7168L63.1664 2.7123C62.9832 2.45282 63.0566 2.07326 63.3107 1.90135L63.319 1.89577L63.3271 1.89003C63.5866 1.70687 63.9661 1.78021 64.138 2.03435L64.138 2.03438L64.1434 2.04215C66.2855 5.14521 67.4063 8.76666 67.4063 12.5325Z" stroke="#C77039" stroke-width="2"/>
<path d="M48.9247 19.8046C44.9169 19.8046 41.6309 16.5363 41.6309 12.5107C41.6309 8.48339 44.8975 5.2168 48.9247 5.2168C52.952 5.2168 56.2186 8.48339 56.2186 12.5107C56.2186 16.538 52.952 19.8046 48.9247 19.8046ZM48.9247 6.42461C45.5656 6.42461 42.8387 9.15156 42.8387 12.5107C42.8387 15.8698 45.5656 18.5967 48.9247 18.5967C52.2839 18.5967 55.0108 15.8698 55.0108 12.5107C55.0108 9.15156 52.2839 6.42461 48.9247 6.42461Z" stroke="#C77039" stroke-width="2"/>
<path d="M38.567 20.1221C38.4356 20.087 38.3318 20.0103 38.2679 19.9099L38.2572 19.8932L38.2459 19.8768C36.7389 17.7044 35.9551 15.1604 35.9551 12.5117C35.9551 9.87061 36.7557 7.32612 38.2445 5.14867C38.4458 4.86865 38.816 4.81788 39.0635 4.99257C39.3475 5.19308 39.3998 5.56602 39.2242 5.81484L39.2241 5.81479L39.2165 5.82581C37.8573 7.80707 37.1418 10.1147 37.1418 12.5117C37.1418 14.9087 37.8573 17.2163 39.2165 19.1976L39.2165 19.1976L39.2242 19.2085C39.4073 19.468 39.334 19.8476 39.0799 20.0195L39.0798 20.0194L39.071 20.0256C38.9835 20.0861 38.8712 20.1221 38.7327 20.1221H38.567Z" stroke="#C77039" stroke-width="2"/>
<path d="M34.03 23.2454C33.8985 23.2102 33.7947 23.1335 33.7309 23.0332L33.7208 23.0174L33.7102 23.002C31.5681 19.8989 30.4473 16.2774 30.4473 12.5116C30.4473 8.74778 31.5668 5.12828 33.7066 2.02638C33.9076 1.74527 34.2786 1.69409 34.5265 1.86904C34.8105 2.06954 34.8628 2.44248 34.6872 2.69131L34.6871 2.69127L34.681 2.70011C32.6866 5.59088 31.634 8.99705 31.634 12.5116C31.634 16.026 32.6866 19.4322 34.681 22.323L34.681 22.323L34.6872 22.3318C34.8703 22.5913 34.797 22.9708 34.5428 23.1427L34.5428 23.1427L34.5339 23.1488C34.4465 23.2094 34.3342 23.2454 34.1957 23.2454H34.03Z" stroke="#C77039" stroke-width="2"/>
<path d="M95.9995 48.704C95.9995 50.5321 94.607 52.0469 92.829 52.2414H92.4411H5.40808C3.44898 52.2414 1.84961 50.642 1.84961 48.6829V30.9133C1.84961 28.9603 3.44293 27.376 5.40808 27.376H92.4411C94.4002 27.376 95.9995 28.9754 95.9995 30.9344V48.704ZM5.40808 28.5627C4.11715 28.5627 3.05742 29.6224 3.05742 30.9133V48.6829C3.05742 49.9739 4.11716 51.0336 5.40808 51.0336H92.4411C93.732 51.0336 94.7917 49.9739 94.7917 48.6829V30.9133C94.7917 29.6224 93.732 28.5627 92.4411 28.5627H5.40808Z" stroke="black" stroke-width="2"/>
</svg>
