<svg width="376" height="37" viewBox="0 0 376 37" fill="none" xmlns="http://www.w3.org/2000/svg">
<path fill-rule="evenodd" clip-rule="evenodd" d="M23.8669 6.46976C26.9024 5.63688 29.1299 5.09911 32.0238 4.94332C32.0393 7.72057 31.3493 10.3675 30.3611 12.9575C31.789 14.4899 31.994 16.3938 36.4646 18.1824C36.4646 18.1824 36.6854 18.2648 36.9014 18.3457C36.962 18.3682 37.0014 18.4266 37 18.491C36.9978 18.5554 36.955 18.6123 36.8934 18.6318C36.6751 18.6992 36.4529 18.7696 36.4529 18.7696C31.9748 20.3021 31.8016 22.5056 30.3865 23.8927C31.3458 26.5112 31.8129 29.1925 32.0238 31.9069C29.1913 31.7721 26.3908 31.0815 23.8669 30.2621C22.4876 31.9953 20.2227 31.829 18.4955 37C16.7684 31.829 14.5124 31.9953 13.1331 30.2621C10.6092 31.0815 7.80865 31.7721 4.97625 31.9069C5.18712 29.1925 5.65417 26.5112 6.61352 23.8927C5.19845 22.5056 5.02519 20.3021 0.547053 18.7696C0.547053 18.7696 0.324853 18.6992 0.106732 18.6318C0.0449506 18.6123 0.00220244 18.5554 3.93307e-05 18.491C-0.00142285 18.4266 0.0380021 18.3682 0.0985746 18.3457C0.314581 18.2648 0.535422 18.1824 0.535422 18.1824C5.006 16.3938 5.21098 14.4899 6.63889 12.9575C5.6507 10.3675 4.96069 7.72057 4.97625 4.94332C7.87013 5.09911 10.0976 5.63688 13.1331 6.46976C14.711 5.00024 16.8915 4.62275 18.5045 0C20.1174 4.62275 22.2891 5.00024 23.8669 6.46976ZM18.4335 28.2368C16.587 28.2249 14.86 27.7111 13.3848 26.8257H13.3597C14.3692 29.3154 16.2639 29.3723 18.4955 31.9189L18.5045 31.9308V31.9189C20.7361 29.3723 22.6308 29.3154 23.6403 26.8257H23.6152C22.14 27.7111 20.413 28.2249 18.5665 28.2368H18.5594H18.5286H18.5045H18.5001H18.4955H18.4714H18.4406H18.4335ZM7.45126 29.3723C8.94896 29.1851 10.2421 28.8585 11.622 28.3657C11.2906 27.4534 11.0216 26.8947 11.0333 25.933C10.1861 26.0034 9.37704 25.6214 8.60153 25.2708C8.06257 26.673 7.70065 27.9432 7.45126 29.3723ZM29.5489 29.3723C28.051 29.1851 26.7579 28.8585 25.378 28.3657C25.7094 27.4534 25.9784 26.8947 25.9667 25.933C26.8139 26.0034 27.623 25.6214 28.3985 25.2708C28.9374 26.673 29.2993 27.9432 29.5489 29.3723ZM18.5001 10.7854H18.4546C14.2257 10.8124 10.8007 14.2248 10.8007 18.4251C10.8007 22.6045 14.1914 26.0034 18.391 26.0633L18.419 26.0648H18.4546H18.5001H18.5454H18.581L18.609 26.0633C22.8086 26.0034 26.1993 22.6045 26.1993 18.4251C26.1993 14.2248 22.7743 10.8124 18.5454 10.7854H18.5001ZM18.5001 12.9575H18.5045C21.5474 12.9575 24.0179 15.4082 24.0179 18.4251C24.0179 21.442 21.5474 23.8927 18.5045 23.8927H18.5001H18.4955C15.4526 23.8927 12.9821 21.442 12.9821 18.4251C12.9821 15.4082 15.4526 12.9575 18.4955 12.9575H18.5001ZM9.96101 13.4608C9.09699 14.9183 8.60153 16.614 8.60153 18.4251C8.60153 20.2362 9.09699 21.9319 9.96101 23.3894V23.5931C7.45126 22.5925 7.57648 20.7125 4.82519 18.5C7.60231 16.4972 7.45126 14.1708 9.96101 13.4069V13.4608ZM27.039 13.4608C27.903 14.9183 28.3985 16.614 28.3985 18.4251C28.3985 20.2362 27.903 21.9319 27.039 23.3894V23.5931C29.5489 22.5925 29.4235 20.7125 32.1748 18.5C29.3978 16.4972 29.5489 14.1708 27.039 13.4069V13.4608ZM18.5001 15.2359C16.7272 15.2374 15.2882 16.6665 15.2882 18.4251C15.2882 20.1837 16.7272 21.6128 18.5001 21.6143C20.2728 21.6128 21.7118 20.1837 21.7118 18.4251C21.7118 16.6665 20.2728 15.2374 18.5001 15.2359ZM7.45126 7.44494C8.94896 7.63219 10.3932 7.95875 11.7731 8.45158C11.2761 9.21555 11.0216 10.0724 11.0333 11.0341C10.1861 10.9637 9.37704 11.1959 8.60153 11.6962C8.06257 10.2941 7.70065 8.87401 7.45126 7.44494ZM29.5489 7.44494C28.051 7.63219 26.6068 7.95875 25.2269 8.45158C25.7239 9.21555 25.9784 10.0724 25.9667 11.0341C26.8139 10.9637 27.623 11.1959 28.3985 11.6962C28.9374 10.2941 29.2993 8.87401 29.5489 7.44494ZM18.4955 4.89389V4.89838C16.2639 7.62619 14.3692 7.50186 13.3597 9.9915H13.4398C14.903 9.12567 16.6104 8.62534 18.4342 8.61336H18.4406H18.4703H18.4955H18.5001H18.5045H18.5298H18.5594H18.5658C20.3896 8.62534 22.097 9.12567 23.5602 9.9915H23.6403C22.6308 7.50186 20.7361 7.62619 18.5045 4.89838L18.4955 4.89389Z" fill="#E78448"/>
<path d="M48.7234 15.7691H45.0684V13.1001H55.7274V15.7691H52.0894V25.0001H48.7234V15.7691Z" fill="#0C4AA9"/>
<path d="M66.5354 22.3991V25.0001H56.9814V13.1001H66.3144V15.7011H60.3134V17.7071H65.6004V20.2231H60.3134V22.3991H66.5354Z" fill="#0C4AA9"/>
<path d="M72.9932 20.6821L71.7352 22.0251V25.0001H68.4032V13.1001H71.7352V18.0471L76.3422 13.1001H80.0482L75.1862 18.3701L80.3032 25.0001H76.3932L72.9932 20.6821Z" fill="#0C4AA9"/>
<path d="M92.5085 13.1001V25.0001H89.7375L84.4845 18.6591V25.0001H81.1865V13.1001H83.9575L89.2105 19.4411V13.1001H92.5085Z" fill="#0C4AA9"/>
<path d="M100.884 25.2381C99.6257 25.2381 98.4924 24.9717 97.4837 24.4391C96.4864 23.9064 95.6987 23.1697 95.1207 22.2291C94.5541 21.2884 94.2707 20.2287 94.2707 19.0501C94.2707 17.8714 94.5541 16.8117 95.1207 15.8711C95.6987 14.9304 96.4864 14.1937 97.4837 13.6611C98.4924 13.1284 99.6257 12.8621 100.884 12.8621C102.142 12.8621 103.269 13.1284 104.267 13.6611C105.275 14.1937 106.063 14.9304 106.63 15.8711C107.208 16.8117 107.497 17.8714 107.497 19.0501C107.497 20.2287 107.208 21.2884 106.63 22.2291C106.063 23.1697 105.275 23.9064 104.267 24.4391C103.269 24.9717 102.142 25.2381 100.884 25.2381ZM100.884 22.4501C101.484 22.4501 102.028 22.3084 102.516 22.0251C103.003 21.7417 103.388 21.3451 103.672 20.8351C103.955 20.3137 104.097 19.7187 104.097 19.0501C104.097 18.3814 103.955 17.7921 103.672 17.2821C103.388 16.7607 103.003 16.3584 102.516 16.0751C102.028 15.7917 101.484 15.6501 100.884 15.6501C100.283 15.6501 99.7391 15.7917 99.2517 16.0751C98.7644 16.3584 98.3791 16.7607 98.0957 17.2821C97.8124 17.7921 97.6707 18.3814 97.6707 19.0501C97.6707 19.7187 97.8124 20.3137 98.0957 20.8351C98.3791 21.3451 98.7644 21.7417 99.2517 22.0251C99.7391 22.3084 100.283 22.4501 100.884 22.4501Z" fill="#0C4AA9"/>
<path d="M109.26 13.1001H112.626V22.3311H118.304V25.0001H109.26V13.1001Z" fill="#0C4AA9"/>
<path d="M125.454 25.2381C124.196 25.2381 123.063 24.9717 122.054 24.4391C121.057 23.9064 120.269 23.1697 119.691 22.2291C119.124 21.2884 118.841 20.2287 118.841 19.0501C118.841 17.8714 119.124 16.8117 119.691 15.8711C120.269 14.9304 121.057 14.1937 122.054 13.6611C123.063 13.1284 124.196 12.8621 125.454 12.8621C126.712 12.8621 127.84 13.1284 128.837 13.6611C129.846 14.1937 130.633 14.9304 131.2 15.8711C131.778 16.8117 132.067 17.8714 132.067 19.0501C132.067 20.2287 131.778 21.2884 131.2 22.2291C130.633 23.1697 129.846 23.9064 128.837 24.4391C127.84 24.9717 126.712 25.2381 125.454 25.2381ZM125.454 22.4501C126.055 22.4501 126.599 22.3084 127.086 22.0251C127.573 21.7417 127.959 21.3451 128.242 20.8351C128.525 20.3137 128.667 19.7187 128.667 19.0501C128.667 18.3814 128.525 17.7921 128.242 17.2821C127.959 16.7607 127.573 16.3584 127.086 16.0751C126.599 15.7917 126.055 15.6501 125.454 15.6501C124.853 15.6501 124.309 15.7917 123.822 16.0751C123.335 16.3584 122.949 16.7607 122.666 17.2821C122.383 17.7921 122.241 18.3814 122.241 19.0501C122.241 19.7187 122.383 20.3137 122.666 20.8351C122.949 21.3451 123.335 21.7417 123.822 22.0251C124.309 22.3084 124.853 22.4501 125.454 22.4501Z" fill="#0C4AA9"/>
<path d="M141.803 18.7951H144.778V23.7251C144.098 24.2124 143.316 24.5864 142.432 24.8471C141.548 25.1077 140.664 25.2381 139.78 25.2381C138.533 25.2381 137.411 24.9774 136.414 24.4561C135.417 23.9234 134.635 23.1867 134.068 22.2461C133.501 21.3054 133.218 20.2401 133.218 19.0501C133.218 17.8601 133.501 16.7947 134.068 15.8541C134.635 14.9134 135.422 14.1824 136.431 13.6611C137.44 13.1284 138.579 12.8621 139.848 12.8621C140.959 12.8621 141.956 13.0491 142.84 13.4231C143.724 13.7971 144.461 14.3354 145.05 15.0381L142.908 16.9761C142.103 16.0921 141.14 15.6501 140.018 15.6501C138.998 15.6501 138.176 15.9617 137.553 16.5851C136.93 17.1971 136.618 18.0187 136.618 19.0501C136.618 19.7074 136.76 20.2967 137.043 20.8181C137.326 21.3281 137.723 21.7304 138.233 22.0251C138.743 22.3084 139.327 22.4501 139.984 22.4501C140.63 22.4501 141.236 22.3197 141.803 22.0591V18.7951Z" fill="#0C4AA9"/>
<path d="M146.912 13.1001H150.278V25.0001H146.912V13.1001Z" fill="#0C4AA9"/>
<path d="M163.553 25.2381C162.306 25.2381 161.184 24.9774 160.187 24.4561C159.201 23.9234 158.425 23.1867 157.858 22.2461C157.291 21.3054 157.008 20.2401 157.008 19.0501C157.008 17.8601 157.291 16.7947 157.858 15.8541C158.425 14.9134 159.201 14.1824 160.187 13.6611C161.184 13.1284 162.306 12.8621 163.553 12.8621C164.641 12.8621 165.621 13.0547 166.494 13.4401C167.367 13.8254 168.092 14.3807 168.67 15.1061L166.528 17.0441C165.757 16.1147 164.822 15.6501 163.723 15.6501C163.077 15.6501 162.499 15.7917 161.989 16.0751C161.49 16.3584 161.099 16.7607 160.816 17.2821C160.544 17.7921 160.408 18.3814 160.408 19.0501C160.408 19.7187 160.544 20.3137 160.816 20.8351C161.099 21.3451 161.49 21.7417 161.989 22.0251C162.499 22.3084 163.077 22.4501 163.723 22.4501C164.822 22.4501 165.757 21.9854 166.528 21.0561L168.67 22.9941C168.092 23.7194 167.367 24.2747 166.494 24.6601C165.621 25.0454 164.641 25.2381 163.553 25.2381Z" fill="#0C4AA9"/>
<path d="M177.945 22.6881H172.913L171.978 25.0001H168.544L173.797 13.1001H177.112L182.382 25.0001H178.88L177.945 22.6881ZM176.959 20.2061L175.429 16.3981L173.899 20.2061H176.959Z" fill="#0C4AA9"/>
<path d="M187.926 20.6821L186.668 22.0251V25.0001H183.336V13.1001H186.668V18.0471L191.275 13.1001H194.981L190.119 18.3701L195.236 25.0001H191.326L187.926 20.6821Z" fill="#0C4AA9"/>
<path d="M201.321 21.8381H199.485V25.0001H196.119V13.1001H201.559C202.636 13.1001 203.571 13.2814 204.364 13.6441C205.157 13.9954 205.769 14.5054 206.2 15.1741C206.631 15.8314 206.846 16.6077 206.846 17.5031C206.846 18.3644 206.642 19.1181 206.234 19.7641C205.837 20.3987 205.265 20.8974 204.517 21.2601L207.084 25.0001H203.48L201.321 21.8381ZM203.446 17.5031C203.446 16.9477 203.27 16.5171 202.919 16.2111C202.568 15.9051 202.046 15.7521 201.355 15.7521H199.485V19.2371H201.355C202.046 19.2371 202.568 19.0897 202.919 18.7951C203.27 18.4891 203.446 18.0584 203.446 17.5031Z" fill="#0C4AA9"/>
<path d="M216.676 22.6881H211.644L210.709 25.0001H207.275L212.528 13.1001H215.843L221.113 25.0001H217.611L216.676 22.6881ZM215.69 20.2061L214.16 16.3981L212.63 20.2061H215.69Z" fill="#0C4AA9"/>
<path d="M227.015 13.1001H230.381V25.0001H227.015V13.1001Z" fill="#0C4AA9"/>
<path d="M244.097 13.1001V25.0001H241.326L236.073 18.6591V25.0001H232.775V13.1001H235.546L240.799 19.4411V13.1001H244.097Z" fill="#0C4AA9"/>
<path d="M249.005 15.7691H245.35V13.1001H256.009V15.7691H252.371V25.0001H249.005V15.7691Z" fill="#0C4AA9"/>
<path d="M266.817 22.3991V25.0001H257.263V13.1001H266.596V15.7011H260.595V17.7071H265.882V20.2231H260.595V22.3991H266.817Z" fill="#0C4AA9"/>
<path d="M273.887 21.8381H272.051V25.0001H268.685V13.1001H274.125C275.201 13.1001 276.136 13.2814 276.93 13.6441C277.723 13.9954 278.335 14.5054 278.766 15.1741C279.196 15.8314 279.412 16.6077 279.412 17.5031C279.412 18.3644 279.208 19.1181 278.8 19.7641C278.403 20.3987 277.831 20.8974 277.083 21.2601L279.65 25.0001H276.046L273.887 21.8381ZM276.012 17.5031C276.012 16.9477 275.836 16.5171 275.485 16.2111C275.133 15.9051 274.612 15.7521 273.921 15.7521H272.051V19.2371H273.921C274.612 19.2371 275.133 19.0897 275.485 18.7951C275.836 18.4891 276.012 18.0584 276.012 17.5031Z" fill="#0C4AA9"/>
<path d="M292.59 13.1001V25.0001H289.819L284.566 18.6591V25.0001H281.268V13.1001H284.039L289.292 19.4411V13.1001H292.59Z" fill="#0C4AA9"/>
<path d="M302.938 22.6881H297.906L296.971 25.0001H293.537L298.79 13.1001H302.105L307.375 25.0001H303.873L302.938 22.6881ZM301.952 20.2061L300.422 16.3981L298.892 20.2061H301.952Z" fill="#0C4AA9"/>
<path d="M312.511 25.2381C311.548 25.2381 310.613 25.1191 309.706 24.8811C308.799 24.6431 308.063 24.3257 307.496 23.9291L308.601 21.4471C309.134 21.7984 309.751 22.0817 310.454 22.2971C311.157 22.5124 311.848 22.6201 312.528 22.6201C313.82 22.6201 314.466 22.2971 314.466 21.6511C314.466 21.3111 314.279 21.0617 313.905 20.9031C313.542 20.7331 312.953 20.5574 312.137 20.3761C311.242 20.1834 310.494 19.9794 309.893 19.7641C309.292 19.5374 308.777 19.1804 308.346 18.6931C307.915 18.2057 307.7 17.5484 307.7 16.7211C307.7 15.9957 307.898 15.3441 308.295 14.7661C308.692 14.1767 309.281 13.7121 310.063 13.3721C310.856 13.0321 311.825 12.8621 312.97 12.8621C313.752 12.8621 314.523 12.9527 315.282 13.1341C316.041 13.3041 316.71 13.5591 317.288 13.8991L316.251 16.3981C315.118 15.7861 314.018 15.4801 312.953 15.4801C312.284 15.4801 311.797 15.5821 311.491 15.7861C311.185 15.9787 311.032 16.2337 311.032 16.5511C311.032 16.8684 311.213 17.1064 311.576 17.2651C311.939 17.4237 312.522 17.5881 313.327 17.7581C314.234 17.9507 314.982 18.1604 315.571 18.3871C316.172 18.6024 316.687 18.9537 317.118 19.4411C317.56 19.9171 317.781 20.5687 317.781 21.3961C317.781 22.1101 317.583 22.7561 317.186 23.3341C316.789 23.9121 316.194 24.3767 315.401 24.7281C314.608 25.0681 313.644 25.2381 312.511 25.2381Z" fill="#0C4AA9"/>
<path d="M319.336 13.1001H322.702V25.0001H319.336V13.1001Z" fill="#0C4AA9"/>
<path d="M331.098 25.2381C329.84 25.2381 328.706 24.9717 327.698 24.4391C326.7 23.9064 325.913 23.1697 325.335 22.2291C324.768 21.2884 324.485 20.2287 324.485 19.0501C324.485 17.8714 324.768 16.8117 325.335 15.8711C325.913 14.9304 326.7 14.1937 327.698 13.6611C328.706 13.1284 329.84 12.8621 331.098 12.8621C332.356 12.8621 333.483 13.1284 334.481 13.6611C335.489 14.1937 336.277 14.9304 336.844 15.8711C337.422 16.8117 337.711 17.8714 337.711 19.0501C337.711 20.2287 337.422 21.2884 336.844 22.2291C336.277 23.1697 335.489 23.9064 334.481 24.4391C333.483 24.9717 332.356 25.2381 331.098 25.2381ZM331.098 22.4501C331.698 22.4501 332.242 22.3084 332.73 22.0251C333.217 21.7417 333.602 21.3451 333.886 20.8351C334.169 20.3137 334.311 19.7187 334.311 19.0501C334.311 18.3814 334.169 17.7921 333.886 17.2821C333.602 16.7607 333.217 16.3584 332.73 16.0751C332.242 15.7917 331.698 15.6501 331.098 15.6501C330.497 15.6501 329.953 15.7917 329.466 16.0751C328.978 16.3584 328.593 16.7607 328.31 17.2821C328.026 17.7921 327.885 18.3814 327.885 19.0501C327.885 19.7187 328.026 20.3137 328.31 20.8351C328.593 21.3451 328.978 21.7417 329.466 22.0251C329.953 22.3084 330.497 22.4501 331.098 22.4501Z" fill="#0C4AA9"/>
<path d="M350.796 13.1001V25.0001H348.025L342.772 18.6591V25.0001H339.474V13.1001H342.245L347.498 19.4411V13.1001H350.796Z" fill="#0C4AA9"/>
<path d="M361.143 22.6881H356.111L355.176 25.0001H351.742L356.995 13.1001H360.31L365.58 25.0001H362.078L361.143 22.6881ZM360.157 20.2061L358.627 16.3981L357.097 20.2061H360.157Z" fill="#0C4AA9"/>
<path d="M366.534 13.1001H369.9V22.3311H375.578V25.0001H366.534V13.1001Z" fill="#0C4AA9"/>
</svg>
