<svg width="30" height="30" viewBox="0 0 30 30" fill="none" xmlns="http://www.w3.org/2000/svg">
<path fill-rule="evenodd" clip-rule="evenodd" d="M19.3515 5.24575C21.8128 4.57045 23.6188 4.13441 25.9652 4.0081C25.9778 6.25992 25.4183 8.40607 24.6171 10.5061C25.7749 11.7486 25.9411 13.2923 29.5659 14.7425C29.5659 14.7425 29.7449 14.8093 29.9201 14.8749C29.9692 14.8931 30.0012 14.9405 30 14.9927C29.9982 15.0449 29.9636 15.0911 29.9136 15.1069C29.7366 15.1615 29.5564 15.2186 29.5564 15.2186C25.9255 16.4611 25.785 18.2478 24.6377 19.3725C25.4155 21.4955 25.7942 23.6696 25.9652 25.8704C23.6687 25.7611 21.398 25.2012 19.3515 24.5368C18.2332 25.9421 16.3968 25.8073 14.9964 30C13.596 25.8073 11.7668 25.9421 10.6485 24.5368C8.60204 25.2012 6.33134 25.7611 4.03479 25.8704C4.20577 23.6696 4.58447 21.4955 5.36231 19.3725C4.21496 18.2478 4.07448 16.4611 0.443556 15.2186C0.443556 15.2186 0.263394 15.1615 0.0865391 15.1069C0.0364464 15.0911 0.00178576 15.0449 3.18898e-05 14.9927C-0.00115366 14.9405 0.0308125 14.8931 0.0799254 14.8749C0.255066 14.8093 0.434126 14.7425 0.434126 14.7425C4.05892 13.2923 4.22512 11.7486 5.38289 10.5061C4.58165 8.40607 4.02218 6.25992 4.03479 4.0081C6.38119 4.13441 8.18722 4.57045 10.6485 5.24575C11.9279 4.05425 13.6958 3.74818 15.0036 0C16.3114 3.74818 18.0722 4.05425 19.3515 5.24575ZM14.946 22.8947C13.4489 22.885 12.0486 22.4684 10.8525 21.7506H10.8322C11.6507 23.7692 13.1869 23.8154 14.9964 25.8802L15.0036 25.8899V25.8802C16.8131 23.8154 18.3493 23.7692 19.1678 21.7506H19.1475C17.9514 22.4684 16.5511 22.885 15.054 22.8947H15.0482H15.0232H15.0036H15.0001H14.9964H14.9768H14.9518H14.946ZM6.04156 23.8154C7.25591 23.6636 8.30443 23.3988 9.42324 22.9992C9.15453 22.2595 8.9364 21.8065 8.94596 21.0267C8.25899 21.0838 7.60301 20.7741 6.97422 20.4899C6.53722 21.6267 6.24377 22.6567 6.04156 23.8154ZM23.9586 23.8154C22.7441 23.6636 21.6956 23.3988 20.5768 22.9992C20.8455 22.2595 21.0636 21.8065 21.054 21.0267C21.741 21.0838 22.397 20.7741 23.0258 20.4899C23.4628 21.6267 23.7562 22.6567 23.9586 23.8154ZM15.0001 8.74494H14.9632C11.5344 8.7668 8.75734 11.5336 8.75734 14.9393C8.75734 18.3279 11.5066 21.0838 14.9116 21.1324L14.9343 21.1336H14.9632H15.0001H15.0368H15.0657L15.0884 21.1324C18.4934 21.0838 21.2427 18.3279 21.2427 14.9393C21.2427 11.5336 18.4656 8.7668 15.0368 8.74494H15.0001ZM15.0001 10.5061H15.0036C17.4709 10.5061 19.474 12.4931 19.474 14.9393C19.474 17.3854 17.4709 19.3725 15.0036 19.3725H15.0001H14.9964C12.5291 19.3725 10.526 17.3854 10.526 14.9393C10.526 12.4931 12.5291 10.5061 14.9964 10.5061H15.0001ZM8.0765 10.9142C7.37594 12.096 6.97422 13.4709 6.97422 14.9393C6.97422 16.4077 7.37594 17.7826 8.0765 18.9644V19.1296C6.04156 18.3182 6.14309 16.7939 3.91232 15C6.16404 13.3761 6.04156 11.4899 8.0765 10.8704V10.9142ZM21.9235 10.9142C22.6241 12.096 23.0258 13.4709 23.0258 14.9393C23.0258 16.4077 22.6241 17.7826 21.9235 18.9644V19.1296C23.9586 18.3182 23.8569 16.7939 26.0877 15C23.8361 13.3761 23.9586 11.4899 21.9235 10.8704V10.9142ZM15.0001 12.3534C13.5626 12.3547 12.3959 13.5134 12.3959 14.9393C12.3959 16.3652 13.5626 17.5239 15.0001 17.5251C16.4374 17.5239 17.6041 16.3652 17.6041 14.9393C17.6041 13.5134 16.4374 12.3547 15.0001 12.3534ZM6.04156 6.03644C7.25591 6.18826 8.4269 6.45304 9.54572 6.85263C9.14277 7.47206 8.9364 8.1668 8.94596 8.94656C8.25899 8.88947 7.60301 9.07773 6.97422 9.4834C6.53722 8.34656 6.24377 7.19514 6.04156 6.03644ZM23.9586 6.03644C22.7441 6.18826 21.5731 6.45304 20.4543 6.85263C20.8572 7.47206 21.0636 8.1668 21.054 8.94656C21.741 8.88947 22.397 9.07773 23.0258 9.4834C23.4628 8.34656 23.7562 7.19514 23.9586 6.03644ZM14.9964 3.96802V3.97166C13.1869 6.1834 11.6507 6.08259 10.8322 8.10121H10.8971C12.0835 7.39919 13.4679 6.99352 14.9467 6.98381H14.9518H14.9759H14.9964H15.0001H15.0036H15.0242H15.0482H15.0533C16.5321 6.99352 17.9165 7.39919 19.1029 8.10121H19.1678C18.3493 6.08259 16.8131 6.1834 15.0036 3.97166L14.9964 3.96802Z" fill="#E78448"/>
</svg>
