<svg width="57" height="63" viewBox="0 0 57 63" fill="none" xmlns="http://www.w3.org/2000/svg">
<path d="M50.6938 27.5987C50.8743 27.5987 51.016 27.5987 51.1577 27.5987C52.5108 27.5987 53.8638 27.5987 55.2169 27.5987C55.8741 27.5987 56.2349 27.9595 56.2477 28.6167C56.2477 28.6811 56.2477 28.7455 56.2477 28.81C56.2477 36.7478 56.2477 44.6856 56.2477 52.6234C56.2477 53.5384 55.9385 53.8476 55.0365 53.8476C53.7478 53.8476 52.4592 53.8476 51.1706 53.8476H50.6938C50.6938 54.028 50.6938 54.1698 50.6938 54.3244C50.6938 56.6568 50.6938 58.9892 50.6938 61.3344C50.6938 62.3267 50.1655 62.855 49.1991 62.855C35.1532 62.855 21.0945 62.855 7.04869 62.855C6.09512 62.855 5.5539 62.3138 5.5539 61.3602C5.5539 59.0278 5.5539 56.6955 5.5539 54.3502V53.8476C5.3735 53.8476 5.24464 53.8476 5.10289 53.8476C3.76274 53.8476 2.42258 53.8476 1.08243 53.8476C0.373696 53.8476 0 53.4868 0 52.7652C0 44.7372 0 36.7091 0 28.6811C0 27.9595 0.36081 27.5987 1.08243 27.5987C2.55144 27.5987 4.02046 27.5987 5.54102 27.5987V27.0961C5.54102 18.7073 5.54102 10.3313 5.54102 1.94249C5.54102 1.38839 5.66988 0.898719 6.15955 0.640997C6.45593 0.486364 6.82962 0.409047 7.17755 0.409047C14.368 0.396161 21.5455 0.409047 28.736 0.409047C32.5116 0.409047 36.2872 0.409047 40.0628 0.409047C40.6814 0.409047 41.1581 0.589452 41.5963 1.02758C44.4312 3.88829 47.2662 6.72323 50.1269 9.55817C50.5263 9.95763 50.7067 10.3829 50.7067 10.9499C50.7067 16.3234 50.7067 21.6969 50.7067 27.0703C50.7067 27.2379 50.7067 27.4054 50.7067 27.6245L50.6938 27.5987ZM8.33729 27.5729H47.8976V11.6586C46.8924 11.6586 45.9002 11.6586 44.9209 11.6586C42.2406 11.6457 40.0628 9.8932 39.5732 7.26444C39.4056 6.33664 39.4701 5.3573 39.4443 4.40373C39.4443 4.00426 39.4443 3.59191 39.4443 3.17955H8.33729V27.5729ZM8.33729 60.0458H47.8976V53.8734H8.33729V60.0458ZM40.2819 34.8922V46.4897H42.4339V38.8998C42.5756 39.1188 42.64 39.2348 42.7174 39.3508C44.1348 41.6316 45.5394 43.9253 46.9569 46.2062C47.0342 46.3222 47.1631 46.4897 47.2661 46.4897C47.9878 46.5154 48.7094 46.5026 49.4439 46.5026V34.918H47.3048V42.6496C47.1631 42.4434 47.0857 42.3404 47.0213 42.2244C45.5781 39.8791 44.1477 37.5338 42.7045 35.1886C42.6272 35.0597 42.4854 34.8922 42.3565 34.8922C41.6736 34.8664 40.9906 34.8793 40.269 34.8793L40.2819 34.8922ZM38.4005 40.7167C38.3619 40.2657 38.349 39.8018 38.2717 39.3508C37.9495 37.3534 36.9444 35.8715 35.0244 35.0984C34.1095 34.7247 33.143 34.6474 32.1637 34.7118C30.1405 34.8407 28.5942 35.7685 27.7308 37.624C26.8804 39.4668 26.8675 41.3868 27.5118 43.2939C28.0659 44.9433 29.2385 46 30.9137 46.4768C31.8157 46.7345 32.7435 46.7861 33.6842 46.6572C35.2305 46.451 36.4934 45.7681 37.3825 44.4666C38.1557 43.3326 38.3876 42.0569 38.4005 40.7167ZM16.1334 42.7656C16.1591 42.946 16.1849 43.1006 16.2107 43.2424C16.52 44.7629 17.2931 45.9098 18.8137 46.4124C20.2827 46.8891 21.7775 46.8634 23.2465 46.3737C24.6124 45.9098 25.5273 44.6727 25.566 43.3455C25.6046 41.6445 24.9346 40.5363 23.4011 39.9307C22.7568 39.6729 22.0739 39.5183 21.4038 39.3121C20.7595 39.1188 20.1152 38.9384 19.4838 38.7065C19.0585 38.5518 18.775 38.2426 18.775 37.7658C18.775 37.2761 19.0972 37.0055 19.5224 36.8509C20.2827 36.5545 21.0687 36.5545 21.8419 36.7993C22.2285 36.9153 22.5893 37.1601 22.6666 37.5338C22.8213 38.3328 23.298 38.3586 23.9423 38.2684C24.3547 38.2039 24.7928 38.2684 25.2438 38.2684C25.1536 36.8895 24.6382 35.8587 23.4656 35.2917C22.9115 35.0211 22.2671 34.8664 21.6486 34.7762C20.5404 34.6345 19.4322 34.6989 18.3884 35.1886C17.2287 35.7298 16.5844 36.6576 16.5586 37.9204C16.5328 39.1188 17.0869 40.0724 18.1565 40.6394C18.775 40.9615 19.4709 41.1806 20.1409 41.3997C20.927 41.6574 21.7517 41.812 22.512 42.1084C23.3238 42.4306 23.53 43.3455 22.9372 44.0027C22.6666 44.299 22.28 44.5439 21.9063 44.6598C21.494 44.7887 21.0301 44.7758 20.5791 44.7629C19.574 44.7114 18.891 44.1831 18.556 43.2295C18.4786 43.0104 18.4271 42.8043 18.3498 42.5594C17.6024 42.6367 16.8679 42.7141 16.1205 42.7785L16.1334 42.7656ZM6.79097 42.946C6.79097 43.1522 6.79097 43.3197 6.79097 43.4743C6.86828 45.0207 7.71876 46.232 9.09757 46.5412C9.76765 46.6959 10.4893 46.6959 11.1851 46.6443C12.5897 46.5412 13.6979 45.549 14.0072 44.1831C14.136 43.6032 14.2005 42.9975 14.2005 42.4048C14.2262 40.008 14.2005 37.6112 14.2133 35.2015C14.2133 34.9437 14.1103 34.8793 13.8783 34.8793C13.3371 34.8922 12.8088 34.9051 12.2676 34.8793C11.9325 34.8664 11.8681 34.9824 11.8681 35.2917C11.8681 37.7014 11.8681 40.1111 11.8681 42.5336C11.8681 42.9073 11.8423 43.2682 11.7779 43.6419C11.649 44.3892 11.2882 44.7114 10.5924 44.75C9.81919 44.7887 9.30375 44.4537 9.11046 43.7707C9.02026 43.4357 8.9816 43.0749 8.91717 42.7269C8.19555 42.8043 7.4997 42.8945 6.80385 42.9718L6.79097 42.946Z" fill="black"/>
<path d="M8.33594 27.5721V3.17871H39.4429C39.4429 3.59107 39.4429 3.99054 39.4429 4.40289C39.4687 5.35646 39.4043 6.3358 39.5718 7.2636C40.0615 9.89236 42.2521 11.6449 44.9195 11.6578C45.8989 11.6578 46.8782 11.6578 47.8962 11.6578V27.5721H8.33594ZM14.779 18.5132H41.4403V16.2194H14.7919V18.5132H14.779ZM14.779 23.964H41.4403V21.6702H14.7919V23.964H14.779ZM33.6313 10.7686H14.7919V13.0623H33.6442V10.7686H33.6313Z" fill="white"/>
<path d="M8.33594 60.0465V53.874H47.8962V60.0465H8.33594Z" fill="white"/>
<path d="M40.2832 34.8924C40.9919 34.8924 41.6878 34.8795 42.3707 34.9053C42.4867 34.9053 42.6285 35.0728 42.7187 35.2016C44.1619 37.5469 45.5923 39.8922 47.0355 42.2375C47.0999 42.3534 47.1901 42.4565 47.319 42.6627V34.931H49.4581V46.5156C48.7236 46.5156 48.002 46.5156 47.2803 46.5027C47.1773 46.5027 47.0484 46.3352 46.9711 46.2192C45.5536 43.9384 44.1361 41.6447 42.7316 39.3639C42.6542 39.2479 42.5898 39.1319 42.4481 38.9128V46.5027H40.2961V34.9053L40.2832 34.8924Z" fill="white"/>
<path d="M38.4005 40.7303C38.3747 42.0704 38.1427 43.3462 37.3825 44.4801C36.4933 45.7816 35.2305 46.4775 33.6842 46.6708C32.7564 46.7868 31.8286 46.7481 30.9137 46.4904C29.2513 46.0007 28.0658 44.944 27.5117 43.3075C26.8803 41.4133 26.8803 39.4803 27.7308 37.6376C28.5942 35.782 30.1405 34.8671 32.1636 34.7254C33.1429 34.6609 34.1094 34.7254 35.0243 35.112C36.9315 35.8851 37.9495 37.367 38.2716 39.3644C38.3489 39.8154 38.3618 40.2793 38.4005 40.7303ZM36.0423 40.8463C35.9521 40.1504 35.9135 39.6092 35.7975 39.0938C35.4624 37.6247 34.3671 36.7485 32.8852 36.6969C31.326 36.6583 30.1663 37.4443 29.741 38.9005C29.3931 40.0602 29.3931 41.2457 29.7152 42.4055C30.0889 43.7714 31.21 44.6863 32.5115 44.7508C33.9419 44.8152 35.1145 44.1451 35.6042 42.8436C35.849 42.1606 35.9263 41.4133 36.0552 40.8463H36.0423Z" fill="white"/>
<path d="M16.1328 42.766C16.8802 42.6887 17.6147 42.6114 18.3621 42.5469C18.4265 42.7789 18.491 42.998 18.5683 43.217C18.9033 44.1706 19.5863 44.6989 20.5914 44.7505C21.0295 44.7762 21.5063 44.7762 21.9187 44.6474C22.3052 44.5314 22.6918 44.2866 22.9495 43.9902C23.5294 43.333 23.3232 42.4181 22.5243 42.0959C21.764 41.7996 20.9393 41.632 20.1533 41.3872C19.4832 41.1681 18.7873 40.962 18.1688 40.6269C17.0993 40.0599 16.5452 39.1192 16.5709 37.908C16.5967 36.6451 17.241 35.7173 18.4008 35.1761C19.4445 34.6864 20.5527 34.622 21.6609 34.7638C22.2795 34.8411 22.9238 35.0086 23.4779 35.2792C24.6505 35.8462 25.166 36.8771 25.2562 38.2559C24.8051 38.2559 24.367 38.2043 23.9547 38.2559C23.3104 38.3461 22.8207 38.3203 22.6789 37.5214C22.6016 37.1477 22.2408 36.9028 21.8542 36.7869C21.0811 36.5549 20.295 36.5549 19.5347 36.8384C19.1224 36.993 18.8002 37.2637 18.7873 37.7533C18.7873 38.243 19.0708 38.5523 19.4961 38.694C20.1275 38.926 20.7847 39.1064 21.4161 39.2997C22.0862 39.5058 22.7691 39.6733 23.4134 39.9182C24.934 40.5238 25.617 41.632 25.5783 43.333C25.5397 44.6603 24.6247 45.8973 23.2588 46.3612C21.7898 46.8638 20.295 46.8767 18.826 46.3999C17.2926 45.9102 16.5323 44.7505 16.223 43.2299C16.1972 43.0882 16.1715 42.9335 16.1457 42.7531L16.1328 42.766Z" fill="white"/>
<path d="M6.79023 42.9596C7.49896 42.8823 8.18193 42.805 8.90355 42.7148C8.96798 43.0756 9.00664 43.4235 9.09684 43.7586C9.29013 44.4544 9.80557 44.7895 10.5787 44.7379C11.2746 44.6993 11.6354 44.3771 11.7643 43.6297C11.8287 43.2689 11.8545 42.8952 11.8545 42.5215C11.8545 40.1118 11.8545 37.7021 11.8545 35.2795C11.8545 34.9703 11.9189 34.8543 12.2539 34.8672C12.7823 34.8929 13.3235 34.8801 13.8647 34.8672C14.1095 34.8672 14.1997 34.9187 14.1997 35.1893C14.1997 37.5861 14.1997 39.9829 14.1868 42.3926C14.1868 42.9854 14.1224 43.591 13.9935 44.1709C13.6972 45.5368 12.5761 46.5291 11.1715 46.6322C10.4885 46.6837 9.75403 46.6837 9.08395 46.5291C7.70514 46.2198 6.85466 45.0214 6.77734 43.4622C6.77734 43.2947 6.77734 43.1271 6.77734 42.9339L6.79023 42.9596Z" fill="white"/>
<path d="M14.793 18.5144V16.2207H41.4543V18.5144H14.793Z" fill="black"/>
<path d="M14.793 23.9651V21.6714H41.4543V23.9651H14.793Z" fill="black"/>
<path d="M33.6453 10.7832V13.0769H14.793V10.7832H33.6453Z" fill="black"/>
<path d="M36.0433 40.8338C35.9144 41.4008 35.85 42.1482 35.5923 42.8311C35.1155 44.1326 33.9428 44.8027 32.4996 44.7383C31.1852 44.6738 30.077 43.7718 29.7033 42.393C29.3812 41.2333 29.3812 40.0477 29.7291 38.888C30.1543 37.4319 31.3141 36.6329 32.8733 36.6845C34.3552 36.7231 35.4505 37.6123 35.7856 39.0813C35.9015 39.5967 35.9402 40.1379 36.0304 40.8338H36.0433Z" fill="black"/>
</svg>
