<svg width="119" height="62" viewBox="0 0 119 62" fill="none" xmlns="http://www.w3.org/2000/svg">
<path d="M82.791 8.22112C84.1617 7.75308 84.7635 8.47742 85.1089 9.25747C85.3318 9.74779 85.042 10.4833 84.4626 10.8844C84.1171 9.88151 83.5042 9.05689 82.791 8.23226V8.22112Z" fill="#04628B"/>
<path d="M13.5471 53.4403C13.7366 53.2954 13.7588 53.1171 13.8368 52.9723C15.6866 48.8491 17.5254 44.7371 19.3752 40.614C19.3975 40.5694 19.4198 40.5248 19.4421 40.4691C20.2556 38.4744 21.9382 37.8169 23.8884 38.0621C24.4455 38.129 25.0027 38.2627 25.5376 38.441C26.6185 38.8087 27.1534 39.4996 27.2091 40.6474C27.2203 40.8703 27.2203 41.0932 27.2203 41.316C27.2203 46.1412 27.2203 50.9664 27.2203 55.7916C27.2203 55.8473 27.2203 55.8919 27.2203 55.9476C27.2203 56.3933 27.2203 56.3933 26.7746 56.3933C25.7605 56.3933 24.7576 56.3933 23.7435 56.3933C23.32 56.3933 23.32 56.3933 23.32 55.9699C23.32 54.5658 23.32 53.1617 23.32 51.7576C23.32 48.4145 23.32 45.0826 23.32 41.7395C23.32 41.5723 23.32 41.4163 23.32 41.2492C23.2866 41.2492 23.2532 41.238 23.2198 41.2269C23.1418 41.394 23.0637 41.55 22.9857 41.7172C21.1025 45.8961 19.1969 50.0638 17.3582 54.2649C16.645 55.903 15.4861 56.6831 13.7142 56.6051C13.2908 56.5828 12.8562 56.5828 12.4328 56.4936C11.6416 56.3265 11.0175 55.9253 10.5606 55.2567C10.3489 54.9447 10.1817 54.6104 10.0257 54.2649C8.14244 50.0749 6.24801 45.8738 4.36474 41.6838C4.28673 41.5166 4.24219 41.3383 4.05275 41.1489C4.05275 41.394 4.05275 41.5723 4.05275 41.7618C4.05275 46.431 4.05275 51.1113 4.05275 55.7804C4.05275 56.4825 4.13075 56.3933 3.41756 56.3933C2.49264 56.3933 1.56773 56.3933 0.642808 56.3933C0.130202 56.3933 0.152486 56.4379 0.152486 55.8919C0.152486 51.167 0.152486 46.4421 0.152486 41.7172C0.152486 41.4052 0.152486 41.1043 0.152486 40.7923C0.185917 39.5108 0.720794 38.7976 1.94659 38.4075C2.73779 38.1512 3.52897 37.9841 4.36474 38.0064C6.01399 38.051 7.20637 38.7864 7.86385 40.3131C8.68847 42.2075 9.51313 44.1131 10.3266 46.0075C11.3295 48.3142 12.3213 50.621 13.3242 52.9277C13.3911 53.0837 13.4691 53.2397 13.5582 53.4291L13.5471 53.4403Z" fill="#00628B"/>
<path d="M89.078 55.6472C89.2005 55.4578 89.4011 55.4243 89.5571 55.3352C90.4598 54.8449 91.0504 54.1094 91.251 53.073C91.329 52.6496 91.3401 52.2261 91.3401 51.7915V42.9101C91.3401 42.6872 91.329 42.4643 91.3178 42.2414C91.2733 41.5283 91.0058 40.8819 90.5489 40.3247C90.0586 39.723 89.4234 39.3218 88.7102 39.0432C87.5847 38.5975 86.4147 38.3858 85.2 38.3969H78.2129C77.6112 38.3969 77.0206 38.408 76.4188 38.5195C75.4716 38.6978 74.5467 38.9429 73.7109 39.4555C72.8306 39.9904 72.24 40.7259 72.0059 41.7288C71.9168 42.1189 71.8945 42.5089 71.8945 42.9101V51.7358C71.8945 52.6384 72.0171 53.5076 72.5631 54.2766C73.02 54.934 73.644 55.3575 74.3684 55.6695C75.5385 56.2044 76.7754 56.4384 78.0569 56.4384C80.3079 56.4384 82.5478 56.4607 84.7877 56.2824C85.1109 56.249 85.3337 56.3493 85.5677 56.561C86.3812 57.3188 87.217 58.0431 88.0305 58.7897C88.231 58.9792 88.4428 59.0572 88.7214 59.0572C89.9583 59.046 91.1841 59.046 92.4099 59.046C92.5213 59.046 92.655 59.1129 92.7553 58.9569C91.5184 57.8425 90.2926 56.7393 89.0668 55.6249L89.078 55.6472ZM87.6962 51.7135C87.6962 52.3153 87.4955 52.8167 87.0387 53.2068C86.7155 53.4854 86.6932 53.4854 86.3701 53.2068C85.6346 52.5381 84.8769 51.8918 84.1637 51.2121C83.9185 50.978 83.6733 50.8889 83.339 50.9C82.1132 50.9112 80.9097 50.9 79.6839 50.9C79.6059 50.9 79.5279 50.8777 79.383 50.9892C80.3971 51.9141 81.4111 52.839 82.5144 53.8419C81.0991 53.8419 79.8065 53.842 78.525 53.8308C78.2687 53.8308 77.9789 53.7528 77.7226 53.6859C76.6751 53.3739 76.1179 52.6719 76.1179 51.5798C76.1068 48.7493 76.1179 45.9411 76.1179 43.1106C76.1068 42.208 76.5525 41.6285 77.366 41.2942C77.8229 41.1048 78.2909 41.0268 78.7701 41.0268C80.8651 41.0157 82.9824 41.0156 85.0885 41.0156C85.5788 41.0268 86.0804 41.1159 86.5373 41.3277C87.295 41.6731 87.685 42.2526 87.685 43.0995V51.7247L87.6962 51.7135Z" fill="#E28E25"/>
<path d="M117.796 43.6791C117.217 43.1999 116.626 42.7319 116.024 42.275C115.211 41.6732 114.342 41.1606 113.406 40.7594C112.091 40.2023 110.887 39.4556 109.762 38.5753C108.781 37.8064 108.068 36.848 107.578 35.7114C107.5 35.5331 107.566 35.4105 107.667 35.2991C107.8 35.1542 107.99 35.1096 108.157 35.0428C110.107 34.2516 112.146 33.9841 114.241 34.0398C114.308 34.0398 114.375 34.0398 114.431 34.0287C114.531 33.8838 114.42 33.7947 114.353 33.7055C114.13 33.4158 113.84 33.2041 113.528 33.0146C112.626 32.4575 111.745 31.8668 110.898 31.2205C109.684 30.2844 108.28 29.7495 106.853 29.2815C106.352 29.1144 105.85 28.9472 105.349 28.7801C104.792 28.6018 104.357 28.2675 104.056 27.7548C103.744 27.2311 103.41 26.6962 103.154 26.139C102.184 24.0775 101.237 22.0159 100.278 19.9543C100.212 19.8095 100.145 19.6757 100.1 19.5309C99.3313 17.2464 98.0275 15.2629 96.5454 13.3907C94.2498 10.4711 91.4527 8.14209 88.1431 6.44826C87.7642 6.25882 87.3742 6.08052 86.973 5.91337C86.0035 5.48991 85.0006 5.24475 83.9308 5.25589C83.3625 5.25589 82.8165 5.11102 82.2481 5.12217C81.9696 5.12217 81.7355 4.93273 81.5349 4.75443C80.4317 3.74036 79.0834 3.13861 77.7238 2.58143C77.3227 2.41427 76.9215 2.29169 76.4869 2.24712C75.718 2.16911 75.2388 2.71515 75.4394 3.46177C75.6177 4.14153 76.0078 4.69871 76.4312 5.24475C76.8212 5.74621 77.2001 6.24767 77.5901 6.74914C78.4705 7.8635 79.0611 9.13387 79.4734 10.4822C79.7297 11.3292 80.0083 12.1761 80.298 13.023C80.5209 13.6693 80.8218 14.2822 81.1561 14.884C81.457 15.4077 81.7913 15.898 82.2481 16.2992C82.8276 16.823 83.0059 17.447 82.7719 18.2048C82.6159 18.7285 82.4376 19.2523 82.237 19.7537C81.6018 21.403 81.4458 23.108 81.5684 24.8464C81.6575 26.2393 81.9584 27.5877 82.5602 28.8581C82.6828 29.1255 82.8053 29.3818 82.9725 29.627C83.1174 29.8276 83.2733 29.9947 83.4851 30.1284C83.942 30.4182 84.0534 30.3736 84.1203 29.8498C84.254 28.9138 84.3209 27.9777 84.5103 27.0528C84.6998 26.1279 85.0452 25.2921 85.6692 24.5789C85.8698 24.3449 86.0481 24.0997 86.2376 23.8546C86.3267 23.7431 86.4158 23.7543 86.4827 23.8657C86.5384 23.9549 86.5941 24.044 86.6164 24.1443C86.9284 25.2698 87.4411 26.3173 87.9537 27.3537C88.9232 29.3038 90.0375 31.1648 91.3079 32.9366C91.5976 33.3378 91.9208 33.7167 92.2217 34.1067C92.2551 34.2181 92.1994 34.2516 92.0991 34.2516C91.3079 33.583 90.4722 32.9478 89.7255 32.2123C88.6669 31.1759 87.7308 30.0504 87.1402 28.6686C86.9508 28.234 86.7167 27.8217 86.4047 27.3983C86.3155 27.8329 86.2264 28.2786 86.1484 28.7132C86.0704 29.1812 86.0258 29.6604 85.9367 30.1396C85.8921 30.3736 85.8364 30.6076 85.7584 30.8305C85.3795 31.8445 84.3432 32.2569 83.3737 31.7888C82.9279 31.5771 82.5825 31.2539 82.2816 30.8751C81.3344 29.7161 80.8106 28.3789 80.5097 26.9414C80.0306 24.6346 80.1197 22.3502 80.7883 20.088C80.9221 19.6423 81 19.1966 81.1115 18.7397C81.1672 18.4834 81.2229 18.2271 81.3567 18.0153C81.535 17.7256 81.4569 17.4804 81.2563 17.2798C80.0083 16.0318 79.3842 14.4382 78.7825 12.8335C78.4036 11.8306 78.0247 10.8166 77.7684 9.76905C77.6347 9.22302 77.3338 8.76613 77.0218 8.32039C76.5203 7.60719 75.9966 6.90515 75.4506 6.22539C74.9937 5.66821 74.5813 5.0776 74.2916 4.42012C74.0353 3.81837 73.9239 3.20547 74.091 2.57028C74.3807 1.38906 75.2722 0.698155 76.5203 0.687012C77.2669 0.687012 77.9801 0.854165 78.671 1.12161C79.9971 1.63422 81.2787 2.24712 82.3596 3.20547C82.6828 3.4952 83.0394 3.64007 83.474 3.64007C85.0118 3.61778 86.4938 3.97438 87.9425 4.47584C88.288 4.59842 88.6111 4.73214 88.9232 4.92159C91.2187 6.25882 93.4141 7.75206 95.3642 9.56847C97.5149 11.5743 99.2644 13.881 100.758 16.3995C101.059 16.901 101.281 17.4359 101.482 17.9819C102.262 20.01 103.198 21.9713 104.157 23.9214C104.48 24.5789 104.803 25.2475 105.126 25.905C105.293 26.2393 105.471 26.5736 105.672 26.8968C105.817 27.1197 106.006 27.2868 106.263 27.376C109.427 28.4569 112.091 30.3513 114.631 32.4686C115.345 33.0592 115.857 33.7947 116.437 34.4967C116.626 34.7196 116.582 34.8533 116.292 34.9425C115.512 35.1876 114.721 35.4328 113.896 35.4885C113.005 35.5554 112.135 35.7337 111.277 35.9788C110.898 36.0903 110.519 36.1571 110.118 36.2574C110.23 36.6363 110.486 36.8926 110.754 37.1378C111.199 37.5501 111.701 37.8732 112.224 38.163C113.941 39.1213 115.4 40.3583 116.615 41.8961C116.727 42.041 116.86 42.1858 117.005 42.3084C117.462 42.6984 117.774 43.1665 117.963 43.7348C117.919 43.7794 117.863 43.7905 117.807 43.7459L117.796 43.6791Z" fill="#00628B"/>
<path d="M49.0613 51.0777C49.0613 53.2173 49.039 55.3569 49.0613 57.4965C49.0724 58.9786 48.4149 60.0483 47.1557 60.7838C46.2196 61.3299 45.2055 61.5862 44.1469 61.7533C43.5228 61.8536 42.8876 61.8648 42.2525 61.8648C38.5416 61.8648 34.8197 61.8648 31.1088 61.8648C30.4737 61.8648 30.5517 61.9428 30.5406 61.2853C30.5406 60.7392 30.5406 60.1932 30.5406 59.6472C30.5406 59.2683 30.5406 59.2571 30.9417 59.2571C32.3124 59.2571 33.6831 59.2571 35.0537 59.2571C37.5165 59.2571 39.9903 59.2571 42.453 59.2571C43.0102 59.2571 43.5451 59.1903 44.0689 58.9897C44.8378 58.7 45.1387 58.2542 45.1275 57.4296C45.1275 57.1399 45.1275 56.8501 45.1275 56.5604C45.1275 56.3932 45.0607 56.3041 44.8824 56.3041C44.7598 56.3041 44.6372 56.3041 44.5258 56.3041C42.1076 56.3041 39.7006 56.3041 37.2824 56.3041C36.0232 56.3041 34.7863 56.1927 33.5828 55.8026C32.8584 55.5686 32.1898 55.2454 31.5992 54.7551C30.8303 54.1199 30.4403 53.3287 30.4514 52.2924C30.4848 49.6179 30.4736 46.9546 30.4736 44.2801C30.4736 43.8901 30.4737 43.879 30.8526 43.879C31.8778 43.879 32.903 43.879 33.9394 43.879C34.3517 43.879 34.3628 43.879 34.3628 44.3024C34.3628 46.9212 34.3628 49.5399 34.3628 52.1587C34.3628 53.1504 34.7528 53.6408 35.7223 53.8413C36.0566 53.9082 36.4021 53.9528 36.7364 53.9528C39.3886 53.9528 42.0407 53.9528 44.7041 53.9528C45.1387 53.9528 45.1498 53.9528 45.1498 53.4959C45.1498 50.4871 45.1498 47.4672 45.1498 44.4584C45.1498 44.3358 45.1498 44.2133 45.1498 44.1018C45.1387 43.9124 45.2167 43.8232 45.4173 43.8232C46.5428 43.8232 47.6794 43.8232 48.8049 43.8232C49.0166 43.8232 49.0613 43.9347 49.0613 44.113C49.0613 44.6924 49.0613 45.2719 49.0613 45.8625C49.0613 47.6121 49.0613 49.3505 49.0613 51.1V51.0777Z" fill="#00628B"/>
<path d="M62.6687 38.3521C65.0088 38.3521 66.9924 38.3521 68.9871 38.3521C69.1097 38.3521 69.2322 38.3521 69.3437 38.3521C69.5108 38.3521 69.5889 38.4301 69.5889 38.5972C69.5889 39.2993 69.5889 40.0013 69.5889 40.7034C69.5889 40.9039 69.4997 40.9819 69.3103 40.9708C69.1877 40.9708 69.0651 40.9708 68.9537 40.9708C65.566 40.9708 62.1672 40.9708 58.7795 40.9708C58.2447 40.9708 57.7209 40.9931 57.1972 41.1045C56.406 41.2717 56.0493 41.684 56.0382 42.4975C56.0382 43.0769 56.0382 43.6564 56.0382 44.247C56.0605 45.2388 56.5731 45.8517 57.5426 46.03C57.9326 46.108 58.3227 46.1303 58.7127 46.1303C60.3174 46.1303 61.9332 46.1303 63.5379 46.1303C64.9086 46.1414 66.2235 46.42 67.4493 47.0552C67.9285 47.3004 68.363 47.5901 68.7308 47.9801C69.1765 48.4593 69.4328 49.0165 69.4217 49.6962C69.4105 50.5655 69.3994 51.4458 69.4217 52.315C69.444 53.4182 68.976 54.2651 68.1179 54.9115C67.0481 55.7138 65.8335 56.1261 64.5185 56.3044C63.9056 56.3824 63.2927 56.3936 62.6687 56.3936C59.359 56.3936 56.0605 56.3936 52.7509 56.3936C52.6506 56.3936 52.5503 56.3936 52.4388 56.3936C52.0599 56.3936 52.0488 56.3936 52.0488 55.9924C52.0488 55.3572 52.0488 54.722 52.0488 54.0868C52.0488 53.8751 52.1157 53.7637 52.3386 53.7748C52.4723 53.7748 52.6172 53.7748 52.7509 53.7748C55.9825 53.7748 59.2253 53.7748 62.4569 53.7748C62.9918 53.7748 63.5156 53.7748 64.0394 53.6299C64.396 53.5408 64.708 53.3848 64.9865 53.1396C65.3097 52.8499 65.4992 52.5156 65.4769 52.0587C65.4657 51.4792 65.4769 50.8998 65.4769 50.3091C65.4769 49.5291 65.1648 49.0611 64.4294 48.7936C63.8276 48.5707 63.1924 48.5039 62.5684 48.5039C61.2312 48.5039 59.8939 48.5039 58.5567 48.5039C57.186 48.5039 55.8599 48.2922 54.6007 47.7684C53.9432 47.501 53.3526 47.1332 52.8623 46.6206C52.372 46.0969 52.0934 45.4951 52.1157 44.7708C52.1268 43.9461 52.1157 43.1327 52.1268 42.308C52.1491 41.0154 52.7397 40.0459 53.8429 39.3996C54.8013 38.8312 55.8376 38.5192 56.952 38.4412C58.969 38.3075 60.9971 38.4078 62.6575 38.3743L62.6687 38.3521Z" fill="#E28E25"/>
<path d="M97.6959 45.3502C97.6959 47.3672 97.6959 49.3842 97.6959 51.4124C97.6959 51.5461 97.6959 51.691 97.6959 51.8247C97.7293 52.8499 98.1751 53.3959 99.178 53.6299C99.8021 53.7748 100.437 53.7748 101.072 53.7748C104.17 53.7748 107.268 53.7748 110.366 53.7748C110.489 53.7748 110.611 53.7748 110.723 53.7748C111.102 53.786 111.113 53.786 111.113 54.1871C111.113 54.8223 111.113 55.4575 111.113 56.0815C111.113 56.2933 111.057 56.4047 110.823 56.3824C110.734 56.3824 110.656 56.3824 110.567 56.3824C107.38 56.3824 104.193 56.3824 101.017 56.3824C99.7352 56.3824 98.4537 56.2487 97.2167 55.8921C96.8267 55.7807 96.4367 55.6358 96.069 55.4575C94.5757 54.722 93.8069 53.5297 93.7846 51.8581C93.7846 50.6212 93.7846 49.3954 93.7846 48.1584C93.7846 45.0828 93.7846 41.996 93.7846 38.9204C93.7846 38.3521 93.7288 38.3521 94.3306 38.3521C95.3112 38.3521 96.2807 38.3521 97.2614 38.3521C97.6848 38.3521 97.6848 38.3521 97.6848 38.7755C97.6848 40.9708 97.6848 43.155 97.6848 45.3502H97.6959Z" fill="#E28E25"/>
<path d="M115.893 50.8558C114.222 50.8335 112.985 52.037 112.951 53.6862C112.94 55.3132 114.188 56.5947 115.804 56.6059C117.398 56.6059 118.679 55.3467 118.701 53.7531C118.735 52.1596 117.476 50.8781 115.893 50.8558ZM115.86 56.0041C114.589 56.0153 113.598 55.0123 113.598 53.7085C113.598 52.4047 114.545 51.4464 115.815 51.4464C117.086 51.4464 118.033 52.4047 118.033 53.6974C118.044 54.9789 117.097 55.9818 115.849 56.0041H115.86ZM116.339 52.1039C115.882 52.0704 115.425 52.0927 114.957 52.0816C114.734 52.0816 114.656 52.1707 114.656 52.3936C114.667 52.7279 114.656 53.0734 114.656 53.4188V55.0012C114.656 55.2018 114.645 55.3801 114.935 55.3801C115.202 55.3912 115.236 55.2464 115.236 55.0346C115.225 54.7337 115.236 54.4552 115.225 54.1543C115.225 54.0094 115.303 53.9537 115.447 53.9426C115.637 53.9314 115.771 53.9648 115.871 54.1543C116.027 54.4552 116.216 54.7337 116.406 55.0346C116.569 55.2946 116.833 55.3801 117.197 55.2909C116.918 54.8563 116.64 54.4217 116.328 53.9426C116.662 53.8423 116.918 53.7531 117.063 53.4968C117.42 52.9062 117.063 52.1819 116.339 52.1039ZM116.161 53.4522C116.038 53.4634 115.904 53.4634 115.849 53.4745C115.418 53.482 115.21 53.2925 115.225 52.9062C115.232 52.661 115.369 52.5347 115.637 52.5273C115.849 52.5273 116.049 52.5273 116.239 52.5942C116.461 52.661 116.595 52.7836 116.584 53.0288C116.573 53.2739 116.45 53.4077 116.161 53.4634V53.4522Z" fill="#E38E25"/>
<path d="M92.1211 34.2181C92.1211 34.2181 92.2103 34.129 92.2437 34.0732C92.7118 34.5078 93.1352 34.9982 93.6478 35.3882C93.1686 35.3213 92.7451 34.987 92.1211 34.2181Z" fill="#3D6E94"/>
<path d="M117.797 43.6791C117.797 43.6791 117.897 43.6791 117.953 43.668C118.008 43.7014 118.008 43.7459 117.953 43.7682C117.886 43.7905 117.83 43.7571 117.797 43.6902V43.6791Z" fill="#5580A4"/>
<path d="M117.069 53.4968C117.426 52.9062 117.069 52.1818 116.345 52.1038C115.888 52.0704 115.431 52.0927 114.963 52.0815C114.74 52.0815 114.662 52.1707 114.662 52.3936C114.673 52.7279 114.662 53.0733 114.662 53.4188V55.0012C114.662 55.2018 114.651 55.3801 114.941 55.3801C115.208 55.3912 115.242 55.2463 115.242 55.0346C115.23 54.7337 115.242 54.4551 115.231 54.1543C115.231 54.0094 115.308 53.9537 115.453 53.9425C115.643 53.9314 115.776 53.9648 115.877 54.1543C116.033 54.4551 116.222 54.7337 116.412 55.0346C116.575 55.2946 116.839 55.3801 117.203 55.2909C116.924 54.8563 116.646 54.4217 116.334 53.9425C116.668 53.8422 116.924 53.7531 117.069 53.4968ZM115.855 53.4745C115.424 53.4819 115.216 53.2925 115.231 52.9062C115.238 52.661 115.375 52.5347 115.643 52.5273C115.855 52.5273 116.055 52.5273 116.245 52.5942C116.467 52.661 116.601 52.7836 116.59 53.0288C116.579 53.2739 116.456 53.4076 116.167 53.4634C116.044 53.4745 115.91 53.4745 115.855 53.4856V53.4745Z" fill="#FFFEFE"/>
<path d="M117.069 53.4968C117.426 52.9062 117.069 52.1818 116.345 52.1038C115.888 52.0704 115.431 52.0927 114.963 52.0815C114.74 52.0815 114.662 52.1707 114.662 52.3936C114.673 52.7279 114.662 53.0733 114.662 53.4188V55.0012C114.662 55.2018 114.651 55.3801 114.941 55.3801C115.208 55.3912 115.242 55.2463 115.242 55.0346C115.23 54.7337 115.242 54.4551 115.231 54.1543C115.231 54.0094 115.308 53.9537 115.453 53.9425C115.643 53.9314 115.776 53.9648 115.877 54.1543C116.033 54.4551 116.222 54.7337 116.412 55.0346C116.575 55.2946 116.839 55.3801 117.203 55.2909C116.924 54.8563 116.646 54.4217 116.334 53.9425C116.668 53.8422 116.924 53.7531 117.069 53.4968ZM115.855 53.4745C115.424 53.4819 115.216 53.2925 115.231 52.9062C115.238 52.661 115.375 52.5347 115.643 52.5273C115.855 52.5273 116.055 52.5273 116.245 52.5942C116.467 52.661 116.601 52.7836 116.59 53.0288C116.579 53.2739 116.456 53.4076 116.167 53.4634C116.044 53.4745 115.91 53.4745 115.855 53.4856V53.4745Z" fill="#E38F27"/>
</svg>
