<svg width="124" height="71" viewBox="0 0 124 71" fill="none" xmlns="http://www.w3.org/2000/svg">
<path d="M51.7036 23.8608C44.1 16.2679 36.4965 8.65372 28.8929 1.0608C27.5018 -0.330348 25.4522 -0.362199 24.0292 1.01833C22.5743 2.43072 21.162 3.88558 19.7177 5.3192C19.3779 5.65903 19.3673 5.93513 19.7071 6.26434C21.4699 8.02717 23.2328 9.79001 25.0062 11.5316C25.1443 11.6697 25.3566 11.7652 25.5372 11.7652C25.9726 11.7865 26.408 11.7334 26.8328 11.7227C28.9991 11.6803 31.0805 13.8891 30.5814 16.4803C30.4965 16.9263 30.5602 17.1705 30.8469 17.4679C32.546 19.167 34.2451 20.8767 35.9655 22.5652C36.1354 22.7245 36.4965 22.8413 36.7089 22.7776C39.1301 22.1192 42.3478 24.2643 41.562 27.7688C41.1478 29.6803 38.8434 31.1245 37.0487 30.7741C34.7655 30.3387 33.2469 28.1936 33.6505 26.1228C33.7354 25.6661 33.9478 25.1989 33.4699 24.7422C31.9301 23.2555 30.4328 21.7263 28.9142 20.2183C28.7974 20.1015 28.6487 20.0166 28.4894 19.8997C28.4575 20.0378 28.4363 20.0697 28.4363 20.1121C28.4363 24.6467 28.4257 29.1812 28.4363 33.7157C28.4363 33.9387 28.6487 34.236 28.8505 34.3847C30.4646 35.5104 31.1018 37.6767 30.2947 39.4077C29.5726 40.9475 27.8735 41.9564 26.2699 41.8077C24.3372 41.6166 22.9779 40.321 22.5 38.2183C22.2239 37.0077 23.169 35.1068 24.4965 34.3316C24.9 34.098 25.0274 33.8431 25.0274 33.3971C25.0062 28.9475 25.0062 24.498 25.0274 20.0484C25.0274 19.5918 24.8682 19.3369 24.4858 19.1139C22.9035 18.1582 22.192 16.4059 22.6912 14.6431C22.7974 14.2502 22.723 13.9847 22.4469 13.7086C21.2044 12.4874 19.9832 11.2343 18.7513 10.013C18.1566 9.41833 17.5407 8.82364 16.9035 8.21833C16.6805 8.40948 16.5106 8.54753 16.3407 8.70682C13.2398 11.8077 10.1283 14.9086 7.01682 18.0201C5.05221 19.9847 3.08761 21.9493 1.12301 23.9139C-0.374336 25.4113 -0.374336 27.4289 1.12301 28.9475C1.36726 29.1918 1.63274 29.436 1.87699 29.6909C9.23629 37.0502 16.6062 44.4095 23.9655 51.7688C25.4947 53.298 27.5018 53.3086 29.0628 51.8112C29.1797 51.6944 29.3071 51.5883 29.4664 51.4608C29.4239 51.1529 29.4027 50.8237 29.4027 50.5051C29.4027 46.8945 32.323 43.9635 35.9336 43.9635C36.2416 43.9635 36.5496 43.9847 36.8469 44.0272C36.8894 43.9847 36.9212 43.9529 36.9531 43.921C41.7743 39.0998 46.6062 34.2785 51.4168 29.4573C51.8522 29.0219 52.2982 28.544 52.5744 28.013C53.3071 26.5794 52.9673 25.1776 51.6929 23.8927L51.7036 23.8608Z" fill="#F05232"/>
<path d="M119.965 44.6642H124C123.724 45.8324 123.458 46.9581 123.182 48.0731C122.195 52.0979 121.207 56.1227 120.209 60.1581C120.156 60.3598 120.071 60.551 120.05 60.7527C120.007 61.1669 119.784 61.3156 119.38 61.3156C118.403 61.305 117.426 61.305 116.45 61.3156C116.078 61.3156 115.897 61.1881 115.802 60.8165C115.165 58.3846 114.517 55.9634 113.858 53.5421C113.816 53.3722 113.742 53.2129 113.54 53.0536C113.317 53.9457 113.083 54.8271 112.86 55.7191C112.435 57.4076 112.021 59.0961 111.607 60.7846C111.511 61.1669 111.31 61.3262 110.906 61.3156C109.95 61.2943 108.995 61.2943 108.039 61.3156C107.646 61.3156 107.455 61.1988 107.349 60.7952C106.669 58.2041 105.957 55.6342 105.257 53.0536C104.534 50.3881 103.834 47.7333 103.111 45.0678C103.08 44.951 103.069 44.8341 103.037 44.643C104.407 44.643 105.724 44.643 107.051 44.6642C107.168 44.6642 107.37 44.9191 107.37 45.0465C107.37 47.7651 108.421 50.282 108.92 52.8943C109.005 53.3404 109.143 53.7757 109.377 54.2111C109.717 52.8094 110.088 51.4076 110.386 49.9952C110.747 48.3173 111.044 46.6182 111.384 44.9404C111.405 44.8235 111.618 44.6536 111.745 44.6536C112.913 44.6324 114.071 44.6324 115.239 44.6536C115.366 44.6536 115.6 44.8766 115.6 44.9934C115.727 47.6483 116.609 50.1545 117.15 52.7244C117.246 53.1811 117.363 53.6271 117.469 54.0837C117.533 54.0837 117.607 54.0837 117.671 54.0943C118.425 50.9722 119.179 47.8395 119.943 44.6642H119.965Z" fill="black"/>
<path d="M70.6288 48.2217C70.2996 48.2217 70.0554 48.2217 69.8111 48.2217C68.8341 48.2217 68.8872 48.3916 68.8872 47.2872C68.8872 46.5651 68.8978 45.8323 68.8872 45.1102C68.8872 44.7598 69.004 44.6217 69.3545 44.6323C69.7686 44.6429 70.1722 44.6323 70.597 44.6323C70.6819 43.6129 70.6925 42.6571 70.8518 41.7226C71.0217 40.7456 71.2341 39.758 71.6058 38.8553C72.3386 37.0925 73.804 36.2111 75.6518 36.0943C76.6501 36.0306 77.6589 36.2642 78.6678 36.4022C78.8164 36.4235 79.0607 36.5934 79.0607 36.6996C79.0925 37.8677 79.0819 39.0465 79.0819 40.1828C78.3279 40.0553 77.6695 39.8748 77.0005 39.843C75.8005 39.7792 75.0147 40.4589 74.8766 41.6589C74.781 42.4872 74.7917 43.3155 74.7492 44.1438C74.7279 44.5261 74.8872 44.6536 75.2589 44.6536C76.1722 44.6323 77.0855 44.6536 77.9987 44.6536C78.3386 44.6536 78.4872 44.7598 78.4766 45.1208C78.4554 46.0129 78.4554 46.9049 78.4766 47.7969C78.4766 48.158 78.3492 48.2748 77.9987 48.2642C77.1067 48.2536 76.2147 48.2748 75.3226 48.2536C74.8979 48.243 74.7386 48.3704 74.7386 48.8164C74.7704 52.7244 74.781 56.6323 74.8129 60.5297C74.8129 61.3474 74.8448 61.3474 74.0271 61.358C73.0713 61.358 72.1155 61.3368 71.1598 61.358C70.7138 61.3686 70.597 61.22 70.597 60.7846C70.6288 56.8341 70.6394 52.8837 70.6501 48.9438C70.6501 48.7421 70.6288 48.5403 70.6182 48.243L70.6288 48.2217Z" fill="black"/>
<path d="M51.8396 48.179C51.8396 47.0746 51.829 46.0127 51.8608 44.9613C51.8608 44.8445 52.1051 44.6534 52.2538 44.6427C52.6785 44.6003 53.1139 44.6321 53.6024 44.6321V41.4888H57.7865C57.7865 42.3065 57.8184 43.1242 57.7759 43.9419C57.744 44.4941 57.9246 44.6746 58.4768 44.6427C59.1564 44.6003 59.8467 44.6427 60.5369 44.6215C60.9086 44.6109 61.0573 44.7277 61.0467 45.1206C61.0254 45.9914 61.0254 46.8622 61.0467 47.7436C61.0467 48.1366 60.898 48.2534 60.5263 48.2428C59.783 48.2321 59.029 48.2428 58.2856 48.2428C57.967 48.2428 57.7759 48.3065 57.7759 48.6781C57.7971 51.0463 57.7546 53.4144 57.829 55.7826C57.8927 57.8852 59.2626 57.9808 60.7175 57.4923C60.9299 57.418 61.1316 57.3224 61.4077 57.2056C61.4396 57.3967 61.4821 57.5454 61.4821 57.6941C61.4821 58.5861 61.4821 59.4781 61.4821 60.3702C61.4821 60.7312 61.3759 60.9436 61.0254 61.0817C59.5281 61.6658 57.9883 61.8463 56.4484 61.3684C54.8343 60.8799 54.0272 59.6056 53.8679 58.0233C53.6768 56.1649 53.6661 54.2959 53.6131 52.4268C53.5812 51.2056 53.5918 49.9737 53.6131 48.7525C53.6131 48.3065 53.4431 48.1578 53.029 48.179C52.6573 48.2003 52.2856 48.179 51.8184 48.179H51.8396Z" fill="black"/>
<path d="M80.7781 36.2749H84.8135V61.1776C84.686 61.1988 84.5586 61.2413 84.4206 61.2413C83.3374 61.2413 82.2648 61.2413 81.1816 61.2519C80.8206 61.2519 80.6719 61.1669 80.6719 60.7634C80.7144 53.5209 80.7462 46.2678 80.7781 39.0253C80.7781 38.1333 80.7781 37.2413 80.7781 36.2749Z" fill="black"/>
<path d="M45.7766 44.665H49.8332C49.8545 44.8137 49.8863 44.9305 49.8863 45.0473C49.8863 50.2615 49.8863 55.4757 49.8863 60.6898C49.8863 61.1359 49.7801 61.3164 49.3023 61.3058C48.304 61.2739 47.3058 61.2845 46.3076 61.3058C45.8509 61.3058 45.7129 61.1783 45.7129 60.7004C45.7447 55.8367 45.7554 50.973 45.766 46.1199C45.766 45.6633 45.766 45.2066 45.766 44.6757L45.7766 44.665Z" fill="black"/>
<path d="M45.2364 38.8232C45.2364 37.2727 46.3833 36.0303 47.8063 36.0303C49.2506 36.0303 50.4293 37.3046 50.4293 38.8657C50.4293 40.363 49.2081 41.6373 47.7957 41.6267C46.3727 41.6267 45.2258 40.3736 45.2364 38.8232Z" fill="black"/>
<path d="M100.892 49.6133C100.892 49.6133 100.882 49.5815 100.882 49.5602C100.797 49.2204 100.701 48.8806 100.584 48.5408C99.6709 45.7903 97.6639 44.4629 94.8178 44.3354C94.7329 44.3354 94.6479 44.3354 94.5736 44.3354C94.4886 44.3354 94.4143 44.3354 94.3294 44.3354C94.2444 44.3354 94.1701 44.3354 94.0851 44.3354C93.9895 44.3354 93.894 44.3354 93.7984 44.3461C93.7134 44.3461 93.6285 44.3461 93.5329 44.3673C93.4904 44.3673 93.4267 44.3673 93.3842 44.3673C93.3417 44.3673 93.3099 44.3779 93.278 44.3779C93.14 44.3885 93.0125 44.4098 92.8851 44.431C92.8108 44.431 92.7364 44.4523 92.6621 44.4629C92.5771 44.4735 92.5028 44.4947 92.4285 44.5054C92.3435 44.5266 92.2692 44.5478 92.1948 44.5691C92.1524 44.5691 92.1205 44.5797 92.0886 44.6009C92.0037 44.6222 91.9294 44.6434 91.8444 44.6647C91.8019 44.6753 91.7594 44.6965 91.7276 44.7071C91.6851 44.7178 91.6426 44.739 91.6108 44.7496C91.5683 44.7602 91.5258 44.7815 91.4727 44.8027C91.4515 44.8027 91.4302 44.8133 91.409 44.824C91.3028 44.8664 91.1966 44.9089 91.0904 44.962C90.9842 45.0151 90.8674 45.0682 90.7612 45.1213C90.7187 45.1532 90.6763 45.1744 90.6444 45.2063C90.4108 45.3443 90.1771 45.5036 89.9648 45.6735C89.6993 45.8859 89.4656 46.1301 89.2426 46.385C89.0727 46.5974 88.9028 46.8204 88.7648 47.0647C88.4993 47.5001 88.2656 47.9992 88.0851 48.5514C87.9683 48.8912 87.8727 49.231 87.7878 49.5709C87.7878 49.5815 87.7878 49.6027 87.7771 49.6239C87.7453 49.7832 87.7347 49.9425 87.7028 50.1124C87.4904 51.6841 87.4692 53.2664 87.6603 54.8381C87.724 55.3585 87.809 55.8682 87.9152 56.3355C88.0001 56.6328 88.0851 56.9089 88.1807 57.1744C88.2656 57.408 88.3612 57.6416 88.4674 57.854C88.5417 58.0133 88.6161 58.162 88.701 58.3001C88.701 58.3001 88.701 58.3107 88.7117 58.3213C88.7435 58.385 88.7754 58.4487 88.8179 58.5124C88.8179 58.5337 88.8391 58.5443 88.8497 58.5656C88.9028 58.6505 88.9559 58.7355 89.0196 58.8204C89.0196 58.831 89.0302 58.8417 89.0409 58.8523C89.0833 58.9266 89.1471 59.001 89.2002 59.0647C89.2851 59.1709 89.3701 59.277 89.455 59.3726C89.54 59.4788 89.6355 59.5638 89.7417 59.6594C89.763 59.6806 89.7736 59.7018 89.7948 59.7124C89.8055 59.7231 89.8267 59.7443 89.8373 59.7443C89.8373 59.7443 89.8479 59.7549 89.8586 59.7549C89.8586 59.7549 89.8692 59.7655 89.8798 59.7868C89.8798 59.7868 89.8798 59.7868 89.8904 59.7868C89.901 59.7868 89.9117 59.7974 89.9223 59.8186C89.9223 59.8186 89.9435 59.8399 89.9541 59.8399C89.9648 59.8399 89.986 59.8611 89.986 59.8717C89.986 59.8717 90.0072 59.8824 90.0179 59.893C90.0285 59.9036 90.0391 59.9142 90.0497 59.9142C90.1028 59.9673 90.1665 60.0204 90.2302 60.0523C90.2302 60.0523 90.2515 60.0735 90.2621 60.0735C90.2621 60.0735 90.2656 60.0735 90.2727 60.0735C90.3471 60.1372 90.4214 60.1903 90.5063 60.2328C90.5807 60.2859 90.6656 60.339 90.74 60.3815C90.8886 60.4664 91.0373 60.5514 91.1966 60.6257C91.2391 60.647 91.2922 60.6682 91.3347 60.6894C91.4515 60.7425 91.5895 60.7956 91.7276 60.8487C91.8338 60.8806 91.9294 60.9125 92.0356 60.9549C92.0993 60.9762 92.163 60.9974 92.2373 61.008C92.3223 61.0399 92.4072 61.0611 92.5028 61.0824C92.6196 61.1142 92.7471 61.1355 92.8745 61.1567C92.9807 61.1779 93.0763 61.1992 93.1825 61.2098C93.3736 61.2417 93.5648 61.2629 93.7559 61.2841C93.9577 61.3054 94.1594 61.316 94.3612 61.316C94.563 61.316 94.7648 61.3054 94.9665 61.2841C95.1577 61.2629 95.3488 61.2417 95.54 61.2098C95.6462 61.1992 95.7524 61.1779 95.8479 61.1567C95.9754 61.1355 96.0922 61.1142 96.2196 61.0824C96.3046 61.0611 96.3895 61.0399 96.4851 61.008C96.5594 60.9974 96.6232 60.9762 96.6869 60.9549C96.7931 60.9231 96.8993 60.8912 96.9948 60.8487C97.1329 60.8063 97.2603 60.7425 97.3878 60.6894C97.4302 60.6682 97.4833 60.647 97.5258 60.6257C97.6108 60.5939 97.6851 60.5514 97.7594 60.5089C97.8338 60.4664 97.9081 60.424 97.9825 60.3815C98.0674 60.339 98.1417 60.2859 98.2161 60.2328C98.301 60.1903 98.3754 60.1266 98.4497 60.0735C98.4497 60.0735 98.4532 60.0735 98.4603 60.0735C98.4603 60.0735 98.4816 60.0629 98.4922 60.0523C98.5559 60.0098 98.6196 59.9673 98.6727 59.9142C98.6727 59.9142 98.694 59.9036 98.7046 59.893C98.7152 59.8824 98.7258 59.8823 98.7364 59.8717C98.7577 59.8611 98.7789 59.8399 98.8001 59.8186C98.8108 59.8186 98.8214 59.808 98.832 59.7868H98.8426C98.8426 59.7762 98.8533 59.7656 98.8639 59.7549C98.8639 59.7549 98.8745 59.7549 98.8851 59.7443C98.8957 59.7443 98.917 59.7231 98.9276 59.7124C98.9488 59.7018 98.9594 59.6806 98.9807 59.6594C99.0763 59.5744 99.1718 59.4682 99.2674 59.3726C99.3524 59.277 99.4373 59.1709 99.5223 59.0647C99.586 59.001 99.6391 58.9266 99.6816 58.8523C99.6816 58.8417 99.6922 58.831 99.7028 58.8204C99.7665 58.7355 99.8196 58.6505 99.8727 58.5656C99.8833 58.5443 99.9046 58.5337 99.9046 58.5124C99.9471 58.4487 99.9789 58.3956 100.011 58.3213C100.011 58.3213 100.011 58.3107 100.021 58.3001C100.106 58.162 100.181 58.0133 100.255 57.854C100.361 57.6416 100.446 57.408 100.542 57.1744C100.648 56.9089 100.733 56.6328 100.807 56.3355C100.871 56.0912 100.935 55.8257 100.988 55.5709C101.402 53.585 101.402 51.5779 100.945 49.6239L100.892 49.6133ZM96.6444 55.8682C96.3789 56.9301 95.5718 57.5461 94.5205 57.5885C94.4568 57.5885 94.3825 57.5885 94.3081 57.5885C94.255 57.5885 94.1913 57.5885 94.1382 57.5885C93.0869 57.5461 92.2904 56.9301 92.0143 55.8682C91.5258 53.9248 91.5471 51.9496 91.94 50.0063C92.163 48.9337 92.6833 48.3284 93.5117 48.116C93.6179 48.0841 93.7453 48.0523 93.8621 48.0417C94.0108 48.0204 94.1701 48.0098 94.3294 48.0098C94.4886 48.0098 94.6479 48.0098 94.7966 48.0417C94.9134 48.0523 95.0409 48.0841 95.1471 48.116C95.9754 48.3284 96.4957 48.9337 96.7187 50.0063C97.1117 51.9496 97.1329 53.9248 96.6444 55.8682Z" fill="black"/>
<path d="M93.8414 65.0424C93.8414 65.0424 93.8095 65.0424 93.7988 65.0424C93.8946 65.0424 93.9904 65.0317 94.0862 65.0317C94.0117 65.0317 93.9265 65.0317 93.8414 65.0317V65.0424Z" fill="black"/>
<path d="M43.4207 44.6109C43.0703 44.7171 42.8261 44.7808 42.5606 44.8658C41.7216 45.11 40.8933 45.3755 40.0438 45.4074C39.1517 44.6746 38.0685 44.1861 36.8685 44.0056C36.5606 43.9631 36.242 43.9419 35.9234 43.9419C32.3128 43.9419 29.3924 46.8729 29.3924 50.4835C29.3924 50.8233 29.4243 51.1525 29.4668 51.4711C29.7641 53.4251 30.9216 55.0923 32.5464 56.0693C31.1553 57.7791 31.219 59.372 32.7482 61.1454C32.5146 61.2516 32.334 61.3366 32.1535 61.4216C30.4013 62.1968 29.3818 63.4711 29.3712 65.4676C29.3606 67.4853 30.2526 68.9401 32.111 69.7472C34.3305 70.7136 36.6349 70.756 38.95 70.2888C41.2862 69.8215 42.7305 68.4516 43.1871 66.0516C43.6438 63.6516 42.7517 61.857 40.4685 60.9543C39.6508 60.6357 38.7694 60.4552 37.8986 60.2746C37.1128 60.1047 36.4225 59.8286 35.9234 59.1915C35.3393 58.4481 35.5623 57.4498 36.3482 57.0144C39.7676 56.8021 42.4756 53.9667 42.4756 50.4941C42.4756 49.91 42.4013 49.3472 42.2526 48.8056C42.3588 48.7207 42.5075 48.6782 42.7199 48.6463C42.9641 48.6145 43.3889 48.3915 43.3889 48.2428C43.442 47.0746 43.4207 45.8959 43.4207 44.6215V44.6109ZM36.4119 63.0569C38.3234 63.0569 39.8632 64.0552 39.8632 65.2764C39.8632 66.4976 38.3128 67.4959 36.4119 67.4959C34.511 67.4959 32.95 66.5083 32.95 65.2764C32.95 64.0445 34.5004 63.0569 36.4119 63.0569ZM38.2597 50.7808C38.2597 51.0888 38.2491 51.3861 38.196 51.6729C37.9623 52.3313 37.5163 52.8623 36.9429 53.1596C36.6349 53.3189 36.2845 53.4038 35.934 53.4038C35.5836 53.4038 35.2331 53.3189 34.9252 53.1596C34.5747 53.0109 34.2668 52.7773 34.065 52.4269C34.065 52.4162 34.0544 52.4056 34.0438 52.395C33.8207 52.0339 33.6933 51.5773 33.6721 51.0039C33.6721 50.7596 33.6721 50.5047 33.6721 50.2605C33.7039 49.8463 33.7889 49.4959 33.9376 49.1985C33.98 49.1136 34.0225 49.0392 34.065 48.9649C34.0969 48.9224 34.1287 48.8693 34.1712 48.8268C34.1818 48.795 34.203 48.7844 34.2243 48.7631C34.2668 48.6994 34.3199 48.6463 34.373 48.6038C34.4261 48.5401 34.4898 48.487 34.5535 48.4552C34.6172 48.4127 34.6703 48.3702 34.7446 48.3384C35.0101 48.1791 35.3287 48.0941 35.6898 48.0622H35.7004C35.7747 48.0622 35.8491 48.0516 35.9234 48.0516C35.9553 48.0516 35.9659 48.0516 35.9871 48.0516C37.0278 48.0516 37.8243 48.6569 38.1216 49.6233C38.1854 49.8357 38.2278 50.0587 38.2384 50.2923C38.2491 50.4622 38.2384 50.6322 38.2384 50.7915L38.2597 50.7808Z" fill="black"/>
</svg>
