<svg width="164" height="39" viewBox="0 0 164 39" fill="none" xmlns="http://www.w3.org/2000/svg">
<path fill-rule="evenodd" clip-rule="evenodd" d="M139.874 26.9361L148.34 19.5375C147.77 18.819 146.826 18.284 146.017 17.9783C144.399 17.3515 142.796 17.5655 141.297 18.4369C139.349 19.5834 138.51 21.4025 138.585 23.6648C138.615 24.5515 138.855 25.4228 139.319 26.1718C139.484 26.447 139.664 26.6916 139.859 26.9361H139.874ZM142.286 28.6635C143.305 29.0304 144.474 28.9692 145.538 28.7858C146.077 28.5565 147.456 27.9451 147.95 28.0368H148.025L148.1 28.0826C148.415 28.2355 148.7 28.4495 148.864 28.7705C149.239 29.5196 149.059 30.2686 148.325 30.6966L148.085 30.8342C145.418 32.3934 142.571 32.1794 139.903 30.7272C138.63 30.024 137.656 28.9845 136.937 27.731L136.772 27.4406C135.063 24.4292 135.288 21.2496 137.221 18.3757C137.896 17.3821 138.765 16.6178 139.784 16.0216L140.173 15.7923C142.691 14.3248 145.388 14.4165 147.965 15.7159C149.359 16.4191 150.483 17.4433 151.262 18.819L151.397 19.0636C151.966 20.0572 151.232 20.9133 150.483 21.5094C149.614 22.1973 148.73 23.0228 147.89 23.7566L142.286 28.6788V28.6635ZM162.306 14.9363H162.59C163.43 14.9363 163.999 15.5172 163.999 16.3732C163.999 17.5503 162.89 17.856 161.916 17.856C160.657 17.856 159.444 18.6356 158.574 19.5069C157.481 20.5923 157.016 21.9833 157.016 23.5273V30.452C157.016 31.2469 156.522 31.889 155.712 31.889H155.488C154.678 31.889 154.184 31.2469 154.184 30.452V23.1298C154.184 20.3171 155.533 18.0241 157.78 16.4191C159.129 15.456 160.657 14.9516 162.306 14.9516V14.9363ZM127.211 19.8432L130.508 16.5261C130.823 16.2203 131.992 14.9363 132.456 14.9363H133.011C133.655 15.0891 134.134 15.5019 134.134 16.205V16.4802C134.134 16.9541 133.58 17.5197 133.28 17.8407C132.636 18.5439 131.947 19.2165 131.287 19.8891L127.886 23.3897L132.261 27.8686C132.666 28.2814 133.07 28.6941 133.46 29.1221C133.595 29.275 133.805 29.4584 133.925 29.6571C134.044 29.8559 134.134 30.0699 134.134 30.2992V30.6661C133.955 31.3234 133.55 31.8431 132.846 31.8431H132.621C132.156 31.8431 131.632 31.3081 131.317 31.0023C130.658 30.3756 130.029 29.703 129.384 29.061L127.226 26.9056V30.345C127.226 31.1399 126.732 31.782 125.923 31.782H125.698C124.889 31.782 124.394 31.1399 124.394 30.345V10.9312C124.394 10.1363 124.889 9.50958 125.698 9.50958H125.923C126.732 9.50958 127.226 10.1516 127.226 10.9312V19.8127L127.211 19.8432ZM118.071 17.9018C117.651 17.7031 116.857 17.6267 116.392 17.6114C114.04 17.5197 112.332 18.8649 111.343 20.9744C110.998 21.7082 110.833 22.4725 110.833 23.2827C110.833 25.7285 112.107 27.4406 114.25 28.4954C115.029 28.8775 116.048 28.954 116.917 28.954C117.666 28.954 118.745 28.4801 119.419 28.1591L119.539 28.0979H120.124C120.768 28.2508 121.247 28.6635 121.247 29.3514V29.6418C121.247 31.3845 118.116 31.7819 116.917 31.8737C112.706 32.1641 109.544 29.81 108.346 25.7285C108.136 25.0253 108.046 24.3069 108.046 23.5731V23.0075C108.046 19.9044 109.559 17.4433 112.182 15.8687C113.41 15.1197 114.729 14.7528 116.168 14.7681H116.722C118.221 14.7681 119.599 15.1961 120.843 16.0675L120.948 16.1439L121.008 16.2509C121.143 16.4649 121.262 16.7401 121.262 16.9999V17.2904C121.262 18.0241 120.723 18.4063 120.079 18.5439H120.019H119.854C119.434 18.5439 118.475 18.1006 118.101 17.9171L118.071 17.9018ZM92.4018 23.3438C92.4018 25.5145 93.4508 27.1196 95.2639 28.2355C96.118 28.7705 97.0471 28.9998 98.0361 28.9998C100.149 28.9998 101.707 27.9145 102.801 26.0954C103.326 25.2241 103.55 24.2763 103.55 23.2674C103.55 21.2496 102.591 19.7056 100.958 18.5897C100.059 17.963 99.07 17.6573 97.9761 17.6725C95.6235 17.6725 93.9153 18.8802 92.8963 21.0356C92.5517 21.7693 92.4018 22.5336 92.4018 23.3438ZM97.7064 14.814H98.096C101.363 14.814 103.835 16.4191 105.409 19.3082C106.038 20.47 106.368 21.7235 106.368 23.0534V23.619C106.368 26.7221 104.869 29.1833 102.232 30.7578C101.018 31.4762 99.6694 31.8584 98.2609 31.8584H97.7064C94.6495 31.8584 92.222 30.3297 90.6786 27.6546C89.9443 26.4164 89.5847 25.0559 89.5997 23.619V23.0534C89.5997 19.9502 91.1131 17.4891 93.7355 15.9146C94.9642 15.1656 96.2829 14.7987 97.7214 14.814H97.7064ZM73.9706 23.3438C73.9706 25.5909 75.0345 27.2724 76.9675 28.3425C77.7467 28.7705 78.6009 29.0151 79.485 29.0151C81.6428 29.0151 83.2611 27.9756 84.355 26.1107C84.8645 25.2393 85.1042 24.2916 85.1042 23.2827C85.1042 21.3413 84.1902 19.8279 82.6617 18.6967C81.7327 18.0089 80.6837 17.6725 79.5299 17.6725C77.1773 17.6725 75.469 18.8802 74.4501 21.0356C74.1054 21.7693 73.9556 22.5336 73.9556 23.3438H73.9706ZM85.1192 16.9541V10.9159C85.1192 10.121 85.6137 9.479 86.4229 9.479H86.6477C87.4569 9.479 87.9364 10.121 87.9364 10.9159V23.6343C87.9364 26.7374 86.4229 29.1985 83.8006 30.7731C82.5718 31.5068 81.2532 31.8737 79.8296 31.8737H79.2752C76.2183 31.8737 73.7908 30.345 72.2473 27.6699C71.5131 26.4317 71.1534 25.0712 71.1684 23.6343V23.0687C71.1684 19.9655 72.6819 17.5044 75.3042 15.9299C76.533 15.1961 77.8516 14.8293 79.2752 14.8293H79.8296C81.8975 14.8293 83.6507 15.6395 85.1342 16.9694L85.1192 16.9541Z" fill="#374649"/>
<path fill-rule="evenodd" clip-rule="evenodd" d="M39.2961 12.1163H45.3927V18.3118H48.4685C49.8856 18.3118 51.3575 18.0592 52.6977 17.6088C53.3568 17.3891 54.1038 17.0705 54.7519 16.6751C53.8951 15.5546 53.4556 14.1485 53.3238 12.7535C53.1481 10.8641 53.5326 8.40345 54.8178 6.92048L55.4549 6.1845L56.2129 6.79965C58.1352 8.33754 59.75 10.4906 60.0356 12.9292C62.3534 12.2482 65.0667 12.4129 67.0989 13.5883L67.9338 14.0717L67.4944 14.9285C65.7697 18.2789 62.1667 19.3224 58.6405 19.1357C53.3678 32.2077 41.8886 38.4032 27.9597 38.4032C20.7646 38.4032 14.1736 35.7229 10.4058 29.3736L10.3399 29.2638L9.79067 28.1543C8.51642 25.3531 8.09899 22.2884 8.3846 19.2346L8.47248 18.3228H13.6793V12.1273H19.765V6.06366H31.9472V0H39.2522V12.1273" fill="#374649"/>
<path fill-rule="evenodd" clip-rule="evenodd" d="M59.023 14.4129C59.4294 11.2493 57.0567 8.76669 55.5847 7.59131C53.882 9.54662 53.6184 14.6656 56.2877 16.8186C54.8048 18.1368 51.6741 19.3232 48.4665 19.3232H9.42614C9.11856 22.6516 9.70076 25.7274 11.0409 28.3528L11.4803 29.1656C11.7659 29.638 12.0735 30.0994 12.4031 30.5388C14.0069 30.6376 15.4898 30.6816 16.8409 30.6486C19.4993 30.5937 21.6743 30.2751 23.322 29.7149C23.4429 29.6819 23.5637 29.6819 23.6736 29.7478C23.7834 29.8028 23.8603 29.8906 23.9042 30.0115C23.9482 30.1323 23.9372 30.2422 23.8823 30.363C23.8273 30.4728 23.7395 30.5607 23.6296 30.6047C23.4099 30.6816 23.1792 30.7475 22.9485 30.8134C21.6523 31.1869 20.2682 31.4285 18.4667 31.5384C18.5766 31.5384 18.3569 31.5494 18.3569 31.5494C18.291 31.5494 18.2141 31.5604 18.1591 31.5604C17.4561 31.6043 16.6872 31.6043 15.9182 31.6043C15.0614 31.6043 14.2265 31.5933 13.2928 31.5384H13.2709C16.5224 35.1964 21.6084 37.3823 27.9796 37.3823C41.4691 37.3823 52.9154 31.4285 57.9794 18.0599C61.5715 18.4224 65.0317 17.5107 66.6026 14.4569C64.098 13.0178 60.8794 13.4792 59.023 14.4019" fill="#23A0C8"/>
<path fill-rule="evenodd" clip-rule="evenodd" d="M59.0232 14.4129C59.4297 11.2493 57.0569 8.76669 55.5849 7.59131C53.8823 9.54662 53.6187 14.6656 56.288 16.8186C54.805 18.1368 51.6743 19.3232 48.4667 19.3232H11.7442C11.5794 24.4312 13.4908 28.2978 16.8522 30.6486C19.5106 30.5937 21.6856 30.2751 23.3333 29.7149C23.4541 29.6819 23.575 29.6819 23.6848 29.7478C23.7947 29.8028 23.8716 29.8906 23.9155 30.0115C23.9594 30.1323 23.9484 30.2422 23.8935 30.363C23.8386 30.4728 23.7507 30.5607 23.6409 30.6047C23.4212 30.6816 23.1905 30.7475 22.9598 30.8134C21.6636 31.1869 20.1587 31.4615 18.3681 31.5713L18.3242 31.5274C22.9159 33.8672 29.5727 33.8562 37.2072 30.9452C45.7645 27.6717 53.7285 21.4323 59.2869 14.3031C59.21 14.336 59.1221 14.38 59.0452 14.4239" fill="#38B1D9"/>
<path fill-rule="evenodd" clip-rule="evenodd" d="M9.49023 23.3765C9.7319 25.167 10.2592 26.8367 11.0391 28.3526L11.4785 29.1655C11.7641 29.6379 12.0717 30.0992 12.4012 30.5386C14.005 30.6375 15.488 30.6814 16.8391 30.6485C19.4975 30.5935 21.6725 30.275 23.3202 29.7148C23.4411 29.6818 23.5619 29.6818 23.6717 29.7477C23.7816 29.8026 23.8585 29.8905 23.9024 30.0113C23.9464 30.1322 23.9354 30.242 23.8805 30.3629C23.8255 30.4727 23.7377 30.5606 23.6278 30.6045C23.4081 30.6814 23.1774 30.7473 22.9467 30.8132C21.6505 31.1867 20.1456 31.4504 18.3551 31.5602C18.2891 31.5602 18.1903 31.5602 18.1244 31.5602C17.4213 31.6042 16.6634 31.6261 15.8835 31.6261C14.9937 31.6261 14.1149 31.6042 13.2251 31.5602C16.4766 35.1962 21.5956 37.3822 27.9668 37.3822C39.512 37.3822 49.5632 33.0212 55.3961 23.3765H9.49023Z" fill="#1F82A6"/>
<path fill-rule="evenodd" clip-rule="evenodd" d="M12.082 23.3765C12.7741 26.5072 14.4328 28.9678 16.8385 30.6485C19.4968 30.5935 21.6719 30.275 23.3196 29.7148C23.4404 29.6818 23.5613 29.6818 23.6711 29.7477C23.781 29.8026 23.8579 29.8905 23.9018 30.0113C23.9457 30.1322 23.9347 30.242 23.8798 30.3629C23.8249 30.4727 23.737 30.5606 23.6272 30.6045C23.4075 30.6814 23.1768 30.7473 22.9461 30.8132C21.6499 31.1867 20.123 31.4504 18.3215 31.5602C22.9131 33.9 29.548 33.867 37.1825 30.956C41.7962 29.1875 46.2451 26.5621 50.2326 23.3875H12.082" fill="#1C92B5"/>
<path fill-rule="evenodd" clip-rule="evenodd" d="M25.2325 7.50238H25.65V11.8854H25.2325V7.50238ZM24.4306 7.50238H24.859V11.8854H24.4306V7.50238ZM23.6287 7.50238H24.0571V11.8854H23.6287V7.50238ZM22.8268 7.50238H23.2552V11.8854H22.8268V7.50238ZM22.0249 7.50238H22.4533V11.8854H22.0249V7.50238ZM21.245 7.50238H21.6624V11.8854H21.245V7.50238ZM20.8056 7.06299H26.0893V12.3138H20.8056V7.06299ZM19.1359 13.566H19.5533V17.949H19.1359V13.566ZM18.334 13.566H18.7624V17.949H18.334V13.566ZM17.5321 13.566H17.9605V17.949H17.5321V13.566ZM16.7302 13.566H17.1586V17.949H16.7302V13.566ZM15.9283 13.566H16.3567V17.949H15.9283V13.566ZM15.1484 13.566H15.5658V17.949H15.1484V13.566ZM14.709 13.1267H19.9927V18.3774H14.709V13.1267Z" fill="#23A3C2"/>
<path fill-rule="evenodd" clip-rule="evenodd" d="M25.2336 13.5663H25.651V17.9493H25.2336V13.5663ZM24.4317 13.5663H24.8601V17.9493H24.4317V13.5663ZM23.6298 13.5663H24.0582V17.9493H23.6298V13.5663ZM22.8279 13.5663H23.2563V17.9493H22.8279V13.5663ZM22.026 13.5663H22.4544V17.9493H22.026V13.5663ZM21.246 13.5663H21.6635V17.9493H21.246V13.5663ZM20.8066 13.127H26.0904V18.3777H20.8066V13.127Z" fill="#35BCDF"/>
<path fill-rule="evenodd" clip-rule="evenodd" d="M31.3156 13.5663H31.733V17.9493H31.3156V13.5663ZM30.5137 13.5663H30.9421V17.9493H30.5137V13.5663ZM29.7118 13.5663H30.1402V17.9493H29.7118V13.5663ZM28.9099 13.5663H29.3383V17.9493H28.9099V13.5663ZM28.108 13.5663H28.5364V17.9493H28.108V13.5663ZM27.3281 13.5663H27.7455V17.9493H27.3281V13.5663ZM26.8887 13.127H32.1724V18.3777H26.8887V13.127Z" fill="#23A3C2"/>
<path fill-rule="evenodd" clip-rule="evenodd" d="M37.4122 13.566H37.8296V17.949H37.4122V13.566ZM36.6103 13.566H37.0387V17.949H36.6103V13.566ZM35.8084 13.566H36.2368V17.949H35.8084V13.566ZM35.0065 13.566H35.4349V17.949H35.0065V13.566ZM34.2046 13.566H34.633V17.949H34.2046V13.566ZM33.4247 13.566H33.8421V17.949H33.4247V13.566ZM32.9853 13.1267H38.269V18.3774H32.9963V13.1267H32.9853ZM31.3156 7.50238H31.733V11.8854H31.3156V7.50238ZM30.5137 7.50238H30.9421V11.8854H30.5137V7.50238ZM29.7118 7.50238H30.1402V11.8854H29.7118V7.50238ZM28.9099 7.50238H29.3383V11.8854H28.9099V7.50238ZM28.108 7.50238H28.5364V11.8854H28.108V7.50238ZM27.3281 7.50238H27.7455V11.8854H27.3281V7.50238ZM26.8887 7.06299H32.1724V12.3138H26.8887V7.06299Z" fill="#35BCDF"/>
<path fill-rule="evenodd" clip-rule="evenodd" d="M37.4133 7.50238H37.8307V11.8854H37.4133V7.50238ZM36.6113 7.50238H37.0398V11.8854H36.6113V7.50238ZM35.8095 7.50238H36.2379V11.8854H35.8095V7.50238ZM35.0076 7.50238H35.436V11.8854H35.0076V7.50238ZM34.2057 7.50238H34.6341V11.8854H34.2057V7.50238ZM33.4257 7.50238H33.8432V11.8854H33.4257V7.50238ZM32.9863 7.06299H38.2701V12.3138H32.9863V7.06299Z" fill="#23A3C2"/>
<path fill-rule="evenodd" clip-rule="evenodd" d="M37.4133 1.43988H37.8307V5.82286H37.4133V1.43988ZM36.6113 1.43988H37.0398V5.82286H36.6113V1.43988ZM35.8095 1.43988H36.2379V5.82286H35.8095V1.43988ZM35.0076 1.43988H35.436V5.82286H35.0076V1.43988ZM34.2057 1.43988H34.6341V5.82286H34.2057V1.43988ZM33.4257 1.43988H33.8432V5.82286H33.4257V1.43988ZM32.9863 1.00049H38.2701V6.26225H32.9863V1.00049Z" fill="#35BCDF"/>
<path fill-rule="evenodd" clip-rule="evenodd" d="M43.505 13.5663H43.9225V17.9493H43.505V13.5663ZM42.7031 13.5663H43.1316V17.9493H42.7031V13.5663ZM41.9012 13.5663H42.3296V17.9493H41.9012V13.5663ZM41.0993 13.5663H41.5278V17.9493H41.0993V13.5663ZM40.2974 13.5663H40.7259V17.9493H40.2974V13.5663ZM39.5175 13.5663H39.9349V17.9493H39.5175V13.5663ZM39.0781 13.127H44.3619V18.3777H39.0781V13.127Z" fill="#23A3C2"/>
<path fill-rule="evenodd" clip-rule="evenodd" d="M25.7601 26.9131C25.9578 26.9131 26.1445 26.946 26.3203 27.0229C26.4961 27.0998 26.6608 27.1987 26.8036 27.3305C26.9464 27.4623 27.0453 27.6271 27.1222 27.8029C27.1991 27.9786 27.232 28.1654 27.232 28.3631C27.232 28.5608 27.1991 28.7476 27.1222 28.9233C27.0453 29.0991 26.9355 29.2638 26.8036 29.3957C26.6608 29.5275 26.507 29.6373 26.3203 29.7032C26.1336 29.7692 25.9468 29.8131 25.7601 29.8131C25.5733 29.8131 25.3866 29.7692 25.2108 29.6923C25.0351 29.6154 24.8813 29.5165 24.7494 29.3737C24.6176 29.2419 24.5078 29.0771 24.4419 28.9014C24.365 28.7256 24.332 28.5389 24.332 28.3521C24.332 28.1654 24.365 27.9786 24.4419 27.8029C24.5188 27.6271 24.6176 27.4733 24.7494 27.3305C24.8813 27.1877 25.0351 27.0888 25.2108 27.0119C25.3866 26.9351 25.5733 26.9021 25.7601 26.8911" fill="#D3EDEC"/>
<path fill-rule="evenodd" clip-rule="evenodd" d="M0 23.9042H67.7549C66.2829 23.5307 63.0863 23.0254 63.6136 21.103C60.9332 24.1898 54.4631 23.2671 52.8264 21.7511C51.0139 24.3765 40.4244 23.3769 39.6884 21.3337C37.4146 23.9921 30.3513 23.9921 28.0664 21.3337C27.3304 23.3769 16.741 24.3765 14.9285 21.7511C13.2917 23.278 6.83261 24.2008 4.14131 21.103C4.66859 23.0254 1.47198 23.5307 0 23.9042ZM25.7596 27.3205C25.8914 27.3205 26.0122 27.3425 26.1331 27.3864C25.9463 27.4962 25.8804 27.65 25.9353 27.8587C25.9903 28.0675 26.1331 28.1773 26.3418 28.1773C26.5066 28.1773 26.6384 28.0894 26.7153 27.9576C26.7702 28.1004 26.8032 28.2432 26.7922 28.386C26.7922 28.5398 26.7482 28.6826 26.6823 28.8144C26.6164 28.9462 26.5285 29.0671 26.4077 29.155C26.2869 29.2538 26.166 29.3197 26.0122 29.3527C25.8694 29.3966 25.7156 29.3966 25.5728 29.3747C25.43 29.3527 25.2872 29.2978 25.1664 29.2099C25.0456 29.122 24.9357 29.0231 24.8588 28.8913C24.7819 28.7595 24.727 28.6277 24.705 28.4739C24.6831 28.3201 24.705 28.1773 24.738 28.0345C24.7819 27.8917 24.8478 27.7599 24.9467 27.65C25.0456 27.5402 25.1664 27.4523 25.2982 27.3864C25.43 27.3205 25.5838 27.2985 25.7266 27.2985" fill="#374649"/>
<path fill-rule="evenodd" clip-rule="evenodd" d="M29.6219 37.3605C26.0188 35.6578 24.0306 33.34 22.9321 30.8135C21.5919 31.1979 19.9771 31.4396 18.1097 31.5385C17.4067 31.5824 16.6597 31.5934 15.8907 31.5934C14.99 31.5934 14.0453 31.5714 13.0566 31.5165C16.3631 34.801 20.4385 37.3385 27.9632 37.3934C28.5234 37.3934 29.0726 37.3934 29.6219 37.3605Z" fill="#BEDAD8"/>
<path fill-rule="evenodd" clip-rule="evenodd" d="M24.2758 33.1423C23.7815 32.4722 23.2872 31.6154 22.9357 30.8135C21.5955 31.1979 19.9807 31.4396 18.1133 31.5385C19.3985 32.2305 21.233 32.8786 24.2758 33.1423Z" fill="#D3EDEC"/>
</svg>
