<svg width="230" height="53" viewBox="0 0 230 53" fill="none" xmlns="http://www.w3.org/2000/svg">
<path d="M39.3699 0V45.2247L0 39.3565L39.3699 52.6522L52.5093 47.186V5.48226L39.3699 0ZM25.5897 7.71697L13.5239 19.6461L6.26522 14.1799L3.28483 15.1767L10.6557 22.5078L3.28483 29.8389L6.26522 30.8357L13.5239 25.3695L25.5897 37.363L32.8003 34.2762V10.8198L25.5897 7.71697ZM25.5897 16.2378V28.7779L17.2894 22.5078L25.5897 16.2378Z" fill="#007ACC"/>
<path d="M70.2533 33.8218H68.9393L63.6836 19.3525H65.1738L69.2758 30.928L69.4681 31.5711C69.4681 31.7961 69.5643 32.0212 69.6283 32.2624C69.6647 32.0508 69.7128 31.8415 69.7726 31.6354C69.7726 31.4103 69.9007 31.1531 69.9969 30.8958L74.2592 19.3204H75.7013L70.2533 33.8218ZM78.3292 20.8477C78.0914 20.843 77.8636 20.7516 77.6882 20.5905C77.6058 20.4967 77.5434 20.387 77.5048 20.2681C77.4662 20.1492 77.4523 20.0236 77.4639 19.8992C77.4614 19.7787 77.4844 19.6592 77.5314 19.5483C77.5783 19.4375 77.6482 19.3379 77.7363 19.2561C77.9065 19.0851 78.1363 18.9871 78.3772 18.9828C78.4995 18.966 78.6235 18.966 78.7458 18.9828C78.8562 19.0316 78.9588 19.0966 79.0502 19.1757C79.1321 19.259 79.1974 19.3572 79.2425 19.4651C79.2937 19.5817 79.3209 19.7074 79.3226 19.8348C79.3393 19.9575 79.3393 20.0819 79.3226 20.2046C79.2721 20.3134 79.2014 20.4116 79.1143 20.494C79.0339 20.5869 78.928 20.654 78.8099 20.6869C78.6701 20.7893 78.5021 20.8455 78.3292 20.8477ZM77.6882 33.8218V23.4683H79.0662V33.8218H77.6882ZM81.7262 31.9569C82.131 32.2724 82.5861 32.517 83.0721 32.6804C83.3084 32.7766 83.5562 32.8414 83.8092 32.8733C84.0383 32.8961 84.2691 32.8961 84.4982 32.8733C86.0365 32.8733 86.8056 32.2945 86.8056 31.137C86.8058 30.9024 86.7509 30.6711 86.6454 30.4618C86.5221 30.2594 86.3649 30.0799 86.1807 29.9312C85.9609 29.7764 85.7244 29.647 85.4757 29.5454C85.1677 29.3855 84.8522 29.2406 84.5303 29.1113C84.103 28.9483 83.6903 28.7493 83.2965 28.5164C82.9858 28.335 82.7003 28.1134 82.4472 27.8573C82.2322 27.6296 82.0634 27.362 81.9505 27.0695C81.8441 26.7536 81.7899 26.4223 81.7903 26.0888C81.7805 25.6615 81.8857 25.2394 82.0947 24.867C82.2943 24.5082 82.5673 24.1959 82.8959 23.9506C83.2465 23.6998 83.6364 23.5096 84.0496 23.3879C84.503 23.2586 84.9722 23.1936 85.4436 23.1949C86.2517 23.1737 87.0533 23.3445 87.7831 23.6933V25.0599C87.0417 24.5676 86.1724 24.3048 85.2834 24.3043C84.9849 24.3028 84.6878 24.3462 84.4021 24.4329C84.154 24.5027 83.9205 24.6171 83.7131 24.7705C83.5427 24.9241 83.3968 25.1031 83.2804 25.301C83.1764 25.5166 83.1216 25.7528 83.1202 25.9923C83.1177 26.2237 83.1612 26.4533 83.2484 26.6676C83.336 26.8619 83.4613 27.0368 83.6169 27.182C83.8214 27.36 84.0476 27.5113 84.2899 27.6322C84.5623 27.793 84.8988 27.9216 85.2834 28.0824L86.5653 28.6772C86.8956 28.8505 87.1981 29.0727 87.4626 29.3364C87.6952 29.5498 87.8761 29.8137 87.9914 30.1081C88.1111 30.4265 88.1709 30.7645 88.1676 31.1048C88.1769 31.5353 88.0777 31.9611 87.8792 32.3428C87.6845 32.7094 87.4108 33.028 87.078 33.2752C86.7177 33.5293 86.3166 33.7196 85.8923 33.8379C85.4012 33.9703 84.8945 34.0352 84.3861 34.0309C83.4665 34.0563 82.5576 33.8283 81.7582 33.3717L81.7262 31.9569ZM97.4293 33.8218V32.0534C97.1467 32.664 96.6934 33.179 96.1244 33.5358C95.5554 33.8926 94.8954 34.0757 94.2246 34.063C91.7729 34.063 90.5391 32.5518 90.5391 29.5614V23.4522H91.821V29.2881C91.7446 30.2512 91.9746 31.2137 92.478 32.0373C92.7145 32.3426 93.0226 32.5846 93.3749 32.7417C93.7271 32.8987 94.1125 32.966 94.497 32.9376C94.9163 32.9379 95.3311 32.8502 95.7147 32.6804C96.0793 32.5051 96.4018 32.2528 96.6601 31.9408C96.9309 31.6042 97.1422 31.2236 97.2851 30.8155C97.4315 30.3475 97.5018 29.8589 97.4934 29.3685V23.4683H98.7752V33.8218H97.4293ZM108.005 33.8218V31.9891C107.702 32.6422 107.225 33.1986 106.627 33.5968C106.034 33.9603 105.351 34.1496 104.656 34.1434C104.199 34.1444 103.745 34.0739 103.31 33.9344C102.935 33.8027 102.591 33.5947 102.3 33.3235C102.015 33.0656 101.791 32.747 101.643 32.391C101.492 32.0072 101.416 31.5979 101.419 31.1852C101.399 30.7727 101.466 30.3605 101.615 29.9754C101.764 29.5904 101.992 29.2412 102.284 28.9505C103.027 28.3222 103.945 27.9402 104.912 27.8573L108.117 27.4071C108.117 25.4136 107.348 24.4168 105.81 24.4168C104.573 24.434 103.386 24.9092 102.477 25.7512V24.3364C102.701 24.1715 102.943 24.0314 103.198 23.9184C103.476 23.785 103.765 23.6774 104.063 23.5969C104.368 23.5049 104.679 23.4297 104.992 23.3718C105.302 23.3484 105.612 23.3484 105.922 23.3718C106.4 23.3374 106.881 23.4056 107.331 23.5719C107.782 23.7383 108.191 23.9989 108.534 24.3364C109.182 25.1545 109.496 26.1886 109.415 27.2303V33.9826L108.005 33.8218ZM105.345 28.7737C104.944 28.8305 104.548 28.9165 104.159 29.0309C103.867 29.1188 103.59 29.2546 103.342 29.4328C103.136 29.6048 102.976 29.8259 102.877 30.0759C102.76 30.3723 102.706 30.6898 102.717 31.0084C102.715 31.2725 102.764 31.5345 102.861 31.7801C102.955 32.0151 103.104 32.2244 103.294 32.391C103.485 32.5744 103.715 32.7118 103.967 32.7929C104.255 32.8944 104.559 32.9434 104.864 32.9376C105.301 32.9407 105.733 32.8474 106.13 32.6643C106.505 32.4896 106.842 32.244 107.124 31.9408C107.41 31.6159 107.633 31.2396 107.781 30.8315C107.931 30.3753 108.007 29.8974 108.005 29.4167V28.4039L105.345 28.7737ZM112.395 33.8218V18.4844H113.677V33.8218H112.395ZM122.33 31.6997C122.583 31.8827 122.851 32.044 123.131 32.182C123.421 32.3257 123.721 32.4493 124.028 32.5518C124.349 32.6482 124.669 32.7125 124.958 32.7768C125.251 32.7996 125.546 32.7996 125.839 32.7768C126.707 32.8391 127.573 32.6192 128.307 32.1498C128.575 31.9295 128.788 31.6486 128.927 31.33C129.066 31.0115 129.128 30.6643 129.108 30.3171C129.12 29.9708 129.06 29.6257 128.932 29.3042C128.78 29.0006 128.574 28.728 128.323 28.5004C128.015 28.2161 127.677 27.968 127.313 27.7608L125.871 26.9248L124.269 25.9602C123.878 25.6953 123.518 25.3879 123.195 25.0438C122.93 24.7421 122.723 24.3931 122.586 24.0149C122.446 23.6175 122.375 23.1986 122.378 22.7769C122.364 22.2166 122.497 21.6623 122.763 21.1692C123.003 20.6999 123.349 20.2928 123.772 19.9795C124.216 19.644 124.715 19.3884 125.246 19.2239C125.87 19.0719 126.513 19.0177 127.153 19.0631C128.124 19.0379 129.092 19.1961 130.005 19.5294V21.0245C129.085 20.5113 128.045 20.2558 126.993 20.285C126.587 20.2797 126.182 20.3339 125.791 20.4458C125.431 20.5361 125.09 20.6884 124.782 20.8959C124.509 21.0999 124.28 21.3569 124.109 21.6515C123.943 21.9745 123.861 22.3336 123.868 22.6966C123.857 23.0308 123.912 23.364 124.028 23.6773C124.152 23.971 124.338 24.2343 124.573 24.4489C124.864 24.728 125.186 24.9709 125.535 25.1724L126.977 25.9763C127.528 26.2621 128.063 26.5788 128.579 26.9248C128.993 27.1959 129.37 27.5202 129.701 27.8894C129.993 28.1952 130.221 28.5558 130.374 28.9505C130.525 29.3455 130.601 29.7654 130.598 30.1885C130.601 30.744 130.481 31.2933 130.246 31.7962C130.016 32.2682 129.675 32.6766 129.252 32.9858C128.801 33.3215 128.289 33.5671 127.746 33.7093C127.118 33.8744 126.472 33.9555 125.823 33.9505C125.551 33.9708 125.278 33.9708 125.006 33.9505C124.682 33.9204 124.361 33.8667 124.044 33.7897C123.735 33.7284 123.43 33.6479 123.131 33.5485C122.882 33.4627 122.641 33.3551 122.41 33.227L122.33 31.6997ZM137.072 33.6932C136.619 33.9197 136.119 34.0353 135.613 34.0309C133.947 34.0309 133.114 33.0662 133.114 31.137V24.5936H131.303V23.4683H133.114V20.8638L134.396 20.4297V23.4843H137.056V24.6097H134.396V30.9441C134.338 31.5021 134.455 32.0643 134.732 32.5518C134.873 32.7169 135.051 32.8454 135.252 32.9266C135.453 33.0078 135.67 33.0391 135.886 33.018C136.304 33.0143 136.711 32.8856 137.056 32.6482L137.072 33.6932ZM145.933 33.8218V32.0534C145.652 32.6652 145.199 33.1814 144.629 33.5384C144.06 33.8955 143.399 34.0778 142.728 34.063C140.276 34.063 139.043 32.5518 139.043 29.5614V23.4522H140.324V29.2881C140.256 30.2506 140.485 31.2108 140.981 32.0373C141.22 32.3405 141.528 32.5809 141.88 32.7378C142.232 32.8946 142.616 32.9632 143 32.9376C143.42 32.9379 143.834 32.8502 144.218 32.6804C144.585 32.5093 144.909 32.2563 145.164 31.9408C145.445 31.6118 145.658 31.229 145.788 30.8155C145.941 30.3485 146.016 29.8598 146.013 29.3685V23.4683H147.295V33.8218H145.933ZM157.79 33.8218V31.9891C157.455 32.6255 156.943 33.1505 156.316 33.5003C155.658 33.8764 154.91 34.0654 154.153 34.0469C153.551 34.0538 152.954 33.9276 152.406 33.6772C151.876 33.4495 151.409 33.0964 151.044 32.6482C150.654 32.1744 150.36 31.6281 150.179 31.0405C149.959 30.3385 149.851 29.606 149.858 28.8701C149.848 28.096 149.962 27.3253 150.195 26.5872C150.396 25.8991 150.734 25.2592 151.188 24.7062C151.595 24.2155 152.103 23.8204 152.679 23.5486C153.288 23.274 153.95 23.1368 154.617 23.1467C155.266 23.1036 155.913 23.249 156.482 23.5655C157.05 23.882 157.516 24.3562 157.822 24.9313V18.5005H159.104V33.8379L157.79 33.8218ZM157.79 27.5518C157.797 27.1312 157.732 26.7126 157.598 26.3139C157.448 25.9359 157.225 25.5917 156.941 25.301C156.66 25.0049 156.322 24.7696 155.947 24.6097C155.547 24.4387 155.117 24.3511 154.682 24.3525C154.195 24.3528 153.715 24.457 153.271 24.658C152.84 24.8636 152.462 25.1661 152.166 25.5422C151.841 25.9534 151.596 26.4225 151.445 26.9248C151.267 27.5251 151.176 28.1476 151.172 28.7737C151.164 29.3666 151.245 29.9575 151.413 30.5261C151.543 31.0047 151.766 31.4527 152.07 31.8444C152.349 32.1965 152.705 32.4796 153.111 32.6719C153.516 32.8643 153.961 32.9606 154.409 32.9537C154.9 32.9607 155.386 32.862 155.835 32.6643C156.243 32.4793 156.608 32.2106 156.906 31.8756C157.204 31.5405 157.429 31.1465 157.566 30.719C157.729 30.2653 157.81 29.7863 157.806 29.3042L157.79 27.5518ZM163.03 20.8477C162.791 20.8477 162.562 20.7556 162.389 20.5905C162.297 20.5044 162.226 20.3995 162.179 20.2829C162.132 20.1663 162.11 20.0409 162.117 19.9152C162.111 19.7944 162.132 19.6738 162.179 19.5624C162.227 19.4511 162.298 19.3519 162.389 19.2722C162.471 19.1845 162.57 19.115 162.681 19.0679C162.791 19.0209 162.91 18.9974 163.03 18.9988C163.147 18.9821 163.265 18.9821 163.382 18.9988C163.497 19.0401 163.601 19.106 163.687 19.1918C163.774 19.2741 163.845 19.3723 163.895 19.4812C163.981 19.7202 163.981 19.9817 163.895 20.2207C163.85 20.3328 163.779 20.4321 163.687 20.5101C163.613 20.6025 163.512 20.6699 163.398 20.703C163.287 20.7768 163.161 20.8261 163.03 20.8477ZM162.389 33.8218V23.4683H163.671V33.8218H162.389ZM171.234 34.0791C170.526 34.0906 169.823 33.9594 169.167 33.6932C168.56 33.4507 168.013 33.0776 167.565 32.6C167.134 32.1329 166.797 31.5871 166.571 30.9923C166.339 30.2872 166.225 29.5483 166.235 28.8058C166.219 28.0183 166.344 27.2342 166.603 26.4907C166.828 25.8346 167.195 25.2363 167.677 24.7383C168.121 24.2566 168.669 23.8828 169.279 23.6451C169.953 23.3843 170.672 23.2587 171.394 23.2753C172.085 23.2599 172.772 23.3857 173.413 23.6451C174.024 23.8655 174.573 24.2293 175.015 24.7062C175.42 25.1852 175.72 25.7437 175.897 26.346C176.345 27.8073 176.345 29.3702 175.897 30.8315C175.672 31.4558 175.336 32.0335 174.903 32.5357C174.461 33.0237 173.913 33.4032 173.301 33.645C172.65 33.9334 171.946 34.0813 171.234 34.0791ZM171.33 24.3525C170.781 24.3425 170.235 24.4465 169.728 24.658C169.278 24.8489 168.878 25.1403 168.558 25.51C168.22 25.9115 167.964 26.3759 167.805 26.8766C167.623 27.4756 167.537 28.0995 167.548 28.7254C167.538 29.3197 167.624 29.9117 167.805 30.4778C167.968 30.9672 168.224 31.4203 168.558 31.8122C168.87 32.1843 169.265 32.4764 169.712 32.6643C170.219 32.8776 170.764 32.9816 171.314 32.9698C171.863 32.9928 172.41 32.8939 172.916 32.6804C173.354 32.4853 173.743 32.1941 174.054 31.8283C174.38 31.4408 174.616 30.9848 174.743 30.4939C174.911 29.8978 174.992 29.2805 174.983 28.6611C175.066 27.5124 174.737 26.3718 174.054 25.4457C173.72 25.0591 173.298 24.7581 172.824 24.568C172.35 24.3778 171.838 24.3039 171.33 24.3525ZM194.436 33.2752C193.234 33.8211 191.926 34.0903 190.606 34.063C189.656 34.075 188.713 33.8945 187.834 33.5325C187.025 33.1861 186.299 32.6709 185.703 32.0212C185.096 31.3638 184.632 30.5862 184.341 29.7383C184.013 28.8094 183.85 27.8299 183.861 26.8444C183.853 25.8041 184.027 24.7704 184.373 23.7898C184.689 22.8747 185.185 22.0327 185.831 21.3139C186.476 20.6244 187.256 20.0769 188.123 19.7062C189.073 19.2952 190.1 19.0924 191.135 19.1114C192.26 19.0962 193.379 19.2869 194.436 19.6741V21.121C193.405 20.6093 192.27 20.3451 191.119 20.3493C190.262 20.3335 189.41 20.4978 188.62 20.8316C187.917 21.1388 187.293 21.6003 186.793 22.1821C186.282 22.7797 185.895 23.4739 185.655 24.2239C185.386 25.0545 185.251 25.9228 185.255 26.7962C185.254 27.5972 185.373 28.3938 185.607 29.1595C185.83 29.8626 186.184 30.5171 186.649 31.0888C187.118 31.655 187.71 32.1059 188.379 32.4071C189.129 32.7439 189.945 32.9087 190.767 32.8894C192.046 32.9069 193.309 32.5971 194.436 31.9891V33.2752ZM201.486 34.0791C200.784 34.0893 200.087 33.9581 199.435 33.6932C198.826 33.4551 198.278 33.0813 197.833 32.6C197.397 32.1367 197.059 31.5899 196.84 30.9923C196.608 30.2872 196.494 29.5483 196.503 28.8058C196.49 28.0197 196.609 27.2371 196.856 26.4907C197.088 25.8345 197.46 25.2367 197.945 24.7383C198.387 24.2535 198.936 23.8792 199.548 23.6451C200.222 23.3843 200.94 23.2587 201.663 23.2753C202.349 23.2598 203.03 23.3857 203.666 23.6451C204.278 23.8615 204.829 24.2259 205.268 24.7062C205.701 25.2023 206.028 25.7823 206.229 26.4103C206.465 27.1423 206.578 27.9082 206.566 28.6772C206.576 29.4316 206.457 30.1821 206.213 30.8958C206.003 31.5265 205.665 32.1068 205.22 32.6C204.779 33.0897 204.23 33.4696 203.618 33.7093C202.942 33.9837 202.215 34.1098 201.486 34.0791ZM201.599 24.3525C201.049 24.3406 200.503 24.4447 199.996 24.658C199.547 24.8489 199.147 25.1403 198.827 25.51C198.483 25.9077 198.226 26.3732 198.073 26.8766C197.892 27.4756 197.806 28.0995 197.817 28.7254C197.806 29.3197 197.893 29.9117 198.073 30.4778C198.231 30.9662 198.481 31.4194 198.811 31.8122C199.128 32.1845 199.529 32.4764 199.98 32.6643C200.962 33.0604 202.059 33.0604 203.041 32.6643C203.478 32.4753 203.863 32.1829 204.162 31.8122C204.493 31.4256 204.734 30.9697 204.867 30.4778C205.035 29.8817 205.116 29.2644 205.108 28.645C205.191 27.4963 204.861 26.3557 204.178 25.4297C203.857 25.0663 203.458 24.7807 203.012 24.5941C202.565 24.4076 202.082 24.3249 201.599 24.3525ZM216.34 33.8379V31.9891C216.011 32.6244 215.504 33.1496 214.882 33.5003C214.284 33.8267 213.62 34.0123 212.94 34.0429C212.259 34.0736 211.581 33.9485 210.956 33.6772C210.428 33.4457 209.962 33.0933 209.594 32.6482C209.209 32.1706 208.916 31.6255 208.729 31.0405C208.515 30.3376 208.412 29.6051 208.425 28.8701C208.415 28.096 208.528 27.3253 208.761 26.5872C208.964 25.9357 209.29 25.3297 209.723 24.8026C210.122 24.3051 210.633 23.9087 211.213 23.6451C211.821 23.3674 212.484 23.2301 213.152 23.2432C213.801 23.196 214.45 23.3396 215.019 23.6565C215.588 23.9735 216.053 24.45 216.356 25.0277V18.4844H217.638V33.8218L216.34 33.8379ZM216.34 27.5679C216.343 27.1329 216.261 26.7016 216.1 26.2978C215.956 25.9206 215.738 25.5762 215.459 25.285C215.175 24.9934 214.837 24.7587 214.466 24.5936C214.059 24.4238 213.624 24.3364 213.184 24.3364C212.698 24.3382 212.217 24.4423 211.774 24.6419C211.35 24.8524 210.978 25.1543 210.684 25.5261C210.353 25.9334 210.108 26.4037 209.963 26.9087C209.781 27.5132 209.695 28.1424 209.707 28.7737C209.701 29.3654 209.776 29.9551 209.931 30.5261C210.066 31.0057 210.295 31.4538 210.604 31.8444C210.875 32.1904 211.22 32.4706 211.613 32.6643C212.029 32.8602 212.484 32.9592 212.943 32.9537C213.429 32.9604 213.91 32.8617 214.353 32.6643C214.757 32.4786 215.122 32.2166 215.427 31.8926C215.722 31.5465 215.95 31.1486 216.1 30.719C216.263 30.2653 216.344 29.7863 216.34 29.3042V27.5679ZM221.564 28.8862C221.56 29.4643 221.646 30.0394 221.82 30.5904C221.954 31.0642 222.189 31.5031 222.509 31.8765C222.809 32.2294 223.188 32.5051 223.615 32.6804C224.075 32.8793 224.572 32.9779 225.073 32.9698C226.28 32.9499 227.444 32.519 228.374 31.7479V33.0341C227.32 33.761 226.063 34.1326 224.785 34.0952C224.141 34.1017 223.503 33.9758 222.91 33.7254C222.349 33.4964 221.854 33.1319 221.468 32.6643C221.046 32.1654 220.73 31.5856 220.538 30.9601C220.316 30.2147 220.207 29.4394 220.218 28.6611C220.217 27.9285 220.336 27.2006 220.571 26.5068C220.789 25.8834 221.121 25.3057 221.548 24.8026C221.959 24.3215 222.467 23.9325 223.038 23.6612C223.624 23.385 224.266 23.2475 224.913 23.2593C225.517 23.2484 226.118 23.3633 226.676 23.5969C227.174 23.8257 227.612 24.1668 227.957 24.5936C228.326 25.07 228.593 25.6172 228.743 26.2013C228.937 26.8805 229.029 27.5849 229.015 28.2914V28.9344L221.564 28.8862ZM227.685 27.7608C227.726 26.8607 227.454 25.9742 226.916 25.2528C226.67 24.9544 226.358 24.7176 226.004 24.5613C225.651 24.405 225.266 24.3335 224.881 24.3525C224.463 24.3486 224.048 24.4306 223.663 24.5936C223.295 24.7503 222.963 24.98 222.686 25.2689C222.39 25.5777 222.151 25.937 221.981 26.33C221.781 26.7847 221.652 27.2671 221.596 27.7608H227.685Z" fill="#007ACC"/>
</svg>
