<svg width="124" height="28" viewBox="0 0 124 28" fill="none" xmlns="http://www.w3.org/2000/svg">
<path d="M0.5625 10.8868C1.19423 9.2272 1.81526 7.56757 2.44699 5.90792C3.03589 4.36606 3.63551 2.8242 4.22442 1.28234C4.43856 0.714846 4.75978 0.457875 5.24161 0.468583C5.73415 0.468583 6.04466 0.746976 6.23739 1.3573C7.04044 3.80928 7.8435 6.26126 8.63584 8.71325C8.7108 8.9381 8.79646 9.01305 9.04273 9.01305C12.2871 9.01305 15.5314 9.01305 18.765 9.01305C19.022 9.01305 19.1184 8.91668 19.1933 8.69183C19.9964 6.21843 20.7994 3.74504 21.6132 1.27163C21.7952 0.704145 22.1914 0.425747 22.7053 0.479284C23.155 0.532821 23.412 0.800508 23.5726 1.21809C24.6433 4.02342 25.7248 6.82876 26.7955 9.62338C26.9669 10.0731 27.1382 10.5228 27.3095 10.9725C27.2452 11.0689 27.1382 11.0903 27.0418 11.1117C25.1252 11.54 23.4227 12.418 21.8808 13.6065C20.2854 14.8379 18.6579 16.0478 17.0518 17.2684C16.0346 18.0394 15.0281 18.8103 14.0002 19.5598C13.9681 19.5705 13.936 19.5705 13.9039 19.5705C13.3578 19.2707 12.8867 18.8638 12.3941 18.4891C10.97 17.4076 9.53526 16.3262 8.11118 15.2447C7.1261 14.5059 6.16244 13.7457 5.15595 13.0283C3.88177 12.1289 2.47911 11.5293 0.969369 11.1438C0.819466 11.1117 0.605318 11.1331 0.583903 10.8976L0.5625 10.8868Z" fill="#E2452A"/>
<path d="M49.7856 14.0029C51.1776 14.0029 52.5695 14.0029 53.9615 14.0029C54.1007 14.0029 54.2613 13.96 54.2506 14.2063C54.2185 15.5554 54.2934 16.9153 54.1221 18.2644C53.6617 21.8621 51.124 24.6995 47.5692 25.5026C45.0851 26.0701 42.6438 25.9309 40.3096 24.8387C37.9219 23.7144 36.3265 21.8406 35.4806 19.3672C34.2813 15.8766 34.3028 12.3646 35.7804 8.95968C37.3115 5.45838 40.074 3.56318 43.8859 3.24196C46.3914 3.02781 48.7256 3.57388 50.7707 5.08362C52.5374 6.38992 53.5974 8.14592 54.0257 10.2981C54.0579 10.4694 54.0472 10.5444 53.8437 10.5444C52.6231 10.5444 51.4024 10.5444 50.1925 10.5444C49.9783 10.5444 49.9569 10.4159 49.9141 10.2767C49.3895 8.80979 48.4793 7.69622 46.9803 7.16085C44.1 6.13295 40.6308 7.09661 39.3031 10.8121C38.7142 12.461 38.6393 14.1528 38.7999 15.8659C38.8962 16.9581 39.1532 18.0181 39.6565 18.9925C40.7165 21.0697 42.4297 22.1405 44.7639 22.2047C46.2843 22.2475 47.687 21.9156 48.8434 20.8663C49.8927 19.9026 50.321 18.6606 50.3959 17.2686C50.4066 17.0116 50.2246 17.108 50.1176 17.108C48.6614 17.108 47.1944 17.0973 45.7382 17.108C45.417 17.108 45.3099 17.0438 45.3206 16.7011C45.3528 15.8981 45.3421 15.095 45.3206 14.292C45.3206 14.0243 45.4063 13.9814 45.6526 13.9814C47.0445 13.9921 48.4365 13.9814 49.8285 13.9814L49.7856 14.0029Z" fill="#191523"/>
<path d="M123.171 13.4354C122.24 10.705 120.366 9.04539 117.411 8.80982C115.987 8.69204 114.659 9.01327 113.535 9.98764C113.053 10.4159 112.678 10.9299 112.357 11.4974C112.303 11.5937 112.303 11.7651 112.153 11.7329C112.003 11.6794 112.089 11.5295 112.089 11.4224C112.068 11.1226 112.089 10.8121 112.089 10.4909C112.089 8.27446 112.068 6.03662 112.089 3.80949C112.089 3.56322 112.025 3.49898 111.789 3.50968C110.697 3.50968 109.616 3.53111 108.545 3.48828C108.267 3.48828 108.181 3.57394 108.202 3.85233V25.1707C108.202 25.4384 108.234 25.5133 108.534 25.5133C109.616 25.4919 110.686 25.4919 111.768 25.5133C111.982 25.5133 112.046 25.4598 112.046 25.2456C112.025 24.5497 112.025 23.8751 112.025 23.1791C112.025 23.0828 111.971 22.9436 112.111 22.9114C112.26 22.8579 112.293 23.0078 112.346 23.1149C113.652 25.4491 115.858 26.1343 118.278 25.6632C120.494 25.267 122.026 23.9072 122.882 21.8835C124.071 19.121 124.146 16.2514 123.182 13.414L123.171 13.4354ZM119.242 20.3095C118.096 22.9971 115.237 23.0613 113.759 21.9156C112.914 21.2518 112.485 20.3417 112.25 19.3352C111.864 17.6434 111.886 15.9731 112.528 14.3348C113.106 12.8465 114.284 12.0113 115.772 12.0113C117.411 11.9899 118.61 12.7608 119.252 14.2813C119.649 15.2235 119.798 16.2407 119.798 17.4935C119.798 18.3073 119.649 19.3352 119.231 20.3095H119.242Z" fill="#191523"/>
<path d="M105.332 19.6134C105.332 17.7289 105.364 15.8551 105.3 13.9599C105.214 11.8077 104.143 10.2658 102.131 9.45208C99.8391 8.52054 97.4942 8.52054 95.1922 9.39854C93.4576 10.0624 92.2797 11.3152 91.7015 13.0926C91.6373 13.2746 91.6159 13.3603 91.8514 13.3924C92.9115 13.5209 93.9715 13.6922 95.0208 13.8421C95.2029 13.8742 95.2885 13.8421 95.3634 13.6601C95.674 12.8999 96.2415 12.3859 96.991 12.0861C97.7726 11.7756 98.5864 11.7006 99.3894 11.8398C100.653 12.0754 101.242 12.6964 101.424 13.9599C101.542 14.7736 101.306 15.1698 100.514 15.4054C99.8713 15.6088 99.2074 15.6516 98.5435 15.7373C97.2051 15.8872 95.8239 15.9836 94.5176 16.4119C93.5753 16.7224 92.6973 17.1721 92.0442 17.9537C91.2625 18.8853 91.0698 19.9774 91.0805 21.1552C91.134 23.0719 92.2048 24.6672 93.9929 25.3846C95.1707 25.8665 96.4128 25.9628 97.6548 25.7808C99.2502 25.5452 100.535 24.8386 101.37 23.4145C101.402 23.3502 101.424 23.2539 101.552 23.2646C101.606 23.3609 101.584 23.4787 101.584 23.5965C101.584 24.1319 101.606 24.678 101.563 25.2026C101.563 25.4489 101.617 25.5345 101.874 25.5345C102.912 25.5131 103.983 25.5131 105.022 25.5345C105.289 25.5345 105.332 25.4489 105.332 25.2026C105.311 23.3502 105.311 21.4872 105.311 19.6241L105.332 19.6134ZM101.617 20.2772C101.349 21.6478 100.203 22.6757 98.7684 22.9112C97.9439 23.029 97.1409 23.0397 96.3699 22.7078C95.5883 22.3759 95.16 21.7977 95.1065 20.9732C95.0529 20.1594 95.3849 19.5491 96.0701 19.1208C96.8196 18.6711 97.6655 18.5426 98.5007 18.4249C99.5608 18.2642 100.642 18.1572 101.702 17.7075C101.681 18.5855 101.788 19.4421 101.617 20.2772Z" fill="#191523"/>
<path d="M75.4599 14.495C75.4599 10.9616 75.4599 7.41743 75.4599 3.884C75.4599 3.58419 75.5242 3.49854 75.8347 3.49854C76.9268 3.51995 78.019 3.51995 79.1111 3.49854C79.4216 3.49854 79.4859 3.57348 79.4859 3.87328C79.4859 9.82658 79.4859 15.7799 79.4645 21.7225C79.4645 22.0972 79.5715 22.1615 79.9142 22.1615C82.8801 22.1508 85.846 22.1615 88.812 22.1508C89.1011 22.1508 89.1761 22.2257 89.1653 22.5148C89.1439 23.4249 89.1546 24.3351 89.1653 25.2345C89.1653 25.4486 89.1332 25.5236 88.8869 25.5236C84.5076 25.5236 80.1283 25.5236 75.749 25.5236C75.4492 25.5236 75.4492 25.3951 75.4492 25.1809C75.4492 21.6154 75.4492 18.0606 75.4492 14.495H75.4599Z" fill="#191523"/>
<path d="M69.2177 16.5937C69.2177 17.9 69.2177 19.217 69.2177 20.5233C69.2177 20.7053 69.2177 20.898 69.2391 21.0693C69.3997 22.0651 69.9886 22.5148 71.0701 22.4613C71.3377 22.4506 71.5947 22.4185 71.8517 22.3542C72.0551 22.3114 72.1301 22.3756 72.1729 22.5684C72.3442 23.425 72.5369 24.2708 72.719 25.1167C72.7511 25.2452 72.7832 25.363 72.6012 25.4165C70.781 25.8877 68.9821 25.9947 67.2904 25.0203C65.8984 24.2173 65.3202 22.911 65.2988 21.3584C65.2774 18.3925 65.2988 15.4266 65.2988 12.4606C65.2988 12.1608 65.1453 12.0109 64.8384 12.0109C64.3137 12.0109 63.7783 12.0109 63.2537 12.0109C63.0502 12.0109 62.9431 11.9895 62.9539 11.7325C62.9753 10.9081 62.9646 10.0729 62.9539 9.24841C62.9539 9.02355 63.0288 8.98072 63.2323 8.98072C63.8319 8.99143 64.4315 8.98072 65.0204 8.98072C65.2559 8.98072 65.3095 8.90577 65.2988 8.69162C65.2988 7.56735 65.2988 6.44308 65.2988 5.31881C65.2988 5.08325 65.3523 5.0083 65.5986 5.0083C66.7014 5.01901 67.8043 5.02972 68.9071 5.0083C69.1748 5.0083 69.2284 5.09396 69.2177 5.34023C69.207 6.45379 69.2177 7.56735 69.207 8.68092C69.207 8.92719 69.2712 8.99143 69.5175 8.98072C70.4062 8.97002 71.2842 8.98072 72.1729 8.98072C72.3764 8.98072 72.4834 9.00214 72.4727 9.24841C72.4513 10.0729 72.4513 10.9081 72.4727 11.7325C72.4727 11.9574 72.387 11.9895 72.1943 11.9895C71.3163 11.9895 70.449 12.0002 69.571 11.9788C69.2391 11.9788 69.207 12.0859 69.207 12.3643C69.2177 13.7669 69.207 15.1696 69.207 16.5722L69.2177 16.5937Z" fill="#191523"/>
<path d="M0.561983 10.8867C0.851081 11.1116 1.22583 11.1116 1.55776 11.2186C3.08891 11.6684 4.48087 12.3965 5.75504 13.3601C7.20054 14.463 8.65674 15.5444 10.1022 16.6473C11.3657 17.6109 12.6292 18.5746 13.8926 19.5383C13.8819 19.7417 13.6999 19.8167 13.5714 19.913C12.0403 21.0694 10.4984 22.2151 8.97796 23.3715C8.88159 23.4465 8.78523 23.5428 8.64603 23.5428C7.25407 22.5149 5.86212 21.487 4.48087 20.4377C3.53862 19.7203 2.51071 19.11 1.75048 18.1999C-0.0162308 16.0905 -0.433803 13.7135 0.444201 11.1116C0.465616 11.0366 0.519143 10.9724 0.551265 10.9081L0.561983 10.8867Z" fill="#F36E2C"/>
<path d="M13.959 19.5278C14.4194 19.0567 14.9762 18.7141 15.4901 18.3286C17.6423 16.6797 19.8159 15.0522 21.9788 13.4139C23.5742 12.2147 25.3302 11.3474 27.3003 10.9727C28.264 13.4782 27.8786 15.791 26.2939 17.9217C25.6193 18.8319 24.6663 19.4315 23.7776 20.0953C22.2893 21.2089 20.801 22.3225 19.3234 23.436C19.2698 23.4789 19.2056 23.511 19.152 23.5431C18.6381 23.254 18.1991 22.8685 17.7387 22.5152C16.5823 21.6158 15.3831 20.7592 14.2267 19.8491C14.1196 19.7634 13.9483 19.7099 13.9697 19.5171L13.959 19.5278Z" fill="#F36E2C"/>
<path d="M56.9062 17.2792C56.9062 14.6345 56.9062 12.0005 56.9062 9.35579C56.9062 9.0881 56.9598 9.00244 57.2489 9.00244C58.341 9.02386 59.4332 9.01315 60.5253 9.00244C60.7716 9.00244 60.8251 9.06668 60.8251 9.30225C60.8251 14.6131 60.8251 19.9132 60.8251 25.2241C60.8251 25.4382 60.793 25.5239 60.5467 25.5132C59.4332 25.5025 58.3196 25.5025 57.2061 25.5132C56.9491 25.5132 56.917 25.4168 56.917 25.192C56.917 22.5473 56.917 19.9132 56.917 17.2685L56.9062 17.2792Z" fill="#191523"/>
<path d="M13.9544 19.5283C14.7253 20.1922 15.5605 20.7703 16.3635 21.3807C17.2308 22.0445 18.1088 22.6977 18.9868 23.3615C19.0511 23.4044 19.0832 23.4793 19.1367 23.5436C18.1302 24.3145 17.1345 25.0747 16.128 25.8349C15.6676 26.1776 15.2178 26.5309 14.7574 26.8735C14.1364 27.3447 13.676 27.3554 13.0442 26.8735C11.5773 25.76 10.1104 24.6357 8.63281 23.5221C10.0569 22.4407 11.481 21.3593 12.9051 20.2778C13.2263 20.0315 13.5475 19.7746 13.8794 19.5176C13.9008 19.5176 13.9223 19.5176 13.9437 19.5176L13.9544 19.5283Z" fill="#FAA327"/>
<path d="M58.8765 6.41049C57.6345 6.41049 56.6066 5.44683 56.6173 4.29044C56.6173 3.13404 57.6559 2.17038 58.8765 2.15967C60.0972 2.15967 61.1358 3.13404 61.1358 4.29044C61.1358 5.43613 60.0972 6.41049 58.8658 6.41049H58.8765Z" fill="#191523"/>
</svg>
