<svg width="128" height="32" viewBox="0 0 128 32" fill="none" xmlns="http://www.w3.org/2000/svg">
<path d="M7.91734 16.0571C7.91734 16.0571 7.8853 16.0677 7.87462 16.0677C7.79988 16.0677 7.72514 16.0677 7.65039 16.0891C7.72514 16.0144 7.83192 16.0571 7.91734 16.0571Z" fill="#3873A4"/>
<path d="M48.7566 14.5801C48.5639 13.1881 48.1034 11.8818 47.279 10.7254C46.4866 9.61188 45.4373 8.90519 44.0668 8.69104C42.5891 8.46619 41.1329 8.61609 39.7089 9.02297C38.4133 9.38702 37.2248 9.95452 36.2718 10.9396C36.1326 11.0895 36.0684 11.2394 36.0684 11.4428C36.0684 17.6103 36.0684 23.7777 36.0684 29.9344C36.0684 30.3485 36.2646 30.6269 36.6573 30.7696C37.2783 30.9838 37.8886 31.1979 38.531 31.4335V22.7391C38.5846 22.7391 38.606 22.7391 38.6167 22.7605C38.6595 22.7819 38.7131 22.8034 38.7559 22.8355C39.8802 23.4993 41.0687 23.9597 42.375 24.0454C43.6277 24.1203 44.827 23.9169 45.887 23.2209C47.3111 22.2894 48.1248 20.9188 48.5638 19.3127C48.9921 17.7495 48.9814 16.1648 48.7566 14.5801ZM46.0583 16.1862C46.0583 17.5353 45.9834 18.7131 45.5872 19.8374C45.1054 21.1865 44.2381 22.0859 42.7605 22.2894C41.8503 22.4072 40.9937 22.2144 40.1479 21.8718C39.6446 21.6684 39.1735 21.4114 38.7024 21.133C38.5846 21.058 38.5418 20.9831 38.5418 20.8439C38.5418 17.7709 38.5418 14.6872 38.5418 11.6141C38.5418 11.3893 38.6703 11.3036 38.8202 11.2073C39.5483 10.779 40.3406 10.5006 41.1651 10.34C41.7433 10.2329 42.3214 10.2008 42.9103 10.2757C43.8954 10.3935 44.6235 10.9075 45.1268 11.7426C45.6086 12.5564 45.8227 13.4558 45.9512 14.3659C46.0369 15.0298 46.0797 15.6829 46.069 16.1862H46.0583Z" fill="#656565"/>
<path d="M61.6362 22.8576C60.7368 23.2538 59.8587 23.5643 58.9379 23.7356C57.6851 23.9712 56.4217 24.1746 55.1582 23.8534C53.5307 23.4465 52.31 22.515 51.7426 20.866C51.6034 20.4698 51.5713 20.0416 51.5605 19.624C51.5605 16.3047 51.5605 12.9747 51.5605 9.65542C51.5605 9.4734 51.6141 9.39844 51.7854 9.3449C52.4492 9.13075 53.1131 8.90589 53.7663 8.67033C53.9697 8.59538 54.0447 8.60609 54.0447 8.86307C54.034 10.6512 54.0447 12.4286 54.0447 14.2168C54.0447 15.7586 54.0447 17.2898 54.0447 18.8316C54.0447 19.3135 54.0875 19.7953 54.2695 20.245C54.7406 21.4549 55.6936 22.0438 56.9142 22.2473C58.4347 22.5043 59.7945 22.0224 61.0901 21.2729C61.4006 21.0909 61.5077 20.8981 61.5077 20.5341C61.497 16.7758 61.5077 13.0175 61.497 9.24854C61.497 9.00227 61.5719 8.94873 61.8075 8.94873C62.4499 8.95944 63.1031 8.94873 63.7455 8.94873C63.9061 8.94873 63.9704 8.97014 63.9704 9.16288C63.9704 13.9384 63.9704 18.7139 63.949 23.4893C63.949 24.5601 63.8205 25.6094 63.617 26.6694C63.3065 28.2541 62.3857 29.357 60.9937 30.1065C59.6874 30.8132 58.274 31.1879 56.7964 31.3271C56.5823 31.3485 56.3574 31.3485 56.1433 31.3807C55.9613 31.4021 55.8756 31.3485 55.8328 31.1665C55.7471 30.781 55.6508 30.4063 55.533 30.0315C55.4794 29.8602 55.533 29.8281 55.6936 29.8067C56.5716 29.6889 57.4389 29.5604 58.2955 29.3355C58.8951 29.1749 59.4519 28.9394 59.9658 28.5967C60.876 27.9971 61.3363 27.1405 61.4755 26.0805C61.6147 25.0312 61.6469 23.9712 61.6362 22.879V22.8576Z" fill="#656565"/>
<path d="M78.9618 10.5653C79.6149 10.1049 80.2466 9.74083 80.9319 9.47315C82.1954 8.9699 83.5017 8.74506 84.8615 8.91637C86.821 9.15194 88.0523 10.7473 88.3842 12.2464C88.4806 12.6854 88.5127 13.1244 88.5127 13.5741C88.5127 16.8612 88.5127 20.1484 88.5127 23.4356C88.5127 23.6604 88.4699 23.7461 88.2129 23.7461C87.5919 23.7246 86.9709 23.7246 86.3499 23.7461C86.0608 23.7568 86.0286 23.6604 86.0286 23.4034C86.0286 20.566 86.0286 17.7392 86.0286 14.9018C86.0286 14.1523 86.0501 13.392 85.8038 12.6747C85.4933 11.7859 85.0221 11.0364 84.0799 10.6938C83.3946 10.4475 82.6986 10.5332 82.0134 10.7366C80.9319 11.0578 79.9897 11.6253 79.0688 12.2571C78.9404 12.3427 78.9618 12.4605 78.9618 12.5783C78.9618 15.1266 78.9618 17.6643 78.9618 20.2126C78.9618 21.3048 78.9618 22.3969 78.9618 23.4891C78.9618 23.6818 78.9082 23.7461 78.7155 23.7354C78.0409 23.7247 77.3664 23.7354 76.6918 23.7354C76.5312 23.7354 76.467 23.6925 76.4884 23.5319C76.4884 23.4891 76.4884 23.4463 76.4884 23.4034C76.4884 16.0368 76.4884 8.68081 76.4884 1.31414C76.4884 1.06787 76.5633 0.960799 76.7882 0.896555C77.4199 0.71453 78.0409 0.511097 78.662 0.318364C78.8547 0.25412 78.9546 0.32192 78.9618 0.521791C78.9618 3.74471 78.9618 6.97834 78.9618 10.2013C78.9618 10.3083 78.9618 10.4047 78.9618 10.5653Z" fill="#656565"/>
<path d="M104.026 13.7239C103.041 9.98708 99.6469 7.90986 95.8994 8.76645C93.865 9.23757 92.4623 10.5225 91.595 12.3641C90.4172 14.8589 90.5028 17.4287 91.52 19.9449C92.7407 22.9537 95.3747 24.4099 98.5762 23.9602C100.578 23.6818 102.045 22.6111 103.084 20.9086C103.973 19.4524 104.315 17.8463 104.326 16.1545C104.326 15.3301 104.251 14.5163 104.037 13.7132L104.026 13.7239ZM101.189 19.5273C100.932 20.3946 100.525 21.187 99.7969 21.7545C98.1265 23.0501 95.6852 22.6111 94.5609 20.8015C93.9399 19.795 93.6615 18.6707 93.533 17.5036C93.4795 17.0325 93.4688 16.5614 93.4688 16.0903C93.4688 14.9446 93.5651 13.8096 93.9934 12.7282C94.593 11.2506 95.6959 10.4047 97.2806 10.2976C98.7047 10.2012 99.8504 10.8008 100.632 12.0215C101.178 12.8781 101.456 13.831 101.553 14.8268C101.713 16.4115 101.639 17.9855 101.2 19.5273H101.189Z" fill="#656565"/>
<path d="M106.52 17.3539C106.52 15.3409 106.52 13.328 106.52 11.3257C106.52 11.133 106.574 11.0152 106.735 10.8974C108.351 9.73029 110.107 8.92724 112.099 8.68097C113.534 8.49895 114.947 8.52036 116.275 9.18422C117.399 9.741 118.181 10.5976 118.395 11.8718C118.427 12.0966 118.438 12.3215 118.438 12.5463C118.438 16.1761 118.438 19.8059 118.438 23.4357C118.438 23.6606 118.395 23.7355 118.159 23.7248C117.528 23.7034 116.896 23.7034 116.264 23.7248C116.029 23.7248 115.954 23.6713 115.954 23.425C115.954 20.2128 115.954 17.0113 115.954 13.7991C115.954 13.3601 115.932 12.9211 115.814 12.5035C115.45 11.2079 114.326 10.3299 112.945 10.2228C111.585 10.1158 110.343 10.4477 109.208 11.1865C109.037 11.2936 108.962 11.4114 108.962 11.6255C108.962 15.5551 108.962 19.4954 108.962 23.425C108.962 23.6606 108.897 23.7355 108.662 23.7248C108.019 23.7034 107.388 23.7141 106.745 23.7248C106.531 23.7248 106.488 23.6606 106.488 23.4571C106.488 21.4227 106.488 19.3883 106.488 17.3432L106.52 17.3539Z" fill="#656565"/>
<path d="M68.3607 15.6516C68.3607 14.0241 68.3607 12.3966 68.3607 10.7691C68.3607 10.5549 68.3071 10.48 68.0823 10.4907C67.6861 10.5121 67.2899 10.4907 66.9045 10.4907C66.7331 10.4907 66.6582 10.4586 66.6582 10.2658C66.6689 9.90177 66.6689 9.52701 66.6582 9.16296C66.6582 8.99165 66.701 8.9381 66.8723 8.9381C67.2899 8.94881 67.7182 8.9381 68.1358 8.9381C68.3071 8.9381 68.35 8.88457 68.35 8.71326C68.35 7.49262 68.35 6.26126 68.35 5.04062C68.35 4.8586 68.4142 4.78365 68.5748 4.73012C69.2387 4.50526 69.8918 4.25899 70.5449 4.02343C70.8126 3.92706 70.8126 3.92706 70.8126 4.22687C70.8126 5.70448 70.8126 7.1821 70.8126 8.65972C70.8126 8.87386 70.8769 8.93811 71.091 8.9274C71.8406 8.91669 72.6008 8.9274 73.3503 8.9274C73.5537 8.9274 73.6073 8.99165 73.5966 9.18438C73.5858 9.53773 73.5858 9.90178 73.5966 10.2551C73.5966 10.4264 73.5537 10.48 73.3717 10.48C72.6008 10.48 71.8298 10.48 71.0589 10.48C70.8662 10.48 70.8126 10.5335 70.8126 10.7262C70.8126 13.8528 70.8126 16.99 70.8126 20.1166C70.8126 20.5556 70.8662 20.9839 71.0375 21.4015C71.2195 21.8405 71.5407 22.151 71.9904 22.3223C72.4295 22.4936 72.8792 22.59 73.3503 22.6007C73.543 22.6007 73.6073 22.665 73.5966 22.8684C73.5751 23.1575 73.5966 23.4466 73.5966 23.7357C73.5966 23.8428 73.5752 23.907 73.4467 23.9177C72.3759 24.0034 71.3266 23.9391 70.3415 23.468C69.0567 22.8577 68.4035 21.8084 68.3714 20.4057C68.3392 18.8103 68.3714 17.2256 68.3714 15.6302L68.3607 15.6516Z" fill="#656565"/>
<path d="M127.465 4.43981C127.229 5.13579 126.994 5.82106 126.769 6.51704C126.716 6.66694 126.673 6.76331 126.469 6.76331C126.255 6.76331 126.234 6.64553 126.191 6.49562C125.987 5.86389 125.784 5.23217 125.581 4.60043C125.559 4.52548 125.527 4.46123 125.473 4.39699C125.473 5.10367 125.473 5.81036 125.473 6.51704C125.473 6.63482 125.495 6.7526 125.302 6.7526C125.131 6.7526 125.109 6.67766 125.109 6.53846C125.109 5.66046 125.109 4.79316 125.109 3.91516C125.109 3.76526 125.131 3.701 125.313 3.701C125.709 3.701 125.709 3.70101 125.827 4.06506C126.02 4.6968 126.202 5.31782 126.394 5.94955C126.426 6.04592 126.426 6.1637 126.523 6.23866C126.79 5.45702 127.069 4.68609 127.337 3.91516C127.401 3.73313 127.765 3.61535 127.915 3.71172C127.979 3.75455 127.958 3.8188 127.958 3.88304C127.958 4.77175 127.958 5.67117 127.958 6.55988C127.958 6.75261 127.861 6.7312 127.733 6.7419C127.583 6.75261 127.54 6.68836 127.54 6.54916C127.54 5.84248 127.54 5.1358 127.54 4.42911H127.486L127.465 4.43981Z" fill="#656565"/>
<path d="M123.7 5.40421C123.7 5.78967 123.7 6.17514 123.7 6.56061C123.7 6.75334 123.625 6.76404 123.465 6.77475C123.304 6.77475 123.261 6.73192 123.261 6.57131C123.261 5.81108 123.261 5.05086 123.261 4.29063C123.261 4.08719 123.197 4.03366 123.015 4.04437C122.812 4.06578 122.597 4.04437 122.383 4.04437C122.276 4.04437 122.223 4.01225 122.223 3.89447C122.223 3.77669 122.244 3.72314 122.383 3.72314C123.111 3.72314 123.839 3.72314 124.557 3.72314C124.685 3.72314 124.717 3.77669 124.717 3.89447C124.717 4.01225 124.675 4.04437 124.568 4.04437C124.343 4.04437 124.107 4.04437 123.882 4.04437C123.711 4.04437 123.679 4.0979 123.679 4.25851C123.679 4.64398 123.679 5.02944 123.679 5.41491L123.7 5.40421Z" fill="#656565"/>
<path d="M7.91734 16.0571C7.91734 16.0571 7.8853 16.0677 7.87462 16.0677C7.79988 16.0891 7.72514 16.0891 7.65039 16.0891C7.72514 16.0144 7.83192 16.0571 7.91734 16.0571Z" fill="#3B76A7"/>
<path d="M23.1742 4.35465C23.1742 4.02272 23.1421 3.70151 23.0136 3.391C22.9172 2.88775 22.6603 2.45945 22.3283 2.0847C22.0821 1.76347 21.793 1.49578 21.4504 1.29234C21.1505 1.05678 20.8186 0.885475 20.4545 0.767694C19.9192 0.532132 19.3517 0.435759 18.7735 0.39293C18.7521 0.39293 18.72 0.392936 18.6878 0.382228C18.206 0.296569 17.7242 0.253735 17.2316 0.243027H17.146C16.9639 0.243027 16.7819 0.285864 16.6106 0.200205C16.375 0.200205 16.1502 0.200205 15.9253 0.200205C15.3686 0.200205 14.8011 0.168076 14.2443 0.243027C13.8053 0.243027 13.3663 0.285858 12.938 0.360809C12.424 0.403639 11.9101 0.500005 11.4068 0.628493C10.9893 0.703445 10.5716 0.83194 10.1862 1.00326C9.3403 1.36731 8.71929 1.93479 8.49444 2.86633C8.38736 3.29462 8.33382 3.73364 8.35523 4.18335V5.75733C8.35523 6.13209 8.35522 6.50683 8.34452 6.88159C8.33381 7.11715 8.39807 7.17069 8.63364 7.17069C10.8929 7.17069 13.1628 7.17069 15.4221 7.17069C15.5399 7.17069 15.647 7.17069 15.7647 7.17069C15.7647 7.37413 15.7647 7.58828 15.7647 7.79172C15.7647 7.97375 15.7647 8.16648 15.4971 8.11295H5.88184C5.27152 8.08082 4.67189 8.11295 4.09369 8.31639C2.47688 8.74468 1.19201 10.233 0.892201 12.0425C0.678054 12.8349 0.51745 13.6379 0.463913 14.4624C0.367547 14.805 0.399672 15.1584 0.399672 15.501C0.399672 15.8972 0.378244 16.2934 0.453195 16.6788V16.7752C0.485318 17.257 0.549553 17.7282 0.678041 18.1993C0.72087 18.6169 0.806551 19.013 0.93504 19.4092C1.00999 19.8482 1.14917 20.2658 1.35261 20.662C1.55605 21.1866 1.85586 21.6578 2.26274 22.0646C2.4983 22.343 2.77669 22.5465 3.09792 22.7178C3.49409 22.9534 3.91167 23.0818 4.36138 23.1247C4.42562 23.1247 4.48987 23.1247 4.56482 23.1247C5.36787 23.1675 6.16024 23.1247 6.96329 23.1461C7.11319 23.1461 7.26307 23.1675 7.40226 23.1247C7.40226 21.9361 7.40226 20.7476 7.40226 19.5591C7.54146 18.0815 8.20534 16.9144 9.40457 16.0364C9.98277 15.6081 10.6359 15.3725 11.3105 15.2119C11.3747 15.2119 11.6959 15.1584 11.7816 15.1584C12.1992 15.1584 12.6168 15.1584 13.0343 15.1584H15.9789C17.253 15.1584 18.5272 15.1584 19.8014 15.1584C19.9941 15.1584 20.1976 15.1049 20.3903 15.0513C21.8572 14.6766 23.0672 13.2632 23.1207 11.8712C23.1207 10.1688 23.1207 8.46628 23.1207 6.76381V4.68659C23.1207 4.68659 23.1207 4.68659 23.0993 4.68659C23.0993 4.68659 23.11 4.67588 23.1207 4.66517V4.69729C23.2064 4.75083 23.1421 4.93286 23.1421 5.05064C23.1421 5.62884 23.1742 6.19633 23.1207 6.77453C23.1421 6.78523 23.1421 6.83877 23.1421 6.89231V11.5928C23.1421 11.6892 23.1528 11.7856 23.1207 11.8819C23.1849 11.732 23.1635 11.5714 23.1635 11.4215C23.1635 9.0766 23.1635 6.7317 23.1635 4.39749L23.1742 4.35465ZM11.546 5.36115C10.7216 5.36115 10.0684 4.69729 10.0684 3.87282C10.0684 3.04836 10.7323 2.3952 11.546 2.3952C12.3598 2.3952 13.0343 3.05906 13.0343 3.87282C13.0343 4.68658 12.3705 5.36115 11.546 5.36115Z" fill="url(#paint0_linear_2225_558)"/>
<path d="M31.4626 15.0941C31.4198 14.4624 31.3342 14.0769 31.2485 13.5737C31.1736 13.0062 31.0344 12.4387 30.8737 11.8926C30.8309 11.6035 30.7024 11.3358 30.6061 11.0467C30.424 10.5328 30.1885 10.051 29.8351 9.63337C29.5996 9.25861 29.2676 9.00163 28.8929 8.78748C28.4753 8.5198 28.0149 8.39132 27.5331 8.38061C26.5801 8.3592 25.6271 8.38061 24.6742 8.38061C24.5243 8.38061 24.46 8.41274 24.46 8.58405C24.46 9.78328 24.4922 10.9718 24.4279 12.1603C24.3637 12.6743 24.2138 13.1561 24.0103 13.6379C23.7855 14.0662 23.5392 14.4731 23.2073 14.8264C22.4792 15.6188 21.5798 16.1113 20.5304 16.3255C20.3377 16.3469 20.145 16.3576 19.9522 16.379C19.8666 16.379 19.7809 16.379 19.6845 16.379H12.607C12.35 16.379 12.1037 16.3897 11.8468 16.4218C10.2514 16.636 8.78445 18.1671 8.72021 19.7625C8.67738 20.9403 8.72021 22.1182 8.72021 23.296V26.6045C8.72021 26.9686 8.66667 27.3326 8.75233 27.6967C8.75233 27.7181 8.75234 27.7395 8.76305 27.7716C8.81658 28.307 9.06285 28.7674 9.39478 29.1743C9.70529 29.5598 10.0693 29.881 10.4976 30.1166C10.9581 30.4485 11.4827 30.6626 12.0181 30.834C12.7248 31.0802 13.4314 31.2622 14.1703 31.3586C14.6521 31.4657 15.1339 31.4978 15.6265 31.5192C16.9649 31.5728 18.2712 31.3907 19.5668 31.0374C20.509 30.7804 21.4085 30.4485 22.1901 29.8275C22.9075 29.26 23.4107 28.564 23.475 27.611C23.475 27.5789 23.5071 27.5468 23.5071 27.5147C23.5071 26.5189 23.5071 25.5231 23.5178 24.5273C23.5178 24.3774 23.4321 24.3774 23.3358 24.3774C22.4792 24.3774 21.6333 24.3774 20.7874 24.3774H18.314C17.5859 24.3774 16.8578 24.3774 16.1297 24.3774C16.1297 24.1419 16.1297 23.917 16.1083 23.6814C16.0976 23.4887 16.1511 23.4245 16.3546 23.4352C16.8257 23.4352 17.3075 23.4352 17.7893 23.4352C18.5603 23.4566 19.3312 23.4566 20.1021 23.4352C20.9801 23.4566 21.8475 23.4566 22.7255 23.4352C23.7534 23.4566 24.792 23.4566 25.8199 23.4352C26.3445 23.4352 26.8692 23.4566 27.3939 23.4352C28.122 23.4137 28.7858 23.1996 29.3319 22.6964C29.7066 22.343 29.9851 21.9254 30.2206 21.465C30.6061 20.7155 30.8738 19.9231 31.0879 19.0987C31.3021 18.4241 31.4305 17.7281 31.452 17.0107C31.4948 16.2291 31.4841 15.9186 31.452 15.1155L31.4626 15.0941ZM20.2735 26.1334C21.0979 26.1334 21.7511 26.7973 21.7511 27.6217C21.7511 28.4462 21.0872 29.1101 20.2735 29.1101C19.4597 29.1101 18.7851 28.4462 18.7851 27.6217C18.7851 26.7973 19.449 26.1334 20.2735 26.1334Z" fill="url(#paint1_linear_2225_558)"/>
<defs>
<linearGradient id="paint0_linear_2225_558" x1="3.91168" y1="3.66939" x2="18.7093" y2="18.467" gradientUnits="userSpaceOnUse">
<stop stop-color="#487AA1"/>
<stop offset="1" stop-color="#2D6A9B"/>
</linearGradient>
<linearGradient id="paint1_linear_2225_558" x1="12.9603" y1="12.7171" x2="27.4581" y2="27.2149" gradientUnits="userSpaceOnUse">
<stop stop-color="#FEE875"/>
<stop offset="1" stop-color="#FFD53D"/>
</linearGradient>
</defs>
</svg>
