<svg width="113" height="42" viewBox="0 0 113 42" fill="none" xmlns="http://www.w3.org/2000/svg">
<path d="M61.1706 31.1131C59.5431 31.1131 58.301 30.642 57.4337 29.6891C56.5878 28.7361 56.1703 27.4084 56.1703 25.7166V17.2685H58.4188V25.374C58.4188 26.6482 58.7079 27.5904 59.2969 28.19C59.875 28.7896 60.6673 29.0894 61.6524 29.0894C62.4126 29.0894 63.0872 28.886 63.6761 28.4791C64.2864 28.0722 64.7362 27.5476 65.0467 26.9051C65.3786 26.252 65.5499 25.5667 65.5499 24.8493V17.2685H67.7985V30.6848H65.657V28.7254H65.5499C65.1752 29.3892 64.5863 29.9567 63.7725 30.4064C62.9588 30.8669 62.0914 31.0917 61.1813 31.0917L61.1706 31.1131ZM50.6881 11.8506H52.9367V30.6956H50.6881V11.8506ZM37.0791 11.8506H48.0327V13.9814H39.2954V20.4272H47.1761V22.5365H39.2954V30.6956H37.0684V11.8506H37.0791Z" fill="#818181"/>
<path d="M76.4478 30.8994C75.9018 30.8994 75.3878 30.8137 74.9167 30.6317C74.4563 30.4604 74.0709 30.2141 73.7496 29.925C73.3963 29.5931 73.1286 29.2076 72.9572 28.7686C72.7859 28.3296 72.6896 27.7943 72.6896 27.1625V19.2926H70.334V17.2689H72.6896V13.4785H74.9381V17.2689H78.2146V19.2926H74.9381V26.6057C74.9381 27.3445 75.0773 27.8906 75.3664 28.2333C75.6983 28.6187 76.1909 28.8115 76.8226 28.8115C77.3366 28.8115 77.8291 28.6615 78.3003 28.3617V30.546C78.0326 30.6638 77.7649 30.7602 77.4758 30.8137C77.2081 30.8673 76.8654 30.8994 76.4478 30.8994Z" fill="#818181"/>
<path d="M85.9909 30.8994C85.4448 30.8994 84.9309 30.8137 84.4597 30.6317C83.9993 30.4604 83.6138 30.2141 83.2926 29.925C82.9393 29.5931 82.6716 29.2076 82.5003 28.7686C82.329 28.3296 82.2326 27.7943 82.2326 27.1625V19.2926H79.877V17.2689H82.2326V13.4785H84.4811V17.2689H87.7576V19.2926H84.4811V26.6057C84.4811 27.3445 84.6203 27.8906 84.9094 28.2333C85.2414 28.6187 85.7339 28.8115 86.3656 28.8115C86.8796 28.8115 87.3721 28.6615 87.8432 28.3617V30.546C87.5755 30.6638 87.3078 30.7602 87.0187 30.8137C86.7511 30.8673 86.4085 30.8994 85.9909 30.8994Z" fill="#818181"/>
<path d="M104.769 17.2691H106.91V19.432H107.017C107.285 18.6932 107.799 18.0936 108.548 17.6118C109.309 17.1192 110.101 16.8729 110.925 16.8729C111.546 16.8729 112.071 16.9586 112.51 17.1406V19.5605C111.943 19.2821 111.311 19.1429 110.604 19.1429C109.951 19.1429 109.351 19.3249 108.805 19.6997C108.259 20.0637 107.82 20.567 107.488 21.1987C107.167 21.809 107.017 22.4836 107.017 23.2117V30.7069H104.769V17.2905V17.2691ZM99.779 22.5478C99.7469 21.9911 99.5863 21.4236 99.3079 20.8668C99.0295 20.31 98.5798 19.8282 97.9587 19.4427C97.3484 19.0572 96.5989 18.8645 95.6888 18.8645C94.6288 18.8645 93.7293 19.2071 92.9905 19.8924C92.2624 20.5563 91.7913 21.445 91.5664 22.5478H99.7897H99.779ZM95.8922 31.103C94.6073 31.103 93.451 30.7925 92.423 30.1822C91.3951 29.5719 90.5921 28.726 90.0139 27.6552C89.4464 26.5631 89.168 25.3532 89.168 23.9933C89.168 22.6335 89.4356 21.4985 89.9603 20.4171C90.5064 19.3249 91.2773 18.4576 92.2624 17.8152C93.2475 17.162 94.3932 16.8408 95.6995 16.8408C97.0058 16.8408 98.1729 17.1406 99.1365 17.7402C100.111 18.3184 100.85 19.1215 101.364 20.1601C101.888 21.1987 102.156 22.3765 102.156 23.7149C102.156 23.9826 102.124 24.2075 102.07 24.4002H91.4058C91.4594 25.4174 91.7056 26.274 92.1446 26.9807C92.5836 27.6874 93.1404 28.212 93.815 28.5547C94.5003 28.908 95.2177 29.0793 95.9565 29.0793C97.6911 29.0793 99.0188 28.2763 99.9503 26.6595L101.856 27.5803C101.278 28.6725 100.475 29.529 99.4792 30.1608C98.4941 30.7925 97.2949 31.103 95.8815 31.103H95.8922Z" fill="#818181"/>
<path d="M15.8537 36.832L33.0925 19.6895H20.5542L9.58984 30.6003L15.8537 36.832Z" fill="#4BC9F5"/>
<path d="M0.181641 21.2519L20.5577 0.98291H33.0961L6.45614 27.4836L0.181641 21.2519Z" fill="#4BC9F5"/>
<path d="M20.5579 41.5114H33.0963L22.1319 30.6006L15.8574 36.8323L20.5579 41.5114Z" fill="#03579B"/>
<path d="M9.58984 30.5989L15.8537 24.3672L22.1282 30.5989L15.8537 36.8306L9.58984 30.5989Z" fill="#45B5E7"/>
</svg>
