<svg width="117" height="49" viewBox="0 0 117 49" fill="none" xmlns="http://www.w3.org/2000/svg">
<path d="M55.2571 30.8163C55.2571 29.5299 54.7932 28.6337 53.3486 28.6337C52.0833 28.6337 51.3242 29.3191 51.3242 30.6265C51.3242 34.0745 57.1129 32.0184 57.1129 36.4891C57.1129 39.315 55.0357 40.1374 53.3065 40.1374C50.4385 40.1374 49.6055 38.6612 49.6055 36.0673H51.1027C51.1027 37.4381 51.1871 38.9143 53.4014 38.9143C54.5401 38.9459 55.4891 38.0602 55.5313 36.9214C55.5313 36.8687 55.5313 36.8054 55.5313 36.7527C55.5313 33.2837 49.7425 35.2976 49.7425 30.8058C49.7425 29.6776 50.2275 27.4316 53.3275 27.4316C55.6578 27.4316 56.7228 28.6021 56.7544 30.848L55.2571 30.8269V30.8163Z" fill="#010101"/>
<path d="M61.1608 33.0415H61.9199C63.2063 33.0415 63.7757 32.1136 63.7757 30.901C63.7757 29.7834 63.3645 28.8766 62.1941 28.8766C60.6019 28.8766 60.4437 30.3527 60.4437 31.2385H58.9464C58.9464 29.1613 59.927 27.7378 62.1624 27.7378C64.7036 27.7378 65.2835 29.5409 65.2835 30.8905C65.2835 32.1031 64.6614 33.1891 63.3961 33.4949V33.5266C64.7669 33.8007 65.642 34.6759 65.642 36.3524C65.642 38.5667 64.5243 40.1061 62.1941 40.1061C58.9359 40.1061 58.7461 37.2592 58.7461 36.732V36.5738H60.2434C60.2434 37.6915 60.7917 38.9779 62.173 38.9779C63.0692 38.9779 64.1026 38.535 64.1026 36.4789C64.1026 35.0555 63.4172 34.1592 61.9094 34.1592H61.1396L61.1608 33.031V33.0415Z" fill="#010101"/>
<path d="M13.2488 3.93939C15.7056 2.71627 18.1413 1.47206 20.6087 0.27002C20.6298 4.34008 20.6087 8.43123 20.6087 12.5118C18.2151 13.039 15.8427 13.7139 13.4492 14.2411L13.776 14.452L13.2699 14.3992C13.2172 13.2605 13.2699 12.1217 13.2383 10.9829C13.2383 8.63157 13.2383 6.28021 13.2383 3.93939H13.2488Z" fill="#8D3424"/>
<path d="M20.6074 0.27002C23.0642 1.50369 25.521 2.72681 27.9778 3.94993V10.9724C27.9673 12.0584 27.9778 13.155 27.9778 14.2411L27.8196 14.2832C25.4261 13.6822 23.0326 13.0601 20.6285 12.5118C20.618 8.43123 20.6285 4.34008 20.618 0.27002H20.6074Z" fill="#E15443"/>
<path d="M0.554688 10.2876C1.64074 9.76037 2.71628 9.19098 3.81287 8.67432C3.81287 19.2185 3.81287 29.7627 3.81287 40.3069C2.71628 39.8008 1.65129 39.2314 0.565242 38.7042C0.565242 29.2355 0.565242 19.7668 0.565242 10.2981L0.554688 10.2876Z" fill="#8D3424"/>
<path d="M3.8125 8.67392C6.95467 9.47528 10.1179 10.1923 13.2601 10.9936C13.2811 12.1324 13.239 13.2712 13.2917 14.41L13.7978 14.4627C16.0754 14.8317 18.3318 15.3168 20.6094 15.6647C20.6305 16.5821 20.6305 17.4994 20.6094 18.4168C18.1737 18.7014 15.7169 18.9967 13.2706 19.3446C13.2706 22.7926 13.2812 26.2511 13.2706 29.6991C15.7063 30.0786 18.1632 30.3422 20.6199 30.648C20.6727 31.5548 20.641 32.4616 20.6305 33.3684C18.1737 33.7796 15.7274 34.2436 13.2812 34.7075V37.9868C10.1179 38.7776 6.96521 39.4946 3.8125 40.2854C3.82304 29.7412 3.82304 19.197 3.8125 8.65283V8.67392Z" fill="#E15443"/>
<path d="M27.9697 10.9827C31.1224 10.2025 34.2751 9.44326 37.4384 8.68408C37.4278 18.9225 37.4278 29.1609 37.4384 39.4099C37.4384 39.7051 37.4067 39.9898 37.3856 40.285C34.2434 39.5364 31.1118 38.7878 27.9802 38.018C27.9697 36.9214 27.9802 35.8248 27.9802 34.7388C25.534 34.2749 23.0772 33.8109 20.6098 33.3891C20.6098 32.4823 20.6415 31.5755 20.5993 30.6687C18.153 30.3629 15.6963 30.0993 13.25 29.7197C13.2711 26.2718 13.25 22.8133 13.25 19.3654C15.7068 19.0279 18.153 18.7222 20.6098 18.4375C20.6204 17.5201 20.6204 16.6028 20.6098 15.6854C22.6659 15.3902 24.7115 14.9262 26.7676 14.6099C27.1261 14.5466 27.4846 14.4518 27.822 14.3147L27.9802 14.2725C27.9697 13.1759 27.9591 12.0793 27.9802 11.0038L27.9697 10.9827Z" fill="#8D3424"/>
<path d="M37.4363 8.68408C38.5118 9.23238 39.6084 9.75959 40.6839 10.3184C40.6839 19.7766 40.6839 29.2347 40.6839 38.7034C39.5767 39.2622 38.4696 39.7895 37.373 40.3694V40.285C37.3941 39.9898 37.4152 39.7051 37.4258 39.4099C37.4258 29.1715 37.4258 18.9225 37.4258 8.68408H37.4363Z" fill="#E15443"/>
<path d="M13.4609 14.2527C15.865 13.7255 18.227 13.0506 20.6205 12.5234C23.0246 13.0717 25.4181 13.6939 27.8116 14.2949C27.4742 14.4319 27.1157 14.5268 26.7572 14.5901C24.7011 14.9064 22.666 15.3704 20.5994 15.6656C18.3218 15.3176 16.0654 14.8326 13.7878 14.4636C13.6824 14.4003 13.5664 14.337 13.4609 14.2632V14.2527Z" fill="#5E201A"/>
<path d="M20.6421 18.4271C23.0884 18.7328 25.5347 19.0281 27.9809 19.3549V29.6988C25.5347 30.0573 23.0779 30.3631 20.6211 30.6372C20.6527 26.5566 20.6 22.4866 20.6527 18.4165L20.6421 18.4271Z" fill="#E15443"/>
<path d="M13.2637 34.718C15.7099 34.2541 18.1562 33.7901 20.613 33.3789C23.0698 33.8007 25.5266 34.2541 27.9834 34.7286C25.5266 35.3296 23.0804 35.9833 20.613 36.5422C18.1562 35.9517 15.7099 35.3401 13.2637 34.718Z" fill="#F2B0A9"/>
<path d="M13.2488 38.0073C13.2594 36.9107 13.2488 35.8246 13.2488 34.728C15.6951 35.3396 18.1413 35.9617 20.5981 36.5522C20.6192 40.6222 20.6087 44.7134 20.5981 48.794C18.1308 47.5919 15.6951 46.3477 13.2383 45.1246C13.2383 42.7522 13.2488 40.3797 13.2488 38.0178V38.0073Z" fill="#8D3424"/>
<path d="M20.6074 36.5416C23.0748 35.9722 25.521 35.329 27.9778 34.728C27.9673 35.8246 27.9673 36.9212 27.9778 38.0073C27.9883 40.3692 27.9778 42.7205 27.9778 45.093C25.521 46.3161 23.0642 47.5498 20.618 48.7729C20.618 44.6923 20.6391 40.6117 20.618 36.5311L20.6074 36.5416Z" fill="#E15443"/>
<path d="M54.4479 11.5842C52.4656 11.5842 50.283 12.354 49.798 14.8635C49.7558 15.0533 49.8718 15.2431 50.0616 15.2852C50.0616 15.2852 50.0616 15.2852 50.0721 15.2852H50.1037L52.1388 15.5278C52.3286 15.475 52.4657 15.2958 52.4657 15.0954C52.6239 14.3046 53.3408 13.7669 54.1422 13.8196C54.5956 13.7985 55.0279 13.9989 55.3021 14.3574C55.5341 14.8318 55.6289 15.3696 55.5762 15.9074V16.2026C54.2371 16.2553 52.9085 16.5084 51.6432 16.9301C50.2514 17.5206 49.3657 18.9124 49.429 20.4203C49.429 22.6451 50.8207 23.7522 52.5394 23.7522C53.868 23.8366 55.1544 23.2567 55.9874 22.2022C56.2932 22.7295 56.6834 23.2039 57.1473 23.5941C57.3055 23.6784 57.5058 23.6573 57.6323 23.5413C58.0646 23.1618 58.7922 22.4658 59.2245 22.1073C59.3827 21.9492 59.3827 21.6856 59.2245 21.5274C58.7184 20.9897 58.4337 20.2832 58.4231 19.5556V16.3291C58.4231 14.9373 58.5391 13.6193 57.5269 12.6386C56.6623 11.9216 55.5551 11.5421 54.4269 11.5842H54.4479ZM81.7469 11.5842C79.7646 11.5842 77.582 12.354 77.0969 14.8635C77.0547 15.0533 77.1707 15.2431 77.3605 15.2958H77.3921L79.4377 15.5383C79.638 15.4961 79.7857 15.3169 79.7962 15.106C79.9544 14.3152 80.6714 13.7774 81.4727 13.8301C81.9261 13.8091 82.3585 14.0094 82.6326 14.3679C82.8541 14.8529 82.9384 15.3907 82.8646 15.9179V16.2131C81.536 16.2659 80.218 16.5189 78.9632 16.9407C77.5714 17.5312 76.6857 18.923 76.7489 20.4308C76.7489 22.6556 78.1408 23.7628 79.8595 23.7628C81.1881 23.8366 82.4745 23.2672 83.2969 22.2128C83.6027 22.74 83.9928 23.2145 84.4568 23.6046C84.6149 23.689 84.8153 23.6679 84.9418 23.5519C85.3741 23.1723 86.1017 22.4764 86.534 22.1179C86.6816 21.9492 86.6816 21.6961 86.534 21.538C86.0384 21.0002 85.7537 20.2937 85.7537 19.5662V16.3397C85.7537 14.9478 85.8486 13.6298 84.8363 12.6492C83.9717 11.9322 82.8646 11.5526 81.7363 11.5948L81.7469 11.5842ZM66.384 11.6897C65.1187 11.658 63.9905 12.491 63.6425 13.7142V12.2801C63.632 12.0693 63.4633 11.9111 63.2629 11.9006H61.3333C61.1119 11.9006 60.9432 12.0798 60.9327 12.3012V23.2777C60.9537 23.4781 61.1119 23.6362 61.3122 23.6573H63.4C63.6214 23.6573 63.7902 23.4781 63.8007 23.2567V17.4468C63.8007 16.171 63.7374 14.4417 65.2347 14.4417C66.732 14.4417 66.5105 16.2342 66.5105 17.4468V23.2567C66.5211 23.4675 66.6898 23.6362 66.8901 23.6573H68.9779C69.1993 23.6573 69.368 23.4781 69.3786 23.2567V17.4468C69.3258 16.7509 69.3891 16.0444 69.5683 15.3591C69.7476 14.8318 70.2221 14.4628 70.781 14.4206C71.3714 14.3468 71.9197 14.758 71.9935 15.3591C72.0673 16.055 72.0778 16.7509 72.0462 17.4468V23.2567C72.0568 23.4675 72.2255 23.6362 72.4258 23.6573H74.503C74.7245 23.6573 74.8932 23.4781 74.9037 23.2567V16.2869C74.9037 15.1271 75.0197 13.7669 74.3659 12.839C73.3221 11.5315 71.403 11.3101 70.0956 12.3645C69.6632 12.7125 69.3259 13.1764 69.1361 13.7036C68.4929 12.3329 67.681 11.7002 66.3735 11.7002L66.384 11.6897ZM101.855 11.6897C98.8496 11.6897 97.1625 14.3363 97.1625 17.7526C97.1625 21.1689 98.8179 23.8788 101.855 23.8788C104.891 23.8788 106.621 21.2111 106.621 17.858C106.621 14.505 104.934 11.6897 101.813 11.6897H101.855ZM113.749 11.6897C112.304 11.6897 111.492 12.3856 110.902 13.9039V12.2274C110.859 12.0587 110.701 11.9322 110.522 11.9322H108.592C108.392 11.9322 108.213 12.0798 108.192 12.2907V23.2567C108.202 23.4675 108.371 23.6362 108.571 23.6573H110.659C110.881 23.6573 111.049 23.4781 111.06 23.2567V17.3519C111.028 16.6349 111.155 15.9284 111.418 15.2642C111.587 14.7791 112.03 14.4312 112.536 14.3784C113.981 14.3784 113.833 16.1182 113.833 17.3308V23.2883C113.865 23.4781 114.023 23.6257 114.213 23.6468H116.3C116.501 23.6468 116.669 23.4886 116.701 23.2883V16.3924C116.701 15.3169 116.701 13.8512 116.163 12.9761C115.646 12.1325 114.719 11.6369 113.727 11.6791H113.738L113.749 11.6897ZM88.7061 11.8795C88.4952 11.8795 88.3265 12.0482 88.3265 12.2591V13.8301C88.3265 14.041 88.4741 14.2203 88.685 14.2308H92.2805L88.2105 20.2621C88.0101 20.589 87.9152 20.958 87.9258 21.3376V22.9298C87.9258 23.1301 88.0734 23.2988 88.2632 23.3094C88.3159 23.3094 88.3581 23.3094 88.4108 23.2883C90.6673 22.0863 93.3771 22.0863 95.6441 23.2883C95.8339 23.3726 96.0554 23.2777 96.1397 23.0879C96.1608 23.0352 96.1713 22.9931 96.1713 22.9403V21.2849C96.1608 21.0318 96.0132 20.8104 95.7918 20.705C94.6003 20.0618 93.2401 19.756 91.8904 19.8192L95.4438 14.5893C95.6968 14.3152 95.8761 13.9778 95.971 13.6087V12.2696C95.971 12.0587 95.8234 11.8795 95.6125 11.8689H88.7377L88.7061 11.8795ZM101.844 13.9567C102.508 13.9145 103.099 14.3679 103.225 15.0111C103.457 15.9601 103.563 16.9407 103.521 17.9213C103.521 19.3131 103.447 21.6539 101.844 21.6539C100.241 21.6539 100.22 18.7437 100.22 17.4257C100.22 16.1077 100.294 13.9356 101.802 13.9356L101.834 13.9567H101.844ZM55.534 17.9318V18.3958C55.6184 19.1761 55.4813 19.9563 55.1545 20.6628C54.8908 21.2322 54.3426 21.6012 53.7205 21.6434C52.9191 21.6434 52.4446 21.0002 52.4446 20.0723C52.4235 18.2693 54.0368 17.9529 55.5446 17.9529L55.534 17.9318ZM82.833 17.9318V18.3958C82.9173 19.1761 82.7803 19.9669 82.4534 20.6733C82.1898 21.2427 81.6414 21.6118 81.0193 21.6539C80.218 21.6539 79.7435 21.0107 79.7435 20.0828C79.7435 18.2692 81.3251 17.9424 82.8224 17.9424H82.833V17.9318Z" fill="#201C1D"/>
</svg>
