<svg width="63" height="65" viewBox="0 0 63 65" fill="none" xmlns="http://www.w3.org/2000/svg">
<path d="M59.1015 47.0928C56.7421 47.1167 54.3708 47.1167 52.0114 47.0928C51.4246 47.0928 51.209 47.2844 51.209 47.8832C51.2329 52.578 51.2329 57.2728 51.209 61.9676C51.209 62.5664 51.4485 62.77 52.0234 62.7581C54.3588 62.7341 56.6823 62.7581 59.0177 62.7461C60.5986 62.7341 61.916 62.2191 62.5268 60.6023V49.3204C61.9878 47.6557 60.7423 47.0928 59.1015 47.1047V47.0928ZM60.1914 58.8537C60.1914 60.0753 59.8919 60.4586 58.6823 60.5304C57.1374 60.6143 55.5924 60.5544 54.0594 60.5664C53.6881 60.5664 53.5923 60.4107 53.5923 60.0753C53.5923 56.6261 53.5923 53.1768 53.5923 49.7276C53.5923 49.3563 53.76 49.2725 54.0953 49.2845C55.6882 49.2845 57.305 49.2725 58.8979 49.2845C59.7363 49.2845 60.1914 49.7396 60.1914 50.5899C60.1914 52.0391 60.1914 53.5002 60.1914 54.9494C60.1914 56.2548 60.2034 57.5483 60.1914 58.8417V58.8537Z" fill="#454280"/>
<path d="M25.0759 12.7312C29.4354 12.7312 33.8068 12.7312 38.1663 12.7312C38.4897 13.1504 38.2381 13.5456 38.1064 13.9289C37.0046 17.1745 36.0105 20.4561 34.9206 23.6897C34.0464 26.2767 33.2918 28.8995 32.3936 31.4745C32.2379 31.9056 32.1301 32.3488 31.9145 32.744C31.7229 32.9236 31.5193 33.0673 31.3037 32.7679C29.136 26.4204 27.1838 20.0129 25.04 13.6534C24.9322 13.342 24.8005 13.0187 25.0759 12.7192V12.7312Z" fill="#E2452A"/>
<path d="M25.0769 12.7305C25.6038 14.9582 26.4661 17.09 27.1608 19.2577C28.5261 23.5333 29.9154 27.797 31.2927 32.0606C31.3645 32.2882 31.3885 32.5277 31.4364 32.7553C30.9454 32.7313 30.7418 32.3241 30.4903 32.0007C26.1068 26.4077 21.7354 20.8027 17.376 15.1857C16.9089 14.5869 16.4059 14.024 15.9987 13.3773C15.807 13.0778 15.5555 12.7186 16.1304 12.5269C19.0647 12.3952 21.9989 12.4191 24.9332 12.515C24.9811 12.5868 25.029 12.6587 25.0889 12.7186L25.0769 12.7305Z" fill="#F36E2C"/>
<path d="M31.7812 32.7325C32.7274 29.7743 33.6496 26.8041 34.6077 23.8459C35.7215 20.3967 36.8593 16.9594 37.9851 13.5102C38.0689 13.2587 38.1049 12.9832 38.1647 12.7198C38.2126 12.6479 38.2725 12.576 38.3204 12.5042C41.2427 12.3964 44.165 12.3964 47.0992 12.5042C47.734 12.7198 47.4346 13.103 47.231 13.4144C46.692 14.2168 46.0573 14.9594 45.4704 15.7139C41.5182 20.7919 37.542 25.858 33.6017 30.948C33.4939 31.0917 33.3621 31.2235 33.2544 31.3672C32.7873 31.8343 32.5957 32.5888 31.8052 32.7086L31.7812 32.7325Z" fill="#F36E2C"/>
<path d="M31.7853 32.7322C32.3961 32.4208 32.5757 31.7142 33.0667 31.307C33.2823 31.4267 33.4021 31.6184 33.45 31.8459C33.4141 31.8938 33.3781 31.9417 33.3302 31.9776C31.5457 33.2232 31.5577 33.2112 29.7253 31.8818C24.7431 28.2529 19.7608 24.636 14.7666 21.0191C13.4492 20.061 13.3414 19.7496 13.8444 18.2046C14.4672 16.3243 15.09 14.444 15.7247 12.5757C15.7966 12.5996 15.8206 12.6236 15.8206 12.6715C15.8206 12.7194 15.7966 12.7434 15.7846 12.7434C18.0961 15.7495 20.4076 18.7675 22.731 21.7737C25.4497 25.2708 28.1803 28.7679 30.911 32.2531C31.0547 32.4447 31.2463 32.5884 31.414 32.7681C31.5457 32.9837 31.6535 32.7681 31.7733 32.7441L31.7853 32.7322Z" fill="#FAA327"/>
<path d="M33.4614 31.8579C33.2099 31.7621 33.0781 31.5824 33.0781 31.307C37.0783 26.181 41.0784 21.0551 45.0666 15.9171C45.881 14.8752 46.6595 13.7973 47.4499 12.7434C47.3901 12.6595 47.402 12.6116 47.4978 12.5757C48.1805 14.6237 48.8751 16.6717 49.5338 18.7316C49.7734 19.4622 49.6776 20.1329 48.971 20.6479C43.8809 24.3366 38.7909 28.0254 33.7009 31.7261C33.629 31.774 33.5452 31.81 33.4614 31.8459V31.8579Z" fill="#FAA327"/>
<path d="M0.705078 54.9126C0.705078 53.3436 0.705078 51.7627 0.705078 50.1938C0.705078 48.3854 1.69913 47.2476 3.49561 47.1518C5.36395 47.056 7.25623 47.02 9.12457 47.1518C11.5678 47.3314 12.0468 49.0081 11.963 50.8884C11.939 51.3555 10.8492 51.9065 10.1066 51.8585C9.35211 51.8106 9.65153 51.1998 9.62758 50.8166C9.55572 49.6668 9.22038 49.2956 8.07063 49.2836C6.88495 49.2716 5.71127 49.2716 4.52559 49.2836C3.48363 49.2956 3.05247 49.6788 3.05247 50.6849C3.02851 53.4993 3.05247 56.3138 3.05247 59.1283C3.05247 59.9188 3.43572 60.3739 4.23815 60.4697C5.53161 60.6254 6.83705 60.5894 8.13052 60.5056C9.32817 60.4218 9.57967 60.0385 9.63955 58.8049C9.65153 58.4337 9.34014 57.7989 10.1306 57.7869C11.0049 57.775 11.9271 58.3378 11.9989 58.8768C12.2504 61.0445 11.2444 62.4218 9.07665 62.6374C7.12448 62.829 5.14837 62.865 3.1962 62.5895C1.6153 62.3739 0.752983 61.332 0.741006 59.7271C0.72903 58.1223 0.741006 56.5174 0.741006 54.9126H0.705078Z" fill="#454280"/>
<path d="M37.0998 55.2116C37.0998 53.475 37.0878 52.0498 37.0998 50.6246C37.1357 48.1814 38.1777 47.1275 40.585 47.0915C42.0701 47.0676 43.5551 47.0556 45.0402 47.0915C47.4475 47.1514 48.5134 48.3371 48.3817 50.7204C48.3458 51.3312 46.7768 52.1336 46.2618 51.7983C45.9864 51.6067 46.0702 51.3073 46.0582 51.0438C45.9864 49.5108 45.7349 49.2713 44.2019 49.2713C43.1479 49.2713 42.082 49.2713 41.0281 49.2713C39.9502 49.2832 39.4951 49.6785 39.4831 50.7204C39.4592 53.475 39.4711 56.2296 39.4831 58.9842C39.4831 59.8705 39.8784 60.4453 40.8245 60.4693C42.0581 60.5052 43.3036 60.5651 44.5372 60.4933C45.7588 60.4334 46.0103 60.0741 46.0822 58.8285C46.1061 58.4333 45.8187 57.8345 46.5493 57.7746C47.4355 57.7027 48.3458 58.3255 48.3817 58.9603C48.5134 61.3915 47.6511 62.4814 45.2319 62.661C43.3994 62.8047 41.5431 62.8526 39.6987 62.5891C38.1777 62.3736 37.3753 61.5711 37.1836 60.0621C36.9681 58.3495 37.1597 56.6129 37.0998 55.1996V55.2116Z" fill="#454280"/>
<path d="M19.148 54.8529C19.148 53.2121 19.136 51.5833 19.148 49.9425C19.148 49.4395 19.0282 49.2359 18.4893 49.2599C17.615 49.2958 16.7288 49.2599 15.8545 49.2718C14.8484 49.3078 15.088 48.5892 15.052 48.0143C15.0041 47.4155 15.1119 47.0562 15.8664 47.0682C18.8366 47.1041 21.7948 47.1041 24.765 47.0682C25.6153 47.0682 25.5914 47.5352 25.5794 48.1221C25.5674 48.697 25.6872 49.3197 24.765 49.2838C23.8907 49.2479 23.0045 49.2958 22.1302 49.2718C21.6511 49.2599 21.4355 49.3677 21.4355 49.9186C21.4595 53.248 21.4595 56.5775 21.4355 59.907C21.4355 60.4459 21.6152 60.5777 22.1182 60.5657C23.0883 60.5298 24.0584 60.5897 25.0285 60.5417C25.6393 60.5178 25.8549 60.7453 25.783 61.3322C25.7591 61.5717 25.7591 61.8232 25.783 62.0628C25.8309 62.5897 25.5674 62.7574 25.0764 62.7454C21.9026 62.7454 18.7169 62.7334 15.5431 62.7454C14.5131 62.7454 14.8125 62.0149 14.7646 61.4639C14.7167 60.8651 14.8484 60.4938 15.591 60.5417C16.5252 60.6016 17.4713 60.5298 18.4055 60.5657C18.9564 60.5897 19.148 60.41 19.136 59.8471C19.1001 58.1824 19.136 56.5176 19.136 54.8529H19.148Z" fill="#454280"/>
<path d="M15.7959 12.7435C15.7959 12.7435 15.772 12.6237 15.748 12.5758C17.0176 8.63556 18.2871 4.68331 19.5566 0.743031C19.6763 0.359783 19.8081 0.000488281 20.3231 0.000488281C20.7662 0.000488281 20.9578 0.204089 21.0896 0.599314C22.3591 4.57552 23.6406 8.53974 24.9221 12.5159C24.6466 12.8752 24.2633 12.7315 23.916 12.7315C21.2093 12.7315 18.5026 12.7315 15.7959 12.7315V12.7435Z" fill="#E2452A"/>
<path d="M47.4963 12.5761C47.4963 12.5761 47.4484 12.6839 47.4484 12.7438C44.7417 12.7438 42.035 12.7438 39.3283 12.7438C38.981 12.7438 38.5977 12.8755 38.3223 12.5282C39.3882 9.18676 40.4541 5.83334 41.52 2.49189C41.6877 1.9769 41.8314 1.46191 42.023 0.946915C42.1787 0.51576 42.2266 -0.023182 42.9213 0.000771046C43.6039 0.0247241 43.6399 0.563667 43.7836 0.994822C44.8375 4.21651 45.8675 7.45017 46.9094 10.6838C47.113 11.3186 47.3047 11.9414 47.5083 12.5761H47.4963Z" fill="#E2452A"/>
<path d="M31.8062 51.8594C32.5727 52.6738 33.3392 53.4882 34.1177 54.2906C34.5129 54.6978 34.5608 55.117 34.2854 55.608C32.6805 58.5183 31.0876 61.4406 29.4828 64.3509C29.387 64.5186 29.3391 64.818 29.0516 64.6982C28.7881 64.5784 28.9438 64.3389 28.9917 64.1353C29.5307 61.7161 30.0816 59.2968 30.6086 56.8775C30.6804 56.5542 30.6924 56.2188 30.7283 55.8955C30.7163 54.6259 31.1595 53.4403 31.4349 52.2187C31.4709 52.039 31.6146 51.9073 31.7942 51.8594H31.8062Z" fill="#FAA427"/>
<path d="M31.8088 51.8588C31.4136 52.8649 31.3058 53.9428 31.0543 54.9727C30.9824 55.2841 30.8387 55.5835 30.7309 55.8949C30.0004 55.1284 29.2818 54.35 28.5392 53.5954C28.1081 53.1643 28.0721 52.7211 28.3596 52.2062C29.9524 49.3198 31.5214 46.4215 33.1143 43.5352C33.1981 43.3675 33.258 43.0441 33.5334 43.1519C33.8448 43.2836 33.6532 43.5831 33.6053 43.7986C33.0184 46.4814 32.4076 49.1641 31.8088 51.8588Z" fill="#E2452A"/>
</svg>
