<svg width="162" height="46" viewBox="0 0 162 46" fill="none" xmlns="http://www.w3.org/2000/svg">
<path d="M45.83 23.055C45.6594 35.8725 35.5714 45.8467 22.9586 45.6648C10.3685 45.4828 0.530807 35.2925 0.701404 22.6C0.872001 10.2943 11.1533 0.411033 23.6296 0.570257C35.7306 0.718107 45.7618 10.5559 45.83 23.055Z" fill="#F36C3D"/>
<path d="M128.409 23.2721C128.409 25.3534 128.409 27.4347 128.409 29.5159C128.409 29.8799 128.432 30.2666 128.091 30.5054C127.625 30.8352 127.022 30.4827 126.976 29.8458C126.942 29.2657 126.976 28.6857 126.976 28.1057C126.976 25.7856 126.976 23.4541 126.976 21.1339C126.976 20.9406 126.976 20.7473 126.954 20.5539C126.919 20.2582 126.863 19.8715 126.601 19.8033C126.305 19.7351 126.283 20.1559 126.18 20.3833C125.486 21.8391 124.815 23.3176 124.122 24.7847C123.997 25.0463 123.906 25.342 123.542 25.3534C123.144 25.3534 123.03 25.0463 122.905 24.762C122.245 23.3062 121.597 21.8505 120.937 20.4061C120.846 20.2127 120.846 19.8602 120.505 19.9284C120.175 19.9966 120.278 20.3151 120.278 20.5312C120.278 23.2607 120.278 26.0017 120.278 28.7312C120.278 29.1634 120.221 29.5956 120.164 30.0278C120.118 30.3803 119.868 30.5964 119.516 30.5964C119.14 30.5964 118.97 30.3235 118.901 29.9936C118.867 29.8117 118.867 29.6069 118.867 29.4136C118.867 25.251 118.867 21.0885 118.867 16.9259C118.867 16.4596 118.845 15.9592 119.436 15.8113C120.027 15.6635 120.357 16.0502 120.562 16.5051C121.358 18.2338 122.131 19.9739 122.916 21.714C123.075 22.0665 123.144 22.5215 123.633 22.5215C124.11 22.5215 124.179 22.0438 124.338 21.7026C125.123 19.9966 125.907 18.2793 126.703 16.5733C126.931 16.0729 127.283 15.709 127.886 15.8568C128.489 16.0047 128.443 16.5051 128.443 16.9714C128.443 19.0754 128.443 21.1794 128.443 23.2835L128.409 23.2721Z" fill="#F36C3E"/>
<path d="M161.702 23.1229C161.702 25.2269 161.702 27.3309 161.702 29.435C161.702 29.9013 161.69 30.3334 161.145 30.4813C160.553 30.6405 160.314 30.1856 160.121 29.7762C158.79 26.8533 157.471 23.9304 156.152 21.0075C156.118 20.9165 156.072 20.8255 156.027 20.7459C155.867 20.4729 155.833 19.9725 155.413 20.0862C155.049 20.1886 155.128 20.6549 155.128 20.9847C155.128 23.8621 155.128 26.7395 155.128 29.6169C155.128 30.0719 155.219 30.6292 154.525 30.6292C153.877 30.6292 153.877 30.0605 153.866 29.6169C153.843 28.3545 153.854 27.1035 153.854 25.8411C153.854 22.9409 153.854 20.0407 153.854 17.1292C153.854 16.8904 153.866 16.6516 153.9 16.4127C153.934 16.1284 154.048 15.9237 154.343 15.8213C154.662 15.719 154.935 15.7986 155.128 16.026C155.333 16.2876 155.515 16.5833 155.651 16.879C156.937 19.745 158.21 22.6111 159.496 25.4657C159.598 25.7046 159.609 26.114 160.03 26.023C160.405 25.932 160.337 25.5795 160.337 25.2951C160.337 22.6111 160.337 19.927 160.337 17.243C160.337 16.879 160.326 16.5151 160.462 16.1739C160.576 15.9009 160.781 15.7417 161.076 15.7417C161.395 15.7417 161.554 15.9805 161.611 16.2421C161.656 16.4468 161.645 16.6743 161.645 16.8904C161.645 18.9717 161.645 21.053 161.645 23.1342L161.702 23.1229Z" fill="#F36C3E"/>
<path d="M78.8782 23.726C78.8782 21.9859 78.9124 20.7918 78.8782 19.609C78.7759 17.232 77.8319 15.9468 75.9439 15.6284C73.8172 15.2758 71.6904 16.015 71.4061 18.7332C71.0876 21.6675 71.1217 24.5563 71.4402 27.4905C71.6449 29.5491 72.805 30.5613 75.0341 30.6295C77.0926 30.6978 78.3778 29.6856 78.7304 27.7294C79.0147 26.194 78.7986 24.6586 78.8668 23.7147L78.8782 23.726ZM77.5475 27.0697C77.4793 28.5369 76.433 29.4808 75.0682 29.4467C73.6352 29.4467 72.7026 28.5369 72.623 27.0356C72.5548 25.7505 72.5889 24.4539 72.5889 23.1688C72.5889 21.8836 72.5548 20.6553 72.623 19.4042C72.6912 17.8689 73.6011 17.0273 75.0341 17.0273C76.5012 16.9931 77.4793 17.8689 77.5475 19.3588C77.6158 21.9405 77.6158 24.488 77.5475 27.0697Z" fill="#F36C3E"/>
<path d="M145.31 28.8891C144.264 24.954 143.183 20.9734 142.137 17.0269C142.035 16.6402 142.001 16.2649 141.785 15.9465C141.364 15.3551 140.636 15.3892 140.283 16.0147C140.181 16.2194 140.113 16.4355 140.044 16.6744C138.93 20.7573 137.815 24.8744 136.735 28.946C136.667 29.2303 136.598 29.5033 136.564 29.8217C136.53 30.2425 136.735 30.5155 137.156 30.5837C137.542 30.6519 137.679 30.3449 137.781 30.0264C137.952 29.4691 138.168 28.9119 138.373 28.3205C138.611 27.5926 139.1 27.24 139.874 27.2059H142.421C143.081 27.2059 143.502 27.5243 143.672 28.184C143.877 28.8095 144.093 29.4009 144.264 30.0378C144.366 30.4245 144.582 30.6292 144.992 30.5268C145.447 30.4586 145.413 30.1401 145.481 29.7648C145.413 29.526 145.378 29.2076 145.31 28.8891ZM141.785 25.8866C141.546 25.9207 141.295 25.8866 141.057 25.8866C138.896 25.989 138.793 25.8525 139.351 23.7598C139.737 22.2927 140.158 20.7914 140.533 19.3015C140.533 19.1992 140.568 19.1309 140.602 19.0172C140.67 18.8125 140.772 18.5964 141.022 18.5964C141.341 18.5964 141.375 18.8011 141.409 19.0172C141.898 20.871 142.387 22.7135 142.842 24.5673C143.161 25.7501 143.047 25.898 141.796 25.898L141.785 25.8866Z" fill="#F36C3D"/>
<path d="M62.6619 18.7439C62.3094 16.7536 61.5133 15.9575 59.4889 15.639C58.579 15.5025 57.635 15.5708 56.7365 15.5708C55.4855 15.5708 55.2012 15.8096 55.2012 17.1062V30.0829C55.2694 30.4013 55.44 30.5719 55.7584 30.5719C56.0769 30.5719 56.2816 30.4696 56.3499 30.1511C56.4181 29.8668 56.4522 29.5597 56.4522 29.2754V25.7838C56.4522 24.874 56.7706 24.5669 57.6691 24.5669C58.2605 24.6011 58.852 24.6011 59.4092 24.5669C61.047 24.4987 62.1956 23.5547 62.5823 21.9852C62.8667 20.9048 62.8667 19.8243 62.6506 18.7439H62.6619ZM57.2256 23.3159C56.7024 23.2476 56.5318 22.8951 56.5318 22.4402C56.4977 21.6327 56.5318 20.8365 56.5318 20.0632H56.4977V17.7999C56.4977 17.4132 56.6 17.1062 57.0208 17.072C57.7146 17.0038 58.3857 16.9014 59.0453 16.9355C60.5124 17.0379 61.5588 18.1184 61.5929 19.6196C61.627 22.9292 60.5124 23.6343 57.2369 23.3159H57.2256Z" fill="#F36C3D"/>
<path d="M93.4031 26.4321C93.3689 25.545 92.8231 24.692 91.8791 24.1119C91.2081 23.6911 90.4802 23.3499 89.775 22.9974C87.7506 21.9738 86.9432 19.9607 87.6938 17.8112C88.1942 16.3782 89.9457 15.3546 91.6744 15.5025C92.334 15.5593 92.9595 15.7186 93.5623 15.9801C94.1992 16.2417 94.4153 16.6625 94.1878 17.1402C93.8807 17.7657 93.46 17.4245 93.096 17.2539C92.4136 16.9355 91.7085 16.8445 90.9806 16.89C90.1048 16.9469 89.3656 17.2084 89.013 18.1069C88.6491 19.0509 88.888 20.2337 89.5931 20.8478C89.8433 21.0639 90.139 21.2459 90.4347 21.4165C90.7873 21.6098 91.1626 21.8032 91.5379 21.951C94.0855 22.9064 95.0863 24.6351 94.5745 27.6717C94.3243 29.1502 93.4486 30.1852 91.9701 30.5605C90.2755 30.9927 88.706 30.8335 87.4777 29.3891C87.364 29.264 87.2616 29.1161 87.2048 28.9683C87.091 28.6271 87.091 28.2973 87.4322 28.0698C87.7506 27.8537 87.9895 28.0698 88.1828 28.2745C88.7856 28.9 89.4794 29.3322 90.3778 29.4232C92.1975 29.6052 93.4258 28.5247 93.4144 26.4434L93.4031 26.4321Z" fill="#F36C3D"/>
<path d="M107.039 23.7031C107.039 25.5455 107.051 27.3766 107.039 29.2191C107.039 29.7308 107.13 30.4246 106.38 30.4587C105.572 30.4928 105.72 29.765 105.72 29.2646C105.709 25.7616 105.72 22.2473 105.709 18.7444C105.709 18.4601 105.709 18.1644 105.652 17.88C105.538 17.1635 105.163 16.8678 104.446 16.9474C103.934 17.0043 103.434 17.0043 102.933 16.9474C102.479 16.8906 102.308 16.5949 102.342 16.1854C102.376 15.7988 102.592 15.5713 103.013 15.5713C105.265 15.5713 107.517 15.5713 109.757 15.5713C110.167 15.5713 110.406 15.7874 110.394 16.1968C110.394 16.5721 110.201 16.8564 109.792 16.8792C109.28 16.9019 108.779 16.8906 108.267 16.8906C107.392 16.8906 107.073 17.1635 107.062 18.0506C107.039 19.9386 107.062 21.8265 107.062 23.7145L107.039 23.7031Z" fill="#F36C3E"/>
<path d="M14.1344 35.714C13.361 34.9293 12.6786 34.2241 11.9963 33.5304C11.7915 33.3143 11.9507 33.1892 12.0872 33.0527C14.214 30.8918 16.3294 28.7423 18.4562 26.5928C18.8315 26.2061 19.3547 26.2971 19.821 26.2061C20.4124 26.0923 21.0151 26.0355 21.6065 25.9445C21.925 25.8876 22.1865 25.8876 22.4709 26.1492C23.5854 27.1728 23.5968 27.1614 22.414 28.0713C19.9574 29.9706 17.3644 31.6424 14.5666 32.9958C13.9411 33.3029 13.6681 33.6213 13.9183 34.3379C14.0548 34.7245 14.1912 35.1453 14.1457 35.7367L14.1344 35.714Z" fill="white"/>
<path d="M30.0531 14.6386C29.3935 14.7751 29.0295 15.1959 28.6428 15.5826C26.1862 18.0165 23.7296 20.4503 21.2844 22.8955C20.9318 23.2481 20.693 23.4073 20.329 22.9297C19.9992 22.4975 19.26 22.1904 19.2941 21.7241C19.3169 21.326 19.9651 20.9507 20.3404 20.5868C22.1601 18.824 23.9912 17.0611 26.0384 15.5485C26.6184 15.1163 27.2326 14.7296 27.8922 14.4226C28.5973 14.1041 29.2911 14.1382 30.0417 14.6386H30.0531Z" fill="white"/>
<path d="M31.3637 16.2536C31.3637 16.6403 31.1817 16.9133 30.9088 17.1407C28.0996 19.586 25.2904 22.0312 22.4926 24.4764C21.9126 24.9768 21.8444 24.2717 21.56 24.1125C21.2302 23.9305 21.2757 23.7144 21.5487 23.4528C24.1872 20.8598 26.8144 18.2553 29.4302 15.6509C29.7942 15.2869 30.2036 15.1391 30.6813 15.321C31.0907 15.4803 31.3182 15.8101 31.3637 16.2536Z" fill="#FFFFFE"/>
<path d="M35.413 9.69178C34.5145 10.5903 33.6388 11.5001 32.729 12.3645C32.3423 12.7284 32.3081 12.99 32.7176 13.3653C33.218 13.8202 33.6843 14.3093 34.1506 14.7983C34.2985 14.9462 34.5828 15.0713 34.5259 15.2874C34.4577 15.5489 34.1278 15.5262 33.9117 15.5489C32.5811 15.7195 31.4666 15.2874 30.6932 14.1728C29.9312 13.0696 29.8516 11.864 30.5226 10.6812C31.1822 9.50981 32.2285 8.94115 33.5819 8.99802C34.2416 9.02077 34.8557 9.2141 35.4016 9.70315L35.413 9.69178Z" fill="white"/>
<path d="M31.271 17.8126C31.1004 18.7111 30.7024 19.2911 30.3271 19.8598C28.9509 21.9297 27.1767 23.647 25.4366 25.3758C25.1637 25.6487 24.8452 25.8876 24.6064 26.1833C24.2538 26.6268 24.015 26.5472 23.651 26.1719C22.7753 25.2507 22.7526 25.2734 23.7193 24.4204C26.1873 22.2595 28.6552 20.0986 31.271 17.8013V17.8126Z" fill="#FFFEFE"/>
<path d="M36.7441 12.3523C36.6986 13.2395 36.3574 14.0583 35.6522 14.718C35.4361 14.9227 35.2883 14.9341 35.0722 14.718C34.5604 14.1721 34.0258 13.6489 33.4913 13.1371C33.2638 12.921 33.2525 12.7732 33.4913 12.5571C34.2192 11.8519 34.9357 11.1468 35.6408 10.4076C35.9252 10.1119 36.0617 10.2483 36.2323 10.5213C36.5621 11.0672 36.7554 11.6586 36.7668 12.3523H36.7441Z" fill="#FFFDFC"/>
<path d="M13.3934 35.7694C12.0628 35.6784 10.9141 35.6102 9.77676 35.5306C9.73127 35.4624 9.6744 35.3827 9.62891 35.3145C10.1066 34.8937 10.607 34.4843 11.0733 34.0407C11.3008 33.8133 11.4372 33.927 11.6078 34.0862C12.1424 34.598 12.6997 35.1098 13.3934 35.7694Z" fill="#FFFBF9"/>
<path d="M16.6247 24.1237C17.2388 23.5551 17.853 22.9978 18.4671 22.4291C18.6263 22.2813 18.74 22.2585 18.8765 22.4291C18.8879 22.4519 18.9106 22.4633 18.922 22.4746C19.2404 22.85 19.9001 23.1115 19.8205 23.5778C19.775 23.8622 19.0244 23.8167 18.5808 23.919C17.978 24.0669 17.3753 24.1692 16.7611 24.2943C16.7156 24.2375 16.6701 24.1692 16.6133 24.1124L16.6247 24.1237Z" fill="#FFFBF8"/>
<path d="M19.7266 25.4768C20.716 24.1916 20.7729 24.1802 21.5349 25.2266C20.9434 25.3062 20.3862 25.3858 19.7266 25.4768Z" fill="#FFF5F1"/>
<path d="M35.594 12.3531C35.5485 12.0574 35.4576 11.83 35.7419 11.7845C36.0603 11.7276 36.0489 12.0233 36.1172 12.2053C36.2081 12.4783 36.1058 12.7285 36.0035 12.9673C35.9352 13.1493 35.7987 13.3426 35.5827 13.263C35.287 13.1606 35.4916 12.9673 35.5371 12.7967C35.5826 12.6147 35.594 12.4214 35.6167 12.3418L35.594 12.3531Z" fill="#F37548"/>
</svg>
