<svg width="210" height="36" viewBox="0 0 210 36" fill="none" xmlns="http://www.w3.org/2000/svg">
<path d="M23.3886 0.288574L17.2425 14.675L9.16602 33.5777L27.9504 25.6288L37.9025 21.413L23.3977 0.288574H23.3886Z" fill="#8085C0"/>
<path d="M26.5234 17.6981L27.9439 25.6197L37.896 21.4039L26.5234 17.689V17.6981Z" fill="#31436C"/>
<path d="M23.3906 0.288574L26.5229 17.7071L37.8955 21.4221L23.3906 0.297688V0.288574Z" fill="#6699A1"/>
<path d="M26.5221 17.6981L37.8947 21.4131L17.2346 14.666L9.1582 33.5687L27.9425 25.6198L26.5221 17.6981Z" fill="#79758C"/>
<path d="M9.15868 33.5777L17.2351 14.675L0.626953 9.25732L9.14956 33.5868L9.15868 33.5777Z" fill="#ABD8B4"/>
<path d="M27.9414 25.6291L29.7625 35.7542L37.8936 21.4224L27.9414 25.6381V25.6291Z" fill="#6699A1"/>
<path d="M23.3903 0.288574L17.2441 14.675L26.5225 17.7071L23.3903 0.288574Z" fill="#8085C0"/>
<path d="M65.6773 19.6924H56.3534V25.0554C56.3534 25.6108 55.9164 26.0661 55.3609 26.0661H55.3427C54.7782 26.0661 54.332 25.6199 54.332 25.0554V13.1092C54.332 12.5447 54.7782 12.0894 55.3427 12.0894C55.9073 12.0894 56.3534 12.5356 56.3534 13.1092V17.7347H65.6773V13.1092C65.6773 12.5447 66.1235 12.0894 66.688 12.0894C67.2525 12.0894 67.6987 12.5356 67.6987 13.1092V25.0463C67.6987 25.6108 67.2525 26.0661 66.688 26.0661C66.1235 26.0661 65.6773 25.6199 65.6773 25.0463V19.6833V19.6924ZM75.8116 25.0554C75.8116 25.6199 75.3654 26.0752 74.8009 26.0752C74.2363 26.0752 73.7902 25.6291 73.7902 25.0554V13.1183C73.7902 12.5538 74.2363 12.0985 74.8009 12.0985C75.3654 12.0985 75.8116 12.5446 75.8116 13.1183V25.0554ZM90.6806 20.0566C90.6806 19.492 91.1268 19.0823 91.6913 19.0823C92.2558 19.0823 92.702 19.5285 92.702 20.093V23.2981C92.702 23.5439 92.5836 23.9081 92.3742 24.1085C91.0812 25.4105 89.333 26.1754 87.3481 26.1754C83.4145 26.1754 80.255 23.0067 80.255 19.0732C80.255 15.1397 83.4145 11.9619 87.3481 11.9619C89.333 11.9619 91.0812 12.7359 92.3742 14.0288C92.7748 14.4386 92.7748 15.0486 92.3742 15.4493C91.9736 15.8499 91.3271 15.8954 90.9174 15.4857C89.9886 14.5478 88.7685 13.9833 87.3481 13.9833C84.5527 13.9833 82.2855 16.2596 82.2855 19.0641C82.2855 21.8685 84.5618 24.1358 87.3481 24.1358C88.641 24.1358 89.7792 23.6896 90.6715 22.9157V20.0292L90.6806 20.0566ZM109.328 19.6924H100.004V25.0554C100.004 25.6108 99.5674 26.0661 99.012 26.0661H98.9938C98.4293 26.0661 97.9831 25.6199 97.9831 25.0554V13.1092C97.9831 12.5447 98.4293 12.0894 98.9938 12.0894C99.5583 12.0894 100.004 12.5356 100.004 13.1092V17.7347H109.328V13.1092C109.328 12.5447 109.775 12.0894 110.339 12.0894C110.904 12.0894 111.35 12.5356 111.35 13.1092V25.0463C111.35 25.6108 110.904 26.0661 110.339 26.0661C109.775 26.0661 109.328 25.6199 109.328 25.0463V19.6833V19.6924ZM122.904 26.1936C118.971 26.1936 115.811 23.0249 115.811 19.0914C115.811 15.1579 118.971 11.9801 122.904 11.9801C124.889 11.9801 126.638 12.7541 127.931 14.047C128.331 14.4568 128.331 15.0668 127.931 15.4675C127.53 15.8681 126.874 15.9136 126.474 15.5039C125.545 14.566 124.325 14.0015 122.904 14.0015C120.109 14.0015 117.842 16.2779 117.842 19.0823C117.842 21.8868 120.109 24.154 122.904 24.154C124.325 24.154 125.581 23.6259 126.51 22.688C126.92 22.2874 127.521 22.2874 127.931 22.688C128.331 23.0978 128.331 23.7078 127.931 24.1085C126.638 25.4105 124.889 26.1754 122.904 26.1754V26.1936ZM144.065 19.6924H134.741V25.0554C134.741 25.6108 134.304 26.0661 133.749 26.0661H133.731C133.166 26.0661 132.72 25.6199 132.72 25.0554V13.1092C132.72 12.5447 133.166 12.0894 133.731 12.0894C134.295 12.0894 134.741 12.5356 134.741 13.1092V17.7347H144.065V13.1092C144.065 12.5447 144.511 12.0894 145.076 12.0894C145.641 12.0894 146.087 12.5356 146.087 13.1092V25.0463C146.087 25.6108 145.641 26.0661 145.076 26.0661C144.511 26.0661 144.065 25.6199 144.065 25.0463V19.6833V19.6924Z" fill="#C1BFBF"/>
<path fill-rule="evenodd" clip-rule="evenodd" d="M158.962 12.9822L164.716 24.3184C164.835 24.5642 164.962 24.8829 164.962 25.1743C164.962 25.7388 164.598 26.0666 164.024 26.0666C163.614 26.0666 163.214 25.9482 162.932 25.3746L161.147 21.8417H153.726L151.978 25.3746C151.696 25.9391 151.295 26.0666 150.885 26.0666C150.321 26.0666 149.947 25.7388 149.947 25.1743C149.947 24.892 150.066 24.5642 150.193 24.3184L155.948 12.9822C156.312 12.2082 157.049 12.0898 157.45 12.0898C157.851 12.0898 158.588 12.2082 158.952 12.9822H158.962ZM154.7 19.8931H160.173L157.459 14.4117L154.7 19.8931ZM180.578 16.3967C180.578 18.5547 179.039 20.1754 177.008 20.5396L180.696 24.4367C181.06 24.8009 181.188 25.4474 180.778 25.8207C180.377 26.2305 179.603 26.1121 179.194 25.6568L174.413 20.6216H170.844V25.0923C170.844 25.6568 170.398 26.0666 169.824 26.0666C169.251 26.0666 168.814 25.6204 168.814 25.0468V13.1825C168.814 12.618 169.26 12.1718 169.824 12.1718H176.152C178.584 12.1718 180.569 13.9565 180.569 16.3967H180.578ZM170.853 18.673H176.162C177.582 18.673 178.556 17.6988 178.556 16.3967C178.556 15.0946 177.582 14.1203 176.162 14.1203H170.853V18.673Z" fill="#C1BFBF"/>
<path d="M189.792 14.1199H184.729C184.165 14.1199 183.719 13.7192 183.719 13.1456C183.719 12.572 184.165 12.1713 184.729 12.1713H196.894C197.459 12.1713 197.905 12.572 197.905 13.1456C197.905 13.7192 197.459 14.1199 196.894 14.1199H191.832V25.0463C191.832 25.6108 191.385 26.0661 190.821 26.0661C190.265 26.0661 189.81 25.629 189.801 25.0736V25.0554V14.129L189.792 14.1199ZM202.767 17.6528C202.767 12.5811 205.89 11.9619 208.239 11.9619C208.804 11.9619 209.25 12.4081 209.25 12.9817C209.25 13.5371 208.813 13.9924 208.258 13.9924H208.239C206.336 13.9924 204.798 14.393 204.798 17.6528V20.4936C204.798 25.5653 201.675 26.1845 199.325 26.1845C198.761 26.1845 198.315 25.7383 198.315 25.1647C198.315 24.591 198.761 24.154 199.325 24.154C201.228 24.154 202.767 23.7442 202.767 20.4936V17.6528Z" fill="#C1BFBF"/>
</svg>
