<svg width="144" height="41" viewBox="0 0 144 41" fill="none" xmlns="http://www.w3.org/2000/svg">
<path d="M5.10252 35.2709C4.9022 35.1617 4.71099 35.0524 4.51067 34.9431C4.34678 34.6791 4.09182 34.5698 3.79134 34.5516C3.59103 34.4423 3.39982 34.3331 3.1995 34.2238C3.0356 33.9689 2.78066 33.8505 2.48928 33.8232C2.3436 33.7412 2.20702 33.6502 2.06133 33.5682C1.93386 33.3406 1.73355 33.2404 1.4786 33.2495C1.20544 33.113 0.868528 33.0583 0.750158 32.7123C0.568051 32.4392 0.768371 32.2662 0.923162 32.0841C1.07795 31.902 1.26005 31.7381 1.42395 31.565C6.75968 26.2384 12.0772 20.9027 17.4312 15.5942C19.5891 13.4636 21.7744 11.3603 23.9142 9.21141C24.5516 8.57404 24.934 8.59224 25.5258 9.25693C25.8627 10.4315 25.972 11.6516 26.1632 12.8536C26.5365 15.1208 26.8825 17.3971 27.2377 19.6643C26.2179 20.7115 25.0068 21.5674 24.1327 22.7511C23.6956 23.3429 22.9945 23.6161 22.5484 24.2079C21.5832 25.4918 20.3085 26.5116 19.1885 27.6498C17.932 28.9245 16.6299 30.1719 15.3734 31.4558C14.3627 32.4756 13.2882 33.4317 12.3322 34.5061C11.5946 35.3347 10.6932 36.0449 9.97389 36.919C9.74625 37.1922 9.38205 37.2195 9.04515 37.2832C8.87215 37.2832 8.71735 37.2195 8.58077 37.1102C8.41687 37.01 8.24388 36.9281 8.07998 36.8279C7.87056 36.6914 7.65203 36.5821 7.4244 36.491C7.30603 36.4 7.17854 36.3089 7.01465 36.2816C6.95091 36.2361 6.89627 36.1906 6.83253 36.145C6.51384 35.9265 6.16785 35.7717 5.82185 35.6169C5.60332 35.4439 5.41212 35.2254 5.09343 35.2527L5.10252 35.2709Z" fill="#FFCC30"/>
<path d="M9.00844 37.1828C10.0373 37.0462 10.3469 36.0537 11.0116 35.4892C11.1027 35.4164 11.13 35.2616 11.221 35.2069C11.8493 34.8063 12.3683 34.3146 12.8327 33.7319C13.725 32.621 14.7994 31.6559 15.8283 30.718C16.8937 29.7437 17.6585 28.4508 18.9515 27.7314C19.3703 27.5038 19.516 27.0394 19.8165 26.7117C20.7634 25.6827 21.765 24.6903 22.7848 23.7706C23.8502 22.7963 24.6059 21.5034 25.908 20.7841C26.3086 20.5655 26.345 20.0556 26.7365 19.8189C26.9004 19.7187 27.0097 19.5366 27.2283 19.6823C27.72 22.6689 28.2207 25.6463 28.7033 28.642C28.9127 29.944 29.2041 31.237 29.2951 32.5573C29.0311 32.794 28.6032 32.8031 28.4119 33.1491C28.2663 33.2311 28.1206 33.3221 27.9749 33.4041C27.6289 33.4496 27.3193 33.5771 27.1008 33.8684L26.6637 34.1234C26.3177 34.1689 26.0081 34.2964 25.7896 34.5878L25.3526 34.8427C25.0066 34.8883 24.697 35.0157 24.4784 35.3071C24.3327 35.389 24.1871 35.4801 24.0414 35.5621C23.6954 35.6076 23.3858 35.735 23.1673 36.0264C23.0216 36.1084 22.8759 36.1994 22.7302 36.2814C22.3842 36.3269 22.0746 36.4544 21.8561 36.7457C21.7104 36.8277 21.5647 36.9187 21.419 37.0007C21.073 37.0462 20.7634 37.1737 20.5449 37.4651C20.3992 37.547 20.2536 37.6381 20.1079 37.72C19.7619 37.7655 19.4523 37.893 19.2338 38.1844C19.0881 38.2663 18.9424 38.3574 18.7967 38.4393C18.4507 38.4849 18.1411 38.6123 17.9226 38.9037C17.7769 38.9857 17.6312 39.0767 17.4855 39.1587C17.0303 39.1951 16.7207 39.5047 16.3474 39.7141C15.2729 40.3515 14.1894 40.3515 13.115 39.7141C12.7508 39.5047 12.4321 39.2042 11.9768 39.1587C11.8311 39.0767 11.6945 38.9857 11.5488 38.9037C11.3212 38.6214 11.0207 38.494 10.6747 38.4302C10.1921 38.1571 9.70955 37.8839 9.22696 37.6016C9.22696 37.3922 8.85364 37.4286 8.93558 37.1646L9.00844 37.1828Z" fill="#FFCB2C"/>
<path d="M98.8049 19.4642C96.8108 16.7144 93.4965 15.8221 90.6192 17.2516C89.8179 17.6523 89.2079 18.2714 88.4976 19.1C88.7162 16.7235 88.6434 14.5656 88.6434 12.4076C88.6434 11.7884 88.9165 10.9963 88.5068 10.6047C88.097 10.2314 87.3049 10.5501 86.6857 10.4773C86.0756 10.4044 85.9299 10.6321 85.9299 11.2239C85.9572 17.2699 85.9391 23.3249 85.9482 29.3709C85.9482 29.99 85.675 30.8186 86.0665 31.1737C86.4854 31.547 87.3049 31.2375 87.9513 31.2921C88.3793 31.3285 88.5705 31.1919 88.5341 30.7367C88.4977 30.3178 88.5341 29.8808 88.5341 29.2707C90.8104 32.4758 95.9549 32.7216 98.6865 29.0795C100.717 26.3752 100.808 22.2141 98.814 19.4733L98.8049 19.4642ZM97.2388 26.1931C96.5832 28.1143 94.8168 29.3618 92.8318 29.298C90.9015 29.2343 89.1897 27.8047 88.698 25.838C88.5614 25.2734 88.4977 24.7089 88.5159 24.2719C88.5159 21.7041 89.6905 19.8831 91.6299 19.2548C94.4252 18.3443 97.257 20.3474 97.512 23.416C97.5939 24.3538 97.5484 25.2917 97.2388 26.1931Z" fill="#5F5C5C"/>
<path d="M114.44 22.7143C114.44 21.9676 114.368 21.221 114.122 20.5108C113.348 18.198 111.6 17.0143 109.305 16.6865C106.655 16.3132 104.306 16.9051 102.694 19.2725C102.185 20.0191 102.194 20.0282 103.05 20.4015C103.45 20.5745 103.851 20.7202 104.242 20.9205C104.588 21.0935 104.743 21.048 104.953 20.6838C105.781 19.2907 107.693 18.6988 109.432 19.2452C111.017 19.7459 111.9 21.0389 111.818 22.8418C111.581 22.7416 111.408 22.6597 111.235 22.5959C108.622 21.7036 106.054 21.6763 103.687 23.2606C101.165 24.936 101.055 28.5781 103.368 30.5358C105.262 32.1383 109.423 32.3751 111.399 29.7891C111.499 29.6526 111.563 29.434 111.809 29.434C111.982 30.0441 111.545 30.8818 112.018 31.2005C112.455 31.4919 113.238 31.246 113.858 31.2915C114.368 31.328 114.459 31.1185 114.449 30.6724C114.431 28.0227 114.449 25.3731 114.44 22.7234V22.7143ZM106 28.9879C104.261 28.2139 104.042 26.2199 105.563 25.0544C106.455 24.3715 107.493 24.2531 108.54 24.2622C109.569 24.2622 110.534 24.3806 111.426 24.8814C111.691 25.0271 111.873 25.1819 111.854 25.5461C111.654 28.1047 108.367 30.0532 106 28.9879Z" fill="#5F5C5C"/>
<path d="M132.66 24.6903C134.345 24.7085 136.038 24.6903 137.732 24.6903C139.398 24.6903 141.064 24.663 142.731 24.7085C143.304 24.7176 143.459 24.4991 143.395 23.9892C143.323 23.2971 143.304 22.5869 143.14 21.9131C142.512 19.2908 140.992 17.4333 138.296 16.8141C135.501 16.1768 133.015 16.7595 131.149 19.0996C129.4 21.3031 129 23.8162 129.728 26.4749C130.502 29.2885 132.36 31.1368 135.283 31.6103C138.142 32.0747 140.655 31.3736 142.394 28.8332C143.031 27.9045 143.022 27.8954 142.002 27.4765C141.647 27.3308 141.283 27.2033 140.937 27.0303C140.627 26.8664 140.473 26.9393 140.327 27.2489C140.054 27.8316 139.644 28.3051 139.098 28.642C136.603 30.1626 132.66 29.0972 132.141 25.2093C132.087 24.7813 132.241 24.6812 132.651 24.6903H132.66ZM135.92 19.0905C138.178 18.9448 139.608 19.7369 140.29 21.5125C140.636 22.4048 140.618 22.4321 139.699 22.4321C137.267 22.4321 134.827 22.4321 132.341 22.4321C132.779 20.5473 134.245 19.1906 135.92 19.0814V19.0905Z" fill="#5F5C5C"/>
<path d="M73.1196 24.681C74.8041 24.7083 76.4977 24.681 78.1821 24.681C79.8666 24.681 81.5147 24.6628 83.181 24.6901C83.6636 24.6901 83.8093 24.5353 83.7911 24.0709C83.7638 23.3971 83.7546 22.7234 83.5998 22.0587C83.0535 19.6093 81.7241 17.7518 79.2839 16.9688C76.7982 16.1857 74.3944 16.4133 72.373 18.2344C69.8781 20.4743 69.1132 24.3168 70.4791 27.4673C71.772 30.472 74.4945 31.9926 78.1366 31.6375C80.3765 31.419 82.0338 30.2353 83.1264 28.2594C83.3085 27.9225 83.263 27.7677 82.8988 27.6403C82.398 27.4673 81.9062 27.2578 81.4328 27.0302C81.0959 26.8754 80.8865 26.8663 80.7135 27.2669C80.4676 27.8224 80.0579 28.2776 79.5298 28.6054C76.953 30.1806 73.1014 28.9605 72.5824 25.2637C72.5186 24.7812 72.6188 24.6446 73.1196 24.6446V24.681ZM72.81 22.0496C73.2198 20.4652 74.8223 19.145 76.4977 19.0721C78.7285 18.972 80.1216 19.8187 80.759 21.6489C81.0139 22.3773 80.9866 22.4229 80.24 22.4229C79.0836 22.4229 77.9272 22.4229 76.7708 22.4229C75.5689 22.4229 74.367 22.4229 73.156 22.432C72.8738 22.432 72.7099 22.432 72.81 22.0405V22.0496Z" fill="#5F5C5C"/>
<path d="M40.5842 20.8297C40.5842 17.5973 40.6024 14.374 40.566 11.1416C40.566 10.5862 40.7299 10.4678 41.258 10.4678C44.8546 10.486 48.4512 10.4951 52.0479 10.4678C52.6306 10.4678 52.8218 10.6408 52.7489 11.1962C52.6761 11.7881 53.0039 12.562 52.6215 12.9353C52.2391 13.2996 51.4742 13.0355 50.8732 13.0446C48.5514 13.0537 46.2386 13.0719 43.9168 13.0446C43.3614 13.0446 43.2248 13.2085 43.2339 13.7366C43.2612 15.5668 43.2612 17.397 43.2339 19.2271C43.2339 19.737 43.3795 19.8736 43.8803 19.8736C46.2932 19.8463 48.7062 19.8736 51.1191 19.8463C51.6745 19.8463 51.802 20.0102 51.802 20.5383C51.7929 22.3958 51.802 22.3958 49.9809 22.3958C48.0051 22.3958 46.0201 22.4322 44.0442 22.3776C43.3522 22.3594 43.2157 22.5961 43.2248 23.2244C43.2612 25.6828 43.2247 28.1413 43.2521 30.5997C43.2521 31.1187 43.1428 31.3555 42.5783 31.2917C41.9409 31.2189 41.0941 31.5467 40.6935 31.1642C40.2928 30.7727 40.5751 29.935 40.5751 29.2885C40.566 26.4659 40.5751 23.6523 40.5751 20.8297H40.5842Z" fill="#5F5C5C"/>
<path d="M121.907 31.7373C119.567 31.7646 117.655 30.5536 116.371 28.2863C116.134 27.8584 116.062 27.5488 116.663 27.4395C116.69 27.4395 116.708 27.4213 116.726 27.4122C117.236 27.2028 117.746 26.8386 118.265 26.8204C118.893 26.8022 118.893 27.6034 119.249 27.995C120.378 29.2697 122.39 29.7432 123.938 29.0421C124.675 28.7052 125.176 28.1771 125.167 27.3303C125.167 26.5108 124.648 26.01 123.92 25.7277C122.882 25.318 121.78 25.1541 120.714 24.8809C119.722 24.6351 118.802 24.2436 117.974 23.6244C116.289 22.3588 116.025 20.1462 117.373 18.5345C119.686 15.7574 125.176 16.0214 127.197 18.9989C127.307 19.1537 127.38 19.3358 127.489 19.4906C127.716 19.8275 127.589 20.0005 127.243 20.1006C127.106 20.1462 126.97 20.1917 126.842 20.2645C126.023 20.6925 125.395 20.9656 124.63 19.9094C123.728 18.6529 121.042 18.662 119.831 19.6545C118.921 20.4011 119.13 21.6394 120.296 22.1493C121.334 22.6046 122.472 22.7412 123.574 23.0234C124.457 23.2511 125.34 23.4787 126.123 24.0068C128.272 25.4364 128.536 28.4138 126.669 30.1985C125.568 31.2456 124.038 31.7828 121.907 31.7464V31.7373Z" fill="#5F5C5C"/>
<path d="M63.5121 19.4274C64.9598 17.2239 66.8629 16.368 69.0026 16.8141C69.5854 16.9325 69.8949 17.1328 69.5034 17.7429C69.4306 17.8613 69.3941 18.007 69.3304 18.1435C69.1574 18.5624 69.0755 19.0723 68.7841 19.391C68.4472 19.7552 67.9373 19.3637 67.4911 19.3637C65.2876 19.3637 63.6669 21.039 63.6304 23.4519C63.6031 25.8375 63.6122 28.2232 63.6304 30.6088C63.6304 31.1187 63.5576 31.3645 62.9749 31.3008C62.3375 31.2279 61.4998 31.5557 61.0901 31.1733C60.6712 30.7818 60.9626 29.9441 60.9535 29.3067C60.9353 25.4551 60.9534 21.5945 60.9352 17.7429C60.9352 17.1966 61.0809 17.0145 61.6181 17.0782C62.21 17.1419 62.984 16.8415 63.3664 17.1875C63.767 17.5517 63.4484 18.3256 63.4939 18.9175C63.503 19.0358 63.4939 19.1451 63.4939 19.4456L63.5121 19.4274Z" fill="#5F5C5C"/>
<path d="M2.37109 19.8284C2.76262 17.2607 3.15416 14.7021 3.54569 12.1344C3.5639 12.0433 3.61853 11.9614 3.65495 11.8703C5.02986 10.0219 6.82361 8.5651 8.39883 6.89882C8.99068 6.27966 9.23655 6.28875 9.90124 6.66207C10.2746 7.58171 11.0485 8.28284 11.3126 9.26622C10.9574 9.43012 10.7662 9.64864 10.6023 10.0584C10.2928 10.8323 9.73734 11.5061 9.52792 12.3529C9.40044 12.8446 8.81768 12.9266 8.54452 13.3545C8.30778 13.7187 7.99821 14.0738 7.76147 14.4563C6.72346 16.0679 5.32124 17.3427 3.91901 18.6265C3.62764 18.8906 3.40911 19.2093 3.14505 19.4824C2.94474 19.6918 2.77174 20.0287 2.38021 19.8375L2.37109 19.8284Z" fill="#FAA51C"/>
<path d="M55.0833 24.1436C55.0833 21.9765 55.1015 19.8094 55.0742 17.6515C55.0742 17.1689 55.2108 17.0232 55.6843 17.0596C56.3581 17.1052 57.223 16.8502 57.651 17.178C58.0972 17.5331 57.7876 18.4436 57.7967 19.1083C57.8149 22.9326 57.7967 26.7568 57.8149 30.5811C57.8149 31.1638 57.6419 31.3368 57.0865 31.2913C56.6039 31.2458 56.1213 31.2549 55.6387 31.2913C55.1744 31.3277 55.0833 31.1456 55.0833 30.7177C55.1015 28.5324 55.0924 26.338 55.0924 24.1527L55.0833 24.1436Z" fill="#605D5C"/>
<path d="M12.1771 10.2764C12.8054 9.0654 13.3972 7.83619 14.0619 6.64338C14.4989 5.86943 15.2547 5.89674 15.6826 6.69801C16.8572 8.8924 17.9954 11.1141 19.1427 13.3267C18.5872 13.4724 18.1684 13.8184 17.8042 14.2464C17.3762 14.738 16.8936 15.1751 16.3928 15.5757C15.892 15.9764 15.455 15.9582 15.2 15.4027C14.5991 14.0916 13.5884 13.0171 13.0421 11.6786C12.8327 11.1596 12.2954 10.8592 12.168 10.2946L12.1771 10.2764Z" fill="#FAA41B"/>
<path d="M9.89342 6.66151C9.12857 6.38835 8.69151 6.8254 8.20893 7.34441C7.10718 8.5099 5.94169 9.62985 4.7671 10.7225C4.37557 11.0867 4.31184 11.7696 3.65625 11.8698C3.90209 10.1671 4.12972 8.45528 4.38467 6.76168C4.65783 4.96793 4.95831 3.17416 5.24057 1.3713C5.31342 0.916033 5.55016 0.615573 5.98722 0.506309C6.35143 0.415255 6.67924 0.570031 6.85224 0.888718C7.88114 2.80084 9.01931 4.66744 9.89342 6.66151Z" fill="#FAA81E"/>
<path d="M2.37172 19.828C2.46277 19.8007 2.58115 19.7916 2.63578 19.737C4.08353 18.1891 5.76802 16.8506 7.04277 15.157C7.5982 14.4194 8.22648 13.6819 8.59069 12.7987C8.61801 12.7441 8.68174 12.6621 8.72727 12.6621C9.59228 12.6985 9.41926 12.0338 9.483 11.5421C9.483 11.4693 9.4739 11.4056 9.4648 11.3327C10.1659 11.3327 9.91096 10.6225 10.2023 10.3129C10.4209 10.0944 10.776 9.91229 10.4118 9.49344C10.2661 9.32955 10.5665 9.16565 10.6849 9.23849C10.9034 9.36597 11.0946 9.31133 11.3041 9.28401C11.4042 9.52075 11.5044 9.7666 11.6136 10.0033C10.6758 10.8319 10.3844 12.052 9.79258 13.081C8.80009 14.811 7.88958 16.5865 6.87888 18.3074C6.08672 19.655 5.52218 21.1301 4.73912 22.4868C3.89232 23.9618 3.07284 25.4642 2.20783 26.9393C2.02572 27.2489 1.87093 27.5767 1.68882 27.8862C1.54313 28.123 1.43387 28.4235 1.06055 28.3779C1.3155 26.6479 1.56134 24.9179 1.82539 23.1879C1.99839 22.077 2.18961 20.9662 2.37172 19.8462V19.828Z" fill="#FAA41B"/>
<path d="M1.05896 28.3504C1.55975 28.059 1.65991 27.4945 1.91486 27.0392C3.40814 24.3986 4.96516 21.8036 6.2399 19.0447C6.77712 17.8792 7.58751 16.8503 8.16115 15.703C8.97153 14.055 10.0368 12.5435 10.7106 10.8317C10.8563 10.4584 11.1204 10.0577 11.6121 9.98486C11.8124 10.0486 11.8761 10.4037 12.1766 10.2671C12.6956 10.7679 13.1327 11.3052 13.3876 11.9972C13.5606 12.4524 13.852 12.8895 14.1616 13.2719C14.6168 13.8364 14.9173 14.4829 15.236 15.1112C15.582 15.785 15.7459 15.785 16.3469 15.3479C17.0844 14.8016 17.6216 14.055 18.3227 13.4813C18.5686 13.281 18.8144 13.0807 19.1513 13.2992C19.2059 13.3903 19.2606 13.4722 19.3152 13.5633C19.3516 13.627 19.3607 13.709 19.3061 13.7636C18.1315 14.9473 17.0206 16.1856 15.7368 17.2601C15.6275 17.251 15.5365 17.1963 15.4636 17.1235C15.2906 16.9505 15.1905 16.732 15.0721 16.5225C14.1889 14.7743 13.2328 13.0534 12.3223 11.3234C12.2039 11.0957 12.1037 10.8226 11.7577 10.8772C11.3207 10.9956 11.2297 11.4144 11.0658 11.7422C9.96401 13.9548 8.85315 16.1674 7.61482 18.3072C6.10333 20.9204 4.70111 23.5883 3.26246 26.2379C2.68883 27.2941 2.04235 28.2957 1.46871 29.3429C1.33213 29.5887 1.23198 29.962 0.794922 29.789C0.958818 29.3155 0.840446 28.7965 1.07719 28.3413L1.05896 28.3504Z" fill="#F99F1C"/>
<path d="M0.7783 29.8074C1.39746 29.6526 1.47941 29.0152 1.68884 28.5964C2.05305 27.877 2.56296 27.2579 2.89986 26.5112C3.72845 24.672 4.86661 22.9784 5.76804 21.1573C6.66947 19.3271 7.85318 17.6517 8.76371 15.8215C9.54677 14.2463 10.3844 12.6984 11.1948 11.1414C11.3223 10.8956 11.4407 10.6679 11.7776 10.7225C11.9779 10.9957 11.7867 11.2325 11.6683 11.4601C9.92007 14.8291 8.12632 18.1798 6.35989 21.5488C5.12156 23.9162 3.85592 26.2654 2.6358 28.6419C2.40817 29.0881 2.18054 29.5433 1.90738 29.9713C1.67064 30.3446 1.49763 30.7543 1.29731 31.155C1.07878 31.5374 0.905778 31.9471 0.696355 32.3387C0.587091 32.4388 0.468722 32.5572 0.441406 32.284L0.7783 29.8256V29.8074Z" fill="#F69B1E"/>
<path d="M56.4043 10.2764C57.4606 10.2764 58.2892 11.0685 58.3074 12.1248C58.3256 13.2083 57.497 14.046 56.4043 14.046C55.3663 14.046 54.5195 13.1992 54.5195 12.1612C54.5195 11.1323 55.3663 10.2855 56.4043 10.2764Z" fill="#605D5C"/>
<path d="M0.44062 32.266C0.495252 32.3206 0.531675 32.4208 0.613623 32.2933C0.850363 31.8927 1.15085 31.5558 1.47864 31.228C5.94937 26.7664 10.4201 22.2957 14.8999 17.834C15.1367 17.5973 15.3188 17.2968 15.683 17.224C16.9395 16.0494 18.1687 14.8566 19.316 13.5818C20.8639 12.2524 22.2206 10.7136 23.6957 9.30229C23.8323 9.16571 23.9597 9.02003 24.1054 8.90166C24.6426 8.4646 25.2072 8.61029 25.5259 9.27498C24.6608 8.69224 24.5789 8.70135 23.8232 9.4571C16.2839 16.9781 8.75381 24.4991 1.21458 32.0293C1.01426 32.2296 0.750189 32.3935 0.741084 32.7213C0.404186 32.7213 0.176555 32.6666 0.431505 32.2751L0.44062 32.266Z" fill="#FECE4B"/>
<path d="M13.0611 39.6318C14.2174 40.2145 15.3829 40.2145 16.5393 39.6318C16.5939 39.5772 16.6394 39.5772 16.685 39.6318C15.2463 40.5878 14.3267 40.5878 12.9062 39.6318C12.9518 39.5681 13.0064 39.5681 13.0519 39.6318H13.0611Z" fill="#F2B538"/>
<path d="M5.81366 35.5807C6.20519 35.6899 6.58761 35.7992 6.83345 36.1634C6.36908 36.1361 6.03218 35.8265 5.66797 35.5898C5.7135 35.5261 5.75903 35.5261 5.81366 35.5898V35.5807Z" fill="#F1B437"/>
<path d="M28.4199 33.1304C28.5201 32.6478 28.9662 32.6752 29.3031 32.5386C29.121 32.9028 28.7386 32.9665 28.4199 33.1304Z" fill="#F0B12C"/>
<path d="M27.1191 33.8592C27.2557 33.4222 27.5653 33.3038 27.9932 33.3949C27.7018 33.5497 27.4105 33.7044 27.1191 33.8592Z" fill="#F1B12B"/>
<path d="M25.8164 34.578C25.953 34.1409 26.2625 34.0226 26.6905 34.1136C26.3991 34.2684 26.1078 34.4232 25.8164 34.578Z" fill="#F1B12B"/>
<path d="M24.5078 35.3065C24.6444 34.8694 24.954 34.7511 25.3819 34.8421C25.0906 34.9969 24.7992 35.1517 24.5078 35.3065Z" fill="#F1B12B"/>
<path d="M23.2031 36.0262C23.3397 35.5892 23.6493 35.4708 24.0772 35.5619C23.7859 35.7167 23.4945 35.8714 23.2031 36.0262Z" fill="#F1B12B"/>
<path d="M21.9023 36.7455C22.0389 36.3084 22.3485 36.19 22.7764 36.2811C22.4851 36.4359 22.1937 36.5907 21.9023 36.7455Z" fill="#F1B22C"/>
<path d="M20.5996 37.474C20.7362 37.0369 21.0458 36.9186 21.4737 37.0096C21.1823 37.1644 20.891 37.3192 20.5996 37.474Z" fill="#F1B22C"/>
<path d="M19.2988 38.1942C19.4354 37.7572 19.745 37.6388 20.173 37.7298C19.8816 37.8846 19.5902 38.0394 19.2988 38.1942Z" fill="#F1B22C"/>
<path d="M10.7559 38.4393C11.1747 38.3664 11.4752 38.4939 11.63 38.9128C11.3386 38.758 11.0472 38.5941 10.7559 38.4393Z" fill="#F1B025"/>
<path d="M17.9863 38.9217C18.1229 38.4847 18.4325 38.3663 18.8605 38.4574C18.5691 38.6122 18.2777 38.7669 17.9863 38.9217Z" fill="#F1B22C"/>
<path d="M13.0615 39.6321C13.016 39.6321 12.9613 39.6321 12.9158 39.6321C12.6244 39.4773 12.3422 39.3225 12.0508 39.1678C12.5152 39.0494 12.7883 39.3316 13.0615 39.6321Z" fill="#F1B22C"/>
<path d="M16.6945 39.6413C16.649 39.6413 16.5944 39.6413 16.5488 39.6413C16.822 39.3408 17.0951 39.0494 17.5595 39.186C17.2681 39.3408 16.9859 39.4956 16.6945 39.6504V39.6413Z" fill="#F1B22C"/>
<path d="M9.00907 37.183C9.03639 37.3833 9.46435 37.3013 9.30045 37.62C9.00908 37.4652 8.71769 37.3013 8.42632 37.1465C8.41721 37.0373 8.42632 36.9644 8.57201 37.0282C8.71769 37.0737 8.86339 37.1283 9.00907 37.1739V37.183Z" fill="#F1B32D"/>
<path d="M1.47656 33.2493C1.80436 33.1037 2.00466 33.2038 2.05929 33.568C1.86808 33.4588 1.66777 33.3586 1.47656 33.2493Z" fill="#F1B32E"/>
<path d="M2.49023 33.8228C2.87266 33.7044 3.08208 33.8774 3.20045 34.2234C2.96371 34.0868 2.72697 33.9593 2.49023 33.8228Z" fill="#F1B430"/>
<path d="M3.79297 34.5511C4.17539 34.4237 4.38482 34.5967 4.5123 34.9427C4.27556 34.8152 4.03881 34.6786 3.79297 34.5511Z" fill="#F1B32E"/>
<path d="M5.81305 35.5807C5.76753 35.5807 5.722 35.5807 5.66736 35.5807C5.47615 35.4714 5.28496 35.3712 5.09375 35.262C5.45796 35.0708 5.63095 35.3348 5.81305 35.5715V35.5807Z" fill="#F1B32C"/>
<path d="M7.41471 36.4546C7.66056 36.5547 7.89728 36.6549 8.14313 36.746C8.17955 36.8734 8.14313 36.9372 8.00655 36.8917C7.80624 36.7824 7.60592 36.6822 7.41471 36.573C7.37829 36.5456 7.36918 36.5183 7.37828 36.491C7.38739 36.4637 7.40561 36.4546 7.41471 36.4546Z" fill="#F1B32E"/>
<path d="M8.00781 36.8918C8.05334 36.8463 8.09886 36.7916 8.14439 36.7461C8.29007 36.8371 8.43577 36.9373 8.58145 37.0284C8.53593 37.0648 8.4904 37.1012 8.43577 37.1467C8.29008 37.0648 8.1535 36.9737 8.00781 36.8918Z" fill="#FFCB2C"/>
<path d="M7.41496 36.454C7.41496 36.454 7.41496 36.5359 7.41496 36.5723C7.26928 36.5086 7.08717 36.4904 7.02344 36.2992C7.22376 36.1717 7.34212 36.2536 7.41496 36.4448V36.454Z" fill="#FFCB2C"/>
<path d="M1.76172 29.9436C3.03647 27.4943 4.3021 25.0449 5.58595 22.6047C7.52539 18.8988 9.48305 15.2111 11.4316 11.5053C11.5682 11.2503 11.6501 10.9771 11.7594 10.7131C12.1054 10.4764 12.2055 10.7404 12.333 10.9862C13.2982 12.8255 14.2634 14.6648 15.2376 16.5041C15.0373 17.0959 14.582 17.4966 14.1723 17.9154C12.4696 19.609 10.7578 21.3026 9.09152 23.0326C7.82587 24.3438 6.49649 25.6003 5.19443 26.8751C4.25658 27.8038 3.33694 28.7508 2.38088 29.6613C2.21698 29.8161 2.06218 30.0438 1.77081 29.9527L1.76172 29.9436Z" fill="#F48421"/>
<path d="M15.6846 17.2228C13.5995 19.3262 11.5234 21.4295 9.42921 23.5237C6.49729 26.4466 3.55626 29.3603 0.615234 32.2831C0.706288 31.8369 0.90661 31.4454 1.18888 31.0994C2.33615 29.597 3.7748 28.3769 5.09508 27.0475C8.30016 23.8515 11.487 20.6282 14.7103 17.4505C14.9289 17.2319 15.1109 16.8586 15.5389 17.068C15.5844 17.1227 15.6391 17.1682 15.6846 17.2228Z" fill="#EC7A24"/>
<path d="M15.5349 17.078C15.1707 17.0962 15.0068 17.3876 14.7883 17.6062C10.4633 21.913 6.1473 26.2289 1.82225 30.5357C1.62194 30.7361 1.39431 30.9182 1.17578 31.1094C1.28505 30.6814 1.46717 30.2899 1.75854 29.953C2.81476 29.088 3.71617 28.0864 4.67223 27.1121C5.93788 25.8192 7.24905 24.59 8.48738 23.2697C9.83497 21.8219 11.31 20.4834 12.7032 19.0721C13.55 18.2162 14.4878 17.4605 15.2344 16.5044C15.3346 16.6956 15.4348 16.8868 15.5349 17.078Z" fill="#EF7E22"/>
</svg>
