<svg width="168" height="22" viewBox="0 0 168 22" fill="none" xmlns="http://www.w3.org/2000/svg">
<path d="M13.0101 0.0961302C12.4224 0.924615 11.9215 1.66641 11.382 2.36966C11.2568 2.53343 11.0063 2.62976 10.7944 2.6972C9.18558 3.20777 7.56713 3.68944 5.95833 4.19038C4.8312 4.54682 4.19536 5.26936 4.18573 6.43502C4.1472 9.20947 4.1472 11.9936 4.18573 14.768C4.205 15.8951 4.86008 16.6369 5.93904 16.9741C7.56711 17.4847 9.20484 17.976 10.8425 18.4769C11.0063 18.5251 11.2182 18.5733 11.3049 18.6889C11.8637 19.4307 12.3839 20.1917 13.0004 21.0491C12.6633 21.0683 12.4609 21.078 12.2586 21.078C10.0429 21.078 7.8176 21.078 5.60189 21.078C2.48062 21.0683 0.0337174 18.66 0.0144503 15.5483C-0.00481677 12.244 -0.00481677 8.93972 0.0144503 5.63542C0.0240838 2.49488 2.471 0.0672507 5.61153 0.0576172C7.86578 0.0576172 10.1296 0.0576172 12.3839 0.0576172C12.5573 0.0576172 12.7211 0.0768831 13.0101 0.0865166V0.0961302Z" fill="#F26A21"/>
<path d="M20.8027 21.0878C21.4289 20.2015 21.9588 19.4404 22.5079 18.6986C22.5946 18.5734 22.8065 18.5349 22.9703 18.4867C24.5694 17.9858 26.159 17.5041 27.7582 17.0032C29.0298 16.6082 29.6753 15.8279 29.6849 14.4888C29.7138 11.8685 29.7138 9.23853 29.6849 6.61821C29.6656 5.31768 29.0105 4.53736 27.7678 4.15202C26.1879 3.67035 24.608 3.19828 23.0377 2.68771C22.7487 2.59137 22.4597 2.37943 22.2767 2.13859C21.7758 1.50277 21.3326 0.828432 20.8027 0.0673828H21.4964C23.6928 0.0673828 25.8989 0.0673828 28.0953 0.0673828C31.3322 0.0673828 33.7888 2.42761 33.8273 5.64521C33.8658 8.94951 33.8658 12.2538 33.8273 15.5581C33.7888 18.7276 31.3515 21.0878 28.1821 21.0878C25.9856 21.0878 23.7795 21.0878 21.583 21.0878C21.3807 21.0878 21.1688 21.0878 20.8124 21.0878H20.8027Z" fill="#F26A21"/>
<path d="M52.2295 19.5467C51.401 16.435 50.5725 13.3234 49.744 10.2118C48.9734 7.31206 48.1834 4.40275 47.4416 1.49342C47.3164 1.00211 47.1045 0.847958 46.6131 0.876859C46.0159 0.915393 45.3993 0.925027 44.802 0.876859C44.2915 0.838325 44.1084 1.03102 43.9831 1.50306C42.4032 7.48549 40.8041 13.4583 39.2146 19.4407C39.1568 19.6719 39.1182 19.9127 39.0508 20.221C39.754 20.221 40.3706 20.2114 40.9968 20.221C41.3628 20.221 41.5362 20.1343 41.6422 19.7393C41.989 18.3425 42.3936 16.9745 42.7404 15.5776C42.8368 15.173 43.0006 15.0478 43.4148 15.0574C44.9369 15.0863 46.4493 15.096 47.9714 15.0671C48.4339 15.0671 48.6073 15.2212 48.7132 15.6643C49.0504 17.0419 49.4357 18.4003 49.8211 19.7682C49.8692 19.9416 50.0426 20.1825 50.1775 20.1921C50.8904 20.2307 51.6129 20.2114 52.3836 20.2114C52.3258 19.9416 52.2969 19.7297 52.2391 19.537L52.2295 19.5467ZM43.54 12.6009C44.2433 9.95166 44.9369 7.36025 45.6209 4.77846C45.669 4.77846 45.7268 4.77845 45.7846 4.76882C46.4782 7.36024 47.1719 9.95167 47.8751 12.6105H43.5304L43.54 12.6009Z" fill="#F26A21"/>
<path d="M95.3974 6.57068C93.7308 5.76147 92.1124 5.97341 90.6385 7.1198C90.5421 7.19687 90.4266 7.24504 90.2339 7.36064V0.935059H87.7773V20.1829H90.2146C90.2339 19.8939 90.2531 19.6531 90.282 19.2966C90.4458 19.4026 90.5422 19.4604 90.6289 19.5278C92.0932 20.6742 93.7116 20.915 95.3879 20.0962C97.0641 19.2773 97.8348 17.8419 97.8348 15.9827C97.8348 14.2005 97.8348 12.4086 97.8348 10.6264C97.8348 8.78642 97.0544 7.37029 95.4071 6.56107L95.3974 6.57068ZM95.3589 15.6358C95.3108 17.1965 94.2125 18.3043 92.7675 18.2851C91.3417 18.2658 90.2532 17.0905 90.2532 15.5588C90.2532 14.0656 90.2532 12.5628 90.2532 11.0696C90.2532 9.55709 91.3321 8.42995 92.7675 8.40105C94.1933 8.38178 95.2819 9.42223 95.3493 10.9251C95.3878 11.7439 95.3493 12.5627 95.3493 13.372C95.3493 14.1234 95.3686 14.8844 95.3493 15.6455L95.3589 15.6358Z" fill="#F26A21"/>
<path d="M165.2 0.944336V7.39882C164.979 7.23505 164.873 7.15796 164.767 7.08089C163.341 5.98267 161.771 5.79001 160.152 6.52216C158.515 7.26395 157.676 8.63191 157.628 10.4045C157.57 12.3697 157.59 14.3349 157.628 16.2906C157.676 19.0361 160.21 21.0592 162.907 20.433C163.697 20.25 164.41 19.7972 165.181 19.46C165.191 19.6334 165.219 19.8935 165.248 20.1825H167.695V0.944336H165.2ZM165.2 15.7318C165.181 17.1191 164.092 18.2365 162.753 18.2847C161.356 18.3329 160.171 17.3117 160.123 15.886C160.066 14.1616 160.066 12.4372 160.123 10.7128C160.171 9.3448 161.347 8.36215 162.705 8.40068C164.063 8.42959 165.162 9.52781 165.191 10.9054C165.21 11.7243 165.191 12.5335 165.191 13.3523C165.191 14.1712 165.191 14.9419 165.191 15.7415L165.2 15.7318Z" fill="#F26A21"/>
<path d="M71.6609 6.58951C70.0906 5.78992 68.5396 5.93441 67.0849 6.9363C66.9115 7.0519 66.7477 7.17713 66.4973 7.37943C66.478 7.04226 66.4587 6.82071 66.4587 6.58951C66.4587 4.88437 66.4587 3.16958 66.4587 1.45481C66.4587 1.20434 66.5454 0.876805 66.0927 0.886438C65.4183 0.886438 64.7344 0.886438 64.0215 0.886438V20.1439C64.1082 20.1728 64.1563 20.2017 64.2141 20.2113C64.6669 20.2113 65.1101 20.2113 65.5628 20.2113C66.3817 20.2113 66.3817 20.2113 66.5165 19.4214C66.5165 19.4021 66.5743 19.3828 66.6321 19.3443C66.7477 19.431 66.8633 19.5273 66.9886 19.6237C68.4336 20.6834 69.9943 20.8857 71.6031 20.1054C73.183 19.3347 74.0307 18.0245 74.0307 16.2327C74.0307 14.2867 74.0307 12.3407 74.0307 10.3947C74.0307 8.6607 73.2118 7.36982 71.6801 6.58951H71.6609ZM71.5741 13.3137C71.5741 14.094 71.5741 14.8743 71.5741 15.645C71.5645 17.0901 70.4952 18.2268 69.1369 18.2654C67.7304 18.3135 66.5551 17.302 66.4973 15.8666C66.4298 14.1614 66.4395 12.4467 66.4973 10.7416C66.5454 9.3447 67.74 8.32353 69.108 8.38133C70.4759 8.43913 71.5452 9.52773 71.5645 10.9246C71.5838 11.7242 71.5645 12.5237 71.5645 13.3137H71.5741Z" fill="#F26A21"/>
<path d="M127.947 6.75254H125.443C125.395 6.4828 125.366 6.22269 125.308 5.96258C124.923 4.28634 123.304 3.19776 121.512 3.4097C119.961 3.59274 118.651 5.0474 118.641 6.66584C118.622 9.3825 118.622 12.1088 118.641 14.8254C118.651 16.5402 120.048 17.966 121.763 18.0816C123.535 18.1972 125.096 16.9834 125.327 15.259C125.385 14.8351 125.539 14.6809 125.953 14.7002C126.416 14.7195 126.888 14.7195 127.35 14.7002C127.764 14.6809 127.909 14.8447 127.861 15.2493C127.61 17.5325 126.435 19.1798 124.335 20.0757C120.375 21.7712 116.117 18.939 116.108 14.6328C116.108 12.0124 116.098 9.3825 116.108 6.76218C116.127 3.69872 118.275 1.29033 121.445 0.924259C124.267 0.596719 126.917 2.41745 127.658 5.13411C127.793 5.63505 127.832 6.15526 127.928 6.75254H127.947Z" fill="#F26A21"/>
<path d="M109.657 11.0884C109.629 8.94008 108.588 7.35054 106.623 6.51243C104.658 5.68394 102.798 6.05002 101.199 7.47578C100.419 8.16939 99.9179 9.05568 99.7349 10.1828C100.448 10.1828 101.084 10.1732 101.719 10.1828C102.018 10.1828 102.153 10.0865 102.278 9.81672C102.885 8.41986 104.263 7.83223 105.573 8.36208C106.873 8.89192 107.528 10.4044 107.027 11.8398C105.843 11.8398 104.629 11.8205 103.425 11.8398C101.777 11.8783 100.506 12.6297 99.7157 14.0651C98.8294 15.6739 98.9354 17.302 100.024 18.7759C101.19 20.3558 102.856 20.7893 104.696 20.4522C105.534 20.298 106.315 19.8067 107.134 19.4599C107.134 19.537 107.134 19.7104 107.182 19.8645C107.239 19.9994 107.374 20.1824 107.48 20.1824C108.174 20.2113 108.877 20.1921 109.629 20.1921C109.638 19.9416 109.657 19.7874 109.657 19.6333C109.657 16.7721 109.686 13.9206 109.657 11.0595V11.0884ZM106.979 16.3772C106.739 17.4754 105.66 18.2943 104.581 18.3906C103.482 18.4869 102.432 17.9667 101.97 17.0901C101.238 15.7125 102.037 14.0651 103.598 13.7761C103.81 13.7376 104.022 13.699 104.234 13.699C105.168 13.699 106.103 13.699 107.191 13.699C107.134 14.6624 107.172 15.5487 106.989 16.3772H106.979Z" fill="#F26A21"/>
<path d="M85.8479 11.0978C85.8286 8.9399 84.5377 7.13842 82.611 6.4159C80.7228 5.70302 78.536 6.21362 77.1488 7.70682C76.5033 8.3908 76.0698 9.19037 75.9061 10.1923C76.5419 10.1923 77.1006 10.173 77.6594 10.1923C78.1025 10.2212 78.3434 10.0959 78.5264 9.65279C78.9407 8.6509 79.9136 8.12105 81.0118 8.17886C81.9848 8.22702 82.9482 8.94953 83.2083 9.91288C83.3335 10.3753 83.3142 10.8763 83.3624 11.3483C83.4009 11.7336 83.2276 11.8589 82.8519 11.8492C81.7825 11.83 80.7036 11.8396 79.6439 11.8492C77.8809 11.8685 76.5804 12.697 75.8001 14.248C75.0102 15.8182 75.1643 17.3885 76.2143 18.8046C77.6883 20.7892 80.8096 21.1745 82.8037 19.6428C82.9482 19.5368 83.1023 19.4212 83.3046 19.2671C83.3431 19.6139 83.3721 19.874 83.401 20.2015C84.0561 20.2015 84.6918 20.1822 85.3373 20.2015C85.7708 20.2208 85.8575 20.0281 85.8575 19.6524C85.8575 16.7912 85.8768 13.9397 85.8382 11.0786L85.8479 11.0978ZM83.1216 16.4444C82.6688 18.0821 80.7421 18.8528 79.2585 18.1207C78.3144 17.6486 77.746 16.6853 77.8713 15.7701C78.0158 14.7008 78.7961 13.9108 79.8944 13.7278C80.1063 13.6892 80.3182 13.6989 80.5398 13.6989H83.3913C83.3046 14.7007 83.3624 15.6159 83.1216 16.4444Z" fill="#F26A21"/>
<path d="M143.692 10.6449C143.547 8.22691 141.505 6.27131 139.183 6.13644C136.457 5.9823 134.241 7.54292 133.779 10.0669C133.577 11.1266 133.654 12.2344 133.605 13.3134C133.615 13.3134 133.634 13.3134 133.654 13.3134C133.654 14.113 133.654 14.9029 133.654 15.7025C133.654 18.1976 135.754 20.3941 138.268 20.5482C141.023 20.712 143.451 18.8431 143.653 16.2324C143.798 14.3731 143.798 12.4946 143.682 10.6449H143.692ZM141.226 15.5099C141.197 16.9934 140.041 18.0724 138.586 18.0435C137.218 18.0146 136.178 16.8778 136.168 15.4328C136.168 14.7103 136.168 13.9974 136.168 13.2749C136.168 12.5524 136.168 11.878 136.168 11.1748C136.168 9.74899 137.237 8.64113 138.634 8.61223C140.012 8.58333 141.187 9.66231 141.216 11.0688C141.245 12.5427 141.245 14.0167 141.216 15.4906L141.226 15.5099Z" fill="#F26A21"/>
<path d="M155.667 20.2205C154.954 20.2205 154.26 20.2301 153.567 20.2108C153.451 20.2108 153.297 20.0374 153.249 19.9026C153.181 19.7388 153.201 19.5365 153.191 19.4113C152.478 19.7581 151.823 20.2108 151.1 20.4131C148.538 21.126 145.667 19.3149 145.638 16.1937C145.609 13.005 145.638 9.81625 145.629 6.63719C145.629 6.27111 145.744 6.10734 146.139 6.12661C146.775 6.14588 147.411 6.12661 148.133 6.12661C148.133 6.42525 148.133 6.64682 148.133 6.87802C148.133 9.81625 148.124 12.7449 148.133 15.6831C148.143 17.6098 149.983 18.8814 151.688 18.1204C152.738 17.658 153.229 16.8006 153.229 15.6638C153.229 14.2284 153.229 12.7834 153.229 11.348C153.229 9.81627 153.249 8.2749 153.229 6.74317C153.229 6.25186 153.393 6.08807 153.865 6.11697C154.443 6.1555 155.031 6.11697 155.676 6.11697V20.2205H155.667Z" fill="#F26A21"/>
<path d="M129.248 0.924805H131.695V20.1822H129.248V0.924805Z" fill="#F26A21"/>
<path d="M56.1962 20.2209C55.464 20.2209 54.809 20.2498 54.1539 20.2016C54.0094 20.192 53.8649 19.9511 53.7589 19.7874C53.7011 19.7006 53.7493 19.5562 53.7493 19.4406C53.7493 13.5159 53.7493 7.59129 53.7493 1.66667C53.7493 0.886348 53.7493 0.876717 54.5392 0.886351C55.0498 0.886351 55.5508 0.88636 56.0614 0.895994C56.0999 0.895994 56.1288 0.924892 56.2058 0.953793V20.2112L56.1962 20.2209Z" fill="#F26A21"/>
<path d="M61.322 20.1915H58.8848V6.16504H61.322V20.1915Z" fill="#F26A21"/>
<path d="M22.5384 9.28717C22.5384 10.0482 22.5481 10.7418 22.5288 11.4355C22.5288 11.5414 22.3458 11.6666 22.2205 11.7437C22.1531 11.7919 22.0279 11.763 21.9315 11.763C18.6176 11.763 15.3133 11.763 11.9993 11.7726C11.4599 11.7726 11.2575 11.6089 11.3057 11.0694C11.3635 10.501 11.1901 9.76885 11.4791 9.40277C11.691 9.13303 12.5002 9.29682 13.0397 9.29682C15.9587 9.29682 18.8777 9.29682 21.8063 9.29682C22.0375 9.29682 22.259 9.29682 22.548 9.29682L22.5384 9.28717Z" fill="#F26A21"/>
<path d="M61.3123 3.37201H58.875V0.944336H61.3123V3.37201Z" fill="#F26A21"/>
</svg>
