<svg width="164" height="45" viewBox="0 0 164 45" fill="none" xmlns="http://www.w3.org/2000/svg">
<path d="M10.1961 39.5266C8.1056 38.0334 6.40047 36.1741 4.92653 34.0933C3.0769 31.473 1.79562 28.5925 1.22724 25.4231C0.880437 23.506 0.861182 21.589 1.04422 19.6526C1.26579 17.2539 1.74746 14.9129 2.57595 12.6394C3.98245 8.76672 6.21742 5.44315 9.32905 2.7265C10.1094 2.04252 10.8126 1.3489 10.7645 0.192871C10.7934 0.192871 10.8223 0.192871 10.8512 0.192871C10.8993 0.289206 10.9475 0.38554 10.986 0.491508C11.2847 1.89801 11.2365 3.33341 11.3136 4.75917C11.3906 6.16567 11.3328 7.57216 11.3906 8.97865C11.4966 11.3774 11.3714 13.7858 11.4581 16.1846C11.5351 18.4003 11.4484 20.6063 11.5255 22.8221C11.5737 24.19 11.6026 25.5483 11.564 26.9067C11.5255 28.4577 11.5062 30.0087 11.3906 31.5597C11.3328 32.3593 11.3136 33.1685 11.2172 33.9681C11.1691 34.1222 11.1498 34.2763 11.1594 34.4401C11.0727 35.9429 10.9379 37.4361 10.5332 38.8908C10.4658 39.122 10.4851 39.411 10.1961 39.5362V39.5266Z" fill="#17AA4F"/>
<path d="M11.1376 34.0067C11.205 33.0722 11.2628 32.1474 11.3302 31.2129C11.3302 31.184 11.3302 31.1455 11.3302 31.1166C11.3013 30.134 11.3784 29.1513 11.4169 28.1783C11.4651 26.7911 11.5036 25.4135 11.4555 24.0263C11.3784 21.7239 11.4651 19.4311 11.388 17.1287C11.3013 14.6721 11.4073 12.2156 11.3206 9.76866C11.2724 8.5163 11.3206 7.27358 11.2628 6.02122C11.205 4.88446 11.205 3.7477 11.1279 2.62058C11.0798 1.95587 11.0894 1.29114 10.9449 0.636059C10.9353 0.587891 10.9738 0.530101 10.9834 0.481934C11.1568 0.828741 11.3302 1.17554 11.494 1.53199C11.9757 2.53387 12.6211 3.4009 13.4111 4.17158C15.3474 6.07902 16.9947 8.20803 18.2086 10.6549C19.4031 13.0537 20.2702 15.5777 20.7711 18.2076C21.1179 20.0187 21.1564 21.8684 21.0119 23.7084C20.7229 27.6485 19.4609 31.2514 17.2259 34.5076C15.9929 36.2994 14.5286 37.8697 12.7464 39.1317C12.4863 39.2088 12.3514 39.0257 12.2165 38.8716C11.7926 38.3899 11.5711 37.8023 11.4362 37.1954C11.2435 36.3669 11.0894 35.5384 11.1376 34.6906C11.1761 34.4691 11.0701 34.2475 11.1376 34.0259V34.0067Z" fill="#14924F"/>
<path d="M143.978 22.4756C143.448 19.7301 141.984 17.6107 139.528 16.2138C137.9 15.289 136.108 14.9518 134.248 14.9037C132.572 14.8651 130.896 14.9133 129.21 14.9615C127.611 14.9904 126.012 14.9903 124.413 14.9133C123.43 14.8651 123.401 14.894 123.025 15.8092C122.881 16.1656 122.89 16.1849 123.276 16.2234C123.95 16.3005 124.625 16.3968 125.28 16.6184C125.761 16.7822 126.031 17.1194 126.127 17.6107C126.166 17.8226 126.195 18.0249 126.195 18.2465C126.195 21.8494 126.204 25.4428 126.195 29.0457C126.195 30.1439 126.195 31.2325 126.118 32.3307C126.05 33.3422 125.684 33.7469 124.682 33.8914C124.557 33.9106 124.432 33.9492 124.316 33.9395C123.941 33.9106 123.777 34.1322 123.671 34.4405C123.623 34.585 123.565 34.7391 123.526 34.8836C123.44 35.2497 123.468 35.2882 123.844 35.2882C126.445 35.3171 129.037 35.3556 131.638 35.3749C133.574 35.3942 135.482 35.2208 137.312 34.5368C140.106 33.4964 142.264 31.7431 143.41 28.9205C144.258 26.8396 144.402 24.6624 143.978 22.466V22.4756ZM140.019 29.2865C139.142 31.5408 137.591 33.1207 135.144 33.6409C133.738 33.9395 132.322 33.8817 130.944 33.4289C129.913 33.0821 129.509 32.5041 129.48 31.4059C129.422 29.0649 129.432 26.7144 129.48 24.3638C129.48 22.0228 129.48 19.6722 129.48 17.3217C129.48 16.7533 129.682 16.5028 130.231 16.445C132.216 16.2523 134.181 16.3679 136.011 17.1964C138.497 18.3043 139.961 20.2792 140.481 22.9187C140.905 25.067 140.818 27.2153 140.019 29.2769V29.2865Z" fill="#866741"/>
<path d="M163.129 27.6195C162.744 26.1071 161.713 25.1534 160.364 24.4886C159.815 24.2189 159.237 24.0359 158.563 23.8432C159.064 23.6024 159.469 23.4001 159.844 23.1303C161.203 22.1188 161.896 20.7894 161.704 19.0842C161.511 17.408 160.586 16.2809 159.054 15.6258C157.975 15.1634 156.839 14.99 155.683 14.9996C152.648 15.0092 149.623 15.1345 146.588 14.9707C146.434 14.9707 146.338 14.9996 146.261 15.1345C146.116 15.3849 145.982 15.645 145.895 15.9148C145.827 16.1171 145.856 16.2423 146.116 16.2712C146.656 16.329 147.195 16.4157 147.744 16.5024C148.457 16.618 148.775 16.9648 148.843 17.6777C148.852 17.8415 148.872 18.0149 148.872 18.1787C148.901 22.6775 148.852 27.186 148.823 31.6945C148.823 32.1088 148.775 32.5134 148.708 32.9276C148.64 33.3611 148.4 33.6309 147.976 33.7465C147.581 33.8524 147.176 33.997 146.762 33.9777C146.28 33.9584 146.116 34.2282 145.991 34.6039C145.953 34.7195 145.904 34.835 145.876 34.9507C145.799 35.2878 145.847 35.3456 146.184 35.3456C147.552 35.3456 148.91 35.3745 150.278 35.4034C152.099 35.4323 153.92 35.5576 155.74 35.3649C157.657 35.1626 159.42 34.5749 160.971 33.4189C162.86 32.0124 163.678 29.7967 163.12 27.6195H163.129ZM152.003 20.221H152.06C152.06 19.248 152.06 18.275 152.06 17.302C152.06 16.8589 152.089 16.5506 152.773 16.5217C153.987 16.4735 155.191 16.5024 156.338 16.9745C157.619 17.4947 158.293 18.4869 158.428 19.8453C158.486 20.3751 158.476 20.9146 158.341 21.4444C157.985 22.8028 157.089 23.5156 155.605 23.6216C154.517 23.7083 153.438 23.6216 152.349 23.6216C152.08 23.6216 152.003 23.4964 152.012 23.2459C152.012 22.2344 152.012 21.2325 152.012 20.2306L152.003 20.221ZM159.806 30.2399C159.671 31.5019 159.151 32.5519 158.033 33.2359C157.436 33.602 156.771 33.785 156.068 33.8428C155.297 33.9102 154.527 33.8717 153.765 33.7368C152.715 33.5634 152.099 32.8217 152.051 31.7427C152.031 31.261 152.022 30.7793 152.012 30.2977C152.012 29.7389 152.012 29.1802 152.012 28.6214H151.993C151.993 27.581 151.993 26.5406 151.993 25.5098C151.993 25.2786 152.07 25.1341 152.301 25.1245C154.054 25.057 155.817 25.0185 157.465 25.7795C159.391 26.6658 160.008 28.3517 159.806 30.2399Z" fill="#866741"/>
<path d="M32.797 29.2956C32.797 30.4998 32.7873 31.7137 32.797 32.9179C32.8066 33.6789 33.0571 33.939 33.8085 34.0835C34.0012 34.122 34.2035 34.1702 34.4058 34.1799C34.7911 34.1799 34.8971 34.3918 34.8393 34.7386C34.8393 34.7964 34.8393 34.8542 34.8393 34.9024C34.7815 35.3648 34.7815 35.384 34.3094 35.3551C32.3153 35.2492 30.3308 35.2588 28.3367 35.3648C28.0284 35.3841 27.9417 35.2492 27.932 34.9891C27.932 34.8735 27.932 34.7675 27.932 34.6519C27.932 34.3821 28.0091 34.228 28.327 34.1991C28.6642 34.1702 29.0014 34.0642 29.3385 33.9872C29.7913 33.8716 30.0321 33.5826 30.0899 33.1202C30.1766 32.4265 30.1574 31.7329 30.1863 31.049C30.2441 29.1608 30.2152 27.2726 30.2055 25.3844C30.2055 24.9317 30.0514 24.5945 29.6275 24.3825C29.1844 24.1706 28.7413 23.9587 28.2692 23.8142C28.038 23.7371 27.7008 23.7082 27.7394 23.3614C27.7683 23.0146 28.0862 22.9471 28.3655 22.9086C29.2518 22.793 30.1189 22.5811 30.9859 22.3499C31.4676 22.2246 31.9492 22.0801 32.4213 21.8971C32.7681 21.7622 32.8548 21.8104 32.8451 22.2054C32.8451 22.6003 32.797 22.9857 32.7777 23.3806C32.7777 23.5444 32.7103 23.7371 32.9126 23.8238C33.0956 23.9009 33.2016 23.7564 33.3268 23.6697C34.2709 22.9568 35.2728 22.3691 36.4095 22.0127C38.0954 21.4828 39.5886 21.9645 40.6483 23.3903C41.13 24.0357 41.13 24.0261 41.7947 23.5541C42.6906 22.9182 43.6347 22.3691 44.6848 22.0223C46.8619 21.3191 48.9235 22.2921 49.7616 24.4114C50.0795 25.211 50.224 26.0491 50.224 26.8969C50.224 28.891 50.2048 30.8756 50.1951 32.8697C50.1951 33.4766 50.3589 33.7078 50.9273 33.9198C51.3608 34.0835 51.8136 34.1509 52.2664 34.228C52.4301 34.2569 52.4783 34.3147 52.459 34.4592C52.459 34.4881 52.459 34.5267 52.459 34.5556C52.4205 35.3552 52.382 35.3841 51.5824 35.3359C49.7231 35.2299 47.8638 35.2395 46.0142 35.3551C45.7348 35.3744 45.6192 35.2973 45.6288 35.0276C45.6288 34.9987 45.6288 34.9602 45.6288 34.9313C45.6096 34.5074 45.8055 34.2505 46.2165 34.1606C47.3629 33.9198 47.5556 33.6982 47.5652 32.5132C47.5652 30.8466 47.5652 29.18 47.5652 27.5134C47.5652 27.0125 47.5363 26.5019 47.4014 26.0202C46.939 24.3825 45.4265 23.5637 43.654 23.9876C42.9411 24.161 42.2956 24.4789 41.6887 24.9027C41.5153 25.0184 41.419 25.1629 41.4575 25.3748C41.6213 26.3382 41.5828 27.3111 41.5828 28.2841C41.5828 29.8448 41.5828 31.415 41.5828 32.9757C41.5828 33.5826 41.7851 33.8427 42.3823 33.9968C42.7195 34.0835 43.0567 34.1702 43.3939 34.2184C43.6154 34.2473 43.6829 34.3533 43.6732 34.5459C43.6732 34.6134 43.6732 34.6808 43.6732 34.7482C43.654 35.3166 43.5865 35.3841 43.0374 35.3648C41.0915 35.2781 39.1455 35.307 37.1995 35.384C36.872 35.3937 36.7853 35.2588 36.7756 34.9891C36.7756 34.8735 36.766 34.7675 36.7756 34.6519C36.7949 34.411 36.8527 34.2377 37.161 34.2184C37.4596 34.1991 37.7486 34.1124 38.0472 34.045C38.6349 33.9101 38.8757 33.6693 38.9046 33.0624C39.0106 30.8948 39.0684 28.7273 38.9046 26.5597C38.789 24.9895 37.816 23.9587 36.3517 23.7949C35.6292 23.7178 34.9549 23.9105 34.2998 24.1899C33.9337 24.344 33.5869 24.556 33.2497 24.7775C32.9318 24.9895 32.7873 25.2688 32.797 25.6542C32.797 26.868 32.797 28.0915 32.797 29.3053C32.8066 29.3053 32.8162 29.3053 32.8259 29.3053L32.797 29.2956Z" fill="#22323D"/>
<path d="M99.8107 33.8228C98.3753 33.6012 96.9206 33.5145 95.4756 33.4182C95.0421 33.3893 94.5989 33.3508 94.2136 33.1292C93.6067 32.7824 93.5778 32.0791 94.1558 31.6842C94.4063 31.5107 94.6953 31.4818 94.9843 31.4626C95.8609 31.4144 96.7087 31.2314 97.5083 30.8557C99.0207 30.1331 100.206 29.112 100.572 27.378C100.745 26.5687 100.755 25.7595 100.601 24.9503C100.562 24.7673 100.398 24.5361 100.552 24.4012C100.697 24.2663 100.938 24.4205 101.13 24.4494C102.614 24.6806 103.597 23.486 103.067 22.0217C102.701 22.3589 102.325 22.6094 101.853 22.6864C100.851 22.8695 99.8781 22.7731 98.9244 22.3974C97.7684 21.9446 96.5834 21.6653 95.3215 21.8098C94.5508 21.8965 93.8186 22.1373 93.1057 22.4167C91.2465 23.1585 89.9845 24.4301 89.84 26.5109C89.6955 28.6014 90.4469 30.4318 92.6819 31.2603C92.7975 31.2988 92.9323 31.3181 92.9516 31.4722C92.9805 31.6456 92.8553 31.7034 92.7493 31.7805C92.1809 32.214 91.5355 32.5319 90.9382 32.9172C90.5432 33.1774 90.495 33.3026 90.6492 33.7457C90.9286 34.5646 91.5547 35.0462 92.3061 35.4027C92.4218 35.4605 92.6048 35.4509 92.6048 35.6146C92.6048 35.7688 92.441 35.8073 92.335 35.8844C91.5162 36.472 90.6877 37.0404 89.9748 37.7629C89.3101 38.4373 89.1078 39.2272 89.3775 40.1328C89.8111 41.6356 90.8611 42.5411 92.2772 43.0614C93.8764 43.6394 95.5141 43.5912 97.1325 43.1866C99.1363 42.6857 100.822 41.6741 102.036 39.9594C102.691 39.0249 103.048 37.9845 102.932 36.8381C102.759 35.1426 101.641 34.0829 99.8299 33.8132L99.8107 33.8228ZM92.6048 27.5321C92.4892 27.089 92.4507 26.6362 92.441 26.0871C92.441 25.7884 92.4699 25.4127 92.5663 25.037C93.1154 22.908 95.0035 22.725 96.3811 23.3608C97.1807 23.7269 97.6431 24.4108 97.884 25.2393C98.1922 26.2701 98.2115 27.3009 97.9129 28.3413C97.383 30.2006 95.7742 30.4992 94.4641 29.9597C93.3851 29.5166 92.8938 28.6014 92.6144 27.5321H92.6048ZM100.533 39.0634C100.427 39.9786 99.907 40.6433 99.146 41.1347C98.3946 41.6163 97.3927 41.8475 96.1018 41.8283C95.1577 41.8283 94.1269 41.6645 93.2117 41.0769C92.4025 40.5566 91.8341 39.8823 91.7667 38.8708C91.7474 38.5432 91.7667 38.2061 91.9112 37.9267C92.4699 36.867 93.2888 36.0578 94.5219 35.9711C95.9476 35.8651 97.383 35.9711 98.7702 36.3949C100.119 36.8188 100.716 37.7051 100.543 39.0731L100.533 39.0634Z" fill="#22323D"/>
<path d="M76.281 29.9802C76.281 30.6738 76.3003 31.8588 76.3484 33.0437C76.3773 33.6891 76.5411 33.8914 77.1576 34.0359C77.4948 34.113 77.8416 34.1708 78.1884 34.1901C78.3715 34.1901 78.4582 34.2768 78.4485 34.4598C78.4485 34.5273 78.4485 34.5947 78.4485 34.6621C78.4485 35.4713 78.3907 35.5388 77.5912 35.5002C75.6355 35.3943 73.6799 35.4328 71.7243 35.5195C71.4739 35.5292 71.3679 35.4521 71.3486 35.2208C71.3486 35.1438 71.3294 35.0667 71.3294 34.9897C71.3005 34.296 71.3293 34.2479 72.0037 34.1226C72.1 34.1034 72.206 34.0841 72.3023 34.0648C73.2175 33.8529 73.362 33.6988 73.4006 32.7643C73.4969 30.3078 73.4873 27.8512 73.4584 25.385C73.4584 25.0286 73.3235 24.7685 72.996 24.5951C72.5432 24.3542 72.0808 24.1423 71.5798 23.9978C71.3005 23.9111 71.0018 23.8244 70.9922 23.4487C70.9922 23.1982 71.2812 22.9477 71.6665 22.8996C72.784 22.7454 73.8822 22.4853 74.9612 22.1481C75.2791 22.0518 75.597 21.9458 75.9053 21.811C76.1076 21.7243 76.1847 21.7917 76.2617 21.9555C76.3195 22.1 76.3292 22.2541 76.3195 22.4179C76.2906 22.8032 76.2617 23.1982 76.2425 23.5932C76.2425 23.6895 76.1943 23.8148 76.3003 23.8726C76.4159 23.94 76.4737 23.8147 76.5507 23.7569C77.4466 23.0248 78.4004 22.3986 79.4986 22.0036C81.8877 21.1655 84.2287 22.3986 84.8934 24.8455C85.1342 25.7415 85.2017 26.647 85.2113 27.5622C85.2209 29.2481 85.2209 30.934 85.2402 32.6295C85.2498 33.6891 85.3462 33.7855 86.3673 34.0263C86.5696 34.0745 86.7816 34.1226 86.9935 34.1515C87.4559 34.219 87.4559 34.2093 87.4559 34.691C87.4559 34.7681 87.4559 34.8451 87.4559 34.9222C87.4077 35.4617 87.3499 35.5291 86.8105 35.5002C84.8163 35.3943 82.8318 35.4135 80.8377 35.5195C80.5583 35.5388 80.4523 35.4328 80.433 35.1823C80.433 35.1342 80.4234 35.0956 80.4234 35.0475C80.3656 34.296 80.3945 34.2672 81.1267 34.1323C82.2923 33.93 82.4079 33.8047 82.4176 32.6005C82.4368 30.7316 82.4465 28.8724 82.3694 27.0035C82.3212 25.8763 81.9648 24.913 80.9244 24.3446C79.9225 23.7955 78.8821 23.8918 77.8416 24.2579C77.5141 24.3735 77.2154 24.5469 76.9264 24.7299C76.4929 25.0093 76.3099 25.4139 76.3099 25.9149C76.3099 27.0998 76.3099 28.2847 76.3099 29.9609L76.281 29.9802Z" fill="#22323D"/>
<path d="M68.3458 25.9436C67.6425 23.882 66.2168 22.514 64.0878 22.0131C61.4963 21.4062 59.1458 22.0131 57.0938 23.6893C56.0727 24.5178 55.4368 25.6161 55.1478 26.8973C54.7625 28.6314 54.9166 30.3365 55.6103 31.9838C56.1979 33.3711 57.1709 34.4115 58.5581 35.0377C59.5022 35.4615 60.4945 35.6349 61.5252 35.6446C62.2959 35.6638 63.0377 35.5097 63.7602 35.2785C65.764 34.662 67.3054 33.4866 68.1339 31.5214C68.8949 29.691 68.9816 27.8029 68.3458 25.9243V25.9436ZM65.8218 29.3346C65.8218 30.2305 65.7447 30.953 65.5713 31.6755C64.9837 34.1899 62.7005 34.7197 60.822 33.8431C59.9646 33.4481 59.3192 32.793 58.876 31.9646C57.7778 29.9223 57.5755 27.7643 58.1728 25.5486C58.5677 24.0747 59.7623 23.1691 61.1303 23.1788C62.4886 23.1788 63.5964 23.7279 64.4346 24.7972C65.2342 25.8184 65.5906 27.0226 65.7447 28.2845C65.7929 28.6795 65.8314 29.0841 65.8218 29.3346Z" fill="#22323D"/>
<path d="M119.131 27.1474C118.717 24.7871 117.494 23.0338 115.182 22.1957C112.908 21.3769 110.731 21.7815 108.669 22.9086C107.012 23.8142 105.962 25.2303 105.596 27.0799C105.259 28.7754 105.433 30.442 106.126 32.0316C106.714 33.3803 107.668 34.4014 109.016 35.018C109.922 35.4322 110.885 35.6442 111.877 35.6345C114.026 35.6345 115.924 34.9409 117.417 33.3706C118.727 32.0027 119.209 30.2975 119.228 28.3805C119.228 28.0048 119.218 27.5712 119.141 27.1377L119.131 27.1474ZM116.049 31.6848C115.529 33.7367 113.804 34.6904 111.781 34.0354C110.664 33.6789 109.874 32.9275 109.325 31.9256C108.284 29.9989 108.053 27.9277 108.563 25.8276C109.247 22.976 111.945 22.5811 113.891 23.8431C115.105 24.633 115.692 25.8468 116.039 27.2052C116.232 27.9566 116.28 28.7273 116.299 29.498C116.27 30.2397 116.222 30.9719 116.049 31.6848Z" fill="#22323D"/>
<path d="M11.1894 34.7001C11.2279 35.7116 11.3628 36.7135 11.6711 37.6768C11.8156 38.1103 12.0082 38.5246 12.3261 38.8617C12.4417 38.987 12.567 39.093 12.7404 39.1315C12.4996 39.96 12.3551 40.8173 12.2009 41.6651C12.0372 42.6188 11.8734 43.5629 11.777 44.5263C11.7385 44.902 11.6711 44.9116 11.0642 44.8923C10.7366 44.8827 10.8041 44.6611 10.7848 44.4781C10.6788 43.5533 10.5825 42.6285 10.4765 41.7036C10.4091 41.0871 10.3224 40.4706 10.2549 39.854C10.2453 39.7384 10.2357 39.6324 10.1875 39.5264C10.515 38.8039 10.6499 38.0236 10.7751 37.2529C10.9293 36.3185 11.016 35.384 11.0738 34.4399C11.2472 34.4688 11.1123 34.6326 11.1894 34.7001Z" fill="#B8C4C2"/>
<path d="M11.1871 34.6996C11.1485 34.6129 11.11 34.5262 11.0715 34.4395C11.0715 34.295 11.0233 34.1409 11.1293 34.0156C11.1485 34.2468 11.2352 34.4684 11.1871 34.6996Z" fill="#66B389"/>
</svg>
