<svg width="169" height="39" viewBox="0 0 169 39" fill="none" xmlns="http://www.w3.org/2000/svg">
<path d="M84.3625 20.4837C84.2662 19.713 84.0735 18.9713 83.7363 18.268C82.8982 16.5436 81.405 15.744 79.4494 15.8789C78.7943 15.9271 78.1585 16.0812 77.4938 16.3606V15.956C77.4938 14.3183 77.4938 12.6709 77.4938 11.0429C77.4938 10.9658 77.4938 10.8887 77.4938 10.8116C77.4938 10.7057 77.4553 10.6671 77.3589 10.6864C77.3011 10.6864 77.2433 10.6864 77.1952 10.7057C76.4149 10.8405 75.6345 10.9754 74.8542 11.1007C74.6037 11.1456 74.4785 11.2965 74.4785 11.5534V27.0923C74.4785 27.1983 74.5074 27.2561 74.6134 27.2754C74.6808 27.2946 74.7386 27.3139 74.8061 27.3332C76.2607 27.7185 77.7443 27.8823 79.2471 27.8437C80.1623 27.8245 81.0293 27.6125 81.8289 27.1501C83.168 26.3891 83.9001 25.1945 84.2373 23.7302C84.4878 22.6513 84.4878 21.5723 84.3529 20.4837H84.3625ZM81.3376 21.7939C81.3665 22.3237 81.3376 22.8439 81.2123 23.3641C80.9715 24.3275 80.4128 25.0018 79.3916 25.1849C78.804 25.3005 78.2067 25.2331 77.6191 25.1463C77.542 25.1271 77.5034 25.0885 77.5034 25.0115C77.5034 24.9344 77.5034 24.8573 77.5034 24.7803C77.5034 22.9306 77.5034 21.081 77.5034 19.241C77.5034 18.9905 77.5901 18.8749 77.8214 18.7882C78.3127 18.5955 78.8232 18.4607 79.3627 18.4896C80.1141 18.5088 80.644 18.8749 80.9715 19.5396C81.1931 20.002 81.3087 20.4934 81.3472 20.9943C81.3665 21.2544 81.3472 21.5241 81.3472 21.7842L81.3376 21.7939Z" fill="#373535"/>
<path d="M53.1905 20.5221C53.8938 19.7996 54.4814 19.0193 55.0498 18.2197C55.493 17.5935 55.9361 16.9577 56.3311 16.3026C56.3889 16.2063 56.4371 16.1196 56.5719 16.1196C57.7183 16.1196 58.8551 16.1196 60.0785 16.1196C58.6817 17.9018 57.1788 19.5202 55.6567 21.158C56.6008 22.102 57.4678 23.1232 58.2867 24.1733C59.1055 25.2329 59.8762 26.3215 60.512 27.5739C60.3001 27.5739 60.146 27.5739 60.0015 27.5739C59.1248 27.5739 58.2385 27.5739 57.3619 27.5739C57.1307 27.5739 57.0151 27.5065 56.9091 27.3042C55.9747 25.5605 54.8379 23.9613 53.5085 22.497C53.4314 22.4103 53.3447 22.3332 53.2098 22.208C53.2098 22.3718 53.2098 22.4777 53.2098 22.5837C53.2098 24.1058 53.2098 25.6183 53.2098 27.1404C53.2098 27.2078 53.2098 27.2753 53.2098 27.3427C53.2291 27.5065 53.1713 27.5835 52.9883 27.5739C52.8052 27.5643 52.6125 27.5739 52.4295 27.5739C51.7551 27.5739 51.0904 27.5739 50.4161 27.5739C50.1656 27.5739 50.1656 27.5739 50.1656 27.3138C50.1656 26.5624 50.1656 25.8206 50.1656 25.0692C50.1656 20.5799 50.1656 16.0907 50.1656 11.6015C50.1656 11.534 50.1656 11.4666 50.1656 11.3992C50.1464 11.2258 50.2041 11.1583 50.3872 11.1294C51.2446 10.9946 52.102 10.8404 52.9497 10.6959C53.0268 10.6863 53.1039 10.667 53.2002 10.6959V20.5125L53.1905 20.5221Z" fill="#373535"/>
<path d="M132.718 19.2498C132.313 17.8144 131.494 16.7161 130.059 16.1863C128.797 15.7142 127.496 15.6661 126.205 16.0707C124.433 16.6391 123.335 17.9107 122.757 19.6447C122.371 20.8104 122.342 21.9953 122.516 23.2091C122.631 23.9895 122.891 24.7409 123.335 25.4152C124.096 26.5809 125.194 27.2552 126.533 27.5828C128.44 28.0548 130.319 27.8814 132.178 27.2649C132.332 27.2167 132.361 27.1493 132.332 27.0144C132.246 26.4942 132.168 25.9932 132.082 25.4827C132.034 25.2033 132.014 24.9239 131.928 24.6349C131.841 24.6542 131.773 24.6734 131.696 24.7023C130.974 24.9335 130.242 25.1166 129.481 25.184C128.594 25.2707 127.718 25.2033 126.899 24.8179C126.09 24.4326 125.579 23.816 125.541 22.8623C125.685 22.8045 125.801 22.8334 125.926 22.8334H132.361C132.506 22.8334 132.65 22.8334 132.785 22.8334C132.93 22.8334 132.978 22.7949 132.987 22.6504C133.055 21.504 133.036 20.3576 132.708 19.2498H132.718ZM129.914 20.7333H125.56C125.598 20.2516 125.724 19.8181 125.945 19.4232C126.456 18.5272 127.332 18.2575 128.257 18.3731C129.519 18.5272 130.03 19.558 130.088 20.5599C130.088 20.6948 130.039 20.7237 129.914 20.7237V20.7333Z" fill="#373535"/>
<path d="M96.1821 19.2413C95.7968 17.9216 95.0647 16.8619 93.7545 16.2935C92.6081 15.7829 91.3943 15.6866 90.1708 15.9563C88.2152 16.3802 86.9532 17.6325 86.2885 19.4918C85.7587 20.9947 85.7394 22.536 86.1825 24.0581C86.6064 25.5128 87.5312 26.5821 88.9281 27.2179C89.7084 27.5744 90.5273 27.7381 91.375 27.8152C92.8297 27.9404 94.2458 27.7381 95.6234 27.2853C95.7872 27.2275 95.8257 27.1697 95.7968 27.006C95.7101 26.4954 95.633 25.9848 95.5463 25.4742C95.4982 25.1949 95.4789 24.9155 95.3922 24.6361C95.1899 24.7036 95.0069 24.7517 94.8335 24.8095C93.7449 25.1274 92.6563 25.3297 91.5195 25.1563C90.9126 25.0696 90.3442 24.877 89.8433 24.5013C89.2942 24.0966 89.0341 23.5379 89.0052 22.8636C89.1304 22.825 89.2556 22.8443 89.3712 22.8443H96.0377C96.1051 22.8443 96.1725 22.8443 96.2399 22.8443C96.3941 22.8636 96.4615 22.8154 96.4519 22.642C96.4519 22.4782 96.4711 22.3144 96.4711 22.1507C96.5097 21.168 96.4519 20.1951 96.1821 19.2413ZM93.5522 20.7249H89.0437C89.0726 20.2625 89.1978 19.8483 89.4194 19.4533C89.9107 18.567 90.7585 18.2587 91.7122 18.384C92.7911 18.5188 93.4559 19.2895 93.5618 20.4455C93.5618 20.5322 93.5618 20.6189 93.5618 20.7249H93.5522Z" fill="#373535"/>
<path d="M157.347 21.0137C157.308 20.3682 157.222 19.7324 157.019 19.1062C156.596 17.8154 155.844 16.7942 154.563 16.2547C153.33 15.7441 152.029 15.6671 150.748 16.0235C148.889 16.5437 147.723 17.7961 147.126 19.5879C146.654 21.0041 146.644 22.4394 147.01 23.8748C147.347 25.2139 148.108 26.2543 149.322 26.9576C150.122 27.4296 150.998 27.6608 151.914 27.7668C153.474 27.9595 154.996 27.7668 156.499 27.2755C156.682 27.2177 156.721 27.1406 156.692 26.9768C156.615 26.553 156.557 26.1291 156.48 25.7052C156.413 25.3488 156.403 24.9827 156.287 24.6263C156.095 24.6841 155.912 24.7419 155.738 24.79C154.813 25.0501 153.879 25.2524 152.916 25.1946C152.183 25.1561 151.499 25.002 150.883 24.5877C150.266 24.1735 149.91 23.6244 149.9 22.8152H157.097C157.328 22.8152 157.337 22.8152 157.347 22.5743C157.376 22.0541 157.386 21.5243 157.347 20.9848V21.0137ZM154.418 20.7247H149.891C149.968 20.1178 150.141 19.5494 150.536 19.087C151.066 18.4608 151.779 18.2874 152.559 18.3837C153.542 18.509 154.206 19.1737 154.37 20.1563C154.399 20.3393 154.457 20.5224 154.418 20.7247Z" fill="#373535"/>
<path d="M71.5038 21.6687C71.5038 23.3642 71.5038 25.0597 71.5038 26.7552C71.5038 26.8227 71.5038 26.8901 71.5038 26.9575C71.5327 27.1309 71.4556 27.208 71.2822 27.2465C70.9065 27.3236 70.5308 27.42 70.1551 27.497C69.0569 27.7186 67.9394 27.8727 66.8123 27.8438C66.215 27.8342 65.6273 27.7957 65.0493 27.6223C63.6139 27.1984 62.7854 26.2158 62.4483 24.79C62.2941 24.1349 62.2363 23.4702 62.2363 22.7959C62.2363 20.6765 62.2363 18.5475 62.2363 16.4281C62.2363 16.3607 62.2363 16.2932 62.2363 16.2258C62.2363 16.1487 62.2845 16.1102 62.3616 16.1102C62.4097 16.1102 62.4483 16.1102 62.4964 16.1102C63.3249 16.1102 64.1438 16.1102 64.9722 16.1102C65.2613 16.1102 65.2612 16.1102 65.2612 16.3992C65.2612 18.2777 65.2612 20.1659 65.2612 22.0444C65.2612 22.6417 65.2612 23.2294 65.4154 23.817C65.4347 23.8844 65.4443 23.9422 65.4635 24.0097C65.7236 24.8478 66.1475 25.1753 67.0146 25.2139C67.4095 25.2331 67.8045 25.1657 68.1995 25.1368C68.3825 25.1272 68.4307 25.0405 68.4307 24.8574C68.4307 23.7977 68.4307 22.7477 68.4307 21.688C68.4307 19.9732 68.4307 18.2585 68.4307 16.5437C68.4307 16.4762 68.4307 16.4088 68.4307 16.3414C68.4114 16.1776 68.4692 16.1005 68.6523 16.1102C68.8931 16.1294 69.1339 16.1102 69.3748 16.1102C69.9913 16.1102 70.6079 16.1102 71.2244 16.1102C71.4845 16.1102 71.4941 16.1102 71.4941 16.3799C71.4941 18.1429 71.4941 19.8962 71.4941 21.6591L71.5038 21.6687Z" fill="#373535"/>
<path d="M111.041 21.986C111.041 20.2809 111.041 18.5757 111.041 16.8706C111.041 16.7935 111.041 16.7165 111.041 16.6394C111.041 16.5045 111.089 16.4563 111.224 16.4274C112.043 16.2251 112.881 16.071 113.719 15.965C114.21 15.9072 114.702 15.888 115.203 15.8687C115.867 15.8302 116.522 15.8783 117.168 16.0228C118.671 16.36 119.586 17.2848 119.991 18.7491C120.183 19.4524 120.26 20.1749 120.26 20.8974C120.26 23.0168 120.26 25.1458 120.26 27.2652C120.26 27.5542 120.26 27.5638 119.981 27.5638C119.162 27.5638 118.353 27.5638 117.534 27.5638C117.235 27.5638 117.235 27.5638 117.235 27.2555C117.235 25.3385 117.235 23.431 117.235 21.514C117.235 20.9263 117.235 20.3483 117.081 19.7799C117.043 19.645 117.004 19.5102 116.956 19.3753C116.792 18.9033 116.436 18.6432 115.964 18.5565C115.386 18.4409 114.798 18.5179 114.22 18.5854C114.076 18.6046 114.037 18.6721 114.047 18.8069C114.047 18.884 114.047 18.9611 114.047 19.0381C114.047 21.7644 114.047 24.4907 114.047 27.2266C114.047 27.6312 114.076 27.5831 113.7 27.5831C112.929 27.5831 112.158 27.5831 111.388 27.5831C111.07 27.5831 111.041 27.6505 111.041 27.2459C111.041 25.4926 111.041 23.7489 111.041 21.9956V21.986Z" fill="#373535"/>
<path d="M140.356 16.1099C140.5 16.1099 140.606 16.1099 140.712 16.1099C142.09 16.1099 143.467 16.1099 144.835 16.1099C145.153 16.1099 145.134 16.0906 145.134 16.4181C145.134 17.0443 145.134 17.6705 145.134 18.2967C145.134 18.6146 145.173 18.605 144.835 18.605C143.467 18.605 142.109 18.605 140.741 18.605C140.683 18.605 140.635 18.605 140.577 18.605C140.414 18.5857 140.327 18.6339 140.346 18.8169C140.346 18.8554 140.346 18.9036 140.346 18.9518C140.346 20.3968 140.346 21.8322 140.346 23.2772C140.346 23.5855 140.356 23.8938 140.443 24.1924C140.597 24.7319 140.915 25.098 141.512 25.1654C142.543 25.281 143.554 25.1847 144.518 24.7704C144.643 24.7126 144.768 24.6356 144.922 24.6259C145.018 24.9535 145.047 25.3003 145.105 25.6278C145.182 26.0613 145.25 26.4948 145.317 26.9283C145.365 27.2173 145.356 27.2173 145.067 27.3137C143.747 27.7568 142.388 27.8917 141.001 27.8146C140.52 27.7857 140.038 27.7376 139.566 27.6027C138.622 27.3329 137.996 26.7164 137.658 25.8012C137.437 25.1943 137.331 24.5681 137.331 23.9227C137.321 22.285 137.321 20.6473 137.312 19.0096C137.312 18.5472 137.369 18.6146 136.907 18.605C136.242 18.605 135.587 18.605 134.922 18.605C134.768 18.605 134.682 18.5857 134.682 18.393C134.691 17.6994 134.691 17.0058 134.682 16.3122C134.682 16.1291 134.759 16.1002 134.913 16.1002C135.616 16.1002 136.319 16.1002 137.023 16.1002C137.302 16.1002 137.292 16.1002 137.292 15.8305C137.292 15.0502 137.292 14.2699 137.292 13.4896C137.292 13.2294 137.292 13.2294 137.552 13.1909C138.4 13.056 139.248 12.9212 140.086 12.7863C140.308 12.7478 140.317 12.7574 140.317 12.9886C140.317 13.8749 140.317 14.7708 140.317 15.6571C140.317 15.792 140.317 15.9172 140.317 16.1002L140.356 16.1099Z" fill="#373535"/>
<path d="M159.969 24.3657C160.393 24.5102 160.788 24.6547 161.193 24.7992C162.195 25.1653 163.225 25.3483 164.295 25.2809C164.661 25.2616 165.017 25.2231 165.374 25.146C165.663 25.0786 165.923 24.9533 165.99 24.6258C166.058 24.3079 165.923 24.0478 165.682 23.8358C165.46 23.6528 165.2 23.5372 164.931 23.4312C164.15 23.123 163.341 22.9207 162.561 22.6413C162.127 22.4871 161.713 22.2848 161.308 22.0536C159.102 20.7724 159.497 17.8149 161.183 16.707C161.809 16.2928 162.493 16.0327 163.235 15.9363C164.796 15.7244 166.347 15.8015 167.869 16.2542C168.004 16.2928 168.139 16.3506 168.273 16.3891C168.418 16.4373 168.485 16.5144 168.447 16.6781C168.302 17.4006 168.177 18.1232 168.042 18.8457C168.013 19.0191 167.936 19.0287 167.792 18.9805C167.281 18.8168 166.771 18.6337 166.25 18.5181C165.432 18.3351 164.593 18.2966 163.765 18.4218C163.505 18.4603 163.254 18.5567 163.052 18.7397C162.734 19.0383 162.715 19.4044 163.033 19.7223C163.168 19.8572 163.322 19.9535 163.486 20.0499C163.89 20.2811 164.324 20.4352 164.757 20.5797C165.374 20.7916 165.99 20.9843 166.588 21.2348C167.281 21.5238 167.917 21.9091 168.399 22.516C169.352 23.7106 169.256 26.1094 167.474 27.0631C166.886 27.381 166.26 27.5929 165.615 27.6893C164.333 27.8916 163.052 27.9108 161.78 27.6411C161.058 27.487 160.374 27.2172 159.69 26.9475C159.555 26.8993 159.526 26.8319 159.555 26.697C159.7 25.9167 159.844 25.146 159.989 24.3464L159.969 24.3657Z" fill="#373535"/>
<path d="M99.4785 22.1985C99.4785 20.5415 99.4785 18.8749 99.4785 17.2179C99.4785 16.8711 99.4785 16.8711 99.8253 16.7459C101.723 16.0619 103.679 15.7922 105.692 15.9174C106.482 15.9656 107.272 16.0619 108.043 16.2353C108.158 16.2642 108.274 16.3027 108.39 16.3316C108.496 16.3605 108.524 16.4087 108.495 16.5243C108.418 16.8904 108.351 17.2565 108.284 17.6225C108.197 18.0657 108.101 18.5088 108.033 18.952C108.004 19.135 107.927 19.1639 107.773 19.1254C107.368 19.029 106.954 18.9616 106.54 18.9038C105.297 18.7304 104.064 18.7304 102.831 18.9905C102.542 19.0579 102.542 19.0483 102.542 19.3469C102.542 21.9287 102.542 24.5202 102.542 27.1019C102.542 27.179 102.542 27.2561 102.542 27.3331C102.561 27.5162 102.475 27.5547 102.311 27.5547C101.463 27.5547 100.615 27.5547 99.7675 27.5547C99.4785 27.5547 99.4785 27.5547 99.4785 27.2657C99.4785 26.0326 99.4785 24.7995 99.4785 23.5664V22.1792V22.1985Z" fill="#373535"/>
<path d="M20.0447 38.2485C17.5882 38.2485 15.1316 38.2485 12.6847 38.2485C11.7117 38.2485 10.9507 37.8824 10.3437 37.1213C7.28028 33.3065 4.20719 29.4916 1.13409 25.6863C0.546442 24.9542 0.363403 24.1546 0.575341 23.2491C1.32676 20.0218 2.06855 16.7849 2.81033 13.5481C3.16677 11.9874 3.53284 10.4268 3.88928 8.85654C4.08195 7.98952 4.5829 7.38261 5.38248 6.99727C7.92574 5.78344 10.4593 4.56962 13.0026 3.35579C14.9486 2.43097 16.8946 1.50615 18.8405 0.571701C19.6498 0.18636 20.4493 0.176724 21.2585 0.562066C23.3876 1.58322 25.5262 2.59474 27.6552 3.6159C29.9576 4.71412 32.26 5.81234 34.5625 6.91056C34.6588 6.95873 34.7648 7.0069 34.8611 7.05507C35.574 7.43078 36.0364 7.99916 36.2194 8.78911C36.7878 11.2553 37.3562 13.7118 37.9246 16.178C38.464 18.519 38.9939 20.8696 39.543 23.2105C39.7646 24.1353 39.5912 24.9446 38.9939 25.6767C37.6163 27.3722 36.2483 29.087 34.8804 30.7921C33.1752 32.9211 31.4605 35.0405 29.7553 37.1695C29.3122 37.7282 28.7631 38.0943 28.0502 38.2003C27.7708 38.2485 27.4818 38.2388 27.1928 38.2388C24.8133 38.2388 22.4338 38.2388 20.064 38.2388L20.0447 38.2485Z" fill="#466CB4"/>
<path d="M28.8856 14.1262C29.3191 14.7813 29.6755 15.4846 29.9549 16.236C30.4655 17.6039 30.6871 19.0201 30.6293 20.4747C30.6293 20.7059 30.6004 20.9371 30.5715 21.1684C30.5522 21.3321 30.5714 21.4574 30.7545 21.4863C30.8219 21.4959 30.8894 21.5248 30.9183 21.5826C31.082 21.8523 31.3518 21.9005 31.6215 21.9583C32.161 22.0739 32.7101 22.0932 33.2592 22.1413C33.4615 22.1606 33.6542 22.1991 33.8372 22.2762C34.2611 22.4592 34.4827 22.8542 34.3767 23.2492C34.2707 23.6634 33.8757 23.9139 33.4037 23.8561C33.1629 23.8272 32.9317 23.7405 32.7101 23.6538C32.1802 23.4419 31.6504 23.2299 31.0821 23.1143C30.899 23.0758 30.7352 23.0758 30.5811 23.1914C30.5233 23.2396 30.4462 23.2974 30.3691 23.2588C30.109 23.1529 30.0802 23.3455 30.0224 23.5093C29.1842 25.7925 27.7488 27.6132 25.6873 28.9234C25.5331 29.0197 25.4175 29.1064 25.5428 29.3087C25.5813 29.3665 25.5717 29.4436 25.5428 29.5014C25.4464 29.7326 25.5331 29.9252 25.6295 30.1275C25.8703 30.6092 26.1689 31.062 26.4772 31.5051C26.641 31.7267 26.7662 31.9675 26.8337 32.2373C26.9396 32.6612 26.7758 33.0465 26.4194 33.2103C26.0533 33.3837 25.6198 33.2584 25.3693 32.9116C25.1863 32.6612 25.0996 32.3625 25.0129 32.0639C24.8684 31.5629 24.695 31.0813 24.4734 30.6092C24.3867 30.4165 24.2615 30.272 24.0688 30.2046C23.9918 30.1757 23.9147 30.1468 23.8954 30.0697C23.8183 29.8289 23.6642 29.906 23.5101 29.9541C22.3733 30.3491 21.2077 30.5322 20.0131 30.5225C18.8378 30.5225 17.6914 30.3298 16.5836 29.9349C16.4102 29.8674 16.2753 29.8482 16.1982 30.0601C16.1693 30.1468 16.0826 30.1853 15.9959 30.2142C15.7936 30.2817 15.678 30.4358 15.5913 30.6189C15.3601 31.1005 15.206 31.6015 15.0518 32.1024C14.9748 32.3625 14.8881 32.6226 14.7339 32.8635C14.5894 33.085 14.3871 33.2295 14.127 33.2777C13.5586 33.374 13.1059 32.8635 13.2311 32.2855C13.2889 31.9965 13.443 31.7556 13.6068 31.5244C13.9343 31.062 14.2522 30.5803 14.5027 30.0601C14.5894 29.8867 14.6376 29.7133 14.5605 29.5206C14.522 29.4243 14.5316 29.328 14.5798 29.2413C14.6761 29.0775 14.5991 29.0004 14.4546 28.9041C13.732 28.4706 13.0962 27.9407 12.4989 27.3338C11.4296 26.2452 10.63 24.9832 10.1002 23.5478C10.0809 23.49 10.052 23.4226 10.0328 23.3648C10.0039 23.2492 9.93641 23.1914 9.81118 23.2299C9.70521 23.2685 9.59924 23.2588 9.49327 23.1914C9.29097 23.0469 9.07904 23.0854 8.85747 23.1336C8.31799 23.2685 7.8074 23.4611 7.29682 23.6731C7.04635 23.7694 6.80551 23.8561 6.52614 23.8465C6.43944 23.8465 6.35275 23.8465 6.26604 23.8176C5.92887 23.7309 5.69765 23.4419 5.66875 23.1047C5.63985 22.7868 5.84217 22.4592 6.16007 22.3051C6.43945 22.1702 6.74771 22.1317 7.05599 22.1124C7.5762 22.0835 8.08678 22.0354 8.59736 21.9198C8.81893 21.8716 9.02123 21.8138 9.13683 21.5922C9.185 21.4959 9.28134 21.4574 9.37767 21.4381C9.50291 21.4092 9.55108 21.3514 9.53181 21.2069C9.23317 18.7407 9.74374 16.4383 11.0443 14.3189C11.1406 14.1551 11.1984 14.0299 11.0057 13.9047C10.9576 13.8758 10.9479 13.818 10.9383 13.7602C10.9383 13.5001 10.7745 13.3363 10.5819 13.1918C10.1965 12.8931 9.79192 12.633 9.36804 12.4018C9.15611 12.2862 8.94416 12.161 8.76113 12.0069C8.57809 11.8624 8.43359 11.6793 8.37579 11.4481C8.24092 10.8219 8.76112 10.3403 9.3873 10.504C9.61851 10.5618 9.81118 10.6871 9.97495 10.8605C10.2158 11.1109 10.4566 11.371 10.7071 11.6215C10.9479 11.8624 11.1888 12.1032 11.4681 12.3055C11.603 12.4115 11.7475 12.4789 11.9209 12.4596C11.9884 12.4596 12.0654 12.4404 12.1136 12.4885C12.3063 12.6716 12.4315 12.556 12.576 12.4115C14.2426 10.7545 16.2464 9.80078 18.5584 9.44434C18.6451 9.43471 18.7318 9.42507 18.8185 9.42507C19.0016 9.41543 19.1461 9.36727 19.1268 9.13607C19.1268 9.06863 19.1557 9.01083 19.2135 8.96266C19.3869 8.80853 19.4062 8.60622 19.4158 8.39428C19.4158 7.81627 19.3291 7.25753 19.2424 6.68915C19.2039 6.41941 19.175 6.14004 19.252 5.8703C19.3677 5.45606 19.7241 5.18631 20.0998 5.22484C20.5044 5.26338 20.8127 5.58129 20.8512 6.01479C20.8705 6.246 20.8608 6.47721 20.8223 6.70841C20.726 7.27679 20.6393 7.83554 20.6489 8.41355C20.6489 8.60622 20.6778 8.78926 20.8223 8.92413C20.8897 8.99156 20.9379 9.05899 20.9283 9.15533C20.909 9.36727 21.0439 9.4058 21.2173 9.42507C22.8165 9.58884 24.3 10.1283 25.6584 10.9857C26.3134 11.3903 26.9107 11.872 27.4695 12.4115C27.6525 12.5945 27.6525 12.5945 27.8933 12.4789C27.9415 12.45 27.9897 12.4307 28.0475 12.4404C28.3461 12.4982 28.5581 12.344 28.7604 12.1706C29.1457 11.8431 29.4925 11.477 29.8393 11.1013C30.0127 10.9183 30.1861 10.7352 30.4077 10.6004C30.5811 10.4944 30.7738 10.4366 30.9761 10.4559C31.5926 10.504 31.9009 11.1398 31.583 11.6793C31.4288 11.9394 31.1976 12.0936 30.9472 12.2477C30.6196 12.45 30.2825 12.6427 29.9549 12.845C29.7911 12.9509 29.637 13.0762 29.4732 13.1918C29.2902 13.3267 29.1361 13.4808 29.1264 13.7216C29.1168 13.9047 28.9338 13.9528 28.8663 14.107L28.8856 14.1262Z" fill="white"/>
<path d="M14.1796 13.914C14.247 13.7791 14.3722 13.702 14.4782 13.6057C15.7209 12.5267 17.1563 11.862 18.7748 11.6019C18.9867 11.5634 19.0156 11.5826 18.9963 11.7946C18.9193 13.1433 18.8422 14.492 18.7555 15.8407C18.7169 16.4283 18.1582 16.7173 17.6573 16.3994C17.2141 16.12 16.7902 15.8021 16.3567 15.4939C15.7306 15.0507 15.1044 14.6076 14.4782 14.1548C14.3722 14.0777 14.247 14.0199 14.1699 13.9043L14.1796 13.914Z" fill="#466CB4"/>
<path d="M27.2694 15.5908C28.2135 17.1707 28.5988 18.8951 28.464 20.7448C28.358 20.7929 28.2616 20.7448 28.1749 20.7255C26.9707 20.3787 25.7665 20.0319 24.5624 19.6851C24.4757 19.6562 24.389 19.6369 24.3119 19.5984C23.7628 19.3672 23.6472 18.7892 24.0711 18.3749C24.3119 18.1341 24.572 17.9221 24.8321 17.6909C25.5739 17.0359 26.306 16.3711 27.0478 15.7161C27.1056 15.6679 27.1441 15.5908 27.2694 15.5908Z" fill="#466CB4"/>
<path d="M24.6312 27.0254C24.3808 26.4185 24.1399 25.8405 23.8991 25.2721C23.6004 24.54 23.2922 23.8174 22.9935 23.0853C22.8587 22.7481 22.9646 22.411 23.2537 22.2183C23.4271 22.1027 23.6101 22.1027 23.7931 22.1412C24.3422 22.2279 24.901 22.3242 25.4501 22.4109C26.2111 22.5362 26.9625 22.6711 27.7236 22.7963C27.9837 22.8445 27.9933 22.8541 27.9066 23.0853C27.2516 24.6941 26.2111 25.9946 24.7661 26.9676C24.7372 26.9869 24.7083 26.9965 24.6409 27.0254H24.6312Z" fill="#466CB4"/>
<path d="M12.8665 15.5908C13.3386 16.0147 13.8106 16.4193 14.273 16.8432C14.851 17.3634 15.429 17.8836 16.0167 18.4038C16.2479 18.6061 16.325 18.847 16.2479 19.1456C16.1805 19.4057 15.9974 19.5502 15.747 19.6273C15.2749 19.7621 14.8029 19.9066 14.3212 20.0415C13.5216 20.2727 12.722 20.5039 11.9224 20.7351C11.672 20.8026 11.6527 20.7929 11.6334 20.5521C11.5275 18.8566 11.8839 17.2574 12.7124 15.7642C12.7413 15.7064 12.7702 15.639 12.8665 15.5908Z" fill="#466CB4"/>
<path d="M21.1515 11.5825C22.9819 11.8426 24.5522 12.6229 25.9298 13.9042C25.7371 14.0391 25.5733 14.1643 25.3999 14.2799C24.427 14.9639 23.4636 15.6479 22.4906 16.3415C22.2594 16.5053 22.0186 16.5823 21.7489 16.4571C21.4984 16.3415 21.3442 16.1584 21.325 15.8791C21.2479 14.4822 21.1708 13.095 21.0938 11.6981C21.0938 11.6692 21.113 11.6403 21.1323 11.5921L21.1515 11.5825Z" fill="#466CB4"/>
<path d="M12.162 22.8444C12.6436 22.7577 13.0964 22.6806 13.5492 22.6035C14.4259 22.459 15.3025 22.3049 16.1792 22.1604C16.2659 22.1508 16.3526 22.1315 16.4393 22.1315C16.9113 22.1122 17.2485 22.5265 17.1425 22.9793C17.1232 23.0852 17.0751 23.1912 17.0365 23.2875C16.5549 24.4532 16.0732 25.6188 15.5819 26.7845C15.4855 27.0157 15.4759 27.0157 15.264 26.8712C13.8478 25.879 12.8171 24.5881 12.1812 22.9696C12.1716 22.9407 12.162 22.9118 12.1523 22.8348L12.162 22.8444Z" fill="#466CB4"/>
<path d="M17.4042 27.9213C17.7124 27.3626 18.0111 26.8327 18.3001 26.2932C18.6661 25.6285 19.0419 24.9734 19.3983 24.3087C19.5428 24.039 19.7355 23.856 20.063 23.856C20.3713 23.856 20.564 24.0197 20.7085 24.2895C21.3732 25.5033 22.0475 26.7075 22.7219 27.9117C21.5177 28.4897 19.0322 28.5764 17.3945 27.9309L17.4042 27.9213Z" fill="#466CB4"/>
<path d="M20.056 18.6154C20.5377 18.4805 20.8074 18.7117 21.106 19.0682C21.4336 19.4535 21.501 19.8003 21.3854 20.282C21.2794 20.7155 21.106 20.966 20.7014 21.1298C19.9115 21.4573 20.2198 21.4477 19.4298 21.1298C18.9963 20.9564 18.8229 20.6866 18.7458 20.2435C18.6109 19.4439 18.5242 19.7329 19.0156 19.0971C19.0156 19.0971 19.0348 19.0778 19.0348 19.0682C19.266 18.6732 19.5839 18.4516 20.0656 18.5961L20.056 18.6154Z" fill="#476CB4"/>
</svg>
