<svg width="78" height="47" viewBox="0 0 78 47" fill="none" xmlns="http://www.w3.org/2000/svg">
<path d="M33.2013 19.2648C34.5258 13.6204 35.8378 8.06267 37.1499 2.50492C37.4346 1.31663 37.7193 1.08145 38.9695 1.08145C39.6255 1.08145 40.2939 1.05669 40.95 1.09382C41.7669 1.14334 42.0392 1.3909 42.2373 2.1831C42.423 2.9134 42.5962 3.65608 42.7695 4.39876C43.9455 9.38712 45.1214 14.3755 46.3097 19.3762C46.3097 19.3762 46.3221 19.3886 46.3592 19.4257C46.5325 18.7449 46.7181 18.0889 46.8914 17.4329C48.1664 12.4693 49.4537 7.50565 50.7286 2.54205C51.0505 1.31663 51.3475 1.08145 52.6101 1.08145C53.2414 1.08145 53.885 1.08145 54.5163 1.08145C55.1971 1.08145 55.4323 1.34138 55.2961 1.99742C55.061 3.17333 54.6277 4.29975 54.2688 5.4509C52.5111 11.1324 50.7286 16.8016 48.9586 22.4831C48.5748 23.7209 48.3273 23.9066 47.0276 23.8942C46.2849 23.8942 45.5546 23.9189 44.8119 23.8694C44.2302 23.8323 43.9083 23.5105 43.7598 22.9782C43.537 22.1613 43.3513 21.332 43.1533 20.5026C42.0269 15.8237 40.9005 11.1448 39.7864 6.4659C39.7617 6.36687 39.7245 6.26784 39.675 6.09455C39.4275 7.13431 39.1923 8.08743 38.9571 9.05292C37.8802 13.5338 36.8157 18.0146 35.7388 22.4955C35.7017 22.6688 35.6398 22.8297 35.5903 23.003C35.417 23.56 35.0333 23.8199 34.4515 23.8199C33.5727 23.8199 32.6938 23.8199 31.815 23.8199C31.2208 23.8199 30.8123 23.5476 30.639 22.9906C30.342 22.0746 30.0449 21.1587 29.7726 20.2427C27.9901 14.4126 26.2201 8.57017 24.45 2.74011C24.351 2.4059 24.2272 2.05932 24.2148 1.70036C24.2148 1.29188 24.3881 1.05669 24.7966 1.05669C25.7745 1.05669 26.7523 1.00718 27.7302 1.08145C28.2006 1.11859 28.4976 1.35376 28.6709 1.78699C29.0175 2.67821 29.1908 3.60657 29.426 4.53492C30.6514 9.32523 31.8645 14.1279 33.0899 18.9306C33.1023 19.0049 33.1394 19.0668 33.2013 19.2401V19.2648Z" fill="#262F3E"/>
<path d="M37.8076 46.5829C24.9716 46.3229 13.4229 42.3743 3.2605 34.4648C2.28263 33.7097 1.35427 32.9051 0.425919 32.0882C0.302139 31.9768 0.190736 31.853 0.116468 31.7044C-0.00731285 31.4569 -0.0196924 31.2093 0.1536 30.9865C0.326893 30.7637 0.56208 30.7018 0.834397 30.7514C1.0572 30.7885 1.24287 30.8999 1.42854 31.0113C5.5133 33.3507 9.78372 35.2817 14.2398 36.8042C18.5845 38.2896 23.0159 39.3912 27.5586 40.1092C31.4825 40.7281 35.4311 41.0375 39.4044 41.0499C42.7589 41.0499 46.1009 40.8023 49.4306 40.3443C56.0158 39.4407 62.3781 37.7202 68.5052 35.1455C68.8518 34.997 69.1984 34.898 69.5821 34.9723C70.4362 35.1332 70.7828 36.0491 70.2134 36.7176C70.0896 36.8661 69.9163 37.0023 69.7554 37.1137C65.7944 39.9978 61.425 42.0525 56.7956 43.5874C53.6144 44.6519 50.359 45.4193 47.0293 45.9268C43.9719 46.3972 40.9022 46.6324 37.7953 46.5829H37.8076Z" fill="#F8991D"/>
<path d="M22.9395 21.3928C21.974 19.7712 21.7264 18.0136 21.7512 16.1692C21.7759 13.8298 21.7512 11.4903 21.7512 9.16325C21.7512 8.28441 21.714 7.41795 21.5655 6.55148C21.0456 3.65502 19.486 1.67453 16.5648 0.919464C13.9282 0.238671 11.2793 0.350075 8.65519 1.01849C7.56592 1.30319 6.48902 1.66215 5.49878 2.1944C5.20171 2.35532 4.89225 2.52861 4.81798 2.8752C4.65707 3.64264 4.66945 4.41007 4.79323 5.18989C4.84274 5.54885 5.0903 5.68501 5.43689 5.59837C5.77109 5.51172 6.09292 5.40032 6.41475 5.27654C8.76658 4.34819 11.1679 3.76643 13.7302 4.10063C15.6983 4.34819 16.7876 5.1899 17.2703 6.92283C17.6417 8.24728 17.5303 9.62123 17.5426 10.9704C17.5426 11.2056 17.3817 11.1066 17.2827 11.0819C16.4781 10.8962 15.6735 10.7353 14.8566 10.6115C12.9504 10.3268 11.0442 10.2154 9.13793 10.6486C7.08317 11.119 5.36262 12.1216 4.21146 13.9412C3.29548 15.3894 3.08506 16.9986 3.28311 18.6696C3.58018 21.1576 4.83036 23.0019 7.21933 23.9055C9.50927 24.772 11.8116 24.5987 14.052 23.7075C15.5374 23.1257 16.7381 22.1478 17.8149 20.8976C17.9387 21.1452 18.0378 21.3433 18.1368 21.5413C18.4957 22.2592 18.9042 22.94 19.4612 23.5218C19.8945 23.9798 20.3277 24.1036 20.7857 23.8312C21.4417 23.4351 22.073 23.0143 22.6795 22.5687C23.1375 22.2221 23.2242 21.8508 22.9271 21.368L22.9395 21.3928ZM17.4188 16.8871C17.1218 18.5953 16.0449 19.6846 14.5471 20.3901C13.2722 20.9843 11.9106 21.2071 10.4995 21.0214C9.07604 20.8358 8.07342 19.8703 7.81348 18.4592C7.62781 17.4565 7.64019 16.4539 8.12293 15.5256C8.76659 14.2754 9.90537 13.7926 11.2051 13.5698C11.7992 13.4708 12.3934 13.4708 12.9875 13.4708C14.4234 13.4708 15.8221 13.6689 17.2208 13.9536C17.4807 14.0031 17.5921 14.1021 17.5798 14.3992C17.5674 15.2409 17.555 16.0702 17.4065 16.8995L17.4188 16.8871Z" fill="#262F3E"/>
<path d="M65.1147 24.562C62.8743 24.562 60.8938 24.1907 58.9999 23.4728C57.3784 22.8662 57.168 22.5444 57.168 20.8115C57.168 20.5639 57.168 20.304 57.2051 20.0564C57.267 19.648 57.5269 19.4746 57.9354 19.5365C58.2449 19.586 58.5172 19.7098 58.8019 19.8336C60.9804 20.7991 63.2703 21.1705 65.6346 21.0343C66.6867 20.9724 67.6893 20.7496 68.5929 20.1678C70.2144 19.1157 70.3754 16.442 68.3825 15.4147C67.3056 14.8576 66.1421 14.5482 65.0033 14.1769C63.6541 13.7436 62.2677 13.4094 61.0052 12.7534C59.0742 11.7507 57.8612 10.2035 57.5269 8.0497C57.1804 5.85879 57.9107 4.02685 59.5569 2.55386C61.0299 1.24179 62.8 0.635255 64.731 0.47434C66.9219 0.288669 69.0633 0.610507 71.1304 1.35319C71.3285 1.42746 71.5265 1.51409 71.7246 1.61312C72.5291 1.99684 72.95 2.60337 72.8634 3.51935C72.8386 3.80405 72.8634 4.10111 72.8634 4.39818C72.8386 5.10373 72.5168 5.33892 71.8483 5.11611C71.6503 5.05422 71.4646 4.96758 71.279 4.89331C69.0262 3.92783 66.6867 3.65551 64.273 4.10112C63.9388 4.16301 63.6169 4.27441 63.2951 4.42294C61.3889 5.28941 61.1413 7.76502 62.8371 8.99045C63.5922 9.53508 64.471 9.84453 65.3499 10.1416C66.8971 10.6615 68.4815 11.07 70.004 11.6765C71.5265 12.283 72.8138 13.199 73.5441 14.7339C74.8562 17.4818 73.9774 20.8239 71.4027 22.7301C70.0288 23.7575 68.4196 24.2155 66.7486 24.463C66.1421 24.5497 65.5355 24.562 65.1271 24.562H65.1147Z" fill="#262F3E"/>
<path d="M71.9477 29.1912C73.2598 29.2284 74.6338 29.3026 75.9582 29.7111C76.1439 29.7606 76.3172 29.8473 76.4905 29.9092C77.0846 30.1196 77.2455 30.6147 77.2827 31.1717C77.3817 32.818 77.0599 34.4024 76.5895 35.962C75.8221 38.4872 74.6709 40.7895 72.7647 42.6586C72.5419 42.8814 72.2943 43.0918 72.0467 43.2775C71.8116 43.4384 71.5269 43.5498 71.2669 43.3394C71.007 43.1289 71.1184 42.8566 71.2174 42.5967C71.8858 40.938 72.5419 39.2794 73.0494 37.5588C73.3836 36.4448 73.7054 35.3184 73.7054 34.1301C73.7054 33.1275 73.3836 32.7066 72.4057 32.4467C71.762 32.2858 71.106 32.2239 70.45 32.1991C68.2467 32.1372 66.0558 32.3724 63.8772 32.6323C63.7039 32.6571 63.5183 32.6695 63.345 32.6695C62.887 32.6571 62.7261 32.3353 62.9489 31.9268C63.0726 31.704 63.2583 31.5678 63.4687 31.4317C65.1645 30.2929 67.0708 29.6988 69.0636 29.3893C70.0044 29.2408 70.9575 29.1913 71.9725 29.1665L71.9477 29.1912Z" fill="#F8991D"/>
</svg>
