<svg width="122" height="42" viewBox="0 0 122 42" fill="none" xmlns="http://www.w3.org/2000/svg">
<path d="M0.580078 9.65132C0.909851 9.04454 1.50344 8.79391 2.08384 8.55648C5.0518 7.38248 8.03294 6.22168 11.0009 5.06088C14.6152 3.66265 18.2163 2.23803 21.857 0.892562C22.6353 0.602362 23.4135 0.351731 24.2182 0.167058C25.3526 -0.0835693 26.4738 0.0219628 27.5687 0.378117C29.2967 0.945326 30.9851 1.64444 32.6736 2.30399C37.4223 4.15072 42.1446 6.03701 46.9065 7.85736C47.2891 8.00246 47.6584 8.17394 48.0146 8.385C48.4103 8.62243 48.6214 8.93902 48.6082 9.44027C48.5818 10.8517 48.6082 12.2763 48.6082 13.6877C48.6082 13.7669 48.6082 13.8592 48.595 13.9384C48.4895 13.846 48.529 13.7141 48.529 13.6086C48.529 12.2631 48.529 10.9045 48.529 9.54579C48.0805 10.1262 47.4606 10.4428 46.8406 10.7725C45.5347 11.4453 44.176 12.0125 42.8306 12.6061C40.1 13.7933 37.3695 14.9673 34.639 16.1412C32.9638 16.8667 31.3017 17.5791 29.6528 18.3309C28.7427 18.7399 27.8721 19.2015 26.9619 19.5973C26.0649 19.9798 25.1415 20.2568 24.1522 20.2304C23.308 20.204 22.5166 19.9798 21.7647 19.6368C20.2873 18.9641 18.7835 18.3309 17.2798 17.6978C14.391 16.4842 11.5021 15.2838 8.61334 14.0835C6.9381 13.3843 5.26285 12.6852 3.5876 11.9597C2.75658 11.6036 1.89917 11.2474 1.16048 10.6934C0.962615 10.5483 0.777941 10.39 0.672414 10.1658C0.646032 10.0998 0.646033 10.0339 0.606461 9.9679V9.63813L0.580078 9.65132Z" fill="#DD392B"/>
<path d="M48.5823 30.1369C48.5427 30.4798 48.3185 30.6777 48.081 30.8756C47.5666 31.2845 46.9994 31.6011 46.419 31.8913C44.5854 32.7882 42.6991 33.5797 40.826 34.3844C37.093 36.0068 33.3468 37.5765 29.6533 39.2518C28.6376 39.7135 27.6615 40.2543 26.6326 40.6764C25.0101 41.3623 23.414 41.3228 21.8179 40.6104C17.122 38.4867 12.3205 36.6004 7.57174 34.5822C5.77778 33.8171 3.95743 33.0916 2.20304 32.2474C1.91284 32.1023 1.63583 31.944 1.35882 31.7725C1.04224 31.5747 0.791614 31.3109 0.59375 31.0075V30.9547C0.633323 30.8756 0.620131 30.7964 0.620131 30.7305C0.620131 29.2663 0.620131 27.7889 0.620131 26.3247C0.646513 26.1664 0.725659 26.2587 0.765232 26.2983C0.870759 26.417 0.963096 26.5357 1.095 26.6413C1.64902 27.0898 2.28219 27.3932 2.91535 27.6702C7.03091 29.4773 11.1861 31.1658 15.328 32.907C17.2275 33.6984 19.127 34.4899 21.0133 35.3209C21.5805 35.5715 22.1213 35.8485 22.7149 36.02C23.2557 36.1783 23.8229 36.2838 24.3902 36.2706C24.9046 36.2443 25.419 36.1519 25.9203 35.9936C26.5403 35.7958 27.1471 35.5583 27.7406 35.2549C29.4027 34.4107 31.1175 33.6852 32.8323 32.9333C35.576 31.733 38.3197 30.5722 41.0635 29.385C42.5936 28.7254 44.1238 28.0659 45.6407 27.3668C46.419 27.0106 47.184 26.6149 47.8832 26.1136C48.081 25.9685 48.2525 25.7971 48.4108 25.6124C48.4504 25.5596 48.4899 25.4937 48.5559 25.4673C48.6219 25.4937 48.6087 25.5464 48.6087 25.586C48.6087 27.0766 48.6087 28.5803 48.6087 30.0709C48.6087 30.0973 48.6087 30.1237 48.5955 30.1369H48.5823Z" fill="#A42523"/>
<path d="M0.660215 10.1254C0.924033 10.5607 1.34614 10.8113 1.76825 11.0488C2.75757 11.616 3.82603 12.0249 4.86811 12.4734C6.31911 13.1066 7.7833 13.7133 9.2475 14.3201C10.4874 14.8478 11.7406 15.3622 12.9805 15.8767C14.4975 16.5098 16.0144 17.143 17.5182 17.7761C18.6526 18.251 19.7738 18.7259 20.8951 19.214C21.4623 19.4514 22.0031 19.7284 22.5967 19.9131C23.6915 20.2692 24.7864 20.2428 25.8812 19.9131C26.7386 19.6493 27.5433 19.2535 28.3479 18.8578C29.8517 18.1323 31.395 17.4727 32.9252 16.8C34.2838 16.2196 35.6293 15.626 36.988 15.0324C38.2807 14.4784 39.5734 13.9244 40.8529 13.3704C41.9214 12.9087 42.9898 12.447 44.0451 11.9721C44.9817 11.5632 45.9182 11.1543 46.8152 10.6794C47.3165 10.4156 47.8309 10.1386 48.2398 9.72969C48.3322 9.62416 48.4245 9.51864 48.5432 9.37354C48.5432 9.46587 48.5432 9.53182 48.5432 9.59778C48.5432 10.9564 48.5432 12.3019 48.5432 13.6606C48.5432 13.7529 48.5432 13.8453 48.5432 13.9376C48.5432 14.3201 48.2926 14.5576 48.042 14.7686C47.5143 15.1907 46.9207 15.5073 46.314 15.7975C46.2744 15.9294 46.1557 15.969 46.0501 16.0086C45.1004 16.4439 44.1506 16.8792 43.1877 17.2881C40.8002 18.3302 38.3994 19.3591 35.9987 20.3879C34.1124 21.1926 32.2261 22.0104 30.353 22.8415C29.4296 23.2504 28.5194 23.6725 27.6224 24.121C27.042 24.4112 26.4353 24.6618 25.8021 24.8465C24.417 25.2686 23.098 25.0971 21.8052 24.5167C18.745 23.1316 15.6319 21.8785 12.532 20.5858C9.44536 19.2931 6.35869 18.0268 3.28521 16.6945C3.11372 16.6153 2.94224 16.523 2.77076 16.4439C2.19036 16.18 1.60996 15.9162 1.09551 15.5337C0.871269 15.3622 0.647024 15.1643 0.554688 14.8741V14.8214C0.59426 14.7422 0.581069 14.6499 0.581069 14.5708C0.581069 13.1593 0.581069 11.7347 0.581069 10.3233C0.581069 10.2573 0.515114 10.1518 0.647023 10.1122L0.660215 10.1254Z" fill="#A42523"/>
<path d="M2.80982 16.4178C4.06296 17.0114 5.34248 17.5259 6.6088 18.0667C8.09938 18.6998 9.60314 19.3198 11.1069 19.953C12.2545 20.4279 13.4021 20.9027 14.5497 21.3776C15.9743 21.9712 17.3858 22.578 18.8104 23.1584C20.0108 23.6464 21.1716 24.2136 22.3851 24.6885C23.5591 25.1502 24.7463 25.1502 25.9467 24.7809C26.5007 24.6094 27.0283 24.3983 27.5428 24.1477C29.2576 23.2903 30.9988 22.5384 32.7532 21.7733C34.4416 21.0478 36.1169 20.3091 37.8053 19.5836C39.4674 18.8713 41.1294 18.159 42.7783 17.4467C43.8995 16.9587 45.0075 16.4442 46.1288 15.9429C46.2079 15.9034 46.2739 15.8638 46.353 15.811C46.4322 15.9298 46.5772 15.943 46.696 15.9825C47.1708 16.1672 47.6457 16.3519 48.081 16.6289C48.4504 16.8663 48.6218 17.1697 48.6218 17.6314C48.6087 19.0824 48.6218 20.5334 48.6218 21.9976C48.6218 22.0899 48.6482 22.1822 48.5955 22.2746C48.5163 22.2218 48.5295 22.1295 48.5295 22.0635C48.5295 20.6521 48.5295 19.2275 48.5295 17.8161C48.5295 17.7897 48.5295 17.7633 48.5559 17.7105C48.3448 18.1063 48.0019 18.3041 47.6853 18.5152C46.9862 18.9769 46.2211 19.333 45.456 19.6892C43.0157 20.7972 40.5622 21.8393 38.0955 22.8946C36.473 23.5937 34.8505 24.2796 33.2412 24.9787C31.3549 25.7966 29.4686 26.6012 27.6351 27.5246C26.6986 27.9994 25.7224 28.3556 24.654 28.4611C23.9021 28.5271 23.1634 28.4084 22.4511 28.1445C21.2243 27.6829 20.0371 27.1025 18.8236 26.588C16.9637 25.8098 15.0906 25.0315 13.2306 24.2532C10.0252 22.9209 6.81986 21.6018 3.62766 20.23C2.87578 19.9002 2.1107 19.5704 1.41159 19.122C1.1082 18.9241 0.778422 18.7262 0.633322 18.3569C0.606941 18.3173 0.633323 18.2645 0.59375 18.225V17.8424C0.659705 17.5918 0.831186 17.4335 1.02905 17.2884C1.58307 16.9059 2.20304 16.6684 2.82301 16.431L2.80982 16.4178Z" fill="#DD392B"/>
<path d="M48.5818 30.1365C48.5818 28.6855 48.5818 27.2213 48.5818 25.7703C48.5818 25.6911 48.5818 25.5988 48.5818 25.4669C48.1861 26.0605 47.632 26.377 47.0648 26.6936C45.6138 27.5115 44.0705 28.1314 42.5404 28.791C40.9574 29.4769 39.3877 30.1628 37.8048 30.8488C36.2879 31.5083 34.7577 32.1415 33.2408 32.801C31.8953 33.3946 30.5498 33.975 29.2175 34.5818C28.1491 35.0699 27.1202 35.6635 25.9858 36.0064C25.3526 36.2043 24.7062 36.3362 24.0467 36.2966C23.2289 36.2439 22.4638 36.0196 21.7251 35.6766C20.3532 35.0435 18.9682 34.4631 17.57 33.8827C16.0002 33.2231 14.4437 32.5768 12.874 31.9172C10.6975 31.0071 8.521 30.1233 6.3577 29.1999C4.85393 28.5536 3.33698 27.96 1.88598 27.2081C1.4111 26.9574 0.949423 26.6673 0.632842 26.2056C0.580078 26.166 0.632842 26.1 0.580078 26.0737V25.7966C0.632842 25.4537 0.870278 25.269 1.12091 25.0975C1.54301 24.8205 2.0047 24.6095 2.47957 24.4512C2.57191 24.4512 2.66424 24.4908 2.74339 24.5303C4.11524 25.1767 5.52667 25.7439 6.9249 26.3243C9.93243 27.5906 12.9531 28.8306 15.9739 30.0837C17.3853 30.6773 18.8099 31.2709 20.2213 31.8645C20.96 32.1811 21.6723 32.5504 22.4242 32.8274C23.5982 33.2627 24.7722 33.2759 25.9594 32.8934C26.7508 32.6427 27.4895 32.2734 28.2282 31.9172C29.8639 31.1258 31.5391 30.4135 33.2012 29.688C35.4305 28.7118 37.6861 27.7621 39.9154 26.7992C41.4719 26.1264 43.0284 25.4669 44.5718 24.7678C45.1785 24.5039 45.7853 24.2401 46.3657 23.9235C46.4581 23.8708 46.5504 23.7916 46.6691 23.8576C46.9989 24.0027 47.3287 24.1478 47.6584 24.2929C47.8035 24.3588 47.9354 24.438 48.0673 24.5303C48.4499 24.7678 48.6214 25.0843 48.6082 25.546C48.5818 26.9838 48.6082 28.4216 48.6082 29.8595C48.6082 29.9518 48.6346 30.0441 48.5818 30.1365Z" fill="#DD392B"/>
<path d="M0.659224 10.1266C0.580079 10.2057 0.61965 10.3112 0.61965 10.3904C0.61965 11.7886 0.61965 13.1737 0.61965 14.5719C0.61965 14.6642 0.659224 14.7566 0.580078 14.8357V9.96826C0.580078 9.96826 0.646032 10.0606 0.672414 10.1134L0.659224 10.1266Z" fill="#A8362A"/>
<path d="M0.61965 23.0657C0.61965 23.0657 0.593269 23.0657 0.580078 23.0657C0.580078 21.4432 0.580078 19.8207 0.580078 18.1982C0.619651 18.2114 0.632842 18.251 0.632842 18.2906C0.685605 18.4357 0.711988 18.5808 0.711988 18.7259C0.711988 20.045 0.711988 21.3641 0.711988 22.6831C0.711988 22.8151 0.738369 22.947 0.632842 23.0657H0.61965Z" fill="#A7362A"/>
<path d="M0.580078 26.0732C0.580078 26.0732 0.632842 26.1656 0.632842 26.2052C0.632842 27.6957 0.632842 29.1731 0.632842 30.6637C0.632842 30.756 0.672415 30.8484 0.593269 30.9275V26.0601L0.580078 26.0732Z" fill="#A7362A"/>
<path d="M0.621094 23.066C0.621094 21.4699 0.621094 19.887 0.621094 18.2909C0.950866 18.8186 1.4785 19.1088 2.00614 19.3858C3.08779 19.953 4.2354 20.4147 5.35663 20.8895C6.88678 21.5359 8.43011 22.1823 9.96026 22.8286C11.0947 23.3035 12.2423 23.7652 13.3767 24.24C14.8805 24.8732 16.3974 25.4932 17.9012 26.1263C19.4313 26.7727 20.9351 27.4454 22.4784 28.0654C23.5469 28.4875 24.6417 28.4875 25.7498 28.1709C26.5808 27.9335 27.3459 27.5642 28.1241 27.1948C29.6543 26.4297 31.2372 25.757 32.8069 25.0843C34.1392 24.517 35.4583 23.9366 36.7906 23.3562C38.202 22.7495 39.6266 22.1427 41.038 21.5359C42.2648 21.0083 43.4784 20.4674 44.7051 19.9266C45.3119 19.6628 45.9055 19.3858 46.4991 19.0956C47.0663 18.8054 47.6203 18.502 48.1216 18.1063C48.3062 17.9612 48.4249 17.7765 48.5832 17.5391C48.5832 19.1615 48.5832 20.7049 48.5832 22.2614C48.5569 22.5648 48.3458 22.7495 48.1479 22.9341C47.7786 23.2639 47.3565 23.5013 46.9344 23.7256C46.8552 23.7652 46.7761 23.8179 46.6969 23.8707C46.2616 24.0817 45.8131 24.2796 45.3778 24.4907C43.8741 25.1766 42.3703 25.823 40.8534 26.4825C39.6662 26.9838 38.4922 27.4982 37.305 28.0126C36.1046 28.5271 34.9043 29.0415 33.7171 29.556C32.609 30.0309 31.501 30.5189 30.393 31.0202C29.1398 31.5874 27.8867 32.1942 26.6204 32.7482C25.9213 33.0648 25.1826 33.2362 24.4175 33.2626C23.6392 33.2758 22.8742 33.1175 22.1487 32.8009C20.4338 32.0359 18.7058 31.2972 16.9778 30.5849C15.4609 29.9517 13.9307 29.3317 12.4138 28.6986C10.7517 28.0126 9.08966 27.3135 7.44079 26.6276C6.01617 26.034 4.60475 25.4272 3.19332 24.8336C2.95589 24.7413 2.73164 24.6226 2.50739 24.517C2.01933 24.2796 1.54446 24.0422 1.10916 23.6992C0.911295 23.5409 0.713431 23.3694 0.647476 23.1056L0.621094 23.066Z" fill="#A42523"/>
<path d="M102.06 25.9687C102.06 19.6238 102.06 13.279 102.06 6.93419V6.72313C102.034 5.98444 101.691 5.43042 101.058 5.08746C99.9365 4.48068 98.4855 5.36446 98.4855 6.63079C98.4855 8.60943 98.4855 10.6013 98.4855 12.5799V12.8701C98.4195 12.8305 98.3931 12.8173 98.3668 12.7909C96.3222 11.4059 94.1193 11.1157 91.7713 11.8148C88.5791 12.7646 86.2179 15.904 86.0464 19.3073C85.9277 21.7476 86.6005 23.8845 88.3417 25.6257C90.5446 27.855 93.1959 28.5013 96.2166 27.7758C97.0609 27.5648 97.8523 27.169 98.5778 26.6546C98.6174 26.7601 98.6438 26.8393 98.6965 26.9316C99.0131 27.6439 99.8046 28.1452 100.517 28.066C101.295 27.9737 101.928 27.3801 102.113 26.6018C102.153 26.3776 102.06 26.1929 102.06 25.9818V25.9687ZM96.1903 23.9768C94.8184 24.8079 92.9321 24.6628 91.6526 23.6471C90.5314 22.7633 89.8322 21.6157 89.7399 20.1647C89.6344 18.8588 90.0301 17.7243 90.8611 16.7218C91.4811 15.97 92.2066 15.4159 93.1695 15.2049C93.4597 15.1389 93.7631 15.1125 94.0665 15.1125C96.3354 15.1125 97.971 16.9197 98.4063 18.6081C98.9999 20.7978 97.9315 22.9348 96.1771 23.99L96.1903 23.9768Z" fill="#4A4D4E"/>
<path d="M73.5007 21.0608H83.605C84.1326 21.0608 84.6207 20.8893 85.0032 20.5068C85.3857 20.111 85.5176 19.5702 85.4781 19.0558C85.3989 17.4333 84.8581 15.9559 83.8556 14.6632C81.7978 11.9854 79.1069 10.9829 75.8091 11.6425C73.4743 12.1042 71.7859 13.542 70.6119 15.547C69.1213 18.0796 69.1477 20.7178 70.3745 23.3428C71.2846 25.2951 72.7357 26.7593 74.7802 27.5639C76.2972 28.1707 77.8801 28.2103 79.463 27.9332C80.9668 27.6694 82.2859 26.9967 83.4203 25.9546C84.0798 25.3478 84.0798 24.4113 83.4203 23.7913C82.8135 23.2109 81.7582 23.2109 81.0723 23.7913C80.98 23.8573 80.9008 23.9364 80.8085 23.9892C79.8587 24.596 78.8167 24.8334 77.6822 24.7147C76.7061 24.6223 75.7959 24.3585 75.0177 23.7517C74.1998 23.1186 73.5007 22.3931 73.2897 21.3114C73.2501 21.1136 73.2633 21.0344 73.4875 21.0476L73.5007 21.0608ZM73.1314 18.106C73.3556 17.1827 73.8305 16.444 74.5428 15.824C75.4794 15.0193 76.561 14.6104 77.7878 14.6764C78.8958 14.7423 79.8851 15.1776 80.7821 15.8504C81.4944 16.378 82.0484 17.0244 82.365 17.8818C82.3914 17.9477 82.4046 18.0137 82.4442 18.106H73.1446H73.1314Z" fill="#4A4D4E"/>
<path d="M115.326 27.9729C113.255 27.9729 111.54 27.2738 109.971 26.1657C109.759 26.0206 109.548 25.8624 109.351 25.6909C108.585 25.0709 108.48 23.9761 109.1 23.2506C109.733 22.5119 110.815 22.4591 111.567 23.1055C113.004 24.3454 114.64 24.7279 116.474 24.2267C117.014 24.0816 117.45 23.7782 117.78 23.3165C118.096 22.8812 117.964 22.4063 117.489 22.1557C116.751 21.76 115.999 21.4038 115.168 21.2587C114.548 21.1532 113.928 21.0609 113.321 20.863C112.266 20.52 111.263 20.0584 110.419 19.3065C108.599 17.7368 108.77 15.125 109.997 13.5948C110.709 12.6978 111.685 12.1702 112.741 11.7877C114.535 11.1413 116.263 11.3656 117.964 12.1438C118.742 12.5 119.508 12.8693 120.154 13.4101C120.721 13.885 120.84 14.5182 120.695 15.2305C120.563 15.8637 120.128 16.2066 119.534 16.3649C119.046 16.4968 118.584 16.4045 118.149 16.1407C117.516 15.7581 116.896 15.3624 116.197 15.1118C114.97 14.6765 113.862 14.848 112.886 15.7186C112.49 16.0747 112.516 16.4968 112.978 16.787C113.73 17.2619 114.548 17.5257 115.432 17.6444C116.751 17.8291 118.017 18.2116 119.165 18.8844C121.869 20.4673 122.462 24.3058 119.758 26.4032C118.426 27.4321 116.922 27.9597 115.352 27.9333L115.326 27.9729Z" fill="#4A4D4E"/>
<path d="M63.8975 13.5825C64.689 12.7251 65.6387 12.1974 66.7072 11.9072C67.4459 11.6962 68.1978 11.5643 68.9628 11.6962C69.8203 11.8413 70.3875 12.4612 70.4402 13.2395C70.5062 14.0969 70.0313 14.862 69.2662 15.1126C68.9233 15.2313 68.5671 15.1786 68.2242 15.2709C66.1136 15.8645 64.5835 17.0649 63.9371 19.2282C63.8316 19.5711 63.8184 19.9405 63.8184 20.2966C63.8184 22.328 63.8184 24.3594 63.8184 26.3777C63.8184 27.2746 63.1984 28.0265 62.3542 28.1848C61.2726 28.3827 60.2832 27.5648 60.2305 26.4568C60.2305 26.404 60.2305 26.3513 60.2305 26.2853C60.2305 22.0115 60.2305 17.7376 60.2305 13.4769C60.2305 13.2263 60.2568 12.9889 60.336 12.7514C60.5602 12.0787 61.1011 11.8017 61.7474 11.6566C62.7104 11.4587 63.8843 12.171 63.8712 13.5561L63.8975 13.5825Z" fill="#4A4D4E"/>
<path d="M107.388 19.8738C107.388 22.0634 107.388 24.2531 107.388 26.4296C107.388 27.696 105.911 28.5666 104.803 27.9598C104.196 27.63 103.84 27.1024 103.84 26.3901C103.84 22.0371 103.84 17.6709 103.84 13.3179C103.84 12.3549 104.684 11.5503 105.66 11.5503C106.584 11.5503 107.375 12.3154 107.388 13.2915C107.401 15.4812 107.388 17.6841 107.388 19.8738Z" fill="#4A4D4E"/>
<path d="M107.385 7.03923C107.385 7.35581 107.412 7.68559 107.306 8.00217C107.029 8.84639 106.304 9.28169 105.354 9.17616C104.602 9.08382 103.877 8.34513 103.837 7.56687C103.811 7.15795 103.784 6.73585 103.863 6.32693C104.048 5.44314 104.905 4.82316 105.763 4.90231C106.607 4.98145 107.412 5.82567 107.372 6.63031C107.372 6.77541 107.372 6.90732 107.372 7.05242L107.385 7.03923Z" fill="#4A4D4E"/>
<path d="M14.5781 11.9463C13.2986 11.9463 11.8476 11.7748 10.4625 11.2208C10.0404 11.0625 9.6447 10.8515 9.31493 10.5481C8.69496 10.0072 8.68177 9.3477 9.27536 8.78049C9.77661 8.31881 10.3966 8.05499 11.0429 7.87032C12.5335 7.42183 14.0637 7.28991 15.607 7.38225C16.7942 7.4482 17.955 7.63288 19.063 8.05499C19.4983 8.22647 19.9072 8.43752 20.2634 8.7541C20.9229 9.3477 20.8965 10.0336 20.2106 10.6008C19.7357 10.9966 19.1817 11.234 18.6013 11.4187C17.3614 11.8144 16.0819 11.9463 14.5913 11.9595L14.5781 11.9463Z" fill="white"/>
<path d="M17.8789 13.7407C21.5328 13.1735 25.1999 12.6195 28.8669 12.0522C28.8669 12.1578 28.801 12.1974 28.7746 12.2633C27.7457 13.7803 26.7036 15.284 25.6879 16.801C25.5824 16.9461 25.5164 16.9593 25.3582 16.8933C22.931 15.8776 20.4907 14.8751 18.0504 13.8594C17.9976 13.833 17.9317 13.8066 17.8789 13.7803C17.8789 13.7671 17.8789 13.7539 17.8789 13.7275V13.7407Z" fill="white"/>
<path d="M25.7896 8.78036C25.3147 7.97572 24.853 7.22383 24.4045 6.45876C24.3254 6.31366 24.233 6.26089 24.0748 6.2477C22.5842 6.11579 21.0804 5.98389 19.5898 5.85198C19.5898 5.77283 19.6558 5.78602 19.7086 5.77283C20.7638 5.39029 21.8323 4.99457 22.9008 4.62523C23.0722 4.55927 23.0722 4.51969 22.9931 4.37459C22.6765 3.80739 22.3599 3.22699 22.0434 2.64659C22.1621 2.59383 22.2412 2.65978 22.3204 2.69935C23.2833 3.0687 24.233 3.45123 25.1828 3.82058C25.3147 3.87334 25.4202 3.87334 25.5389 3.82058C26.5151 3.504 27.4912 3.17422 28.4673 2.85764C28.5201 2.93678 28.4673 2.98955 28.4278 3.04231C28.2035 3.58314 27.9925 4.11078 27.755 4.6516C27.6759 4.82308 27.6759 4.90223 27.8869 4.98138C28.8235 5.31115 29.7337 5.6673 30.6702 6.01026C30.723 6.02346 30.7625 6.04984 30.8813 6.1026C30.2481 6.16856 29.6809 6.23451 29.1137 6.28727C28.375 6.36642 27.6495 6.44557 26.9108 6.51153C26.7657 6.52472 26.6997 6.59067 26.647 6.72257C26.37 7.39531 26.093 8.06805 25.7896 8.78036Z" fill="white"/>
<path d="M35.906 11.8803C35.6685 11.9726 35.4311 12.065 35.1937 12.1705C35.1013 12.2101 35.0222 12.1705 34.943 12.1573C33.1754 11.4582 31.4079 10.7591 29.6271 10.0468C29.2709 9.90165 28.9148 9.76974 28.5059 9.61145C29.1786 9.34763 29.7986 9.11019 30.4054 8.85957C32.1202 8.18683 33.835 7.5009 35.5498 6.82817C35.6421 6.78859 35.7345 6.77541 35.8136 6.74902C35.8928 6.88093 35.8796 7.01284 35.8796 7.15794C35.8796 8.55617 35.8796 9.95441 35.8796 11.3395C35.8796 11.5241 35.8796 11.6956 35.906 11.8803Z" fill="#AD2625"/>
<path d="M35.9112 11.8798C35.7925 11.8666 35.8189 11.7743 35.8189 11.6951C35.8189 10.0463 35.8189 8.38422 35.8189 6.73535C37.5337 7.40809 39.2353 8.08082 40.9502 8.75356C41.3459 8.91185 41.7548 9.07014 42.1505 9.22843C42.2033 9.25481 42.2561 9.2812 42.3616 9.33396C40.1851 10.1914 38.0482 11.0356 35.9112 11.8798Z" fill="#741314"/>
</svg>
