<svg width="127" height="54" viewBox="0 0 127 54" fill="none" xmlns="http://www.w3.org/2000/svg">
<path d="M46.1769 27.0273C46.1769 30.8526 46.1373 34.678 46.2033 38.5034C46.2297 39.7697 45.6888 40.5875 44.6599 41.1811C39.133 44.3601 33.5928 47.5523 28.0658 50.7313C26.9314 51.3909 25.7838 52.0372 24.6625 52.71C23.6996 53.2904 22.7498 53.2772 21.8001 52.7232C15.1783 48.9242 8.56962 45.0988 1.94778 41.313C0.721029 40.6139 0.140625 39.6642 0.140625 38.2C0.180198 30.7075 0.167007 23.2019 0.140625 15.7095C0.140625 14.3508 0.602312 13.4143 1.81588 12.7151C7.52754 9.47018 13.1996 6.17246 18.8849 2.90111C19.8346 2.3471 20.7976 1.81946 21.7341 1.25225C22.7235 0.65866 23.6732 0.685042 24.6757 1.25225C31.3635 5.11719 38.0645 8.96893 44.7655 12.8207C45.8471 13.4406 46.2297 14.3376 46.2165 15.5512C46.1769 19.3766 46.2033 23.2019 46.2033 27.0273C46.2033 27.0273 46.1901 27.0273 46.1769 27.0273ZM29.6223 30.4305L29.3321 30.6284C29.187 30.4042 29.0551 30.1535 28.8836 29.9425C25.7574 26.1831 22.6311 22.4105 19.4917 18.6774C18.4232 17.4111 17.4999 15.9601 15.7191 15.4852C13.2656 14.8257 11.1946 16.0788 11.2474 18.6906C11.3661 24.2572 11.2869 29.8238 11.2869 35.3903C11.2869 35.786 11.3133 36.195 11.4057 36.5643C11.8805 38.5693 14.2681 39.3344 15.8246 38.0021C16.6029 37.3294 16.8271 36.4192 16.8271 35.4431C16.8271 31.9871 16.8271 28.531 16.8271 25.075C16.8271 24.5738 16.8271 24.0725 16.8271 23.5713C16.9195 23.5185 17.0118 23.4789 17.1041 23.4262C17.2097 23.6108 17.2888 23.8087 17.4339 23.967C21.0218 28.254 24.623 32.5279 28.2109 36.8281C29.2002 38.0153 30.4401 38.5957 31.9571 38.6353C33.7906 38.688 35.1229 37.5141 35.1097 35.5486C35.057 29.705 35.1097 23.8615 35.1097 18.0179C35.1097 17.7145 35.057 17.3979 34.9514 17.1209C34.4238 15.7886 33.1707 15.0499 31.9175 15.3138C30.5061 15.604 29.6487 16.6856 29.6355 18.2158C29.6355 22.2786 29.6355 26.3545 29.6355 30.4173L29.6223 30.4305Z" fill="#079748"/>
<path d="M63.7715 23.9273V35.5881C62.9669 35.5881 62.2678 35.5881 61.5686 35.5881C60.9223 35.5881 61.0674 35.1 61.0674 34.7306C61.0674 32.2771 61.0674 29.8368 61.0674 27.3833C61.0674 24.5736 61.0806 21.7508 61.041 18.9411C61.041 18.2552 61.2521 18.1233 61.9116 18.0441C63.323 17.8727 64.0749 18.4135 64.7477 19.6666C66.4757 22.8984 68.3751 26.0378 70.2219 29.2037C70.3406 29.4147 70.4857 29.5994 70.7759 30.0083V18.1365H73.5724C73.5988 18.4926 73.6383 18.8488 73.6383 19.205C73.6383 24.3098 73.6383 29.4279 73.6515 34.5328C73.6515 35.2847 73.4932 35.5221 72.6622 35.6144C71.1848 35.7991 70.4989 35.1396 69.8393 33.9392C68.1509 30.8261 66.3174 27.7922 64.5366 24.7319C64.3651 24.4285 64.1409 24.1515 63.943 23.8613C63.8771 23.8745 63.8243 23.8877 63.7583 23.9141L63.7715 23.9273Z" fill="#079748"/>
<path d="M89.7995 24.1913C89.0081 24.1913 88.2826 24.2441 87.5571 24.165C87.346 24.1386 87.0426 23.7824 87.0163 23.545C86.7788 21.6587 86.1588 20.8936 84.2857 20.5243C83.5207 20.3792 82.6896 20.3396 81.9246 20.4451C79.9327 20.7221 78.9962 21.8697 78.9962 23.8879C78.9962 25.7874 78.9962 27.6869 78.9962 29.5732C78.9962 31.8685 79.9327 33.0161 82.2016 33.2139C83.2041 33.3063 84.2857 33.1216 85.2487 32.8182C86.5678 32.3961 87.2933 30.8264 86.9503 29.4413C86.8975 29.2435 86.5018 29.006 86.2512 28.9928C85.2091 28.9269 84.1802 28.9401 83.1381 28.9269C83.1118 28.9269 83.0854 28.8873 83.0194 28.8345V26.381H89.8655C89.76 28.5048 90.3008 30.6549 89.4434 32.6995C88.7311 34.4275 87.2537 35.2981 85.4993 35.6674C83.4019 36.1291 81.3046 36.1423 79.3128 35.2453C77.2154 34.2956 76.1733 32.6467 76.1997 30.3119C76.2261 28.0431 76.2129 25.7874 76.1997 23.5186C76.1865 20.5638 77.5979 18.6644 80.4868 17.9652C82.2939 17.5299 84.1275 17.5299 85.9214 18.0708C88.8366 18.9414 90.1293 20.9332 89.8127 24.1782L89.7995 24.1913Z" fill="#079748"/>
<path d="M100.64 23.5443C100.64 27.3696 100.614 30.9444 100.666 34.5191C100.666 35.3633 100.469 35.7063 99.598 35.6007C99.1231 35.548 98.6219 35.6007 98.0547 35.6007V18.0964C98.8725 18.0964 99.6376 18.0305 100.376 18.136C100.653 18.1756 100.93 18.5581 101.102 18.8483C103.146 22.3571 105.178 25.879 107.209 29.3878C107.302 29.5461 107.42 29.678 107.71 30.0474C107.75 29.4274 107.79 29.0317 107.79 28.6359C107.79 25.4833 107.803 22.3307 107.763 19.1781C107.763 18.3734 107.921 17.9645 108.818 18.0832C109.32 18.1492 109.847 18.0832 110.467 18.0832C110.467 18.756 110.467 19.3232 110.467 19.9036C110.467 24.7974 110.441 29.6912 110.481 34.585C110.481 35.4161 110.19 35.5216 109.438 35.6271C108.027 35.8118 107.394 35.1391 106.761 34.0178C104.927 30.7069 102.988 27.4488 101.075 24.1774C100.983 24.0191 100.878 23.8872 100.627 23.5443H100.64Z" fill="#079748"/>
<path d="M112.391 18.084C113.433 18.084 114.317 18.0445 115.201 18.1104C115.491 18.1368 115.874 18.3874 116.032 18.638C116.982 20.1022 117.879 21.5928 118.802 23.0702C118.973 23.3472 119.158 23.6242 119.435 24.0595C119.963 23.2681 120.438 22.5821 120.899 21.883C121.559 20.8541 122.218 19.8252 122.838 18.77C123.129 18.2687 123.498 18.0313 124.091 18.0576C124.843 18.0972 125.595 18.0576 126.624 18.0576C126.044 18.8095 125.595 19.3504 125.213 19.9439C124.975 20.3001 124.87 20.7486 124.646 21.1179C123.617 22.8196 122.601 24.5212 121.506 26.1832C121.137 26.7505 121.229 27.133 121.559 27.6606C123.023 29.9822 124.448 32.3434 125.872 34.6914C126.031 34.942 126.149 35.219 126.347 35.5884C125.331 35.5884 124.421 35.6411 123.537 35.562C123.221 35.5356 122.838 35.219 122.654 34.9288C121.73 33.491 120.873 32.0136 119.976 30.5494C119.791 30.246 119.593 29.9427 119.29 29.481C118.683 30.4307 118.142 31.2617 117.628 32.0928C117.021 33.0821 116.428 34.0846 115.808 35.0607C115.662 35.285 115.372 35.5488 115.122 35.562C114.251 35.6279 113.367 35.5884 112.299 35.5884C113.288 33.9131 114.198 32.3698 115.108 30.8396C115.794 29.6788 116.454 28.5048 117.179 27.3836C117.509 26.8692 117.483 26.4866 117.166 25.9722C115.781 23.7693 114.436 21.5532 113.09 19.3372C112.866 18.981 112.681 18.5985 112.404 18.1104L112.391 18.084Z" fill="#079748"/>
<path d="M92.5283 35.5884V18.0973C93.3594 18.0973 94.1508 18.0577 94.9159 18.1369C95.0874 18.1501 95.338 18.5854 95.338 18.836C95.3776 20.4848 95.3512 22.1337 95.3512 23.7826C95.3512 27.4233 95.3512 31.064 95.3644 34.6915C95.3644 35.351 95.2061 35.6544 94.4938 35.6016C93.8342 35.5489 93.1747 35.6016 92.502 35.6016L92.5283 35.5884Z" fill="#079748"/>
<path d="M29.6196 30.4177C29.6196 26.3549 29.6196 22.2789 29.6196 18.2161C29.6196 16.686 30.477 15.6043 31.9016 15.3141C33.1547 15.0503 34.4079 15.8022 34.9355 17.1213C35.041 17.3983 35.0938 17.7149 35.0938 18.0183C35.0938 23.8619 35.0279 29.7054 35.0938 35.549C35.107 37.5144 33.7747 38.6884 31.9412 38.6357C30.4242 38.5961 29.1843 38.0025 28.195 36.8285C24.607 32.5283 21.0059 28.2544 17.418 23.9674C17.2861 23.8091 17.2069 23.6112 17.0882 23.4265C16.9959 23.4793 16.9036 23.5189 16.8112 23.5717C16.8112 24.0729 16.8112 24.5742 16.8112 25.0754C16.8112 28.5314 16.8112 31.9874 16.8112 35.4435C16.8112 36.4328 16.587 37.343 15.8087 38.0025C14.2522 39.3348 11.8646 38.5565 11.3898 36.5647C11.2974 36.1822 11.271 35.7732 11.271 35.3907C11.271 29.8241 11.337 24.2576 11.2314 18.691C11.1787 16.0792 13.2628 14.8261 15.7032 15.4856C17.4839 15.9605 18.4073 17.4115 19.4758 18.6778C22.6284 22.4109 25.7415 26.1835 28.8677 29.9429C29.0392 30.1539 29.1711 30.3913 29.3162 30.6288L29.6064 30.4309L29.6196 30.4177Z" fill="white"/>
</svg>
