<svg width="110" height="37" viewBox="0 0 110 37" fill="none" xmlns="http://www.w3.org/2000/svg">
<path d="M33.7139 0.518555H42.1374L21.0737 36.9232L0 0.518555H8.32308H16.1241L21.0737 8.96211L25.913 0.518555H33.7139Z" fill="#43B883"/>
<path d="M0 0.518555L21.0737 36.9232L42.1374 0.518555H33.7139L21.0737 22.3654L8.32308 0.518555H0Z" fill="#43B883"/>
<path d="M8.32227 0.518555L21.0729 22.4658L33.7131 0.518555H25.9121L21.0729 8.96211L16.1233 0.518555H8.32227Z" fill="#364A5E"/>
<path d="M57.7783 26.9939C59.4449 21.4017 61.0614 15.9601 62.6778 10.5285C62.7983 10.1068 62.8886 9.64498 63.4308 9.56467C64.0332 9.47431 64.6155 9.61486 64.9669 10.1269C65.1175 10.3478 65.1275 10.7594 65.0472 11.0405C64.2641 13.671 63.4408 16.2914 62.6276 18.9218C61.5634 22.3756 60.4991 25.8393 59.4349 29.2931C59.0835 30.4376 57.8988 30.9597 56.8747 30.3472C56.5735 30.1665 56.3326 29.7549 56.2222 29.4035C54.686 24.5442 53.1901 19.6748 51.6741 14.8055C51.2725 13.5304 50.8709 12.2453 50.4793 10.9703C50.2585 10.2474 50.4793 9.88594 51.2725 9.6249C52.0656 9.36387 52.5576 9.56467 52.7684 10.2675C54.3648 15.5986 55.9611 20.9298 57.5574 26.261C57.6177 26.4518 57.6779 26.6425 57.7984 26.9839L57.7783 26.9939Z" fill="black"/>
<path d="M81.7242 24.3232C83.5715 24.3232 85.4289 24.3232 87.2762 24.3232C87.6778 24.3232 88.0794 24.2931 88.471 24.2329C89.2641 24.1024 89.7561 23.6506 89.8866 22.8976C90.0974 21.6225 89.9368 20.3976 89.234 19.2732C87.9991 17.3154 85.5895 16.3415 83.2201 16.8134C80.8608 17.2953 78.9933 19.223 78.7624 21.6024C78.6319 22.9377 78.652 24.2931 78.7624 25.6284C78.9331 27.8774 80.2383 29.3231 82.2965 30.1263C83.7623 30.6986 85.2883 30.7488 86.8244 30.4476C87.6979 30.2769 88.4911 29.9456 89.1838 29.3833C89.6457 29.0119 89.7561 28.5902 89.5453 28.1384C89.2541 27.5059 88.732 27.3453 88.0794 27.7268C87.0754 28.3091 86.0413 28.6806 84.8566 28.6203C82.2864 28.4898 80.8005 26.7931 81.172 24.3132H81.7242V24.3232ZM84.5454 18.5704C86.1719 18.6206 87.5674 19.9358 87.7079 21.5522C87.7782 22.3353 87.5674 22.6566 86.7843 22.6767C84.9269 22.7169 83.0595 22.6867 81.1619 22.6867C80.8306 20.2571 82.2764 18.5001 84.5354 18.5704H84.5454Z" fill="black"/>
<path d="M76.7522 21.8231C76.7522 22.9777 76.7522 24.1323 76.7522 25.2769C76.7522 27.9174 74.4329 29.9856 72.4551 30.4574C69.4632 31.1703 66.3207 29.3631 65.5577 26.4214C65.4573 26.0399 65.4071 25.6283 65.397 25.2367C65.387 22.807 65.397 20.3774 65.397 17.9578C65.397 17.265 65.8187 16.8936 66.5818 16.8936C67.3247 16.8936 67.7865 17.2851 67.7865 17.9678C67.7865 20.4276 67.7564 22.8974 67.8066 25.3572C67.8368 26.6825 68.5998 27.6262 69.7544 28.1884C70.8587 28.7306 71.9631 28.6101 72.9571 27.8571C73.9209 27.1443 74.3828 26.1704 74.3828 24.9757C74.3828 22.6665 74.3928 20.3674 74.3828 18.0582C74.3828 17.5361 74.5333 17.1847 75.0253 16.994C75.5273 16.8032 76.2702 16.8835 76.5413 17.2449C76.6919 17.4457 76.7522 17.757 76.7622 18.018C76.7823 19.2931 76.7622 20.5682 76.7622 21.8432C76.7622 21.8432 76.7622 21.8432 76.7522 21.8432V21.8231Z" fill="black"/>
<path d="M105.265 30.6388C103.478 30.5987 102.072 30.3377 100.868 29.424C100.305 28.9923 100.155 28.5004 100.396 27.9682C100.677 27.3458 101.089 27.2152 101.631 27.6168C102.906 28.5606 104.321 28.8819 105.878 28.6409C106.751 28.5004 107.434 27.9984 107.604 27.3156C107.805 26.5125 107.484 25.6992 106.651 25.2474C105.958 24.8659 105.185 24.635 104.432 24.3539C103.98 24.1832 103.498 24.0728 103.036 23.9121C100.075 22.878 100.215 19.9664 101.36 18.3801C102.113 17.346 103.157 16.8942 104.392 16.7537C105.918 16.583 107.384 16.7537 108.759 17.4565C109.472 17.8179 109.572 18.3099 109.151 18.9625C108.89 19.354 108.578 19.4946 108.086 19.3239C107.283 19.0428 106.47 18.7817 105.637 18.6412C105.165 18.5609 104.633 18.6713 104.151 18.7918C103.568 18.9424 103.157 19.354 102.906 19.9062C102.564 20.6692 102.765 21.4624 103.498 21.8539C104.121 22.1853 104.813 22.4061 105.476 22.6371C106.028 22.8379 106.61 22.9684 107.173 23.1591C108.92 23.7515 109.873 25.1269 109.813 26.9241C109.743 28.661 108.659 29.9662 106.872 30.3878C106.249 30.5384 105.596 30.5786 105.265 30.6288V30.6388Z" fill="black"/>
<path d="M98.4985 25.0158C98.4985 27.1944 98.4985 29.3731 98.4985 31.5618C98.4985 32.6862 98.3479 33.7906 97.8761 34.8147C97.1833 36.3106 95.9384 37.0335 94.3019 36.903C93.6894 36.8528 93.3481 36.5215 93.328 35.9593C93.2979 35.387 93.6392 34.9553 94.2115 34.8448C95.6371 34.5838 95.838 34.3729 96.0187 32.8971C96.0689 32.4854 96.099 32.0638 96.109 31.6421C96.109 27.1041 96.109 22.566 96.109 18.0381C96.109 17.5361 96.2094 17.1445 96.7315 16.9638C97.2636 16.773 98.0166 16.8634 98.2877 17.2349C98.4383 17.4357 98.5086 17.7469 98.5086 18.0079C98.5286 20.3472 98.5086 22.6865 98.5086 25.0258L98.4985 25.0158Z" fill="black"/>
<path d="M94.1334 29.0728C94.1334 29.9061 93.5209 30.5386 92.6977 30.5487C91.8744 30.5487 91.1816 29.8961 91.1816 29.0929C91.1816 28.2696 91.8442 27.597 92.6575 27.5869C93.4908 27.5869 94.1233 28.2295 94.1233 29.0728H94.1334Z" fill="black"/>
<path d="M97.2771 13.1389C96.4739 13.1389 95.7811 12.4963 95.7911 11.7735C95.8012 11.0506 96.4538 10.4683 97.267 10.4683C98.1003 10.4683 98.7428 11.0606 98.7328 11.8236C98.7228 12.5666 98.0803 13.1389 97.2771 13.1389Z" fill="black"/>
</svg>
