<svg width="116" height="31" viewBox="0 0 116 31" fill="none" xmlns="http://www.w3.org/2000/svg">
<path d="M73.3806 30.6851C73.3806 30.6851 73.3806 30.7152 73.3806 30.7253H72.748C72.748 30.7253 72.748 30.7052 72.748 30.6851C72.9589 30.5646 73.1697 30.5646 73.3806 30.6851Z" fill="#C3BFBF"/>
<path d="M0.451172 16.0776C0.451172 16.0776 0.471271 16.0776 0.491393 16.0776C0.602063 16.2185 0.592002 16.3493 0.491393 16.4901C0.481332 16.4901 0.461233 16.4901 0.451172 16.4901V16.0877V16.0776Z" fill="#A0B5DE"/>
<path d="M110.357 30.685C110.357 30.685 110.357 30.7052 110.357 30.7253H109.955C109.955 30.7253 109.955 30.675 109.975 30.6548C110.106 30.6045 110.247 30.5844 110.368 30.685H110.357Z" fill="#C1BDBD"/>
<path d="M109.946 30.6848C109.946 30.6848 109.946 30.7048 109.946 30.7248H109.727C109.727 30.7248 109.727 30.6948 109.727 30.6848C109.807 30.6148 109.876 30.6148 109.946 30.6848Z" fill="#D7D4D4"/>
<path d="M62.4884 13.4466C61.6049 9.76196 59.4263 7.12147 55.9424 5.59541C53.7638 4.64162 51.4546 4.29022 49.0952 4.2601C45.8724 4.21994 42.6496 4.24002 39.4268 4.22998C39.2159 4.22998 39.1758 4.29022 39.1758 4.49102C39.1758 8.76801 39.1758 13.045 39.1758 17.312V29.5506C39.1758 29.7815 39.1758 30.0124 39.1758 30.2433C39.1758 30.3638 39.2059 30.3939 39.3263 30.3939C39.6075 30.3939 39.8987 30.3939 40.1798 30.3939C43.3725 30.3638 46.5651 30.4642 49.7578 30.3437C51.3742 30.2835 52.9505 30.0124 54.4967 29.5406C57.2978 28.6771 59.5266 27.0507 61.0527 24.5206C62.1069 22.7837 62.6189 20.8761 62.8097 18.8581C62.9803 17.0308 62.9201 15.2237 62.4884 13.4366V13.4466ZM56.5749 20.1432C55.8621 22.6833 54.1252 24.1792 51.5951 24.8318C50.5911 25.0929 49.557 25.1732 48.5229 25.1732C47.3483 25.1732 46.1736 25.1732 44.9889 25.1732C44.7981 25.1732 44.758 25.113 44.758 24.9322C44.758 22.3319 44.758 19.7316 44.758 17.1413C44.758 14.551 44.758 11.9607 44.758 9.37041C44.758 9.12945 44.8282 9.09933 45.039 9.09933C46.4246 9.11941 47.8101 9.05917 49.1956 9.14953C50.7216 9.23989 52.2076 9.55112 53.5529 10.3242C55.079 11.1977 56.0528 12.5229 56.5247 14.1896C57.097 16.1674 57.1171 18.1654 56.5649 20.1432H56.5749Z" fill="#231F20"/>
<path d="M83.7206 17.6732C83.7206 16.9203 83.6805 16.1673 83.5399 15.4143C83.3291 14.2597 82.9275 13.1754 82.1143 12.3019C80.8091 10.8963 79.1425 10.2036 77.2851 9.93249C75.7791 9.71161 74.2831 9.78189 72.7872 10.0228C70.488 10.3943 68.3797 11.2678 66.4822 12.6131C66.3818 12.6834 66.3516 12.7336 66.4319 12.8541C67.215 13.9786 67.9881 15.103 68.7612 16.2275C68.8415 16.3379 68.8817 16.3681 69.0022 16.2777C69.6648 15.7857 70.3977 15.4143 71.1607 15.1131C72.5864 14.5508 74.0622 14.2095 75.6084 14.4203C76.6927 14.5709 77.516 15.083 77.8975 16.1673C78.0481 16.599 78.0983 17.0508 78.1083 17.5126C78.1083 17.7134 78.0581 17.7536 77.8674 17.7536C75.9698 17.7837 74.0723 17.6632 72.1848 17.8339C70.97 17.9443 69.7953 18.2154 68.6909 18.7475C67.4861 19.3298 66.5022 20.1531 65.9701 21.4181C65.5083 22.5125 65.4279 23.6671 65.5685 24.8317C65.8195 26.92 66.9038 28.4561 68.6709 29.5404C69.9158 30.3034 71.2913 30.6448 72.747 30.6849C72.9579 30.6849 73.1687 30.6849 73.3796 30.6849C75.498 30.6147 77.1144 29.5906 78.4698 27.9742C78.4698 28.7673 78.4698 29.5002 78.4698 30.2332C78.4698 30.4139 78.52 30.454 78.6906 30.454C80.2769 30.454 81.8733 30.454 83.4596 30.454C83.6805 30.454 83.7307 30.4038 83.7307 30.1829C83.7307 26.0164 83.7307 21.8398 83.7307 17.6732H83.7206ZM77.9477 23.6771C77.6264 24.7112 76.8634 25.3337 75.9096 25.7252C74.7751 26.1971 73.6004 26.167 72.4659 25.7252C71.3515 25.3036 71.0101 24.2895 71.2812 23.2554C71.4519 22.6028 71.9639 22.2816 72.5663 22.0908C73.2189 21.88 73.9017 21.8398 74.5844 21.8298C75.0161 21.8298 75.4377 21.8298 75.8694 21.8298C76.5421 21.8298 77.2148 21.8298 77.8975 21.8298C78.0582 21.8298 78.0983 21.8699 78.0983 22.0306C78.0983 22.5828 78.1184 23.1349 77.9477 23.6771Z" fill="#231F20"/>
<path d="M109.947 30.6851C109.876 30.6851 109.796 30.6851 109.726 30.6851C107.748 30.5847 106.081 29.8217 104.756 28.3358C103.933 27.4121 103.491 26.3077 103.3 25.0929C103.2 24.4504 103.18 23.7978 103.18 23.1452C103.18 16.9506 103.18 10.7559 103.18 4.57137C103.18 4.33042 103.25 4.30029 103.461 4.30029C105.158 4.30029 106.854 4.30029 108.541 4.30029C108.752 4.30029 108.832 4.33042 108.822 4.57137C108.812 6.27816 108.822 7.98494 108.812 9.69172C108.812 9.88248 108.862 9.92263 109.043 9.92263C110.86 9.92263 112.687 9.92263 114.505 9.92263H114.746C114.746 10.013 114.695 10.0532 114.655 10.1134C113.722 11.4788 112.778 12.8342 111.854 14.2097C111.744 14.3703 111.623 14.4305 111.432 14.4205C110.619 14.4004 109.796 14.4004 108.983 14.3803C108.832 14.3803 108.762 14.3904 108.762 14.5811C108.762 17.4927 108.762 20.4043 108.762 23.3159C108.762 23.9182 108.902 24.4905 109.284 24.9724C109.886 25.7355 110.73 25.9563 111.774 25.6351C112.497 25.4142 113.039 24.9423 113.501 24.37C113.581 24.3901 113.591 24.4604 113.621 24.5206C114.254 25.7154 114.886 26.9101 115.529 28.0948C115.619 28.2655 115.589 28.3458 115.458 28.4663C114.515 29.2896 113.481 29.9623 112.286 30.3538C111.653 30.5646 111.011 30.6851 110.348 30.6952C110.208 30.6952 110.077 30.6952 109.937 30.6952L109.947 30.6851Z" fill="#231F20"/>
<path d="M22.5508 6.56937L22.591 6.59949C22.7215 6.73001 22.7516 6.92077 22.8119 7.08141C23.3038 8.49704 23.8159 9.9227 24.3179 11.3383C25.0307 13.3664 25.7536 15.3844 26.4564 17.4125C26.9684 18.8783 27.4904 20.3341 28.0025 21.7999C28.0828 22.0308 28.0727 22.2316 27.9723 22.4625C27.4904 23.5569 26.9985 24.6512 26.5166 25.7456C26.4764 25.8259 26.4463 25.9062 26.366 25.9664C26.3559 25.9664 26.3459 25.9765 26.3258 25.9865C26.3058 25.9865 26.2857 25.9865 26.2656 25.9865C26.1752 25.9363 26.115 25.866 26.0447 25.7958C19.6794 19.4405 13.3241 13.0853 6.95885 6.73001C6.86849 6.63965 6.74805 6.57942 6.74805 6.42882C6.76813 6.40874 6.7882 6.3987 6.80828 6.38866C6.91872 6.3485 7.02912 6.35854 7.13956 6.35854C11.8483 6.35854 16.557 6.35854 21.2657 6.35854C21.6974 6.35854 22.1392 6.37862 22.5408 6.56937H22.5508Z" fill="#2575BB"/>
<path d="M93.4524 12.8449C93.5226 12.7645 93.5929 12.6742 93.6732 12.6039C95.0788 11.3288 96.6451 10.3449 98.5426 9.99352C98.884 9.93328 99.2353 9.88309 99.5867 9.87305C99.6972 9.87305 99.7474 9.87305 99.7474 10.0136C99.7474 11.6903 99.7474 13.3669 99.7474 15.0436C99.7474 15.1741 99.6972 15.1842 99.5867 15.1842C99.2153 15.1641 98.8337 15.134 98.4623 15.144C96.4242 15.144 94.9885 16.0777 94.1552 17.9351C93.603 19.1599 93.4022 20.4451 93.4022 21.7703C93.4022 24.5915 93.4022 27.4127 93.4022 30.2339C93.4022 30.4448 93.3419 30.4849 93.1411 30.4849C91.4243 30.4849 89.7075 30.4849 87.9907 30.4849C87.7999 30.4849 87.7598 30.4347 87.7598 30.254C87.7598 23.6779 87.7598 17.1118 87.7598 10.5357C87.7598 10.3449 87.8099 10.3048 87.9907 10.3048C89.7175 10.3048 91.4344 10.3048 93.1612 10.3048C93.352 10.3048 93.3921 10.365 93.3921 10.5457C93.3921 11.3087 93.3921 12.0617 93.3921 12.8248C93.4122 12.8248 93.4222 12.8449 93.4423 12.8549L93.4524 12.8449Z" fill="#231F20"/>
<path d="M26.2753 25.9567C26.2753 25.9567 26.3054 25.9668 26.3255 25.9768C26.3155 26.2579 26.1849 26.5089 26.1046 26.77C25.7432 27.9446 25.3717 29.1093 25.0103 30.2739C24.9701 30.4044 24.8998 30.4446 24.7693 30.4446C21.1148 30.4345 17.4602 30.4144 13.8057 30.4144C13.6652 30.4144 13.5849 30.3442 13.5045 30.2638C12.109 28.8683 10.7335 27.4426 9.28778 26.0973C8.14323 25.023 7.3501 23.7781 6.92843 22.2821C6.90835 22.2621 6.91835 22.242 6.94847 22.2319C7.31994 22.2821 7.6513 22.4428 7.99265 22.5633C9.17736 22.9749 10.3621 23.3966 11.5568 23.8182C13.5748 24.5311 15.5928 25.2439 17.6209 25.9567C19.1871 26.4989 20.7433 27.0611 22.3095 27.6033C22.43 27.6434 22.5404 27.6434 22.6609 27.6033C23.8657 27.0611 25.0906 26.5391 26.2954 25.9869L26.2753 25.9567Z" fill="#4DC1BB"/>
<path d="M26.3632 25.9568C26.6644 25.2741 26.9556 24.5914 27.2567 23.9087C27.4977 23.3565 27.7386 22.8043 27.9896 22.2521C28.0499 22.1115 27.9997 22.0011 27.9596 21.8906C27.4877 20.5654 27.0158 19.2301 26.5539 17.9048C25.6604 15.3647 24.7669 12.8246 23.8733 10.2845C23.4516 9.08978 23.0299 7.89503 22.6083 6.70028C22.5982 6.67016 22.5882 6.63 22.5781 6.58984C23.2709 6.71032 23.9034 7.01152 24.5158 7.35288C25.0279 7.63399 25.4697 7.99543 25.8813 8.40707C27.3873 9.92309 28.8933 11.4391 30.3992 12.9451C30.4996 13.0455 30.5498 13.1459 30.5498 13.2965C30.5498 17.0012 30.5498 20.7059 30.5498 24.4107C30.5498 24.5813 30.4996 24.6516 30.339 24.7018C29.0941 25.0934 27.8491 25.505 26.5941 25.8965C26.5138 25.9166 26.4435 25.9668 26.3531 25.9468L26.3632 25.9568Z" fill="#0BA7E0"/>
<path d="M22.5478 6.56908C22.2767 6.57911 22.0257 6.47872 21.7646 6.45864C21.4132 6.42852 21.0619 6.42852 20.7105 6.42852C16.1523 6.42852 11.5842 6.42852 7.02608 6.42852C6.93572 6.42852 6.82532 6.38835 6.75504 6.47871H6.73494H6.71484C6.71484 6.32811 6.85543 6.30803 6.93575 6.25783C9.78708 4.37033 12.6484 2.48283 15.4997 0.595334C15.8712 0.344336 16.2327 0.0732603 16.7246 0.1335C17.2768 0.213819 17.7587 0.444739 18.1603 0.826255C18.7125 1.34833 19.2346 1.89048 19.7768 2.42259C20.4093 3.04507 21.0317 3.66755 21.6643 4.27998C21.7546 4.37034 21.8149 4.47074 21.8651 4.60126C22.0859 5.26389 22.3169 5.91648 22.5478 6.56908Z" fill="#2FBCAF"/>
<path d="M6.71549 6.45877C6.71549 6.45877 6.7356 6.45877 6.74564 6.45877C6.83599 6.58929 6.81592 6.74993 6.81592 6.89049C6.81592 10.5651 6.81592 14.2397 6.81592 17.9143C6.81592 18.607 6.81592 19.3098 6.81592 20.0026C6.81592 20.6652 6.82592 21.3379 6.95643 21.9905C6.97651 22.0708 6.9866 22.1511 6.9364 22.2314C6.9364 22.2415 6.92634 22.2515 6.9163 22.2616C6.24362 22.0206 5.58099 21.7897 4.90832 21.5487C4.80792 21.5086 4.72759 21.4584 4.64727 21.3881C3.54288 20.2737 2.42846 19.1592 1.32407 18.0448C0.892354 17.6031 0.571102 17.1011 0.470703 16.4786C0.470703 16.338 0.470703 16.2075 0.470703 16.0669C0.480743 15.9063 0.540955 15.7657 0.631314 15.6252C1.7357 13.9586 2.84008 12.302 3.94447 10.6354C4.83802 9.27998 5.7416 7.9246 6.63515 6.56921C6.65523 6.52905 6.67532 6.48889 6.70544 6.44873L6.71549 6.45877Z" fill="#2575BB"/>
<path d="M6.95834 22.2409C6.77762 21.6486 6.76758 21.0361 6.76758 20.4237C6.76758 15.8756 6.76758 11.3276 6.76758 6.7795C6.76758 6.6791 6.76758 6.56866 6.76758 6.46826C6.82782 6.51846 6.89809 6.56866 6.94829 6.6289C13.3537 13.0243 19.7492 19.4197 26.1546 25.8151C26.2048 25.8653 26.245 25.9155 26.2851 25.9657C26.1747 26.1766 25.9438 26.1866 25.7631 26.2669C24.8997 26.6685 24.0161 27.04 23.1426 27.4315C23.0021 27.4918 22.8515 27.552 22.7109 27.6223C22.5603 27.6926 22.4399 27.7026 22.2692 27.6424C21.2953 27.291 20.3114 26.9597 19.3275 26.6083C17.1589 25.8452 14.9903 25.0722 12.8217 24.3091C11.8679 23.9678 10.9041 23.6465 9.95027 23.3052C8.94628 22.9538 7.95229 22.5923 6.95834 22.2409Z" fill="#2FBCAF"/>
</svg>
