<svg width="88" height="34" viewBox="0 0 88 34" fill="none" xmlns="http://www.w3.org/2000/svg">
<path d="M54.9078 9.92527L47.7192 11.8128C47.0767 11.9834 47.0365 12.0236 46.4743 11.3811C45.8317 10.6481 45.3599 10.1763 44.4663 9.75459C41.7756 8.41928 39.1652 8.81084 36.7255 10.3971C33.814 12.2846 32.318 15.0757 32.3682 18.5495C32.4084 21.9832 34.7677 24.8144 38.1411 25.2863C41.0527 25.6678 43.4824 24.6438 45.4101 22.4551C45.7916 21.9832 46.1329 21.4711 46.5646 20.8687H38.3119C37.4183 20.8687 37.1974 20.3065 37.4986 19.5836C38.0508 18.2483 39.0849 16.0195 39.6773 14.9051C39.8078 14.644 40.109 14.2223 40.7415 14.2223H56.3033C56.213 15.3769 56.213 16.5416 56.0423 17.6961C55.5704 20.7884 54.4158 23.6197 52.5384 26.1096C49.4561 30.1858 45.4401 32.7158 40.3499 33.4086C36.1633 33.9708 32.2679 33.1475 28.8442 30.5773C25.6817 28.1678 23.8845 24.9951 23.4126 21.0495C22.8604 16.3709 24.2259 12.1642 27.0471 8.46948C30.0791 4.47361 34.1051 1.94355 39.0247 1.03996C43.0406 0.307049 46.896 0.778928 50.3597 3.1383C52.6287 4.64429 54.2552 6.70246 55.3194 9.19236C55.5805 9.57387 55.4098 9.79475 54.8877 9.92527H54.9078ZM10.5214 18.5997C10.3508 18.5997 10.3106 18.4692 10.3909 18.3387L10.9933 17.2644C11.0836 17.1339 11.2543 17.0034 11.425 17.0034H19.979C20.1497 17.0034 20.2401 17.1339 20.2401 17.3046L20.1497 18.3387C20.1497 18.5094 19.979 18.6399 19.8485 18.6399L10.5214 18.5997ZM0.170318 14.6541C-0.000360655 14.6541 -0.0405251 14.5637 0.039794 14.4432L0.933298 13.2886C1.02366 13.1581 1.23453 13.0778 1.4052 13.0778H20.9027C21.0733 13.0778 21.1637 13.2083 21.1135 13.3388L20.7721 14.3729C20.732 14.5436 20.5613 14.634 20.3906 14.634L0.160268 14.6741L0.170318 14.6541ZM6.62596 10.7084C6.45528 10.7084 6.41512 10.618 6.49544 10.4975L7.389 9.34296C7.47936 9.21244 7.69017 9.13211 7.86085 9.13211H23.1315C23.3022 9.13211 23.3424 9.26263 23.2621 9.39315L22.5392 10.5076C22.4488 10.6381 22.238 10.7686 22.1075 10.7686L6.62596 10.7285V10.7084Z" fill="#04ACD7"/>
<path d="M79.2323 16.3306C79.1922 15.7683 79.1922 15.3467 79.1018 14.915C78.3287 10.6681 74.4433 8.2585 70.3771 9.20225C66.4014 10.1058 63.8311 12.6359 62.8974 16.6719C62.1243 20.0253 63.7508 23.4087 66.833 24.7842C69.1824 25.8183 71.5317 25.6878 73.8007 24.5231C77.1741 22.7661 79.0215 20.0152 79.2323 16.3205V16.3306ZM69.0519 33.6695C65.1564 33.5791 61.6123 32.4647 58.6204 29.8945C56.1004 27.7058 54.5141 24.9147 54.0021 21.6116C53.229 16.7623 54.5542 12.4652 57.4658 8.65006C60.5882 4.5337 64.3532 2.38517 69.4434 1.48158C73.8008 0.708506 77.907 1.14022 81.6318 3.67027C85.0052 5.98949 87.1036 9.12193 87.6658 13.2383C88.3887 19.0313 86.7221 23.7601 82.7463 27.7861C79.9251 30.6575 76.4613 32.4647 72.4855 33.2779C71.3309 33.4888 70.1764 33.5389 69.0619 33.6594L69.0519 33.6695Z" fill="#04ACD7"/>
</svg>
