<?xml version="1.0" standalone="no"?>
<svg id="SearchFor Job" width="297" height="46" viewBox="0 0 297 46" fill="none" xmlns="http://www.w3.org/2000/svg" style="max-width: 100%; max-height: 100%;">
<rect x="1" y="1" width="295" height="44" rx="22" stroke="white" stroke-dasharray="0,0,0,639.3392944335938"><animate attributeType="XML" attributeName="stroke-dasharray" repeatCount="1" dur="2.5s" values="0,0,0,639.3392944335938; 
          0,319.6696472167969,319.6696472167969,0; 
          639.3392944335938,0,0,0" keyTimes="0; 0.5; 1" fill="freeze"></animate></rect>
<circle cx="258" cy="23" r="15" stroke="#E78448" stroke-dasharray="0,0,0,93.64045715332031"><animate attributeType="XML" attributeName="stroke-dasharray" repeatCount="1" dur="2.5s" values="0,0,0,93.64045715332031; 
          0,46.820228576660156,46.820228576660156,0; 
          93.64045715332031,0,0,0" keyTimes="0; 0.5; 1" fill="freeze"></animate></circle>
<path fill-rule="evenodd" clip-rule="evenodd" d="M262.838 19.529L253.38 28.9872L252.864 28.4709L262.322 19.0126L255.985 19.0126L255.985 18.1226L263.728 18.1226L263.729 25.8658L262.839 25.8659L262.838 19.529Z" fill="#E78448" stroke-dasharray="0,0,0,57.421669006347656"><animate attributeType="XML" attributeName="stroke-dasharray" repeatCount="1" dur="2.5s" values="0,0,0,57.421669006347656; 
          0,28.710834503173828,28.710834503173828,0; 
          57.421669006347656,0,0,0" keyTimes="0; 0.5; 1" fill="freeze"></animate></path>
<path d="M25.556 30.264C24.1773 30.264 23.048 30.0147 22.168 29.516C21.288 29.0027 20.562 28.35 19.99 27.558L21.332 26.458C21.9333 27.206 22.564 27.7633 23.224 28.13C23.8987 28.4967 24.698 28.68 25.622 28.68C26.7367 28.68 27.5873 28.4233 28.174 27.91C28.7607 27.3967 29.054 26.678 29.054 25.754C29.054 25.006 28.8413 24.4267 28.416 24.016C27.9907 23.5907 27.25 23.29 26.194 23.114L24.478 22.828C23.73 22.696 23.0993 22.498 22.586 22.234C22.0873 21.97 21.684 21.6547 21.376 21.288C21.068 20.9067 20.848 20.496 20.716 20.056C20.584 19.6013 20.518 19.132 20.518 18.648C20.518 17.24 20.98 16.1767 21.904 15.458C22.828 14.7393 24.0747 14.38 25.644 14.38C26.876 14.38 27.91 14.5853 28.746 14.996C29.5967 15.4067 30.2787 15.986 30.792 16.734L29.494 17.856C29.0687 17.2987 28.5553 16.844 27.954 16.492C27.3527 16.14 26.5753 15.964 25.622 15.964C24.5807 15.964 23.7813 16.184 23.224 16.624C22.6667 17.064 22.388 17.724 22.388 18.604C22.388 19.2933 22.5933 19.858 23.004 20.298C23.4293 20.7233 24.1847 21.0313 25.27 21.222L26.92 21.508C27.668 21.64 28.2987 21.838 28.812 22.102C29.3253 22.366 29.736 22.6813 30.044 23.048C30.3667 23.4147 30.594 23.8253 30.726 24.28C30.858 24.7347 30.924 25.2113 30.924 25.71C30.924 27.1327 30.4547 28.2473 29.516 29.054C28.592 29.8607 27.272 30.264 25.556 30.264ZM38.9894 30.264C38.1681 30.264 37.4274 30.1247 36.7674 29.846C36.1221 29.5673 35.5647 29.1713 35.0954 28.658C34.6407 28.13 34.2887 27.5067 34.0394 26.788C33.7901 26.0547 33.6654 25.2407 33.6654 24.346C33.6654 23.4367 33.7901 22.6153 34.0394 21.882C34.3034 21.1487 34.6627 20.5253 35.1174 20.012C35.5721 19.484 36.1147 19.0807 36.7454 18.802C37.3907 18.5233 38.1021 18.384 38.8794 18.384C39.6421 18.384 40.3314 18.5233 40.9474 18.802C41.5781 19.0807 42.1134 19.4693 42.5534 19.968C42.9934 20.452 43.3307 21.0313 43.5654 21.706C43.8001 22.3807 43.9174 23.1213 43.9174 23.928V24.764H35.5134V25.292C35.5134 25.7907 35.5941 26.2527 35.7554 26.678C35.9167 27.1033 36.1441 27.47 36.4374 27.778C36.7454 28.086 37.1121 28.328 37.5374 28.504C37.9774 28.6653 38.4614 28.746 38.9894 28.746C39.7521 28.746 40.4121 28.57 40.9694 28.218C41.5267 27.866 41.9521 27.382 42.2454 26.766L43.5434 27.646C43.2061 28.4087 42.6414 29.0393 41.8494 29.538C41.0721 30.022 40.1187 30.264 38.9894 30.264ZM38.8794 19.836C38.3954 19.836 37.9481 19.924 37.5374 20.1C37.1267 20.276 36.7674 20.518 36.4594 20.826C36.1661 21.134 35.9314 21.5007 35.7554 21.926C35.5941 22.3367 35.5134 22.7913 35.5134 23.29V23.444H42.0254V23.202C42.0254 22.7033 41.9447 22.2487 41.7834 21.838C41.6367 21.4273 41.4241 21.0753 41.1454 20.782C40.8814 20.474 40.5514 20.2393 40.1554 20.078C39.7741 19.9167 39.3487 19.836 38.8794 19.836ZM56.2728 30C55.5835 30 55.0921 29.824 54.7988 29.472C54.5055 29.12 54.3221 28.68 54.2488 28.152H54.1388C53.8895 28.812 53.4861 29.3327 52.9288 29.714C52.3861 30.0807 51.6528 30.264 50.7288 30.264C49.5408 30.264 48.5948 29.956 47.8908 29.34C47.1868 28.724 46.8348 27.8807 46.8348 26.81C46.8348 25.754 47.2161 24.94 47.9788 24.368C48.7561 23.796 50.0028 23.51 51.7188 23.51H54.1388V22.388C54.1388 21.552 53.9041 20.9287 53.4348 20.518C52.9655 20.0927 52.2981 19.88 51.4328 19.88C50.6701 19.88 50.0468 20.034 49.5628 20.342C49.0788 20.6353 48.6901 21.0387 48.3968 21.552L47.2088 20.672C47.3555 20.3787 47.5535 20.0927 47.8028 19.814C48.0521 19.5353 48.3601 19.2933 48.7268 19.088C49.0935 18.868 49.5115 18.6993 49.9808 18.582C50.4501 18.45 50.9708 18.384 51.5428 18.384C52.8775 18.384 53.9335 18.7213 54.7108 19.396C55.5028 20.0707 55.8988 21.0093 55.8988 22.212V28.46H57.4828V30H56.2728ZM51.0368 28.79C51.4915 28.79 51.9021 28.7387 52.2688 28.636C52.6501 28.5187 52.9801 28.372 53.2588 28.196C53.5375 28.0053 53.7501 27.7853 53.8968 27.536C54.0581 27.272 54.1388 26.9933 54.1388 26.7V24.83H51.7188C50.6628 24.83 49.8928 24.9767 49.4088 25.27C48.9248 25.5633 48.6828 25.9887 48.6828 26.546V27.008C48.6828 27.5947 48.8881 28.042 49.2988 28.35C49.7241 28.6433 50.3035 28.79 51.0368 28.79ZM60.2682 28.504H63.5902V20.144H60.2682V18.648H65.3502V21.508H65.4602C65.6949 20.6133 66.1349 19.9167 66.7802 19.418C67.4402 18.9047 68.2762 18.648 69.2882 18.648H70.8722V20.408H68.7382C67.7262 20.408 66.9049 20.7013 66.2742 21.288C65.6582 21.8747 65.3502 22.6447 65.3502 23.598V28.504H69.7502V30H60.2682V28.504ZM78.7616 30.264C77.9403 30.264 77.207 30.1247 76.5616 29.846C75.931 29.5527 75.3956 29.1493 74.9556 28.636C74.5156 28.1227 74.1783 27.4993 73.9436 26.766C73.7236 26.0327 73.6136 25.2187 73.6136 24.324C73.6136 23.4293 73.731 22.6153 73.9656 21.882C74.2003 21.1487 74.5376 20.5253 74.9776 20.012C75.4176 19.484 75.953 19.0807 76.5836 18.802C77.2143 18.5233 77.933 18.384 78.7396 18.384C79.8396 18.384 80.7343 18.626 81.4236 19.11C82.113 19.594 82.619 20.2247 82.9416 21.002L81.5336 21.75C81.3283 21.1633 80.9836 20.7087 80.4996 20.386C80.0303 20.0633 79.4436 19.902 78.7396 19.902C78.2263 19.902 77.7643 19.99 77.3536 20.166C76.9576 20.3273 76.6203 20.562 76.3416 20.87C76.063 21.178 75.8503 21.5447 75.7036 21.97C75.5716 22.3953 75.5056 22.8573 75.5056 23.356V25.292C75.5056 25.7907 75.5716 26.2527 75.7036 26.678C75.8503 27.1033 76.063 27.47 76.3416 27.778C76.6203 28.086 76.965 28.328 77.3756 28.504C77.7863 28.6653 78.2556 28.746 78.7836 28.746C79.5463 28.746 80.177 28.57 80.6756 28.218C81.1743 27.866 81.5703 27.382 81.8636 26.766L83.1176 27.624C82.7803 28.3867 82.2523 29.0173 81.5336 29.516C80.8296 30.0147 79.9056 30.264 78.7616 30.264ZM87.113 13.72H88.873V20.496H88.961C89.0784 20.2173 89.225 19.9533 89.401 19.704C89.577 19.44 89.7897 19.2127 90.039 19.022C90.303 18.8313 90.611 18.6773 90.963 18.56C91.315 18.4427 91.7257 18.384 92.195 18.384C93.383 18.384 94.3364 18.7653 95.055 19.528C95.7737 20.276 96.133 21.3393 96.133 22.718V30H94.373V23.026C94.373 21.9847 94.1457 21.2147 93.691 20.716C93.2364 20.2027 92.569 19.946 91.689 19.946C91.337 19.946 90.9924 19.99 90.655 20.078C90.3177 20.166 90.017 20.298 89.753 20.474C89.489 20.65 89.2764 20.8773 89.115 21.156C88.9537 21.4347 88.873 21.7573 88.873 22.124V30H87.113V13.72ZM113.166 28.504H116.994V20.144H112.946V18.648H116.994V16.316C116.994 15.5533 117.192 14.93 117.588 14.446C117.999 13.962 118.637 13.72 119.502 13.72H123.308V15.216H118.754V18.648H123.308V20.144H118.754V28.504H122.802V30H113.166V28.504ZM131.131 30.264C130.339 30.264 129.621 30.1247 128.975 29.846C128.345 29.5673 127.802 29.1713 127.347 28.658C126.907 28.13 126.57 27.5067 126.335 26.788C126.101 26.0547 125.983 25.2333 125.983 24.324C125.983 23.4293 126.101 22.6153 126.335 21.882C126.57 21.1487 126.907 20.5253 127.347 20.012C127.802 19.484 128.345 19.0807 128.975 18.802C129.621 18.5233 130.339 18.384 131.131 18.384C131.923 18.384 132.635 18.5233 133.265 18.802C133.911 19.0807 134.453 19.484 134.893 20.012C135.348 20.5253 135.693 21.1487 135.927 21.882C136.162 22.6153 136.279 23.4293 136.279 24.324C136.279 25.2333 136.162 26.0547 135.927 26.788C135.693 27.5067 135.348 28.13 134.893 28.658C134.453 29.1713 133.911 29.5673 133.265 29.846C132.635 30.1247 131.923 30.264 131.131 30.264ZM131.131 28.746C132.114 28.746 132.906 28.4527 133.507 27.866C134.109 27.2793 134.409 26.37 134.409 25.138V23.51C134.409 22.278 134.109 21.3687 133.507 20.782C132.906 20.1953 132.114 19.902 131.131 19.902C130.149 19.902 129.357 20.1953 128.755 20.782C128.154 21.3687 127.853 22.278 127.853 23.51V25.138C127.853 26.37 128.154 27.2793 128.755 27.866C129.357 28.4527 130.149 28.746 131.131 28.746ZM139.417 28.504H142.739V20.144H139.417V18.648H144.499V21.508H144.609C144.843 20.6133 145.283 19.9167 145.929 19.418C146.589 18.9047 147.425 18.648 148.437 18.648H150.021V20.408H147.887C146.875 20.408 146.053 20.7013 145.423 21.288C144.807 21.8747 144.499 22.6447 144.499 23.598V28.504H148.899V30H139.417V28.504ZM174.995 30C174.306 30 173.815 29.824 173.521 29.472C173.228 29.12 173.045 28.68 172.971 28.152H172.861C172.612 28.812 172.209 29.3327 171.651 29.714C171.109 30.0807 170.375 30.264 169.451 30.264C168.263 30.264 167.317 29.956 166.613 29.34C165.909 28.724 165.557 27.8807 165.557 26.81C165.557 25.754 165.939 24.94 166.701 24.368C167.479 23.796 168.725 23.51 170.441 23.51H172.861V22.388C172.861 21.552 172.627 20.9287 172.157 20.518C171.688 20.0927 171.021 19.88 170.155 19.88C169.393 19.88 168.769 20.034 168.285 20.342C167.801 20.6353 167.413 21.0387 167.119 21.552L165.931 20.672C166.078 20.3787 166.276 20.0927 166.525 19.814C166.775 19.5353 167.083 19.2933 167.449 19.088C167.816 18.868 168.234 18.6993 168.703 18.582C169.173 18.45 169.693 18.384 170.265 18.384C171.6 18.384 172.656 18.7213 173.433 19.396C174.225 20.0707 174.621 21.0093 174.621 22.212V28.46H176.205V30H174.995ZM169.759 28.79C170.214 28.79 170.625 28.7387 170.991 28.636C171.373 28.5187 171.703 28.372 171.981 28.196C172.26 28.0053 172.473 27.7853 172.619 27.536C172.781 27.272 172.861 26.9933 172.861 26.7V24.83H170.441C169.385 24.83 168.615 24.9767 168.131 25.27C167.647 25.5633 167.405 25.9887 167.405 26.546V27.008C167.405 27.5947 167.611 28.042 168.021 28.35C168.447 28.6433 169.026 28.79 169.759 28.79ZM192.732 32.904H198.232V20.144H192.534V18.648H199.992V31.804C199.992 32.5667 199.787 33.19 199.376 33.674C198.98 34.158 198.35 34.4 197.484 34.4H192.732V32.904ZM199.112 16.14C198.599 16.14 198.24 16.0373 198.034 15.832C197.829 15.612 197.726 15.3407 197.726 15.018V14.666C197.726 14.3433 197.829 14.0793 198.034 13.874C198.24 13.654 198.599 13.544 199.112 13.544C199.626 13.544 199.985 13.654 200.19 13.874C200.396 14.0793 200.498 14.3433 200.498 14.666V15.018C200.498 15.3407 200.396 15.612 200.19 15.832C199.985 16.0373 199.626 16.14 199.112 16.14ZM210.28 30.264C209.488 30.264 208.769 30.1247 208.124 29.846C207.493 29.5673 206.95 29.1713 206.496 28.658C206.056 28.13 205.718 27.5067 205.484 26.788C205.249 26.0547 205.132 25.2333 205.132 24.324C205.132 23.4293 205.249 22.6153 205.484 21.882C205.718 21.1487 206.056 20.5253 206.496 20.012C206.95 19.484 207.493 19.0807 208.124 18.802C208.769 18.5233 209.488 18.384 210.28 18.384C211.072 18.384 211.783 18.5233 212.414 18.802C213.059 19.0807 213.602 19.484 214.042 20.012C214.496 20.5253 214.841 21.1487 215.076 21.882C215.31 22.6153 215.428 23.4293 215.428 24.324C215.428 25.2333 215.31 26.0547 215.076 26.788C214.841 27.5067 214.496 28.13 214.042 28.658C213.602 29.1713 213.059 29.5673 212.414 29.846C211.783 30.1247 211.072 30.264 210.28 30.264ZM210.28 28.746C211.262 28.746 212.054 28.4527 212.656 27.866C213.257 27.2793 213.558 26.37 213.558 25.138V23.51C213.558 22.278 213.257 21.3687 212.656 20.782C212.054 20.1953 211.262 19.902 210.28 19.902C209.297 19.902 208.505 20.1953 207.904 20.782C207.302 21.3687 207.002 22.278 207.002 23.51V25.138C207.002 26.37 207.302 27.2793 207.904 27.866C208.505 28.4527 209.297 28.746 210.28 28.746ZM218.961 13.72H220.721V20.496H220.809C221.542 19.088 222.708 18.384 224.307 18.384C225.7 18.384 226.786 18.9047 227.563 19.946C228.355 20.9873 228.751 22.4467 228.751 24.324C228.751 26.2013 228.355 27.6607 227.563 28.702C226.786 29.7433 225.7 30.264 224.307 30.264C222.708 30.264 221.542 29.56 220.809 28.152H220.721V30H218.961V13.72ZM223.625 28.702C224.652 28.702 225.444 28.394 226.001 27.778C226.573 27.1473 226.859 26.3187 226.859 25.292V23.356C226.859 22.3293 226.573 21.508 226.001 20.892C225.444 20.2613 224.652 19.946 223.625 19.946C223.229 19.946 222.855 19.9973 222.503 20.1C222.151 20.2027 221.843 20.3567 221.579 20.562C221.315 20.7527 221.102 20.9947 220.941 21.288C220.794 21.5667 220.721 21.8967 220.721 22.278V26.37C220.721 26.7513 220.794 27.0887 220.941 27.382C221.102 27.6607 221.315 27.9027 221.579 28.108C221.843 28.2987 222.151 28.4453 222.503 28.548C222.855 28.6507 223.229 28.702 223.625 28.702Z" fill="white" stroke-dasharray="0,0,0,878.3492431640625"><animate attributeType="XML" attributeName="stroke-dasharray" repeatCount="1" dur="2.5s" values="0,0,0,878.3492431640625; 
          0,439.17462158203125,439.17462158203125,0; 
          878.3492431640625,0,0,0" keyTimes="0; 0.5; 1" fill="freeze"></animate></path>
<setting>{"type":"direct","speed":20,"random":1,"shift":1,"size":1,"rupture":50}</setting></svg>