<svg width="105" height="94" viewBox="0 0 105 94" fill="none" xmlns="http://www.w3.org/2000/svg">
<path d="M82.6544 20.8342C78.7196 20.8342 75.5195 17.6306 75.5195 13.6993C75.5195 9.76863 78.7237 6.56445 82.6544 6.56445C86.5851 6.56445 89.7893 9.76863 89.7893 13.6993C89.7893 17.63 86.5851 20.8342 82.6544 20.8342ZM82.6544 6.92221C78.9169 6.92221 75.8773 9.96178 75.8773 13.6993C75.8773 17.4369 78.9169 20.4765 82.6544 20.4765C86.392 20.4765 89.4315 17.4369 89.4315 13.6993C89.4315 9.96178 86.392 6.92221 82.6544 6.92221Z" stroke="black" stroke-width="3"/>
<path d="M73.3682 90.4052V91.9052H74.8682H89.1271H90.6271V90.4052V68.5475V67.0475H89.1271H74.8682H73.3682V68.5475V90.4052ZM90.806 92.2676H73.1847C73.0862 92.2676 73.0059 92.188 73.0059 92.0887V66.8732C73.0059 66.7747 73.0855 66.6943 73.1847 66.6943H90.806C90.9045 66.6943 90.9849 66.7739 90.9849 66.8732V92.0887C90.9849 92.1872 90.9053 92.2676 90.806 92.2676Z" stroke="black" stroke-width="3"/>
<path d="M82.0011 92.2674C81.9026 92.2674 81.8223 92.1878 81.8223 92.0885V66.8776C81.8223 66.7791 81.9019 66.6987 82.0011 66.6987C82.0977 66.6987 82.18 66.781 82.18 66.8776V92.0885C82.18 92.187 82.1004 92.2674 82.0011 92.2674Z" stroke="black" stroke-width="3"/>
<path d="M69.7933 28.9594C70.8875 26.7386 73.1891 25.3218 75.664 25.3218C77.0179 25.3218 77.5649 27.854 82.1229 27.854C86.6809 27.854 88.5677 25.3218 88.5677 25.3218C91.0423 25.3218 93.3437 26.7383 94.4381 28.9587L94.4388 28.9601L101.739 43.728C103.037 46.1796 102.31 49.2175 100.054 50.8345L100.053 50.8354C98.7534 51.7654 97.1575 52.0923 95.5859 51.7307C95.3288 51.672 89.9629 38.0752 89.7196 37.9828L96.4674 61.2991L96.4692 61.3105C96.604 62.189 96.3498 63.0802 95.7692 63.7572L95.762 63.7656C95.1842 64.431 94.3384 64.8243 93.4413 64.8243H93.0171L93.0102 64.8208H70.7939C69.9087 64.8208 69.0566 64.4398 68.4698 63.7582C67.8884 63.0863 67.6229 62.1845 67.7686 61.2905L67.7697 61.2842L74.5263 37.9828C74.0733 38.1504 68.4652 51.8041 67.9721 51.8511L67.9673 51.8515C66.1002 52.0243 64.2769 51.2606 63.0919 49.8096L63.091 49.8085C61.6477 48.0385 61.4896 45.5973 62.5607 43.6024L69.7933 28.9594Z" stroke="black" stroke-width="3.5" stroke-linejoin="round"/>
<path d="M101.654 92.2679H1.75895C1.66045 92.2679 1.58008 92.1883 1.58008 92.089C1.58008 91.9925 1.66238 91.9102 1.75895 91.9102H101.654C101.753 91.9102 101.833 91.9898 101.833 92.089C101.833 92.1856 101.751 92.2679 101.654 92.2679Z" stroke="black" stroke-width="3"/>
<path d="M20.7863 92.2674C20.6878 92.2674 20.6074 92.1878 20.6074 92.0885V63.5846C20.6074 63.4861 20.687 63.4058 20.7863 63.4058C20.8829 63.4058 20.9652 63.4881 20.9652 63.5846V92.0885C20.9652 92.187 20.8856 92.2674 20.7863 92.2674Z" stroke="black" stroke-width="3"/>
<path d="M10.8371 57.4829C10.7386 57.4829 10.6582 57.4032 10.6582 57.304V36.8522C10.6582 36.7537 10.7378 36.6733 10.8371 36.6733C10.9337 36.6733 11.016 36.7556 11.016 36.8522V57.304C11.016 57.4025 10.9363 57.4829 10.8371 57.4829Z" stroke="black" stroke-width="3"/>
<path d="M10.6592 58.9827V57.4827H9.15924H7.39249C5.38116 57.4827 3.74023 55.8417 3.74023 53.8304V32.9901C3.74023 27.1539 8.49379 22.4004 14.33 22.4004H27.243C33.0792 22.4004 37.8328 27.1539 37.8328 32.9901V53.8304C37.8328 55.8417 36.1918 57.4827 34.1805 57.4827H32.4137H30.9137V58.9827V92.0884C30.9137 92.1869 30.8341 92.2673 30.7349 92.2673H30.7302H14.0216V91.9049H29.0514H30.5514V90.4049V57.3038C30.5514 57.2053 30.631 57.1249 30.7302 57.1249H34.1805C35.994 57.1249 37.4704 55.6486 37.4704 53.835V32.9948C37.4704 27.3512 32.8809 22.7674 27.243 22.7674H14.33C8.68642 22.7674 4.10261 27.3569 4.10261 32.9948V53.835C4.10261 55.6486 5.57894 57.1249 7.39249 57.1249H10.8427C10.9412 57.1249 11.0216 57.2045 11.0216 57.3038V88.9049H10.6592V58.9827ZM11.4612 91.4704L12.2584 92.2673H10.8381C10.7396 92.2673 10.6592 92.1877 10.6592 92.0884V90.6688L11.4565 91.4658L11.4612 91.4704Z" stroke="black" stroke-width="3"/>
<path d="M30.7297 57.4829C30.6311 57.4829 30.5508 57.4032 30.5508 57.304V36.8522C30.5508 36.7537 30.6304 36.6733 30.7297 36.6733C30.8262 36.6733 30.9085 36.7556 30.9085 36.8522V57.304C30.9085 57.4025 30.8289 57.4829 30.7297 57.4829Z" stroke="black" stroke-width="3"/>
<path d="M28.5264 9.24076C28.5264 13.4189 25.1992 16.8344 21.0551 16.9769H20.7857C16.5215 16.9769 13.0449 13.504 13.0449 9.23613C13.0449 4.96878 16.5164 1.5 20.7857 1.5C25.054 1.5 28.5264 4.97243 28.5264 9.24076ZM20.7857 1.86238C16.7151 1.86238 13.4073 5.1702 13.4073 9.24076C13.4073 13.3113 16.7151 16.6191 20.7857 16.6191C24.8562 16.6191 28.1641 13.3113 28.1641 9.24076C28.1641 5.1702 24.8562 1.86238 20.7857 1.86238Z" stroke="black" stroke-width="3"/>
<path d="M30.7292 54.639H10.8371C10.7386 54.639 10.6582 54.5594 10.6582 54.4601C10.6582 54.3636 10.7405 54.2812 10.8371 54.2812H30.7292C30.8277 54.2812 30.9081 54.3609 30.9081 54.4601C30.9081 54.5567 30.8258 54.639 30.7292 54.639Z" stroke="black" stroke-width="3"/>
<path d="M42.6994 61.395C42.8797 61.395 43.0258 61.5412 43.0258 61.7214V70.4479L42.373 70.4481V61.7214C42.373 61.5412 42.5192 61.395 42.6994 61.395Z" stroke="#E68246" stroke-width="2"/>
<path d="M50.6584 72.0059C50.8387 72.0059 50.9848 72.152 50.9848 72.3323L50.9848 87.249L50.332 87.249L50.332 72.3323C50.332 72.152 50.4782 72.0059 50.6584 72.0059Z" stroke="#E68246" stroke-width="2"/>
<path d="M57.7326 61.395C57.9129 61.395 58.059 61.5412 58.059 61.7214V70.4479L57.4062 70.4481V61.7214C57.4062 61.5412 57.5524 61.395 57.7326 61.395Z" stroke="#E68246" stroke-width="2"/>
<path d="M43.8134 89.1337H56.6173H56.6203C57.2157 89.1337 57.7009 88.7245 57.7009 88.2169V71.5227H58.8381C60.666 71.5227 62.1544 68.8753 62.1544 67.3245V55.9439C62.1544 52.3044 58.6625 49.3418 54.3727 49.3418H46.061C41.7713 49.3418 38.2793 52.3044 38.2793 55.9439V67.3245C38.2793 68.8753 39.7678 71.5227 41.5956 71.5227H42.7328V88.2169C42.7328 88.722 43.2151 89.1337 43.8134 89.1337Z" stroke="#E68246" stroke-width="3"/>
<path d="M50.2166 44.0796C47.4163 44.0796 45.1328 41.7992 45.1328 38.9959C45.1328 36.1919 47.4126 33.9121 50.2166 33.9121C53.0205 33.9121 55.3003 36.1919 55.3003 38.9959C55.3003 41.7998 53.0205 44.0796 50.2166 44.0796ZM50.2166 34.0861C47.5064 34.0861 45.3068 36.2857 45.3068 38.9959C45.3068 41.706 47.5064 43.9056 50.2166 43.9056C52.9279 43.9056 55.1263 41.7004 55.1263 38.9959C55.1263 36.2901 52.9223 34.0861 50.2166 34.0861Z" stroke="#E68246" stroke-width="3"/>
</svg>
