<svg width="24" height="24" viewBox="0 0 24 24" fill="none" xmlns="http://www.w3.org/2000/svg">
<path d="M0.534279 20.8859C-0.178093 21.5983 -0.178093 22.7533 0.534279 23.4657C1.24675 24.1781 2.40171 24.1781 3.11408 23.4657L12 14.5797L20.886 23.4657C21.5984 24.1781 22.7533 24.1781 23.4657 23.4657C24.1781 22.7533 24.1782 21.5983 23.4657 20.8859L14.5797 12L23.4657 3.11408C24.1781 2.40171 24.1781 1.2467 23.4657 0.534279C22.7533 -0.178093 21.5984 -0.178093 20.8859 0.534279L11.9999 9.42023L3.11408 0.534329C2.40171 -0.178093 1.24675 -0.178093 0.534378 0.534329C-0.178093 1.2467 -0.178093 2.40171 0.534378 3.11408L9.42023 11.9999L0.534279 20.8859Z" fill="white"/>
</svg>
