<svg width="54" height="54" viewBox="0 0 54 54" fill="none" xmlns="http://www.w3.org/2000/svg">
<path d="M33.06 17.5751V15.1922C33.06 8.12455 27.3143 2.37606 20.2484 2.37606C13.1825 2.37606 7.43684 8.12455 7.43684 15.1922C7.43684 18.6756 8.86654 21.9697 11.3317 24.381L11.5686 24.6127L11.897 24.6571C12.1657 24.6935 12.375 24.8553 12.4661 25.1141C12.5801 25.4747 12.3813 25.8724 12.0243 25.996L12.0211 25.9971C11.7353 26.0972 9.48835 26.9515 7.1634 29.6077C4.8285 32.2753 2.47 36.6981 1.88869 43.8414L1.80072 44.9225H2.8854H19.2484V46.2648H1.68737C1.31197 46.2648 1 45.9532 1 45.5767C1 33.2614 6.22398 27.9786 9.3012 25.8953L10.2293 25.2669L9.49962 24.4162C7.30577 21.8583 6.0621 18.5937 6.0621 15.1922C6.0621 7.37155 12.4317 1 20.2484 1C28.0651 1 34.4347 7.37155 34.4347 15.1922C34.4347 15.9997 34.363 16.8084 34.2263 17.5971C34.0159 17.5964 33.8406 17.5921 33.6333 17.5871C33.4721 17.5831 33.2916 17.5787 33.06 17.5751ZM12.5471 29.7823L12.6653 29.7143L6.9655 41.1703C6.62818 41.0866 6.39514 40.7428 6.45335 40.3908C7.6644 33.221 11.2261 30.5437 12.5471 29.7823ZM44.3932 45.3762L43.7711 44.7538L43.0747 45.2917C40.9423 46.9387 38.3028 47.9359 35.4179 47.9359C28.5292 47.9359 22.9189 42.324 22.9189 35.4317C22.9189 28.5394 28.5292 22.9275 35.4179 22.9275C42.3065 22.9275 47.9168 28.5394 47.9168 35.4317C47.9168 38.3215 46.9346 40.96 45.2763 43.0884L44.7334 43.7853L45.3579 44.41L52.7823 51.8373L52.8816 51.9366C53.0633 52.2029 53.0359 52.5667 52.7992 52.8035C52.665 52.9377 52.505 53 52.3084 53C52.1375 53 51.963 52.9378 51.8069 52.7928L44.3932 45.3762ZM35.4347 28.0084C35.8101 28.0084 36.1221 28.32 36.1221 28.6965C36.1221 29.073 35.8101 29.3845 35.4347 29.3845C32.0979 29.3845 29.3726 32.1114 29.3726 35.4486C29.3726 35.8251 29.0607 36.1366 28.6853 36.1366C28.3099 36.1366 27.9979 35.8251 27.9979 35.4486C27.9979 31.3415 31.3302 28.0084 35.4347 28.0084ZM46.5589 35.4486C46.5589 29.3093 41.5726 24.3204 35.4347 24.3204C29.2969 24.3204 24.3105 29.3093 24.3105 35.4486C24.3105 41.5879 29.2969 46.5767 35.4347 46.5767C41.5726 46.5767 46.5589 41.5879 46.5589 35.4486ZM19.5611 6.75211C19.5611 6.37561 19.873 6.06408 20.2484 6.06408C25.281 6.06408 29.3726 10.1568 29.3726 15.1922C29.3726 15.5687 29.0607 15.8803 28.6853 15.8803C28.3099 15.8803 27.9979 15.5687 27.9979 15.1922C27.9979 10.9098 24.5302 7.44014 20.2484 7.44014C19.873 7.44014 19.5611 7.12861 19.5611 6.75211Z" stroke="#C77039" stroke-width="2"/>
</svg>
