<svg width="40" height="40" viewBox="0 0 40 40" fill="none" xmlns="http://www.w3.org/2000/svg">
<path d="M20 0C31.0468 0 40 9.0077 40 20.1218C40 30.167 32.6875 38.4908 23.125 40V25.9383L27.7852 25.9383L28.6719 20.1218H23.125V16.349C23.125 14.9563 23.7172 13.5937 25.5295 13.2748C25.7885 13.2292 26.0723 13.2049 26.3828 13.2049H28.9062L28.9063 8.25309C28.9063 8.25309 26.6172 7.86009 24.4297 7.86009C23.2156 7.86009 22.1135 8.05671 21.1495 8.44C18.4844 9.49962 16.875 11.9859 16.875 15.6887V20.1218H11.7969L11.7968 25.9383H16.875V40C7.3125 38.4909 0 30.1671 0 20.1218C0 9.0077 8.95317 0 20 0Z" fill="#1877F2"/>
</svg>
