<svg width="81" height="110" viewBox="0 0 81 110" fill="none" xmlns="http://www.w3.org/2000/svg">
<path d="M70.4962 43.2699C70.6746 43.0916 70.7638 42.8687 70.6969 42.6011C70.63 42.1999 70.2285 41.9546 69.8493 42.0438L66.7489 42.7126L65.2098 39.9929C65.0983 39.7923 64.8753 39.6362 64.6299 39.6139C64.2284 39.5693 63.8938 39.8591 63.8492 40.2381L63.5146 43.3814L60.4811 44.0279C60.2581 44.0725 60.035 44.2285 59.9235 44.4514C59.7451 44.8081 59.9235 45.2317 60.2804 45.3877L63.1578 46.6584L62.8232 49.8017C62.8232 50.0023 62.8678 50.2476 63.0462 50.4036C63.3362 50.6711 63.7823 50.6488 64.05 50.359L66.1467 48.0183L69.0017 49.289C69.2025 49.3781 69.4701 49.3781 69.6709 49.289C70.0055 49.0883 70.117 48.6425 69.9385 48.2858L68.3549 45.5661L70.4516 43.2699H70.4962Z" stroke="black" stroke-width="1.5" stroke-linecap="round" stroke-linejoin="round"/>
<path d="M63.8036 26.6395C63.9151 26.2382 63.692 25.8592 63.3128 25.7477L60.257 24.9452L60.1009 21.8688C60.1009 21.6236 59.9894 21.3784 59.7663 21.2223C59.4317 21.0217 59.0079 21.1108 58.7849 21.4452L57.0674 24.0981L54.0562 23.2955C53.8331 23.2064 53.5655 23.251 53.387 23.407C53.0971 23.6745 53.0302 24.1204 53.2755 24.4102L55.283 26.8624L53.5655 29.4706C53.4316 29.649 53.387 29.9165 53.4763 30.1394C53.6101 30.4961 54.0339 30.6967 54.3908 30.5407L57.335 29.4038L59.2979 31.856C59.4317 32.012 59.6548 32.1235 59.9001 32.1012C60.3016 32.0789 60.5916 31.7445 60.5693 31.3655L60.4132 28.2222L63.3128 27.1076C63.5359 27.0184 63.7143 26.8401 63.7589 26.6172L63.8036 26.6395Z" stroke="black" stroke-width="1.5" stroke-linecap="round" stroke-linejoin="round"/>
<path d="M63.3369 65.4521C63.5377 65.1177 63.4484 64.6941 63.1139 64.4712L60.4596 62.7546L61.2848 59.7451C61.3518 59.5222 61.3071 59.2547 61.151 59.0763C60.9057 58.7865 60.4595 58.7197 60.1473 58.9649L57.6937 60.9489L55.084 59.2324C54.9056 59.0986 54.6379 59.0541 54.4148 59.1432C54.058 59.2993 53.8572 59.7228 54.0134 60.0795L55.1509 63.0222L52.6973 64.9839C52.5189 65.1177 52.4297 65.3406 52.4297 65.5858C52.452 65.9871 52.7866 66.2992 53.1658 66.2546L56.3331 66.0763L57.4484 68.9743C57.5153 69.1973 57.6937 69.3756 57.9391 69.4425C58.3183 69.5539 58.7197 69.331 58.809 68.9297L59.612 65.8979L62.7124 65.7419C62.9354 65.7419 63.2031 65.6304 63.3369 65.4075V65.4521Z" stroke="black" stroke-width="1.5" stroke-linecap="round" stroke-linejoin="round"/>
<path d="M44.8915 70.3343C44.9362 69.933 44.6685 69.5986 44.267 69.5541L41.122 69.2197L40.4751 66.1656C40.4305 65.9203 40.2967 65.7197 40.0513 65.6082C39.6944 65.4522 39.2706 65.6082 39.1145 65.9649L37.8431 68.8407L34.7204 68.5063C34.4973 68.484 34.252 68.5732 34.0958 68.7292C33.8282 69.0413 33.8728 69.4649 34.1405 69.7324L36.4825 71.8502L35.2111 74.7037C35.0996 74.9043 35.0996 75.1718 35.2111 75.3725C35.4119 75.7292 35.858 75.8406 36.1925 75.64L38.9138 74.0572L41.2112 76.1081C41.3896 76.2865 41.635 76.3756 41.8804 76.3311C42.2818 76.2419 42.5272 75.8852 42.438 75.4839L41.7911 72.4075L44.4901 70.847C44.6908 70.7356 44.8469 70.5349 44.8692 70.2674L44.8915 70.3343Z" stroke="black" stroke-width="1.5" stroke-linecap="round" stroke-linejoin="round"/>
<path d="M44.7389 21.4457C45.0065 21.1559 44.9842 20.7101 44.6943 20.4425L42.3522 18.347L43.6236 15.4935C43.7351 15.2929 43.7351 15.0254 43.6236 14.8025C43.4229 14.4681 42.9768 14.3566 42.6422 14.5573L39.9209 16.14L37.6235 14.0668C37.4451 13.8885 37.1997 13.7993 36.9544 13.8439C36.5529 13.9331 36.3075 14.312 36.3967 14.7133L37.0659 17.812L34.367 19.3279C34.1662 19.4394 34.0101 19.6623 33.9655 19.9075C33.9209 20.3088 34.2108 20.6655 34.6123 20.7101L37.735 21.0444L38.3819 24.0763C38.4265 24.2992 38.5603 24.4998 38.8057 24.6113C39.1626 24.7896 39.5864 24.6113 39.7425 24.2546L41.0139 21.3788L44.1589 21.7132C44.382 21.7355 44.605 21.6686 44.7612 21.468L44.7389 21.4457Z" stroke="black" stroke-width="1.5" stroke-linecap="round" stroke-linejoin="round"/>
<path d="M25.4626 66.8337C25.7526 66.6107 25.8195 66.1426 25.5742 65.8305L23.589 63.3783L25.2619 60.7923C25.3957 60.5917 25.4626 60.3465 25.3734 60.1235C25.2396 59.7446 24.8158 59.5662 24.4366 59.7L21.4923 60.8369L19.5295 58.3847C19.3956 58.2064 19.1726 58.1172 18.9272 58.1172C18.5257 58.1395 18.2358 58.4739 18.2581 58.8528L18.4365 61.9961L15.5368 63.1108C15.3138 63.1999 15.1353 63.356 15.0684 63.6012C14.9792 63.9802 15.2023 64.3815 15.5814 64.4706L18.6373 65.2732L18.7934 68.3719C18.7934 68.5948 18.9049 68.8623 19.1057 68.9961C19.4402 69.1967 19.8863 69.1075 20.1094 68.7954L21.8269 66.1426L24.8381 66.9451C25.0611 67.0343 25.3288 66.9897 25.5072 66.8337H25.4626Z" stroke="black" stroke-width="1.5" stroke-linecap="round" stroke-linejoin="round"/>
<path d="M25.042 27.3549C25.2205 27.1988 25.332 26.9536 25.3097 26.7084C25.3097 26.2848 24.9305 25.9504 24.5067 25.9727L21.094 26.1733L19.8895 23.0078C19.8003 22.7625 19.6219 22.5842 19.3542 22.495C18.9304 22.4059 18.5066 22.6288 18.3951 23.0524L17.5029 26.3517L14.1571 26.53C13.8895 26.53 13.6218 26.6415 13.4657 26.8867C13.2426 27.2434 13.3541 27.7115 13.6887 27.9568L16.5661 29.8071L15.6739 33.0618C15.5846 33.307 15.6293 33.5745 15.8077 33.7975C16.0754 34.1319 16.5661 34.1987 16.9007 33.9089L19.555 31.7688L22.3654 33.5968C22.5662 33.7306 22.8561 33.7975 23.1015 33.686C23.503 33.5522 23.7037 33.0841 23.5476 32.7051L22.3208 29.5173L24.9751 27.3771L25.042 27.3549Z" stroke="black" stroke-width="1.5" stroke-linecap="round" stroke-linejoin="round"/>
<path d="M18.8844 45.7676C19.0182 45.411 18.8844 44.9651 18.5052 44.8091L15.6278 43.5384L15.9624 40.4174C15.9847 40.1944 15.8955 39.9715 15.717 39.8155C15.4271 39.548 14.981 39.5925 14.7133 39.8601L12.5943 42.2231L9.73926 40.9524C9.53851 40.8409 9.29315 40.8409 9.0701 40.9747C8.73552 41.1753 8.60169 41.5989 8.80244 41.9333L10.3861 44.653L8.33403 46.9492C8.15559 47.1275 8.06637 47.3727 8.11098 47.6179C8.2002 47.9969 8.57939 48.2421 8.95857 48.1753L12.059 47.5288L13.6204 50.2262C13.7319 50.4268 13.9326 50.5829 14.178 50.6052C14.5795 50.6498 14.9141 50.3599 14.9587 49.9587L15.2932 46.8377L18.3267 46.1912C18.5721 46.1689 18.7952 46.0129 18.8844 45.7899V45.7676Z" stroke="black" stroke-width="1.5" stroke-linecap="round" stroke-linejoin="round"/>
<path d="M49.3802 40.2158V54.0596C49.3802 55.3303 48.3318 56.3781 47.0604 56.3781H29.9077C28.7256 56.3781 27.7441 55.3972 27.7441 54.2157V40.2381H49.3579L49.3802 40.2158Z" stroke="black" stroke-width="1.3" stroke-linecap="round" stroke-linejoin="round"/>
<path d="M45.2988 36.7384V40.2161H31.8711V36.7384C31.8711 33.0378 34.8823 30.0283 38.5849 30.0283C42.2876 30.0283 45.2988 33.0601 45.2988 36.7384V36.7384Z" stroke="black" stroke-width="1.3" stroke-linecap="round" stroke-linejoin="round"/>
<path d="M1.42079 9.42207C15.619 11.7257 28.5569 9.04074 40.1709 1.54945C50.1015 9.4934 63.4441 11.3951 78.9092 9.36753C78.9213 16.7121 79.0244 22.9888 79.1194 28.413C79.1257 28.7744 79.132 29.132 79.1382 29.4858C79.2316 34.7894 79.3099 39.2431 79.2761 43.0872C79.2038 51.3026 78.6154 56.5614 76.6659 61.1385C74.7186 65.7106 71.3578 69.7312 65.4462 75.3393C62.2815 78.3415 58.4485 81.743 53.7735 85.8918C49.8884 89.3396 45.4216 93.3036 40.2735 97.9834C34.9727 93.199 30.3778 89.183 26.4003 85.7132L25.766 85.1599C21.8549 81.7486 18.5677 78.8814 15.7936 76.3186C9.94124 70.912 6.49729 66.9687 4.41662 62.3673C2.33463 57.7629 1.56098 52.3736 1.33268 43.9546C1.19807 38.9907 1.25261 33.0558 1.32035 25.685C1.36425 20.909 1.41368 15.5302 1.42079 9.42207Z" stroke="black" stroke-width="2.5" stroke-linecap="round" stroke-linejoin="round"/>
<path d="M45.2955 40.2158H49.3997V54.0596C49.3997 55.3303 48.3513 56.3781 47.08 56.3781H29.9273C28.7451 56.3781 27.7637 55.3972 27.7637 54.2157V40.2381H31.8678" stroke="#C77039" stroke-width="2" stroke-linecap="round" stroke-linejoin="round"/>
<path d="M31.8711 40.2161V36.7384C31.8711 33.0378 34.8823 30.0283 38.5849 30.0283C42.2876 30.0283 45.2988 33.0601 45.2988 36.7384V40.2161H31.8711V40.2161Z" stroke="#C77039" stroke-width="2" stroke-linecap="round" stroke-linejoin="round"/>
<path d="M35.0566 51.7412L38.5809 48.2858L42.1051 44.8081" stroke="#C77039" stroke-width="1.3" stroke-linecap="round" stroke-linejoin="round"/>
<path d="M42.1051 51.7412L38.5809 48.2858L35.0566 44.8081" stroke="#C77039" stroke-width="1.3" stroke-linecap="round" stroke-linejoin="round"/>
<path d="M16.2988 104.821H57.6526" stroke="black" stroke-width="1.3" stroke-linecap="round" stroke-linejoin="round"/>
<path d="M61.1777 104.821H64.2112" stroke="black" stroke-width="1.3" stroke-linecap="round" stroke-linejoin="round"/>
<path d="M53.2178 108.5H30.8457" stroke="black" stroke-width="1.3" stroke-linecap="round" stroke-linejoin="round"/>
<path d="M28.9436 108.5H27.293" stroke="black" stroke-width="1.3" stroke-linecap="round" stroke-linejoin="round"/>
</svg>
