<svg width="85" height="101" viewBox="0 0 85 101" fill="none" xmlns="http://www.w3.org/2000/svg">
<path d="M70.4651 99.0706V90.2425L72.8412 72.8242L74.2389 59.9291L74.3986 58.4213C74.3986 55.9018 72.342 53.8386 69.7862 53.8386C68.9875 53.8386 68.2288 54.037 67.5699 54.3941V53.422C67.5699 50.8826 65.5132 48.8393 62.9574 48.8393C61.7195 48.8393 60.6013 49.3352 59.7627 50.1089V49.8312C59.7627 47.2919 57.7061 45.2485 55.1503 45.2485C53.7526 45.2485 52.4946 45.8635 51.656 46.8356V32.155C51.656 29.6156 50.0187 27.5723 47.4629 27.5723C44.9071 27.5723 43.1899 29.7744 43.1899 32.3137V69.0548L35.263 58.3221C33.8453 56.2192 30.97 55.6637 28.8535 57.0921C26.737 58.5007 26.1779 61.3574 27.5956 63.4603L45.7657 90.2425V99.0706" stroke="#C77039" stroke-width="3" stroke-linecap="round" stroke-linejoin="round"/>
<path d="M79.7522 63.3212C81.5492 63.3212 83.0069 61.873 83.0069 60.0875V5.23369C83.0069 3.44822 81.5492 2 79.7522 2H5.25465C3.4576 2 2 3.44822 2 5.23369V60.0676C2 61.8531 3.4576 63.3013 5.25465 63.3013H20.4896" stroke="black" stroke-width="3" stroke-linecap="round" stroke-linejoin="round"/>
<path d="M33.5299 14.5186H13.6426V29.6951H33.5299V14.5186Z" stroke="black" stroke-width="2" stroke-linecap="round" stroke-linejoin="round"/>
<path d="M72.0674 22.0967H58.8691V39.1976H72.0674V22.0967Z" stroke="black" stroke-width="2" stroke-linecap="round" stroke-linejoin="round"/>
<path d="M13.6426 35.1699H33.5299" stroke="black" stroke-width="1.5" stroke-linecap="round" stroke-linejoin="round"/>
<path d="M13.6426 40.2695H33.5299" stroke="black" stroke-width="1.5" stroke-linecap="round" stroke-linejoin="round"/>
<path d="M54.2935 19.6172H39.957" stroke="black" stroke-width="1.5" stroke-linecap="round" stroke-linejoin="round"/>
<path d="M72.0842 14.5186H39.957" stroke="black" stroke-width="1.5" stroke-linecap="round" stroke-linejoin="round"/>
<path d="M13.6426 45.3677H33.5299" stroke="black" stroke-width="1.5" stroke-linecap="round" stroke-linejoin="round"/>
</svg>
