<svg width="200" height="67" viewBox="0 0 201 68" fill="none" xmlns="http://www.w3.org/2000/svg">
<path d="M39.5976 49.0253C37.639 49.0254 35.7295 49.6379 34.1364 50.7771L26.8185 43.4213C28.9941 40.7421 30.1809 37.3955 30.1792 33.9441C30.1842 30.5819 29.0598 27.3154 26.9865 24.6686L34.3885 17.2834C35.9309 18.312 37.7436 18.8602 39.5976 18.8588C42.0638 18.8067 44.4115 17.7904 46.1372 16.0278C47.863 14.2653 48.8295 11.8967 48.8295 9.42987C48.8295 6.96308 47.863 4.59448 46.1372 2.83189C44.4115 1.0693 42.0638 0.0530359 39.5976 0.000976563V0.000976562C37.896 0.00115944 36.2262 0.461895 34.7653 1.33431C33.3044 2.20673 32.1069 3.4583 31.2998 4.95625C30.4927 6.45421 30.106 8.14269 30.1809 9.84261C30.2558 11.5425 30.7894 13.1905 31.7251 14.6117L24.3063 22.0052C21.6616 19.9573 18.4093 18.85 15.0644 18.8588C11.0671 18.8643 7.23549 20.4561 4.41098 23.2846C1.58646 26.113 -3.87472e-06 29.9469 0 33.9441H0C-7.68406e-08 35.925 0.390225 37.8864 1.14839 39.7164C1.90655 41.5464 3.0178 43.2092 4.41866 44.6096C5.81952 46.0101 7.48256 47.1209 9.31277 47.8785C11.143 48.6362 13.1045 49.0259 15.0854 49.0253C18.3344 49.0314 21.4978 47.9833 24.1005 46.0385L31.5655 53.5329C30.6545 55.0136 30.1717 56.7178 30.1708 58.4563C30.1708 60.9565 31.1639 63.3542 32.9318 65.1221C34.6997 66.8899 37.0974 67.8831 39.5976 67.8831C42.0977 67.8831 44.4954 66.8899 46.2633 65.1221C48.0312 63.3542 49.0243 60.9565 49.0243 58.4563C49.0249 57.218 48.7815 55.9917 48.308 54.8476C47.8345 53.7034 47.1402 52.6637 46.2648 51.7879C45.3894 50.9121 44.35 50.2173 43.206 49.7433C42.062 49.2693 40.8358 49.0253 39.5976 49.0253Z" fill="#1B55A3"/>
<path d="M58.4847 5.94922H56.5312V20.4297H58.4847V5.94922Z" fill="#1B55A3"/>
<path d="M58.9546 1.34927C58.9497 1.16647 58.9087 0.986443 58.8339 0.819557C58.7592 0.65267 58.6521 0.502223 58.519 0.376881C58.3858 0.251539 58.2292 0.153779 58.0581 0.0892323C57.887 0.0246851 57.7048 -0.00537374 57.522 0.000786997C57.1502 -0.0048435 56.7913 0.136919 56.5237 0.395101C56.256 0.653282 56.1015 1.00689 56.0938 1.37868C56.117 1.74468 56.2798 2.08783 56.5485 2.33742C56.8172 2.58701 57.1714 2.72404 57.5381 2.72027C57.9048 2.7165 58.2561 2.57222 58.5197 2.31716C58.7832 2.06209 58.9388 1.71568 58.9546 1.34927Z" fill="#1B55A3"/>
<path d="M63.139 12.8302C63.139 9.52832 65.0924 7.60012 68.2052 7.60012C70.961 7.60012 72.5573 9.16705 72.5573 12.2211V20.4296H74.5108V12.0279C74.5108 7.86897 72.0869 5.83154 68.5623 5.83154C66.0418 5.83154 64.1052 6.85236 63.0591 8.61253V5.94917H61.1855V20.4296H63.139V12.8302Z" fill="#1B55A3"/>
<path d="M77.3963 16.3548C77.3963 19.0266 78.9129 20.5557 81.635 20.5557C82.7435 20.5903 83.8279 20.2283 84.6933 19.5349L84.0169 18.1444C83.4141 18.6529 82.6461 18.9234 81.8577 18.9047C80.2319 18.9047 79.3371 17.9679 79.3371 16.2624V7.60016H83.7397V5.94921H79.3539V2.78174H77.3963V5.94921H74.8086V7.60016H77.3963V16.3548Z" fill="#1B55A3"/>
<path d="M91.1056 20.5851C93.3908 20.5851 95.4031 19.7449 96.6969 18.2158L95.5963 16.9555C95.0382 17.5726 94.3521 18.0604 93.5858 18.3848C92.8196 18.7091 91.9917 18.8622 91.1602 18.8333C87.9927 18.8333 85.699 16.8211 85.4596 13.7922H97.5749C97.5749 13.5696 97.6001 13.3511 97.6001 13.1831C97.6001 8.83518 94.6595 5.83154 90.5804 5.83154C86.5014 5.83154 83.502 8.88979 83.502 13.1831C83.502 17.4764 86.5938 20.5851 91.1056 20.5851ZM90.5846 7.5329C93.4202 7.5329 95.4871 9.51572 95.7349 12.3513H85.4638C85.699 9.49892 87.7743 7.5161 90.5846 7.5161V7.5329Z" fill="#1B55A3"/>
<path d="M100.797 13.0489C100.797 9.63774 102.642 7.70953 105.67 7.70953C105.809 7.70953 105.973 7.73894 106.137 7.73894V5.83594C103.465 5.83594 101.621 6.85675 100.713 8.77656V5.94936H98.8398V20.4298H100.797V13.0489Z" fill="#1B55A3"/>
<path d="M112.768 20.585C115.222 20.585 117.284 19.5936 118.44 17.72L116.982 16.7286C116.514 17.4029 115.884 17.9487 115.15 18.3157C114.416 18.6828 113.601 18.8593 112.781 18.8291C109.618 18.8291 107.32 16.5984 107.32 13.1831C107.32 9.76777 109.605 7.5623 112.768 7.5623C113.592 7.54026 114.408 7.72521 115.142 8.10024C115.876 8.47526 116.504 9.02838 116.969 9.70895L118.427 8.71754C117.272 6.81874 115.209 5.85254 112.756 5.85254C108.433 5.85254 105.295 8.88138 105.295 13.2041C105.295 17.5268 108.446 20.585 112.768 20.585Z" fill="#1B55A3"/>
<path d="M125.187 20.585C129.43 20.585 132.539 17.5016 132.539 13.2041C132.539 8.90658 129.43 5.85254 125.187 5.85254C120.944 5.85254 117.811 8.91078 117.811 13.2041C117.811 17.4974 120.944 20.585 125.187 20.585ZM125.187 7.5623C128.271 7.5623 130.556 9.81818 130.556 13.2041C130.556 16.59 128.267 18.8333 125.187 18.8333C122.108 18.8333 119.793 16.5732 119.793 13.1873C119.793 9.80137 122.1 7.5623 125.187 7.5623Z" fill="#1B55A3"/>
<path d="M135.727 12.8302C135.727 9.52832 137.681 7.60012 140.789 7.60012C143.545 7.60012 145.141 9.16705 145.141 12.2211V20.4296H147.099V12.0279C147.099 7.86897 144.675 5.83154 141.15 5.83154C138.63 5.83154 136.689 6.85236 135.643 8.61253V5.94917H133.77V20.4296H135.727V12.8302Z" fill="#1B55A3"/>
<path d="M151.607 12.8302C151.607 9.52832 153.564 7.60012 156.673 7.60012C159.429 7.60012 161.025 9.16705 161.025 12.2211V20.4296H162.995V12.0279C162.995 7.86897 160.571 5.83154 157.047 5.83154C154.526 5.83154 152.59 6.85236 151.544 8.61253V5.94917H149.67V20.4296H151.623L151.607 12.8302Z" fill="#1B55A3"/>
<path d="M171.728 20.5851C174.014 20.5851 176.026 19.7449 177.32 18.2158L176.219 16.9555C175.663 17.576 174.977 18.0675 174.211 18.3955C173.445 18.7235 172.616 18.8801 171.783 18.8543C168.62 18.8543 166.322 16.8421 166.087 13.8133H178.03C178.311 17.8083 181.348 20.5851 185.465 20.5851C187.914 20.5851 189.981 19.5937 191.136 17.7201L189.679 16.7287C189.211 17.403 188.581 17.9487 187.847 18.3158C187.113 18.6828 186.298 18.8593 185.478 18.8291C182.31 18.8291 180.017 16.5985 180.017 13.1831C180.017 9.76781 182.319 7.56235 185.465 7.56235C186.289 7.54031 187.105 7.72526 187.839 8.10029C188.573 8.47531 189.201 9.02843 189.666 9.709L191.141 8.70079C190.893 8.29665 190.594 7.92664 190.25 7.60016H192.708V16.3548C192.708 19.0266 194.22 20.5557 196.946 20.5557C198.055 20.5903 199.139 20.2283 200.004 19.5349L199.316 18.1318C198.716 18.6422 197.952 18.917 197.165 18.9047C195.539 18.9047 194.644 17.9679 194.644 16.2624V7.60016H199.051V5.94921H194.657V2.78174H192.703V5.94921H190.116V7.46153C188.825 6.35499 187.164 5.77464 185.465 5.83578C181.613 5.83578 178.706 8.24709 178.118 11.8304C177.572 8.22609 174.841 5.83578 171.207 5.83578C167.133 5.83578 164.129 8.89403 164.129 13.1873C164.129 17.4806 167.217 20.5851 171.728 20.5851ZM171.207 7.53294C174.043 7.53294 176.106 9.51576 176.353 12.3514H166.087C166.355 9.49896 168.397 7.51614 171.207 7.51614V7.53294Z" fill="#1B55A3"/>
<path d="M74.6161 28.0757H56.5312V67.8833H74.6161C87.6388 67.8833 96.5699 60.036 96.5699 47.9795C96.5699 35.9229 87.6388 28.0757 74.6161 28.0757ZM74.1624 60.3217H65.7606V35.6373H74.1624C82.0684 35.6373 87.2439 40.3591 87.2439 47.9795C87.2439 55.5999 82.0684 60.3217 74.1624 60.3217Z" fill="#1B55A3"/>
<path d="M109.757 28.0757L92 67.8833H101.452L104.981 59.3513H123.465L126.993 67.8833H136.655L118.856 28.0757H109.757ZM107.938 52.3568L114.239 37.116L120.541 52.3568H107.938Z" fill="#1B55A3"/>
<path d="M163.322 28.0757H128.631V35.5827H141.368V67.8833H150.58V35.5827H163.322V28.0757Z" fill="#1B55A3"/>
<path d="M173.098 28.0757L155.357 67.8833H164.797L168.321 59.3513H186.805L190.33 67.8833H199.992L182.197 28.0757H173.098ZM171.279 52.3568L177.58 37.116L183.881 52.3568H171.279Z" fill="#1B55A3"/>
</svg>
